<svg width="56" height="56" viewBox="0 0 56 56" fill="none" xmlns="http://www.w3.org/2000/svg">
<rect x="55.5" y="55.5" width="55" height="55" rx="4.5" transform="rotate(-180 55.5 55.5)" stroke="url(#paint0_linear)"/>
<path d="M27.5667 36.4076V36.5063V42.9063V43.0163L27.4571 43.0058C24.3427 42.7063 21.6646 39.8616 20.1541 35.7732L20.094 35.6106L20.2649 35.64L21.5843 35.8673L27.5667 36.4076ZM27.5667 36.4076L27.468 36.4063M27.5667 36.4076L27.468 36.4063M27.468 36.4063C25.4956 36.3803 23.5285 36.2 21.5844 35.8673L27.468 36.4063ZM28.4333 36.4076L28.532 36.4063C30.5041 36.3803 32.471 36.2 34.415 35.8674L28.4333 36.4076ZM28.4333 36.4076V36.5063V42.9057V43.0158L28.5429 43.0053C31.6573 42.7074 34.3354 39.8616 35.8459 35.7721L35.906 35.6094L35.735 35.639L34.4152 35.8673L28.4333 36.4076ZM41.8548 33.7038L41.9095 33.6943L41.9304 33.6429C42.5906 32.0182 42.9594 30.2897 43.02 28.5368L43.0236 28.4333H42.9201H38.1247H38.0265L38.0248 28.5316C37.9897 30.5027 37.7097 32.4619 37.191 34.3641L37.1497 34.5156L37.3045 34.4889L41.8548 33.7038ZM13.0799 28.4333H12.9764L12.98 28.5368C13.0406 30.2897 13.4094 32.0182 14.0696 33.6429L14.0905 33.6943L14.1452 33.7038L18.6955 34.4889L18.8503 34.5156L18.809 34.3641C18.2903 32.4619 18.0103 30.5027 17.9752 28.5316L17.9735 28.4333H17.8753H13.0799ZM14.1452 22.2962L14.0905 22.3057L14.0696 22.3571C13.4094 23.9818 13.0406 25.7103 12.98 27.4632L12.9764 27.5667H13.0799H17.8753H17.9735L17.9752 27.4684C18.0103 25.4973 18.2903 23.5381 18.809 21.6359L18.8503 21.4844L18.6955 21.5111L14.1452 22.2962ZM28.5346 20.4633L28.4333 20.462V20.5633V27.4667V27.5667H28.5333H37.0586H37.1604L37.1586 27.4649C37.1227 25.4047 36.8102 23.3588 36.2293 21.382L36.2117 21.3222L36.1503 21.3116L34.2678 20.9869L34.2676 20.9868C32.3732 20.6628 30.4562 20.4878 28.5346 20.4633ZM28.4333 19.4966V19.5954L28.5321 19.5966C30.5042 19.621 32.4716 19.8005 34.4156 20.1327C34.4157 20.1327 34.4157 20.1327 34.4157 20.1327L35.7349 20.3626L35.9061 20.3924L35.8459 20.2294C34.3354 16.141 31.6573 13.2963 28.5429 12.9971L28.4333 12.9865V13.0966V19.4966ZM27.4679 19.5966L27.5667 19.5954V19.4966V13.0943V12.9842L27.4571 12.9947C24.3427 13.2926 21.6646 16.1384 20.1541 20.2279L20.094 20.3906L20.265 20.361L21.5848 20.1327C23.5289 19.8005 25.4958 19.621 27.4679 19.5966ZM21.7329 20.9868L21.7327 20.9869L19.8497 21.3116L19.7883 21.3222L19.7707 21.382C19.1898 23.3588 18.8773 25.4047 18.8414 27.4649L18.8397 27.5667H18.9414H27.4667H27.5667V27.4667V20.5633V20.462L27.4654 20.4633C25.5438 20.4878 23.6271 20.6628 21.7329 20.9868ZM18.9414 28.4333H18.8397L18.8414 28.5351C18.8773 30.5953 19.1898 32.6412 19.7707 34.618L19.7883 34.6778L19.8497 34.6884L21.7322 35.0131L21.7324 35.0132C23.6268 35.3372 25.5438 35.5122 27.4654 35.5367L27.5667 35.538V35.4367V28.5333V28.4333H27.4667H18.9414ZM34.2671 35.0132L34.2673 35.0131L36.1503 34.6884L36.2117 34.6778L36.2293 34.618C36.8102 32.6412 37.1227 30.5953 37.1586 28.5351L37.1604 28.4333H37.0586H28.5333H28.4333V28.5333V35.4367V35.538L28.5346 35.5367C30.4562 35.5122 32.3729 35.3372 34.2671 35.0132ZM38.0248 27.4684L38.0265 27.5667H38.1247H42.9201H43.0236L43.02 27.4632C42.9594 25.7103 42.5906 23.9818 41.9304 22.3571L41.9095 22.3057L41.8548 22.2962L37.3045 21.5111L37.1497 21.4844L37.191 21.6359C37.7097 23.5381 37.9897 25.4973 38.0248 27.4684ZM41.2812 21.3178L41.4784 21.3519L41.3872 21.1737C39.5849 17.6548 36.475 14.9832 32.7249 13.7317L32.6265 13.901C34.6051 15.6751 36.0621 17.9553 36.8409 20.496L36.8589 20.5548L36.9195 20.5652L41.2812 21.3178ZM23.3735 13.901L23.2751 13.7317C19.525 14.9832 16.4151 17.6548 14.6128 21.1737L14.5216 21.3519L14.7188 21.3178L19.0805 20.5652L19.1411 20.5548L19.1592 20.496C19.9379 17.9553 21.3949 15.6751 23.3735 13.901ZM14.7188 34.6822L14.5216 34.6481L14.6128 34.8263C16.4151 38.3452 19.525 41.0168 23.2751 42.2683L23.3735 42.099C21.3949 40.3249 19.9379 38.0447 19.1592 35.504L19.1411 35.4452L19.0805 35.4348L14.7188 34.6822ZM32.6265 42.099L32.7249 42.2683C36.475 41.0168 39.5849 38.3452 41.3872 34.8263L41.4784 34.6481L41.2812 34.6822L36.9195 35.4348L36.8589 35.4452L36.8409 35.504C36.0621 38.0447 34.6051 40.3249 32.6265 42.099ZM12.1 28C12.1 19.2188 19.2187 12.1 27.9999 12.1C36.7771 12.1099 43.8902 19.223 43.9 28.0001C43.8999 36.7813 36.7812 43.9 28 43.9C19.2188 43.9 12.1 36.7812 12.1 28Z" fill="url(#paint1_linear)" stroke="#1B2038" stroke-width="0.2"/>
<defs>
<linearGradient id="paint0_linear" x1="56" y1="84" x2="112" y2="84" gradientUnits="userSpaceOnUse">
<stop offset="0.0520833" stop-color="#FF8C3E" stop-opacity="0"/>
<stop offset="1" stop-color="#FF5968"/>
</linearGradient>
<linearGradient id="paint1_linear" x1="12" y1="28" x2="44" y2="28" gradientUnits="userSpaceOnUse">
<stop stop-color="#FF8D3D"/>
<stop offset="1" stop-color="#FF5969"/>
</linearGradient>
</defs>
</svg>
