<svg width="56" height="56" viewBox="0 0 56 56" fill="none" xmlns="http://www.w3.org/2000/svg">
<rect x="0.5" y="55.5" width="55" height="55" rx="4.5" transform="rotate(-90 0.5 55.5)" stroke="url(#paint0_linear)"/>
<path d="M43.5282 34.8688L43.4574 34.9395C41.5721 33.0537 40.4772 31.6277 39.8576 29.9122C39.2391 28.1994 39.098 26.2076 39.098 23.2C39.098 17.0696 34.1295 12.1 28.0002 12.1C21.8709 12.1 16.9023 17.0696 16.9023 23.2C16.9023 26.4433 16.8163 27.6672 16.3653 29.169L43.5282 34.8688ZM43.5282 34.8688L43.4575 34.9395C44.4025 35.8845 43.7334 37.5 42.3969 37.5H33.518H33.4074L33.4185 37.61L33.4985 38.405C33.4958 41.4403 31.0349 43.9 27.9996 43.9C24.9643 43.9 22.5034 41.4403 22.5007 38.405L22.5807 37.61L22.5918 37.5M43.5282 34.8688L22.5918 37.5M22.5918 37.5H22.4812M22.5918 37.5H22.4812M22.4812 37.5H13.6029C12.2669 37.5 11.5978 35.8845 12.5423 34.9395C14.6523 32.8285 15.8037 31.0419 16.3652 29.169L22.4812 37.5ZM23.9017 38.39L23.9012 38.3899V38.4C23.9012 40.6638 25.7369 42.5 28.0007 42.5C30.2645 42.5 32.1002 40.6638 32.1002 38.4L32.1007 38.4L32.0997 38.3898L32.0181 37.5898L32.0089 37.5H31.9186H24.0818H23.9914L23.9823 37.59L23.9017 38.39ZM13.5326 35.9293L13.362 36.1H13.6034H42.3975H42.6389L42.4682 35.9293C40.077 33.5376 38.8881 31.5514 38.2942 29.5713C37.6993 27.5878 37.6985 25.6028 37.6985 23.2C37.698 17.8435 33.3562 13.5 28.0002 13.5C22.6441 13.5 18.3023 17.8435 18.3023 23.2C18.3023 25.6028 18.3016 27.5878 17.7066 29.5713C17.1127 31.5514 15.9238 33.5376 13.5326 35.9293Z" fill="url(#paint1_linear)" stroke="#1B2038" stroke-width="0.2"/>
<defs>
<linearGradient id="paint0_linear" x1="4.17233e-07" y1="84" x2="56" y2="84" gradientUnits="userSpaceOnUse">
<stop offset="0.0520833" stop-color="#FF8C3E" stop-opacity="0"/>
<stop offset="1" stop-color="#FF5968"/>
</linearGradient>
<linearGradient id="paint1_linear" x1="12" y1="28" x2="44.0001" y2="28" gradientUnits="userSpaceOnUse">
<stop stop-color="#FF8D3D"/>
<stop offset="1" stop-color="#FF5969"/>
</linearGradient>
</defs>
</svg>
