<svg width="412" height="400" viewBox="0 0 412 400" fill="none" xmlns="http://www.w3.org/2000/svg">
<path d="M276.209 228.044C287.251 234.426 287.194 244.791 276.209 251.201C269.999 254.347 263.134 255.987 256.173 255.987C249.211 255.987 242.347 254.347 236.136 251.201L165.535 210.45L205.75 187.236L276.209 228.044Z" fill="#80A5EC"/>
<path d="M241.701 13.9515C241.701 13.9515 236.448 19.5996 233.003 19.8538C233.003 11.1556 235.149 0.0853271 249.099 0.0853271C263.05 0.0853271 266.326 10.9298 266.495 12.7372C266.665 14.5445 264.519 21.7459 268.783 26.0385C273.047 30.331 279.288 34.5107 278.978 39.1704C278.667 43.8301 276.662 48.8287 280.107 49.6759C283.553 50.5231 293.889 52.7823 293.889 61.9605C293.889 71.1387 284.88 91.6979 278.3 91.359C271.72 91.0201 251.218 60.492 252.884 52.4434C254.55 44.3949 254.522 39.8199 255.341 35.2166C256.16 30.6134 257.967 31.2912 257.967 31.2912C257.967 31.2912 243.677 19.5431 241.701 13.9515Z" fill="#110B59"/>
<path d="M290.528 216.408C291.021 216.193 291.56 216.104 292.097 216.149C292.633 216.193 293.15 216.371 293.601 216.665C294.052 216.959 294.422 217.36 294.68 217.833C294.937 218.306 295.072 218.835 295.074 219.374C295.485 222.3 295.186 225.282 294.203 228.069C293.22 230.855 291.582 233.365 289.426 235.386C284.145 239.679 280.079 238.944 280.813 232.421C281.547 225.897 284.258 217.905 285.501 217.51C286.743 217.114 290.528 216.408 290.528 216.408Z" fill="url(#paint0_linear)"/>
<path d="M253.221 179.102L284.483 219.373C284.483 219.373 281.885 233.154 283.382 233.267C284.879 233.38 294.198 226.998 291.854 217.65L263.924 175.289L253.221 179.102Z" fill="#F9BFB5"/>
<path d="M236.249 227.704C236.766 227.861 237.236 228.143 237.617 228.527C237.997 228.911 238.276 229.384 238.427 229.903C238.579 230.422 238.598 230.97 238.484 231.499C238.37 232.027 238.126 232.519 237.774 232.929C236.175 235.419 234.001 237.488 231.436 238.962C228.87 240.436 225.988 241.273 223.032 241.401C216.198 241.203 213.6 237.984 218.429 233.55C223.258 229.116 230.516 224.795 231.702 225.304C232.888 225.812 236.249 227.704 236.249 227.704Z" fill="url(#paint1_linear)"/>
<path d="M232.38 174.668L229.754 225.501C229.754 225.501 218.768 234.256 219.813 235.301C220.858 236.346 232.126 237.617 236.475 229.032L243.168 178.622L232.38 174.668Z" fill="#F9BFB5"/>
<path d="M232.041 92.7708C232.041 92.7708 227.918 98.4189 227.918 111.833C227.918 125.247 229.98 177.295 229.98 177.295C229.98 177.295 245.342 182.943 255.848 181.729C266.353 180.514 265.929 177.775 265.929 177.775C264.388 169.713 263.594 161.526 263.557 153.319C264.037 144.14 271.267 122.621 270.448 111.466C270.233 106.347 269.533 101.26 268.358 96.2726L232.041 92.7708Z" fill="url(#paint2_linear)"/>
<path d="M242.914 45.1287C242.914 45.1287 241.107 39.9324 238.057 39.9324C235.007 39.9324 229.585 43.1518 226.761 62.892C223.937 82.6322 224.953 84.6373 228.003 85.4845C231.053 86.3318 234.837 86.473 236.475 79.667C238.113 72.861 243.168 50.4097 242.914 45.1287Z" fill="url(#paint3_linear)"/>
<path d="M226.647 78.0286C220.766 85.2282 214.526 92.1277 207.952 98.7007C205.128 101.355 210.042 108.161 216.255 104.49C222.467 100.819 236.644 82.5188 232.126 78.8758C227.607 75.2328 226.647 78.0286 226.647 78.0286Z" fill="url(#paint4_linear)"/>
<path d="M208.801 99.3506C208.801 99.3506 203.972 98.5598 203.153 99.52C202.334 100.48 204.96 101.327 204.96 101.327C203.35 102.058 201.929 103.15 200.809 104.519C199.707 106.298 201.204 111.183 203.633 110.336C206.062 109.489 210.269 106.326 210.834 103.728C211.399 101.13 208.801 99.3506 208.801 99.3506Z" fill="#F9BFB5"/>
<path d="M272.539 54.0241C263.559 48.0089 242.491 41.2311 242.491 41.2311C242.491 41.2311 236.222 36.9103 233.624 44.0552C231.026 51.2001 226.507 61.282 226.62 66.337C226.846 70.2181 228.03 73.9828 230.066 77.2944C230.941 78.65 231.054 93.9281 231.054 93.9281C231.054 93.9281 244.271 102.005 258.024 99.2091C268.049 97.1758 268.359 96.2438 268.359 96.2438C267.115 92.188 266.74 87.9156 267.258 83.705C268.218 77.4073 281.519 60.0676 272.539 54.0241Z" fill="url(#paint5_linear)"/>
<path d="M275.645 54.9843C275.645 54.9843 271.098 51.8496 268.641 53.657C266.184 55.4644 262.683 65.3204 272.143 82.8861C281.603 100.452 284.569 97.4865 287.506 96.3286C290.443 95.1707 293.577 93.0527 290.81 86.6421C288.042 80.2315 279.034 58.8815 275.645 54.9843Z" fill="url(#paint6_linear)"/>
<path d="M286.687 88.1394C286.687 88.1394 270.929 100 263.728 103.898C260.226 105.762 263.558 113.584 270.449 111.438C277.34 109.292 295.385 94.8042 291.827 90.201C288.269 85.5978 286.687 88.1394 286.687 88.1394Z" fill="url(#paint7_linear)"/>
<path d="M264.377 104.717C264.377 104.717 259.859 102.825 258.729 103.559C257.6 104.293 260.056 105.762 260.056 105.762C258.349 106.106 256.745 106.841 255.369 107.908C253.9 109.376 254.211 114.488 256.752 114.234C259.294 113.98 264.151 111.862 265.224 109.461C265.523 108.667 265.602 107.807 265.453 106.972C265.304 106.137 264.932 105.358 264.377 104.717Z" fill="#F9BFB5"/>
<path d="M240.09 11.0709C240.09 11.0709 234.442 12.9065 235.063 22.706C235.685 32.5055 235.063 38.0407 240.203 39.9046C245.343 41.7685 254.888 37.7865 258.079 32.7597C261.27 27.7329 261.496 13.189 259.661 12.6524C257.825 12.1158 240.09 11.0709 240.09 11.0709Z" fill="#F9BFB5"/>
<path d="M249.099 0C263.05 0 266.326 10.8444 266.495 12.6518C266.665 14.4592 264.518 21.6606 268.783 25.9531C269.602 26.7439 270.449 27.5346 271.353 28.3253C269.263 30.3304 267.399 32.4485 265.394 34.5383C264.71 35.3303 263.974 36.0756 263.191 36.7693C263.118 36.6036 263.033 36.4432 262.937 36.2892C262.583 34.9972 261.861 33.8363 260.858 32.9485C259.854 32.0608 258.614 31.4846 257.289 31.2906C257.525 31.1992 257.787 31.1992 258.023 31.2906C258.023 31.2906 243.592 19.6272 241.616 14.0356C241.616 14.0356 236.363 19.6838 232.918 19.9379C233.002 11.1551 235.149 0 249.099 0Z" fill="#110B59"/>
<path d="M257.769 30.8954C257.769 30.8954 257.515 45.4111 259.125 46.5125C260.735 47.6138 251.641 54.1657 246.304 50.4097C240.966 46.6537 244.722 43.8861 244.722 43.8861L244.468 35.1315L257.769 30.8954Z" fill="#F9BFB5"/>
<path d="M100.725 235.979C115.896 236.345 130.969 238.516 145.627 242.446C183.69 252.578 220.22 267.775 254.239 287.631C289.709 308.105 317.554 330.415 332.662 350.41C346.782 369.246 347.997 383.536 335.74 390.681C330.092 393.985 321.62 395.623 311.171 395.623C295.996 395.317 280.911 393.193 266.241 389.297C228.166 379.172 191.626 363.974 157.601 344.112C122.159 323.637 94.3142 301.356 79.2057 281.333C65.0855 262.497 63.8712 248.207 76.1275 241.09C81.7755 237.786 90.2476 236.148 100.725 236.148V235.979ZM100.725 231.743C89.2875 231.743 80.2788 233.606 73.9812 237.249C71.3959 238.649 69.1486 240.599 67.3971 242.96C65.6456 245.321 64.4325 248.038 63.843 250.918C62.0356 259.87 66.0739 270.969 75.8168 283.875C91.2925 304.321 119.589 327.026 155.483 347.755C189.856 367.762 226.756 383.073 265.196 393.279C280.197 397.351 295.632 399.607 311.171 400C322.467 400 331.561 398.136 337.858 394.352C340.433 392.977 342.677 391.057 344.433 388.726C346.189 386.394 347.415 383.707 348.025 380.853C349.832 371.872 345.794 360.802 336.051 347.896C320.575 327.422 292.278 304.744 256.357 283.988C222.008 263.924 185.115 248.574 146.672 238.351C131.68 234.281 116.254 232.024 100.725 231.63V231.743Z" fill="#7FAAEF"/>
<path d="M408.797 347.896L334.243 391.5L188.806 307.597L263.388 263.965L408.797 347.896Z" fill="#546FD1"/>
<path d="M344.212 371.251L343.874 376.73C343.923 379.641 343.156 382.507 341.658 385.003C340.161 387.499 337.993 389.525 335.401 390.85C323.145 397.967 298.463 397.374 265.902 389.184C227.827 379.059 191.287 363.862 157.262 343.999C121.736 323.468 94.0036 301.187 78.895 281.164C71.1854 270.969 67.3165 262.13 67.3448 255.013L67.6554 249.534C67.6554 256.651 71.4961 265.519 79.2057 275.685C94.3142 295.708 122.159 318.046 157.601 338.464C191.62 358.338 228.162 373.537 266.241 383.649C298.802 391.839 323.484 392.432 335.74 385.315C338.317 383.986 340.473 381.967 341.969 379.484C343.465 377.001 344.242 374.15 344.212 371.251Z" fill="url(#paint8_linear)"/>
<path d="M254.237 282.322C289.706 302.768 317.551 325.078 332.66 345.072C346.78 363.937 347.994 378.227 335.738 385.343C323.482 392.46 298.8 391.867 266.239 383.677C228.158 373.556 191.616 358.348 157.598 338.464C122.157 317.99 94.312 295.708 79.2035 275.685C65.0833 256.849 63.869 242.559 76.1253 235.442C88.3816 228.326 113.064 228.919 145.625 237.108C183.698 247.225 220.231 262.433 254.237 282.322Z" fill="url(#paint9_linear)"/>
<path d="M320.096 235.358L319.841 355.408C319.873 357.811 319.234 360.175 317.997 362.235C316.76 364.295 314.973 365.97 312.838 367.072C302.728 372.946 282.338 372.466 255.454 365.688C224.005 357.332 193.827 344.774 165.734 328.354C136.477 311.41 113.49 293.025 101.008 276.504C94.6253 268.032 91.4341 260.774 91.4623 254.9L91.7165 134.934C91.7165 140.808 94.8794 148.122 101.262 156.538C113.744 173.059 136.731 191.472 165.988 208.359C194.083 224.783 224.26 237.35 255.708 245.722C282.593 252.471 302.982 252.951 313.092 247.077C315.238 245.974 317.032 244.291 318.27 242.219C319.508 240.148 320.141 237.77 320.096 235.358Z" fill="url(#paint10_linear)"/>
<path d="M245.797 161.904C275.082 178.848 298.069 197.233 310.552 213.754C322.328 229.314 323.231 241.119 313.093 246.993C302.955 252.867 282.594 252.387 255.709 245.637C224.261 237.266 194.084 224.699 165.99 208.275C136.733 191.331 113.745 172.974 101.263 156.453C89.4867 140.893 88.583 129.088 98.6931 123.214C108.803 117.34 129.221 117.82 156.106 124.57C187.541 132.939 217.708 145.496 245.797 161.904Z" fill="url(#paint11_linear)"/>
<path d="M111.201 267.891L117.696 264.135L117.922 190.596L111.399 194.38L111.201 267.891Z" fill="#1B2329"/>
<path d="M221.027 331.319L227.523 327.535L117.696 264.135L111.201 267.891L221.027 331.319Z" fill="#2B3941"/>
<path d="M221.028 331.318L227.523 327.534L227.749 253.995L221.254 257.78L221.028 331.318Z" fill="#504F4F"/>
<path d="M221.254 257.781L227.749 253.996L117.922 190.596L111.399 194.38L221.254 257.781Z" fill="#807F7F"/>
<path d="M226.93 338.661L105.299 268.426L105.525 187.037L227.155 257.243L226.93 338.661ZM111.201 267.861L221.027 331.29L221.253 257.864L111.399 194.436L111.201 267.861Z" fill="url(#paint12_linear)"/>
<path d="M111.399 194.38L111.201 267.89L221.027 331.318L221.253 257.78L111.399 194.38Z" fill="#0061AD"/>
<path d="M226.93 338.661L233.426 334.877L233.651 253.46L227.156 257.244L226.93 338.661Z" fill="url(#paint13_linear)"/>
<path d="M227.156 257.244L233.652 253.459L112.021 183.253L105.525 187.037L227.156 257.244Z" fill="url(#paint14_linear)"/>
<path d="M162.176 283.48L168.671 287.236V295.313L162.176 291.586V283.48Z" fill="#007CC1"/>
<path d="M147.433 274.979L153.9 278.706V286.811L147.433 283.055V274.979Z" fill="#005FA4"/>
<path d="M132.664 266.45L139.16 270.206V278.283L132.664 274.527V266.45Z" fill="#007CC1"/>
<path d="M117.923 257.922L124.39 261.678V269.754L117.923 265.998V257.922Z" fill="#0062A7"/>
<path d="M162.176 269.642L168.671 273.398V281.475L162.176 277.719V269.642Z" fill="#007CC1"/>
<path d="M147.433 261.113L153.9 264.869V272.946L147.433 269.218V261.113Z" fill="#0062A7"/>
<path d="M132.664 252.613L139.16 256.341V264.418L132.664 260.69V252.613Z" fill="#007CC1"/>
<path d="M117.923 244.083L124.39 247.84V255.916L117.923 252.16V244.083Z" fill="#007CC1"/>
<path d="M162.176 255.803L168.671 259.531V267.608L162.176 263.88V255.803Z" fill="#005FA4"/>
<path d="M147.433 247.275L153.9 251.031V259.108L147.433 255.352V247.275Z" fill="#007CC1"/>
<path d="M132.664 238.746L139.16 242.502V250.579L132.664 246.823V238.746Z" fill="#0062A7"/>
<path d="M117.923 230.247L124.39 233.974V242.051L117.923 238.323V230.247Z" fill="#007CC1"/>
<path d="M162.176 241.938L168.671 245.694V253.771L162.176 250.043V241.938Z" fill="#0062A7"/>
<path d="M147.433 233.437L153.9 237.165V245.242L147.433 241.514V233.437Z" fill="#007CC1"/>
<path d="M132.664 224.908L139.16 228.664V236.741L132.664 232.985V224.908Z" fill="#005FA4"/>
<path d="M117.923 216.379L124.39 220.135V228.212L117.923 224.456V216.379Z" fill="#0062A7"/>
<path d="M162.176 228.099L168.671 231.855V239.932L162.176 236.176V228.099Z" fill="#007CC1"/>
<path d="M147.433 219.571L153.9 223.327V231.403L147.433 227.647V219.571Z" fill="#0062A7"/>
<path d="M132.664 211.042L139.16 214.798V222.875L132.664 219.147V211.042Z" fill="#0062A7"/>
<path d="M117.923 202.542L124.39 206.27V214.375L117.923 210.619V202.542Z" fill="#005FA4"/>
<path d="M204.507 307.512L211.002 311.268V319.345L204.507 315.589V307.512Z" fill="#005FA4"/>
<path d="M189.738 299.012L196.233 302.74V310.817L189.738 307.089V299.012Z" fill="#007CC1"/>
<path d="M174.997 290.483L181.492 294.211V302.288L174.997 298.56V290.483Z" fill="#0062A7"/>
<path d="M204.507 293.675L211.002 297.403V305.508L204.507 301.752V293.675Z" fill="#0062A7"/>
<path d="M189.738 285.146L196.233 288.902V296.979L189.738 293.223V285.146Z" fill="#007CC1"/>
<path d="M174.997 276.617L181.492 280.373V288.45L174.997 284.723V276.617Z" fill="#007CC1"/>
<path d="M204.507 279.808L211.002 283.564V291.641L204.507 287.885V279.808Z" fill="#007CC1"/>
<path d="M189.738 271.309L196.233 275.037V283.142L189.738 279.386V271.309Z" fill="#0062A7"/>
<path d="M174.997 262.779L181.492 266.535V274.612L174.997 270.856V262.779Z" fill="#007CC1"/>
<path d="M204.507 265.971L211.002 269.727V277.804L204.507 274.048V265.971Z" fill="#007CC1"/>
<path d="M189.738 257.441L196.233 261.197V269.274L189.738 265.518V257.441Z" fill="#005FA4"/>
<path d="M174.997 248.942L181.492 252.67V260.747L174.997 257.019V248.942Z" fill="#0062A7"/>
<path d="M204.507 252.133L211.002 255.86V263.937L204.507 260.209V252.133Z" fill="#0062A7"/>
<path d="M189.738 243.604L196.233 247.36V255.437L189.738 251.681V243.604Z" fill="#0062A7"/>
<path d="M174.997 235.075L181.492 238.831V246.908L174.997 243.152V235.075Z" fill="#005FA4"/>
<path d="M411.254 255.718L410.774 263.823C410.847 268.145 409.708 272.401 407.487 276.109C405.266 279.817 402.052 282.83 398.207 284.806C380.021 295.396 343.393 294.493 295.046 282.349C243.733 269.443 186.434 245.636 133.822 215.221C81.2104 184.806 39.8384 151.708 17.4438 121.999C5.95006 106.89 0.302002 93.7302 0.302002 83.1682L0.782087 75.0349C0.782087 85.5969 6.43014 98.757 17.8957 113.894C40.4879 143.575 81.6622 176.673 134.274 207.088C186.885 237.503 244.185 261.31 295.526 274.188C343.873 286.359 380.501 287.235 398.688 276.673C402.525 274.696 405.735 271.688 407.955 267.985C410.175 264.283 411.318 260.035 411.254 255.718Z" fill="url(#paint15_linear)"/>
<path d="M277.705 123.835C330.345 154.222 371.689 187.32 394.112 217.029C415.264 244.987 416.902 266.196 398.687 276.786C380.472 287.376 343.872 286.473 295.525 274.301C244.184 261.423 186.913 237.588 134.273 207.201C81.6331 176.814 40.3459 143.603 17.8948 113.894C-3.22888 85.9079 -4.86681 64.6992 13.3199 54.1372C31.5067 43.5752 68.1625 44.4224 116.482 56.5941C167.822 69.5001 225.094 93.3352 277.705 123.835Z" fill="url(#paint16_linear)"/>
<path d="M123.487 182.462L89.7961 163.033L135.122 136.854L168.812 156.312L123.487 182.462Z" fill="url(#paint17_linear)"/>
<path d="M61.1878 116.013L27.4972 96.5551L72.8228 70.4043L106.513 89.8621L61.1878 116.013Z" fill="url(#paint18_linear)"/>
<path d="M61.1875 116.437L26.7909 96.6683L72.8225 70.0939L107.219 89.8623L61.1875 116.437ZM28.2029 96.6683L61.1875 115.702L105.807 89.947L72.8225 70.8846L28.2029 96.6683Z" fill="url(#paint19_linear)"/>
<path d="M61.1878 113.189L27.4972 93.731L72.8228 67.5802L106.513 87.038L61.1878 113.189Z" fill="url(#paint20_linear)"/>
<path d="M61.1875 113.612L26.7909 93.8438L72.8225 67.2694L107.219 87.0378L61.1875 113.612ZM28.2029 93.8438L61.1875 112.878L105.807 87.1226L72.8225 68.0601L28.2029 93.8438Z" fill="url(#paint21_linear)"/>
<path d="M61.1878 110.139L27.4972 90.6807L72.8228 64.5299L106.513 83.9595L61.1878 110.139Z" fill="url(#paint22_linear)"/>
<path d="M61.1875 110.534L26.7909 90.7653L72.8225 64.1909L107.219 83.9593L61.1875 110.534ZM28.2029 90.7653L61.1875 109.715L105.807 83.9593L72.8225 64.9252L28.2029 90.7653Z" fill="url(#paint23_linear)"/>
<path d="M61.1878 107.061L27.4972 87.6315L72.8228 61.4525L106.513 80.9103L61.1878 107.061Z" fill="url(#paint24_linear)"/>
<path d="M61.1875 107.485L26.7909 87.7162L72.8225 61.1418L107.219 80.9103L61.1875 107.485ZM28.2029 87.7162L61.1875 106.75L105.807 80.995L72.8225 61.9608L28.2029 87.7162Z" fill="url(#paint25_linear)"/>
<path d="M61.1878 104.01L27.4972 84.5522L72.8228 58.4015L106.513 77.8592L61.1878 104.01Z" fill="url(#paint26_linear)"/>
<path d="M61.1875 104.435L26.7909 84.6663L72.8225 58.0918L107.219 77.8603L61.1875 104.435ZM28.2029 84.6663L61.1875 103.7L105.807 77.945L72.8225 58.8825L28.2029 84.6663Z" fill="url(#paint27_linear)"/>
<path d="M61.1878 100.961L27.4972 81.5027L72.8228 55.3519L106.513 74.7815L61.1878 100.961Z" fill="url(#paint28_linear)"/>
<path d="M61.1875 101.242L26.7909 81.4736L72.8225 54.8992L107.219 74.6676L61.1875 101.242ZM28.2029 81.4736L61.1875 100.508L105.807 74.7523L72.8225 55.7182L28.2029 81.4736Z" fill="url(#paint29_linear)"/>
<path d="M61.1878 97.967L27.4972 78.5374L72.8228 52.3584L106.513 71.8162L61.1878 97.967Z" fill="url(#paint30_linear)"/>
<path d="M61.1875 98.4183L26.7909 78.6499L72.8225 52.0754L107.219 71.8439L61.1875 98.4183ZM28.2029 78.6499L61.1875 97.6841L105.807 71.9286L72.8225 52.8944L28.2029 78.6499Z" fill="url(#paint31_linear)"/>
<path d="M61.1878 95.0017L27.4972 75.5439L72.8228 49.3931L106.513 68.8227L61.1878 95.0017Z" fill="url(#paint32_linear)"/>
<path d="M61.1875 95.397L26.7909 75.6285L72.8225 49.0541L107.219 68.8226L61.1875 95.397ZM28.2029 75.6285L61.1875 94.6628L105.807 68.9073L72.8225 49.873L28.2029 75.6285Z" fill="url(#paint33_linear)"/>
<path d="M309.646 267.156L275.956 247.727L321.281 221.548L354.972 241.006L309.646 267.156Z" fill="url(#paint34_linear)"/>
<path d="M309.646 267.552L275.278 247.784L321.281 221.238L355.678 241.006L309.646 267.552ZM276.69 247.784L309.646 266.846L354.266 241.091L321.281 222.029L276.69 247.784Z" fill="url(#paint35_linear)"/>
<path d="M309.646 264.333L275.956 244.903L321.281 218.724L354.972 238.182L309.646 264.333Z" fill="url(#paint36_linear)"/>
<path d="M309.646 264.728L275.278 244.96L321.281 218.414L355.678 238.182L309.646 264.728ZM276.69 244.96L309.646 264.022L354.266 238.267L321.281 219.204L276.69 244.96Z" fill="url(#paint37_linear)"/>
<path d="M309.646 261.282L275.956 241.825L321.281 215.674L354.972 235.103L309.646 261.282Z" fill="url(#paint38_linear)"/>
<path d="M309.646 261.677L275.278 241.909L321.281 215.334L355.678 235.103L309.646 261.677ZM276.69 241.909L309.646 260.943L354.266 235.188L321.281 216.153L276.69 241.909Z" fill="url(#paint39_linear)"/>
<path d="M309.646 258.205L275.956 238.775L321.281 212.596L354.972 232.054L309.646 258.205Z" fill="url(#paint40_linear)"/>
<path d="M309.646 258.628L275.278 238.86L321.281 212.285L355.678 232.054L309.646 258.628ZM276.69 238.86L309.646 257.894L354.266 232.139L321.281 213.104L276.69 238.86Z" fill="url(#paint41_linear)"/>
<path d="M309.646 255.154L275.956 235.725L321.281 209.546L354.972 229.004L309.646 255.154Z" fill="url(#paint42_linear)"/>
<path d="M309.646 255.55L275.278 235.781L321.281 209.235L355.678 229.004L309.646 255.55ZM276.69 235.781L309.646 254.844L354.266 229.088L321.281 210.026L276.69 235.781Z" fill="url(#paint43_linear)"/>
<path d="M309.646 252.104L275.956 232.647L321.281 206.496L354.972 225.925L309.646 252.104Z" fill="url(#paint44_linear)"/>
<path d="M309.646 252.499L275.278 232.73L321.281 206.156L355.678 225.924L309.646 252.499ZM276.69 232.73L309.646 251.765L354.266 226.009L321.281 206.975L276.69 232.73Z" fill="url(#paint45_linear)"/>
<path d="M309.646 249.111L275.956 229.682L321.281 203.503L354.972 222.96L309.646 249.111Z" fill="url(#paint46_linear)"/>
<path d="M309.646 249.534L275.278 229.766L321.281 203.191L355.678 222.96L309.646 249.534ZM276.69 229.766L309.646 248.8L354.266 223.044L321.281 204.01L276.69 229.766Z" fill="url(#paint47_linear)"/>
<path d="M309.646 246.145L275.956 226.688L321.281 200.537L354.972 219.966L309.646 246.145Z" fill="url(#paint48_linear)"/>
<path d="M309.646 246.541L275.278 226.772L321.281 200.085L355.678 219.853L309.646 246.541ZM276.69 226.772L309.646 245.806L354.266 220.051L321.281 201.017L276.69 226.772Z" fill="url(#paint49_linear)"/>
<path d="M121.396 155.974L91.7158 138.86L131.619 115.815L161.3 132.929L121.396 155.974Z" fill="url(#paint50_linear)"/>
<path d="M121.397 156.396L91.01 138.859L131.62 115.363L162.006 132.9L121.397 156.396ZM92.422 138.859L121.397 155.577L160.594 132.985L131.62 116.21L92.422 138.859Z" fill="url(#paint51_linear)"/>
<path d="M121.396 153.488L91.7158 136.375L131.619 113.33L161.3 130.444L121.396 153.488Z" fill="url(#paint52_linear)"/>
<path d="M121.397 153.883L91.01 136.374L131.62 112.906L162.006 130.443L121.397 153.883ZM92.422 136.374L121.397 153.092L160.594 130.5L131.62 113.725L92.422 136.374Z" fill="url(#paint53_linear)"/>
<path d="M121.396 150.805L91.7158 133.663L131.619 110.619L161.3 127.761L121.396 150.805Z" fill="url(#paint54_linear)"/>
<path d="M121.397 151.201L91.01 133.664L131.62 110.224L162.006 127.761L121.397 151.201ZM92.422 133.664L121.397 150.382L160.594 127.79L131.62 111.043L92.422 133.664Z" fill="url(#paint55_linear)"/>
<path d="M121.396 148.094L91.7158 130.98L131.619 107.936L161.3 125.05L121.396 148.094Z" fill="url(#paint56_linear)"/>
<path d="M121.397 148.518L91.01 130.981L131.62 107.541L162.006 125.05L121.397 148.518ZM92.422 130.981L121.397 147.699L160.594 125.107L131.62 108.332L92.422 130.981Z" fill="url(#paint57_linear)"/>
<path d="M121.396 145.412L91.7158 128.27L131.619 105.225L161.3 122.367L121.396 145.412Z" fill="url(#paint58_linear)"/>
<path d="M121.397 145.807L91.01 128.269L131.62 104.83L162.006 122.367L121.397 145.807ZM92.422 128.269L121.397 144.988L160.594 122.395L131.62 105.649L92.422 128.269Z" fill="url(#paint59_linear)"/>
<path d="M121.396 142.7L91.7158 125.586L131.619 102.542L161.3 119.684L121.396 142.7Z" fill="url(#paint60_linear)"/>
<path d="M121.397 143.124L91.01 125.587L131.62 102.147L162.006 119.656L121.397 143.124ZM92.422 125.587L121.397 142.305L160.594 119.713L131.62 102.966L92.422 125.587Z" fill="url(#paint61_linear)"/>
<path d="M121.396 140.074L91.7158 122.96L131.619 99.916L161.3 117.058L121.396 140.074Z" fill="url(#paint62_linear)"/>
<path d="M121.397 140.498L91.01 122.96L131.62 99.5208L162.006 117.058L121.397 140.498ZM92.422 122.96L121.397 139.679L160.594 117.086L131.62 100.34L92.422 122.96Z" fill="url(#paint63_linear)"/>
<path d="M121.396 137.475L91.7158 120.333L131.619 97.2889L161.3 114.431L121.396 137.475Z" fill="url(#paint64_linear)"/>
<path d="M121.397 137.956L91.01 120.419L131.62 96.9792L162.006 114.517L121.397 137.956ZM92.422 120.419L121.397 137.137L160.594 114.545L131.62 97.7135L92.422 120.419Z" fill="url(#paint65_linear)"/>
<path d="M217.356 173.425L187.676 156.311L227.579 133.267L257.26 150.381L217.356 173.425Z" fill="url(#paint66_linear)"/>
<path d="M217.328 173.849L186.969 156.311L227.579 132.843L257.965 150.381L217.328 173.849ZM188.381 156.311L217.328 173.03L256.553 150.437L227.579 133.719L188.381 156.311Z" fill="url(#paint67_linear)"/>
<path d="M217.356 170.941L187.676 153.827L227.579 130.783L257.26 147.896L217.356 170.941Z" fill="url(#paint68_linear)"/>
<path d="M217.328 171.364L186.969 153.827L227.579 130.359L257.965 147.896L217.328 171.364ZM188.381 153.827L217.328 170.545L256.553 147.953L227.579 131.178L188.381 153.827Z" fill="url(#paint69_linear)"/>
<path d="M217.356 168.258L187.676 151.116L227.579 128.072L257.26 145.214L217.356 168.258Z" fill="url(#paint70_linear)"/>
<path d="M217.328 168.653L186.969 151.115L227.579 127.675L257.965 145.213L217.328 168.653ZM188.381 151.115L217.328 167.834L256.553 145.241L227.579 128.523L188.381 151.115Z" fill="url(#paint71_linear)"/>
<path d="M217.356 165.547L187.676 148.434L227.579 125.389L257.26 142.503L217.356 165.547Z" fill="url(#paint72_linear)"/>
<path d="M217.328 165.97L186.969 148.433L227.579 124.993L257.965 142.502L217.328 165.97ZM188.381 148.433L217.328 165.151L256.553 142.559L227.579 125.84L188.381 148.433Z" fill="url(#paint73_linear)"/>
<path d="M217.356 162.864L187.676 145.722L227.579 122.706L257.26 139.82L217.356 162.864Z" fill="url(#paint74_linear)"/>
<path d="M217.328 163.372L186.969 145.863L227.579 122.395L257.965 139.933L217.328 163.372ZM188.381 145.863L217.328 162.553L256.553 139.961L227.579 123.242L188.381 145.863Z" fill="url(#paint75_linear)"/>
<path d="M217.356 160.181L187.676 143.039L227.579 119.995L257.26 137.137L217.356 160.181Z" fill="url(#paint76_linear)"/>
<path d="M217.328 160.549L186.969 143.039L227.579 119.6L257.965 137.137L217.328 160.549ZM188.381 143.039L217.328 159.758L256.553 137.165L227.579 120.447L188.381 143.039Z" fill="url(#paint77_linear)"/>
<path d="M217.356 157.554L187.676 140.412L227.579 117.368L257.26 134.51L217.356 157.554Z" fill="url(#paint78_linear)"/>
<path d="M217.328 157.95L186.969 140.413L227.579 116.973L257.965 134.511L217.328 157.95ZM188.381 140.413L217.328 157.131L256.553 134.539L227.579 117.82L188.381 140.413Z" fill="url(#paint79_linear)"/>
<path d="M217.356 154.929L187.676 137.787L227.579 114.742L257.26 131.884L217.356 154.929Z" fill="url(#paint80_linear)"/>
<path d="M217.328 155.324L186.969 137.787L227.579 114.347L257.965 131.884L217.328 155.324ZM188.381 137.787L217.328 154.505L256.553 131.912L227.579 115.194L188.381 137.787Z" fill="url(#paint81_linear)"/>
<path d="M240.91 206.834L211.257 189.72L251.161 166.676L280.813 183.79L240.91 206.834Z" fill="url(#paint82_linear)"/>
<path d="M240.909 207.258L210.551 189.721L251.161 166.196L281.519 183.706L240.909 207.258ZM212.104 189.721L241.051 206.439L280.248 183.847L251.302 167.128L212.104 189.721Z" fill="url(#paint83_linear)"/>
<path d="M240.91 204.35L211.257 187.236L251.161 164.191L280.813 181.305L240.91 204.35Z" fill="url(#paint84_linear)"/>
<path d="M240.909 204.773L210.551 187.236L251.161 163.768L281.519 181.305L240.909 204.773ZM212.104 187.236L241.051 203.954L280.248 181.362L251.302 164.643L212.104 187.236Z" fill="url(#paint85_linear)"/>
<path d="M240.91 201.666L211.257 184.524L251.161 161.508L280.813 178.622L240.91 201.666Z" fill="url(#paint86_linear)"/>
<path d="M240.909 202.062L210.551 184.525L251.161 161.085L281.519 178.622L240.909 202.062ZM212.104 184.525L241.051 201.243L280.248 178.651L251.302 161.932L212.104 184.525Z" fill="url(#paint87_linear)"/>
<path d="M240.91 198.955L211.257 181.841L251.161 158.797L280.813 175.911L240.91 198.955Z" fill="url(#paint88_linear)"/>
<path d="M240.909 199.379L210.551 181.842L251.161 158.402L281.519 175.911L240.909 199.379ZM212.104 181.842L241.051 198.56L280.248 175.968L251.302 159.278L212.104 181.842Z" fill="url(#paint89_linear)"/>
<path d="M240.91 196.272L211.257 179.159L251.161 156.114L280.813 173.228L240.91 196.272Z" fill="url(#paint90_linear)"/>
<path d="M240.909 196.668L210.551 179.159L251.161 155.691L281.519 173.229L240.909 196.668ZM212.104 179.159L241.051 195.878L280.248 173.285L251.302 156.567L212.104 179.159Z" fill="url(#paint91_linear)"/>
<path d="M240.91 193.59L211.257 176.448L251.161 153.404L280.813 170.546L240.91 193.59Z" fill="url(#paint92_linear)"/>
<path d="M240.909 193.985L210.551 176.447L251.161 153.008L281.519 170.545L240.909 193.985ZM212.104 176.447L241.051 193.166L280.248 170.573L251.302 153.855L212.104 176.447Z" fill="url(#paint93_linear)"/>
<path d="M240.91 190.964L211.257 173.822L251.161 150.777L280.813 167.919L240.91 190.964Z" fill="url(#paint94_linear)"/>
<path d="M240.909 191.358L210.551 173.821L251.161 150.381L281.519 167.918L240.909 191.358ZM212.104 173.821L241.051 190.539L280.248 167.947L251.302 151.228L212.104 173.821Z" fill="url(#paint95_linear)"/>
<path d="M240.91 188.337L211.257 171.223L251.161 148.179L280.813 165.293L240.91 188.337Z" fill="url(#paint96_linear)"/>
<path d="M240.909 188.789L210.551 171.252L251.161 147.812L281.519 165.35L240.909 188.789ZM212.104 171.195L241.051 187.914L280.248 165.321L251.302 148.603L212.104 171.195Z" fill="url(#paint97_linear)"/>
<path d="M222.948 82.4628C218.237 88.1349 213.232 93.5552 207.952 98.7012C205.128 101.356 210.042 108.162 216.255 104.49C222.317 99.7914 227.329 93.8752 230.968 87.1225C227.885 86.414 225.09 84.7896 222.948 82.4628Z" fill="url(#paint98_linear)"/>
<path d="M208.801 99.3506C208.801 99.3506 203.972 98.5598 203.153 99.52C202.334 100.48 204.96 101.327 204.96 101.327C203.35 102.058 201.929 103.15 200.809 104.519C199.707 106.298 201.204 111.183 203.633 110.336C206.062 109.489 210.269 106.326 210.834 103.728C211.399 101.13 208.801 99.3506 208.801 99.3506Z" fill="#F9BFB5"/>
<path d="M271.72 109.716C271.104 106.628 270.264 103.588 269.207 100.622C267.145 101.978 265.225 103.164 263.728 103.983C260.226 105.847 263.558 113.669 270.449 111.523C271.039 111.34 271.615 111.113 272.172 110.845C271.985 110.484 271.834 110.106 271.72 109.716Z" fill="url(#paint99_linear)"/>
<path d="M264.377 104.717C264.377 104.717 259.859 102.825 258.729 103.559C257.6 104.293 260.056 105.762 260.056 105.762C258.349 106.106 256.745 106.841 255.369 107.908C253.9 109.376 254.211 114.488 256.752 114.234C259.294 113.98 264.151 111.862 265.224 109.461C265.523 108.667 265.602 107.807 265.453 106.972C265.304 106.137 264.932 105.358 264.377 104.717Z" fill="#F9BFB5"/>
<path d="M75.6463 150.128C75.6463 150.128 69.9983 147.162 68.1344 151.314C66.2706 155.465 75.9288 200.961 78.3009 200.961C80.6731 200.961 85.0786 196.245 85.361 189.665C85.6434 183.085 81.6898 156.03 75.6463 150.128Z" fill="url(#paint100_linear)"/>
<path d="M111.173 192.319C113.669 192.323 116.136 191.783 118.403 190.738C121.594 189.072 124.559 186.812 123.684 184.779C122.808 182.746 120.86 181.447 118.798 182.718C116.736 183.988 115.974 184.836 115.494 184.638C115.014 184.44 116.934 182.435 116.623 182.096C116.313 181.757 115.974 181.39 114.025 182.548C112.339 183.803 110.853 185.307 109.62 187.01L111.173 192.319Z" fill="#F9BFB5"/>
<path d="M78.3019 200.96C78.3019 200.96 80.3634 203.643 89.7957 200.254C99.2279 196.866 113.066 192.432 113.066 192.432C113.066 192.432 114.393 187.123 112.19 186.784C109.987 186.445 86.2656 187.377 83.1592 189.156C80.0528 190.935 78.3019 200.96 78.3019 200.96Z" fill="url(#paint101_linear)"/>
<path d="M130.179 178.792L131.14 178.227L126.339 202.062L125.379 202.627L130.179 178.792Z" fill="#1A317B"/>
<path d="M118.883 169.105L119.844 168.54L131.14 178.226L130.18 178.791L118.883 169.105Z" fill="#18176E"/>
<path d="M130.179 178.792L125.378 202.627L114.11 192.941L118.883 169.105L130.179 178.792Z" fill="#18176E"/>
<path d="M129.303 179.526L125.039 200.819L114.957 192.178L119.221 170.884L129.303 179.526Z" fill="url(#paint102_linear)"/>
<path d="M74.0089 268.569C74.0089 268.569 72.258 275.883 70.9307 285.315C69.6034 294.748 74.5737 308.473 74.0089 316.126C73.6919 322.457 73.6919 328.801 74.0089 335.132L93.297 346.428C93.297 346.428 102.758 342.616 91.8003 340.469C87.9878 339.735 81.5208 329.173 81.5208 329.173L84.3448 274.499L74.0089 268.569Z" fill="#F9BFB5"/>
<path d="M75.5348 328.835C77.3422 328.665 82.5666 332.167 84.8823 337.307C87.198 342.447 91.0952 345.101 92.3378 343.859C93.5803 342.616 94.8511 341.204 93.185 341.035C95.8113 339.086 98.4659 340.639 97.3363 343.859C96.6779 345.697 95.5257 347.317 94.0061 348.543C92.4866 349.769 90.6586 350.552 88.723 350.806C84.9953 350.806 78.1611 344 78.0482 342.334C78.0482 345.384 77.4834 353.291 77.4834 353.291H75.8172C75.8172 353.291 73.3038 341.486 73.1626 338.295C73.0214 335.104 71.1011 329.258 75.5348 328.835Z" fill="url(#paint103_linear)"/>
<path d="M94.7366 276.505C94.7366 276.505 92.9857 283.819 91.6584 293.251C90.3311 302.684 95.3014 316.38 94.7366 324.062C94.4196 330.393 94.4196 336.737 94.7366 343.068L114.025 354.364C114.025 354.364 123.485 350.552 112.528 348.405C108.716 347.671 102.248 337.109 102.248 337.109L105.524 272.664L94.7366 276.505Z" fill="#F9BFB5"/>
<path d="M96.3189 336.77C98.1263 336.6 103.351 340.102 105.666 345.242C107.982 350.382 111.879 353.036 113.122 351.794C114.364 350.551 115.635 349.139 113.969 348.97C116.595 347.021 119.25 348.574 118.12 351.794C117.462 353.631 116.31 355.252 114.79 356.478C113.271 357.704 111.443 358.487 109.507 358.741C105.779 358.741 98.9453 351.935 98.8323 350.269C98.8323 353.319 98.2675 361.226 98.2675 361.226H96.6013C96.6013 361.226 94.088 349.421 93.9468 346.23C93.8056 343.039 91.8287 337.193 96.3189 336.77Z" fill="url(#paint104_linear)"/>
<path d="M73.8968 202.599C70.1074 208.298 68.0209 214.96 67.8817 221.802C67.684 233.099 73.7839 261.876 73.8968 267.778C74.0098 273.68 88.4688 282.068 94.0604 281.051C99.652 280.035 105.695 281.927 107.333 268.964C108.679 256.037 109.32 243.046 109.254 230.049C109.254 224.401 104.114 205.338 104.114 205.338L73.8968 202.599Z" fill="url(#paint105_linear)"/>
<path d="M101.035 158.487C101.035 158.487 73.2463 144.112 68.4737 150.947C63.7011 157.781 66.158 169.84 68.4737 173.087C70.7894 176.335 76.1268 189.862 75.5338 196.951C74.9407 204.039 73.8958 202.599 73.8958 202.599C73.8958 202.599 86.6604 210.478 92.139 209.828C97.6177 209.179 104.113 206.637 104.113 205.338C104.113 204.039 105.61 162.751 101.035 158.487Z" fill="url(#paint106_linear)"/>
<path d="M147.603 181.475C150.1 181.48 152.567 180.941 154.833 179.893C158.052 178.227 161.017 175.94 160.114 173.906C159.21 171.873 157.29 170.602 155.256 171.873C153.223 173.144 152.432 173.963 151.952 173.765C151.472 173.567 153.393 171.591 153.082 171.252C152.771 170.913 152.432 170.546 150.456 171.704C148.782 172.964 147.307 174.468 146.078 176.166L147.603 181.475Z" fill="#F9BFB5"/>
<path d="M98.8316 157.498C98.8316 157.498 92.5341 158.119 93.1836 162.609C93.8331 167.1 119.984 193.674 121.96 192.262C123.937 190.85 125.01 184.609 121.593 178.904C118.176 173.2 107.134 159.079 98.8316 157.498Z" fill="url(#paint107_linear)"/>
<path d="M121.989 192.262C123.824 194.804 148.167 181.502 148.167 181.502C148.167 181.502 149.975 176.617 147.094 175.656C144.948 174.979 120.831 178.48 119.249 181.643C117.668 184.806 120.153 189.748 121.989 192.262Z" fill="url(#paint108_linear)"/>
<path d="M102.474 119.373C102.474 119.373 105.298 145.863 100.441 149.082C95.5837 152.302 94.3694 127.422 94.3694 127.422C94.3694 127.422 99.3679 116.803 102.474 119.373Z" fill="#F9BFB5"/>
<path d="M102.475 119.374C102.475 119.374 99.6514 113.726 85.5312 114.29C71.4111 114.855 68.3329 126.999 68.7847 135.838C69.2366 144.677 70.1403 156.51 71.2417 162.723C72.343 168.936 73.162 175.092 80.0244 177.521C86.8868 179.95 99.0301 172.89 100.16 153.206C101.289 133.522 98.7194 120.052 102.475 119.374Z" fill="#110B59"/>
<defs>
<linearGradient id="paint0_linear" x1="304.874" y1="225.163" x2="279.937" y2="228.044" gradientUnits="userSpaceOnUse">
<stop stop-color="#1A317B"/>
<stop offset="1" stop-color="#18176E"/>
</linearGradient>
<linearGradient id="paint1_linear" x1="246819" y1="118326" x2="246648" y2="118222" gradientUnits="userSpaceOnUse">
<stop stop-color="#1A317B"/>
<stop offset="1" stop-color="#18176E"/>
</linearGradient>
<linearGradient id="paint2_linear" x1="-454133" y1="15636" x2="-454247" y2="18181.1" gradientUnits="userSpaceOnUse">
<stop stop-color="#1A317B"/>
<stop offset="1" stop-color="#18176E"/>
</linearGradient>
<linearGradient id="paint3_linear" x1="160309" y1="8006.85" x2="160369" y2="8020.2" gradientUnits="userSpaceOnUse">
<stop stop-color="#FFA282"/>
<stop offset="1" stop-color="#FF4B70"/>
</linearGradient>
<linearGradient id="paint4_linear" x1="246079" y1="5300.67" x2="246152" y2="5338.16" gradientUnits="userSpaceOnUse">
<stop stop-color="#FFA282"/>
<stop offset="1" stop-color="#FF4B70"/>
</linearGradient>
<linearGradient id="paint5_linear" x1="492201" y1="9672.17" x2="493543" y2="10001" gradientUnits="userSpaceOnUse">
<stop stop-color="#FFA282"/>
<stop offset="1" stop-color="#FF4B70"/>
</linearGradient>
<linearGradient id="paint6_linear" x1="246673" y1="7073.59" x2="247171" y2="7222.85" gradientUnits="userSpaceOnUse">
<stop stop-color="#FFA282"/>
<stop offset="1" stop-color="#FF4B70"/>
</linearGradient>
<linearGradient id="paint7_linear" x1="289310" y1="4128.63" x2="289759" y2="4410.8" gradientUnits="userSpaceOnUse">
<stop stop-color="#FFA282"/>
<stop offset="1" stop-color="#FF4B70"/>
</linearGradient>
<linearGradient id="paint8_linear" x1="112.981" y1="255.832" x2="180.815" y2="306.89" gradientUnits="userSpaceOnUse">
<stop stop-color="#D0E5FA"/>
<stop offset="0.39" stop-color="#CDE2F9"/>
<stop offset="0.67" stop-color="#C4DAF6"/>
<stop offset="0.9" stop-color="#B5CDF1"/>
<stop offset="1" stop-color="#ACC5EE"/>
</linearGradient>
<linearGradient id="paint9_linear" x1="67.6532" y1="310.393" x2="344.21" y2="310.393" gradientUnits="userSpaceOnUse">
<stop stop-color="#F5F8FF"/>
<stop offset="0.3" stop-color="#F2F6FE"/>
<stop offset="0.51" stop-color="#E9F0FC"/>
<stop offset="0.69" stop-color="#DAE6F9"/>
<stop offset="0.86" stop-color="#C4D8F4"/>
<stop offset="1" stop-color="#ABC7EF"/>
</linearGradient>
<linearGradient id="paint10_linear" x1="6758.48" y1="51741.1" x2="19238.8" y2="55234.7" gradientUnits="userSpaceOnUse">
<stop stop-color="#D0E5FA"/>
<stop offset="0.39" stop-color="#CDE2F9"/>
<stop offset="0.67" stop-color="#C4DAF6"/>
<stop offset="0.9" stop-color="#B5CDF1"/>
<stop offset="1" stop-color="#ACC5EE"/>
</linearGradient>
<linearGradient id="paint11_linear" x1="7484.12" y1="27127.4" x2="25952.6" y2="27127.4" gradientUnits="userSpaceOnUse">
<stop stop-color="#F5F8FF"/>
<stop offset="0.3" stop-color="#F2F6FE"/>
<stop offset="0.51" stop-color="#E9F0FC"/>
<stop offset="0.69" stop-color="#DAE6F9"/>
<stop offset="0.86" stop-color="#C4D8F4"/>
<stop offset="1" stop-color="#ABC7EF"/>
</linearGradient>
<linearGradient id="paint12_linear" x1="9735.64" y1="35133.3" x2="4625.14" y2="35485.8" gradientUnits="userSpaceOnUse">
<stop stop-color="#004E8B"/>
<stop offset="1" stop-color="#002880"/>
</linearGradient>
<linearGradient id="paint13_linear" x1="229.161" y1="191.246" x2="230.376" y2="305.338" gradientUnits="userSpaceOnUse">
<stop stop-color="#004E8B"/>
<stop offset="1" stop-color="#001F79"/>
</linearGradient>
<linearGradient id="paint14_linear" x1="5080.66" y1="15367.6" x2="14743.9" y2="24810.9" gradientUnits="userSpaceOnUse">
<stop stop-color="#004E8B"/>
<stop offset="1" stop-color="#001F79"/>
</linearGradient>
<linearGradient id="paint15_linear" x1="9859.11" y1="36776.1" x2="17436.6" y2="47566.2" gradientUnits="userSpaceOnUse">
<stop stop-color="#D0E5FA"/>
<stop offset="0.39" stop-color="#CDE2F9"/>
<stop offset="0.67" stop-color="#C4DAF6"/>
<stop offset="0.9" stop-color="#B5CDF1"/>
<stop offset="1" stop-color="#ACC5EE"/>
</linearGradient>
<linearGradient id="paint16_linear" x1="70.5555" y1="46969.5" x2="59733.8" y2="46969.5" gradientUnits="userSpaceOnUse">
<stop stop-color="#F5F8FF"/>
<stop offset="0.3" stop-color="#F2F6FE"/>
<stop offset="0.51" stop-color="#E9F0FC"/>
<stop offset="0.69" stop-color="#DAE6F9"/>
<stop offset="0.86" stop-color="#C4D8F4"/>
<stop offset="1" stop-color="#ABC7EF"/>
</linearGradient>
<linearGradient id="paint17_linear" x1="-38567" y1="8690.28" x2="-38676.8" y2="9435.36" gradientUnits="userSpaceOnUse">
<stop stop-color="#FFA282"/>
<stop offset="1" stop-color="#FF4B70"/>
</linearGradient>
<linearGradient id="paint18_linear" x1="-40374" y1="7562.08" x2="-40488.7" y2="8320.64" gradientUnits="userSpaceOnUse">
<stop stop-color="#004E8B"/>
<stop offset="1" stop-color="#002880"/>
</linearGradient>
<linearGradient id="paint19_linear" x1="850570" y1="8048.47" x2="848280" y2="8048.47" gradientUnits="userSpaceOnUse">
<stop stop-color="#004E8B"/>
<stop offset="1" stop-color="#002880"/>
</linearGradient>
<linearGradient id="paint20_linear" x1="-40374" y1="7513.65" x2="-40488.7" y2="8272.22" gradientUnits="userSpaceOnUse">
<stop stop-color="#004E8B"/>
<stop offset="1" stop-color="#002880"/>
</linearGradient>
<linearGradient id="paint21_linear" x1="850570" y1="7999.32" x2="848280" y2="7999.32" gradientUnits="userSpaceOnUse">
<stop stop-color="#004E8B"/>
<stop offset="1" stop-color="#002880"/>
</linearGradient>
<linearGradient id="paint22_linear" x1="-40374" y1="7461.33" x2="-40488.7" y2="8219.46" gradientUnits="userSpaceOnUse">
<stop stop-color="#004E8B"/>
<stop offset="1" stop-color="#002880"/>
</linearGradient>
<linearGradient id="paint23_linear" x1="850570" y1="7945.71" x2="848280" y2="7945.71" gradientUnits="userSpaceOnUse">
<stop stop-color="#004E8B"/>
<stop offset="1" stop-color="#002880"/>
</linearGradient>
<linearGradient id="paint24_linear" x1="-40374" y1="7408.53" x2="-40488.7" y2="8167.1" gradientUnits="userSpaceOnUse">
<stop stop-color="#004E8B"/>
<stop offset="1" stop-color="#002880"/>
</linearGradient>
<linearGradient id="paint25_linear" x1="850570" y1="7892.61" x2="848280" y2="7892.61" gradientUnits="userSpaceOnUse">
<stop stop-color="#004E8B"/>
<stop offset="1" stop-color="#002880"/>
</linearGradient>
<linearGradient id="paint26_linear" x1="-40374" y1="7356.22" x2="-40488.7" y2="8114.78" gradientUnits="userSpaceOnUse">
<stop stop-color="#004E8B"/>
<stop offset="1" stop-color="#002880"/>
</linearGradient>
<linearGradient id="paint27_linear" x1="850570" y1="7839.53" x2="848280" y2="7839.53" gradientUnits="userSpaceOnUse">
<stop stop-color="#004E8B"/>
<stop offset="1" stop-color="#002880"/>
</linearGradient>
<linearGradient id="paint28_linear" x1="-40374" y1="7303.93" x2="-40488.7" y2="8062.06" gradientUnits="userSpaceOnUse">
<stop stop-color="#004E8B"/>
<stop offset="1" stop-color="#002880"/>
</linearGradient>
<linearGradient id="paint29_linear" x1="850570" y1="7785.81" x2="848280" y2="7785.81" gradientUnits="userSpaceOnUse">
<stop stop-color="#004E8B"/>
<stop offset="1" stop-color="#002880"/>
</linearGradient>
<linearGradient id="paint30_linear" x1="-40374" y1="7252.58" x2="-40488.7" y2="8011.15" gradientUnits="userSpaceOnUse">
<stop stop-color="#004E8B"/>
<stop offset="1" stop-color="#002880"/>
</linearGradient>
<linearGradient id="paint31_linear" x1="850570" y1="7734.33" x2="848280" y2="7734.33" gradientUnits="userSpaceOnUse">
<stop stop-color="#004E8B"/>
<stop offset="1" stop-color="#002880"/>
</linearGradient>
<linearGradient id="paint32_linear" x1="-40374" y1="7201.74" x2="-40488.7" y2="7959.87" gradientUnits="userSpaceOnUse">
<stop stop-color="#004E8B"/>
<stop offset="1" stop-color="#002880"/>
</linearGradient>
<linearGradient id="paint33_linear" x1="850570" y1="7682.2" x2="848280" y2="7682.2" gradientUnits="userSpaceOnUse">
<stop stop-color="#004E8B"/>
<stop offset="1" stop-color="#002880"/>
</linearGradient>
<linearGradient id="paint34_linear" x1="-33173.7" y1="10154.2" x2="-33288.1" y2="10912.6" gradientUnits="userSpaceOnUse">
<stop stop-color="#FFA282"/>
<stop offset="1" stop-color="#FF4B70"/>
</linearGradient>
<linearGradient id="paint35_linear" x1="857086" y1="10673" x2="854796" y2="10673" gradientUnits="userSpaceOnUse">
<stop stop-color="#FFA282"/>
<stop offset="1" stop-color="#FF4B70"/>
</linearGradient>
<linearGradient id="paint36_linear" x1="-33173.7" y1="10105.7" x2="-33288.1" y2="10864.2" gradientUnits="userSpaceOnUse">
<stop stop-color="#FFA282"/>
<stop offset="1" stop-color="#FF4B70"/>
</linearGradient>
<linearGradient id="paint37_linear" x1="857086" y1="10623.9" x2="854796" y2="10623.9" gradientUnits="userSpaceOnUse">
<stop stop-color="#FFA282"/>
<stop offset="1" stop-color="#FF4B70"/>
</linearGradient>
<linearGradient id="paint38_linear" x1="-33173.7" y1="10053.5" x2="-33288.1" y2="10811.4" gradientUnits="userSpaceOnUse">
<stop stop-color="#FFA282"/>
<stop offset="1" stop-color="#FF4B70"/>
</linearGradient>
<linearGradient id="paint39_linear" x1="857086" y1="10577.1" x2="854796" y2="10577.1" gradientUnits="userSpaceOnUse">
<stop stop-color="#FFA282"/>
<stop offset="1" stop-color="#FF4B70"/>
</linearGradient>
<linearGradient id="paint40_linear" x1="-33173.7" y1="10000.7" x2="-33288.1" y2="10759.1" gradientUnits="userSpaceOnUse">
<stop stop-color="#FFA282"/>
<stop offset="1" stop-color="#FF4B70"/>
</linearGradient>
<linearGradient id="paint41_linear" x1="857086" y1="10524" x2="854796" y2="10524" gradientUnits="userSpaceOnUse">
<stop stop-color="#FFA282"/>
<stop offset="1" stop-color="#FF4B70"/>
</linearGradient>
<linearGradient id="paint42_linear" x1="-33173.7" y1="9948.34" x2="-33288.1" y2="10706.8" gradientUnits="userSpaceOnUse">
<stop stop-color="#FFA282"/>
<stop offset="1" stop-color="#FF4B70"/>
</linearGradient>
<linearGradient id="paint43_linear" x1="857086" y1="10464.2" x2="854796" y2="10464.2" gradientUnits="userSpaceOnUse">
<stop stop-color="#FFA282"/>
<stop offset="1" stop-color="#FF4B70"/>
</linearGradient>
<linearGradient id="paint44_linear" x1="-33173.7" y1="9896.03" x2="-33288.1" y2="10654" gradientUnits="userSpaceOnUse">
<stop stop-color="#FFA282"/>
<stop offset="1" stop-color="#FF4B70"/>
</linearGradient>
<linearGradient id="paint45_linear" x1="857086" y1="10417.3" x2="854796" y2="10417.3" gradientUnits="userSpaceOnUse">
<stop stop-color="#FFA282"/>
<stop offset="1" stop-color="#FF4B70"/>
</linearGradient>
<linearGradient id="paint46_linear" x1="-33173.7" y1="9844.71" x2="-33288.1" y2="10603.1" gradientUnits="userSpaceOnUse">
<stop stop-color="#FFA282"/>
<stop offset="1" stop-color="#FF4B70"/>
</linearGradient>
<linearGradient id="paint47_linear" x1="857086" y1="10365.7" x2="854796" y2="10365.7" gradientUnits="userSpaceOnUse">
<stop stop-color="#FFA282"/>
<stop offset="1" stop-color="#FF4B70"/>
</linearGradient>
<linearGradient id="paint48_linear" x1="-33173.7" y1="9793.85" x2="-33288.1" y2="10551.8" gradientUnits="userSpaceOnUse">
<stop stop-color="#FFA282"/>
<stop offset="1" stop-color="#FF4B70"/>
</linearGradient>
<linearGradient id="paint49_linear" x1="857086" y1="10338.1" x2="854796" y2="10338.1" gradientUnits="userSpaceOnUse">
<stop stop-color="#FFA282"/>
<stop offset="1" stop-color="#FF4B70"/>
</linearGradient>
<linearGradient id="paint50_linear" x1="-33850.6" y1="7357.13" x2="-33939.4" y2="7944.92" gradientUnits="userSpaceOnUse">
<stop stop-color="#FFA282"/>
<stop offset="1" stop-color="#FF4B70"/>
</linearGradient>
<linearGradient id="paint51_linear" x1="748512" y1="7799.72" x2="746728" y2="7799.72" gradientUnits="userSpaceOnUse">
<stop stop-color="#FFA282"/>
<stop offset="1" stop-color="#FF4B70"/>
</linearGradient>
<linearGradient id="paint52_linear" x1="-33850.6" y1="7319.3" x2="-33939.4" y2="7907.09" gradientUnits="userSpaceOnUse">
<stop stop-color="#FFA282"/>
<stop offset="1" stop-color="#FF4B70"/>
</linearGradient>
<linearGradient id="paint53_linear" x1="748512" y1="7750.64" x2="746728" y2="7750.64" gradientUnits="userSpaceOnUse">
<stop stop-color="#FFA282"/>
<stop offset="1" stop-color="#FF4B70"/>
</linearGradient>
<linearGradient id="paint54_linear" x1="-33850.6" y1="7283.08" x2="-33939.6" y2="7871.65" gradientUnits="userSpaceOnUse">
<stop stop-color="#FFA282"/>
<stop offset="1" stop-color="#FF4B70"/>
</linearGradient>
<linearGradient id="paint55_linear" x1="748512" y1="7708.62" x2="746728" y2="7708.62" gradientUnits="userSpaceOnUse">
<stop stop-color="#FFA282"/>
<stop offset="1" stop-color="#FF4B70"/>
</linearGradient>
<linearGradient id="paint56_linear" x1="-33850.6" y1="7237.21" x2="-33939.4" y2="7825.38" gradientUnits="userSpaceOnUse">
<stop stop-color="#FFA282"/>
<stop offset="1" stop-color="#FF4B70"/>
</linearGradient>
<linearGradient id="paint57_linear" x1="748512" y1="7667" x2="746728" y2="7667" gradientUnits="userSpaceOnUse">
<stop stop-color="#FFA282"/>
<stop offset="1" stop-color="#FF4B70"/>
</linearGradient>
<linearGradient id="paint58_linear" x1="-33850.6" y1="7200.94" x2="-33939.6" y2="7789.51" gradientUnits="userSpaceOnUse">
<stop stop-color="#FFA282"/>
<stop offset="1" stop-color="#FF4B70"/>
</linearGradient>
<linearGradient id="paint59_linear" x1="748512" y1="7625.35" x2="746728" y2="7625.35" gradientUnits="userSpaceOnUse">
<stop stop-color="#FFA282"/>
<stop offset="1" stop-color="#FF4B70"/>
</linearGradient>
<linearGradient id="paint60_linear" x1="-33850.6" y1="7155.1" x2="-33939.4" y2="7743.27" gradientUnits="userSpaceOnUse">
<stop stop-color="#FFA282"/>
<stop offset="1" stop-color="#FF4B70"/>
</linearGradient>
<linearGradient id="paint61_linear" x1="748512" y1="7583.33" x2="746728" y2="7583.33" gradientUnits="userSpaceOnUse">
<stop stop-color="#FFA282"/>
<stop offset="1" stop-color="#FF4B70"/>
</linearGradient>
<linearGradient id="paint62_linear" x1="-33850.6" y1="7115.15" x2="-33939.4" y2="7703.32" gradientUnits="userSpaceOnUse">
<stop stop-color="#FFA282"/>
<stop offset="1" stop-color="#FF4B70"/>
</linearGradient>
<linearGradient id="paint63_linear" x1="748512" y1="7542.6" x2="746728" y2="7542.6" gradientUnits="userSpaceOnUse">
<stop stop-color="#FFA282"/>
<stop offset="1" stop-color="#FF4B70"/>
</linearGradient>
<linearGradient id="paint64_linear" x1="-33850.6" y1="7080.08" x2="-33939.6" y2="7668.65" gradientUnits="userSpaceOnUse">
<stop stop-color="#FFA282"/>
<stop offset="1" stop-color="#FF4B70"/>
</linearGradient>
<linearGradient id="paint65_linear" x1="748512" y1="7502.35" x2="746728" y2="7502.35" gradientUnits="userSpaceOnUse">
<stop stop-color="#FFA282"/>
<stop offset="1" stop-color="#FF4B70"/>
</linearGradient>
<linearGradient id="paint66_linear" x1="227.607" y1="133.719" x2="217.243" y2="173.284" gradientUnits="userSpaceOnUse">
<stop stop-color="#DBE5FF"/>
<stop offset="1" stop-color="#7388DC"/>
</linearGradient>
<linearGradient id="paint67_linear" x1="750829" y1="8065.34" x2="749045" y2="8065.34" gradientUnits="userSpaceOnUse">
<stop stop-color="#D0E5FA"/>
<stop offset="0.39" stop-color="#CDE2F9"/>
<stop offset="0.67" stop-color="#C4DAF6"/>
<stop offset="0.9" stop-color="#B5CDF1"/>
<stop offset="1" stop-color="#ACC5EE"/>
</linearGradient>
<linearGradient id="paint68_linear" x1="-32962.8" y1="7584.93" x2="-33051.7" y2="8172.72" gradientUnits="userSpaceOnUse">
<stop stop-color="#DBE5FF"/>
<stop offset="1" stop-color="#7388DC"/>
</linearGradient>
<linearGradient id="paint69_linear" x1="750829" y1="8026.78" x2="749045" y2="8026.78" gradientUnits="userSpaceOnUse">
<stop stop-color="#D0E5FA"/>
<stop offset="0.39" stop-color="#CDE2F9"/>
<stop offset="0.67" stop-color="#C4DAF6"/>
<stop offset="0.9" stop-color="#B5CDF1"/>
<stop offset="1" stop-color="#ACC5EE"/>
</linearGradient>
<linearGradient id="paint70_linear" x1="-32962.8" y1="7548.88" x2="-33051.8" y2="8137.45" gradientUnits="userSpaceOnUse">
<stop stop-color="#DBE5FF"/>
<stop offset="1" stop-color="#7388DC"/>
</linearGradient>
<linearGradient id="paint71_linear" x1="750829" y1="7979.7" x2="749045" y2="7979.7" gradientUnits="userSpaceOnUse">
<stop stop-color="#D0E5FA"/>
<stop offset="0.39" stop-color="#CDE2F9"/>
<stop offset="0.67" stop-color="#C4DAF6"/>
<stop offset="0.9" stop-color="#B5CDF1"/>
<stop offset="1" stop-color="#ACC5EE"/>
</linearGradient>
<linearGradient id="paint72_linear" x1="-32962.8" y1="7502.85" x2="-33051.7" y2="8091.02" gradientUnits="userSpaceOnUse">
<stop stop-color="#DBE5FF"/>
<stop offset="1" stop-color="#7388DC"/>
</linearGradient>
<linearGradient id="paint73_linear" x1="750829" y1="7937.69" x2="749045" y2="7937.69" gradientUnits="userSpaceOnUse">
<stop stop-color="#D0E5FA"/>
<stop offset="0.39" stop-color="#CDE2F9"/>
<stop offset="0.67" stop-color="#C4DAF6"/>
<stop offset="0.9" stop-color="#B5CDF1"/>
<stop offset="1" stop-color="#ACC5EE"/>
</linearGradient>
<linearGradient id="paint74_linear" x1="-32962.8" y1="7462.02" x2="-33051.7" y2="8049.81" gradientUnits="userSpaceOnUse">
<stop stop-color="#DBE5FF"/>
<stop offset="1" stop-color="#7388DC"/>
</linearGradient>
<linearGradient id="paint75_linear" x1="750829" y1="7896.16" x2="749045" y2="7896.16" gradientUnits="userSpaceOnUse">
<stop stop-color="#D0E5FA"/>
<stop offset="0.39" stop-color="#CDE2F9"/>
<stop offset="0.67" stop-color="#C4DAF6"/>
<stop offset="0.9" stop-color="#B5CDF1"/>
<stop offset="1" stop-color="#ACC5EE"/>
</linearGradient>
<linearGradient id="paint76_linear" x1="-32962.8" y1="7425.87" x2="-33051.8" y2="8014.44" gradientUnits="userSpaceOnUse">
<stop stop-color="#DBE5FF"/>
<stop offset="1" stop-color="#7388DC"/>
</linearGradient>
<linearGradient id="paint77_linear" x1="750829" y1="7848.71" x2="749045" y2="7848.71" gradientUnits="userSpaceOnUse">
<stop stop-color="#D0E5FA"/>
<stop offset="0.39" stop-color="#CDE2F9"/>
<stop offset="0.67" stop-color="#C4DAF6"/>
<stop offset="0.9" stop-color="#B5CDF1"/>
<stop offset="1" stop-color="#ACC5EE"/>
</linearGradient>
<linearGradient id="paint78_linear" x1="-32962.8" y1="7385.88" x2="-33051.8" y2="7974.45" gradientUnits="userSpaceOnUse">
<stop stop-color="#DBE5FF"/>
<stop offset="1" stop-color="#7388DC"/>
</linearGradient>
<linearGradient id="paint79_linear" x1="750829" y1="7813.3" x2="749045" y2="7813.3" gradientUnits="userSpaceOnUse">
<stop stop-color="#D0E5FA"/>
<stop offset="0.39" stop-color="#CDE2F9"/>
<stop offset="0.67" stop-color="#C4DAF6"/>
<stop offset="0.9" stop-color="#B5CDF1"/>
<stop offset="1" stop-color="#ACC5EE"/>
</linearGradient>
<linearGradient id="paint80_linear" x1="-32962.8" y1="7345.89" x2="-33051.8" y2="7934.46" gradientUnits="userSpaceOnUse">
<stop stop-color="#DBE5FF"/>
<stop offset="1" stop-color="#7388DC"/>
</linearGradient>
<linearGradient id="paint81_linear" x1="750829" y1="7772.97" x2="749045" y2="7772.97" gradientUnits="userSpaceOnUse">
<stop stop-color="#D0E5FA"/>
<stop offset="0.39" stop-color="#CDE2F9"/>
<stop offset="0.67" stop-color="#C4DAF6"/>
<stop offset="0.9" stop-color="#B5CDF1"/>
<stop offset="1" stop-color="#ACC5EE"/>
</linearGradient>
<linearGradient id="paint82_linear" x1="-32345" y1="8131.25" x2="-32433.9" y2="8719.41" gradientUnits="userSpaceOnUse">
<stop stop-color="#DBE5FF"/>
<stop offset="1" stop-color="#7388DC"/>
</linearGradient>
<linearGradient id="paint83_linear" x1="751086" y1="8595.36" x2="749302" y2="8595.36" gradientUnits="userSpaceOnUse">
<stop stop-color="#D0E5FA"/>
<stop offset="0.39" stop-color="#CDE2F9"/>
<stop offset="0.67" stop-color="#C4DAF6"/>
<stop offset="0.9" stop-color="#B5CDF1"/>
<stop offset="1" stop-color="#ACC5EE"/>
</linearGradient>
<linearGradient id="paint84_linear" x1="-32345" y1="8093.43" x2="-32433.9" y2="8681.6" gradientUnits="userSpaceOnUse">
<stop stop-color="#DBE5FF"/>
<stop offset="1" stop-color="#7388DC"/>
</linearGradient>
<linearGradient id="paint85_linear" x1="751086" y1="8545.27" x2="749302" y2="8545.27" gradientUnits="userSpaceOnUse">
<stop stop-color="#D0E5FA"/>
<stop offset="0.39" stop-color="#CDE2F9"/>
<stop offset="0.67" stop-color="#C4DAF6"/>
<stop offset="0.9" stop-color="#B5CDF1"/>
<stop offset="1" stop-color="#ACC5EE"/>
</linearGradient>
<linearGradient id="paint86_linear" x1="-32345" y1="8052.19" x2="-32433.9" y2="8640.35" gradientUnits="userSpaceOnUse">
<stop stop-color="#DBE5FF"/>
<stop offset="1" stop-color="#7388DC"/>
</linearGradient>
<linearGradient id="paint87_linear" x1="751086" y1="8497.88" x2="749302" y2="8497.88" gradientUnits="userSpaceOnUse">
<stop stop-color="#D0E5FA"/>
<stop offset="0.39" stop-color="#CDE2F9"/>
<stop offset="0.67" stop-color="#C4DAF6"/>
<stop offset="0.9" stop-color="#B5CDF1"/>
<stop offset="1" stop-color="#ACC5EE"/>
</linearGradient>
<linearGradient id="paint88_linear" x1="-32345" y1="8011.31" x2="-32433.9" y2="8599.48" gradientUnits="userSpaceOnUse">
<stop stop-color="#DBE5FF"/>
<stop offset="1" stop-color="#7388DC"/>
</linearGradient>
<linearGradient id="paint89_linear" x1="751086" y1="8455.85" x2="749302" y2="8455.85" gradientUnits="userSpaceOnUse">
<stop stop-color="#D0E5FA"/>
<stop offset="0.39" stop-color="#CDE2F9"/>
<stop offset="0.67" stop-color="#C4DAF6"/>
<stop offset="0.9" stop-color="#B5CDF1"/>
<stop offset="1" stop-color="#ACC5EE"/>
</linearGradient>
<linearGradient id="paint90_linear" x1="-32345" y1="7970.49" x2="-32433.9" y2="8558.27" gradientUnits="userSpaceOnUse">
<stop stop-color="#DBE5FF"/>
<stop offset="1" stop-color="#7388DC"/>
</linearGradient>
<linearGradient id="paint91_linear" x1="751086" y1="8414.22" x2="749302" y2="8414.22" gradientUnits="userSpaceOnUse">
<stop stop-color="#D0E5FA"/>
<stop offset="0.39" stop-color="#CDE2F9"/>
<stop offset="0.67" stop-color="#C4DAF6"/>
<stop offset="0.9" stop-color="#B5CDF1"/>
<stop offset="1" stop-color="#ACC5EE"/>
</linearGradient>
<linearGradient id="paint92_linear" x1="-32345" y1="7934.7" x2="-32434.1" y2="8523.26" gradientUnits="userSpaceOnUse">
<stop stop-color="#DBE5FF"/>
<stop offset="1" stop-color="#7388DC"/>
</linearGradient>
<linearGradient id="paint93_linear" x1="751086" y1="8372.19" x2="749302" y2="8372.19" gradientUnits="userSpaceOnUse">
<stop stop-color="#D0E5FA"/>
<stop offset="0.39" stop-color="#CDE2F9"/>
<stop offset="0.67" stop-color="#C4DAF6"/>
<stop offset="0.9" stop-color="#B5CDF1"/>
<stop offset="1" stop-color="#ACC5EE"/>
</linearGradient>
<linearGradient id="paint94_linear" x1="-32345" y1="7894.71" x2="-32434.1" y2="8483.27" gradientUnits="userSpaceOnUse">
<stop stop-color="#DBE5FF"/>
<stop offset="1" stop-color="#7388DC"/>
</linearGradient>
<linearGradient id="paint95_linear" x1="751086" y1="8331.89" x2="749302" y2="8331.89" gradientUnits="userSpaceOnUse">
<stop stop-color="#D0E5FA"/>
<stop offset="0.39" stop-color="#CDE2F9"/>
<stop offset="0.67" stop-color="#C4DAF6"/>
<stop offset="0.9" stop-color="#B5CDF1"/>
<stop offset="1" stop-color="#ACC5EE"/>
</linearGradient>
<linearGradient id="paint96_linear" x1="-32345" y1="7849.31" x2="-32433.9" y2="8437.47" gradientUnits="userSpaceOnUse">
<stop stop-color="#DBE5FF"/>
<stop offset="1" stop-color="#7388DC"/>
</linearGradient>
<linearGradient id="paint97_linear" x1="751086" y1="8291.2" x2="749302" y2="8291.2" gradientUnits="userSpaceOnUse">
<stop stop-color="#D0E5FA"/>
<stop offset="0.39" stop-color="#CDE2F9"/>
<stop offset="0.67" stop-color="#C4DAF6"/>
<stop offset="0.9" stop-color="#B5CDF1"/>
<stop offset="1" stop-color="#ACC5EE"/>
</linearGradient>
<linearGradient id="paint98_linear" x1="224374" y1="4335.29" x2="224437" y2="4372.34" gradientUnits="userSpaceOnUse">
<stop stop-color="#FFA282"/>
<stop offset="1" stop-color="#FF4B70"/>
</linearGradient>
<linearGradient id="paint99_linear" x1="74857" y1="2006.13" x2="75028.6" y2="2082.8" gradientUnits="userSpaceOnUse">
<stop stop-color="#FFA282"/>
<stop offset="1" stop-color="#FF4B70"/>
</linearGradient>
<linearGradient id="paint100_linear" x1="67.8803" y1="175.036" x2="85.3892" y2="175.036" gradientUnits="userSpaceOnUse">
<stop stop-color="#7594D1"/>
<stop offset="1" stop-color="#B4CDF6"/>
</linearGradient>
<linearGradient id="paint101_linear" x1="-47511.7" y1="3347.07" x2="-47879.3" y2="3379.28" gradientUnits="userSpaceOnUse">
<stop stop-color="#7594D1"/>
<stop offset="1" stop-color="#B4CDF6"/>
</linearGradient>
<linearGradient id="paint102_linear" x1="-15508.8" y1="6306.37" x2="-15435.8" y2="6306.37" gradientUnits="userSpaceOnUse">
<stop stop-color="#0097C5"/>
<stop offset="1" stop-color="#0088BA"/>
</linearGradient>
<linearGradient id="paint103_linear" x1="-30443.4" y1="6685.85" x2="-30222.6" y2="6685.85" gradientUnits="userSpaceOnUse">
<stop stop-color="#1A317B"/>
<stop offset="1" stop-color="#18176E"/>
</linearGradient>
<linearGradient id="paint104_linear" x1="-30267" y1="6762.52" x2="-30046" y2="6762.52" gradientUnits="userSpaceOnUse">
<stop stop-color="#1A317B"/>
<stop offset="1" stop-color="#18176E"/>
</linearGradient>
<linearGradient id="paint105_linear" x1="-52917.4" y1="16772.3" x2="-52456.2" y2="18702.1" gradientUnits="userSpaceOnUse">
<stop stop-color="#1A317B"/>
<stop offset="1" stop-color="#18176E"/>
</linearGradient>
<linearGradient id="paint106_linear" x1="-52247.6" y1="12386.7" x2="-53252.2" y2="12423.8" gradientUnits="userSpaceOnUse">
<stop stop-color="#7594D1"/>
<stop offset="1" stop-color="#B4CDF6"/>
</linearGradient>
<linearGradient id="paint107_linear" x1="-41958.4" y1="7160.18" x2="-42489.4" y2="7165.86" gradientUnits="userSpaceOnUse">
<stop stop-color="#7594D1"/>
<stop offset="1" stop-color="#B4CDF6"/>
</linearGradient>
<linearGradient id="paint108_linear" x1="-40985.5" y1="3654.29" x2="-41504.3" y2="3665.38" gradientUnits="userSpaceOnUse">
<stop stop-color="#7594D1"/>
<stop offset="1" stop-color="#B4CDF6"/>
</linearGradient>
</defs>
</svg>
