<svg width="56" height="56" viewBox="0 0 56 56" fill="none" xmlns="http://www.w3.org/2000/svg">
<rect x="55.5" y="55.5" width="55" height="55" rx="4.5" transform="rotate(-180 55.5 55.5)" stroke="url(#paint0_linear)"/>
<mask id="path-2-inside-1" fill="white">
<path d="M41.2594 21.5245H39.9121V20.658L40.7527 19.7321C41.1892 19.2515 41.4295 18.6293 41.4295 17.9801V15.7844C41.4295 14.2491 40.1804 13 38.6451 13H37.3643C35.829 13 34.5799 14.2491 34.5799 15.7844V17.9801C34.5799 18.6293 34.8203 19.2516 35.2566 19.7321L36.0974 20.6581V21.5245H34.75C33.441 21.5245 32.344 22.4472 32.0737 23.6763C31.9362 23.6571 31.7959 23.6465 31.6532 23.6465H30.0749V22.5866L31.0377 21.5264C31.519 20.9963 31.7841 20.31 31.7841 19.5939V17.1208C31.7841 15.4251 30.4045 14.0456 28.7088 14.0456C28.4431 14.0456 28.2278 14.2609 28.2278 14.5267C28.2278 14.7924 28.4431 15.0078 28.7088 15.0078C29.874 15.0078 30.822 15.9556 30.822 17.1208V19.5938C30.822 20.0703 30.6456 20.5268 30.3254 20.8795L29.334 21.9713C29.201 22.0569 29.1129 22.2062 29.1129 22.3762V24.1276C29.1129 24.3933 29.3282 24.6086 29.594 24.6086H31.6533C32.7912 24.6086 33.7171 25.5345 33.7171 26.6725V29.6911H22.2581V26.6725C22.2581 25.7852 22.821 25.0271 23.6083 24.736C23.6453 24.7282 23.6805 24.7159 23.7138 24.7001C23.9061 24.6408 24.1104 24.6086 24.3219 24.6086H26.3812C26.6469 24.6086 26.8623 24.3933 26.8623 24.1275V22.3761C26.8623 22.2062 26.7742 22.0568 26.6412 21.9713L25.6498 20.8795C25.3295 20.5268 25.1531 20.0701 25.1531 19.5938V17.1208C25.1531 15.9557 26.101 15.0078 27.2662 15.0078C27.5319 15.0078 27.7473 14.7924 27.7473 14.5267C27.7473 14.2609 27.5319 14.0456 27.2662 14.0456C25.5705 14.0456 24.191 15.4251 24.191 17.1208V19.5938C24.191 20.3098 24.4561 20.9961 24.9374 21.5263L25.9 22.5865V23.6464H24.3218C24.1873 23.6464 24.0552 23.6561 23.9254 23.6732C23.654 22.4456 22.5578 21.5245 21.2499 21.5245H19.9025V20.658L20.7432 19.7321C21.1796 19.2515 21.42 18.6293 21.42 17.9801V15.7844C21.42 14.2491 20.1708 13 18.6355 13H17.3549C15.8196 13 14.5705 14.2491 14.5705 15.7844V17.9801C14.5705 18.6293 14.8108 19.2516 15.2473 19.7321L16.088 20.6581V21.5245H14.7406C13.2294 21.5245 12 22.7539 12 24.2651V27.3723C12 27.6381 12.2154 27.8534 12.4811 27.8534H19.966C20.2316 27.8534 20.447 27.6381 20.447 27.3723C20.447 27.1066 20.2316 26.8913 19.966 26.8913H12.9621V24.2651C12.9621 23.2845 13.7599 22.4866 14.7406 22.4866H16.5691C16.8348 22.4866 17.0501 22.2713 17.0501 22.0055V20.4505C17.0501 20.2832 16.9647 20.1358 16.8351 20.0496L15.9595 19.0854C15.6842 18.7822 15.5326 18.3897 15.5326 17.9801V15.7844C15.5326 14.7796 16.35 13.9621 17.3548 13.9621H18.6356C19.6404 13.9621 20.4579 14.7796 20.4579 15.7844V17.9801C20.4579 18.3896 20.3063 18.7822 20.031 19.0853L19.1553 20.0496C19.0258 20.1358 18.9404 20.2832 18.9404 20.4505V22.0055C18.9404 22.2712 19.1558 22.4865 19.4215 22.4865H21.2499C22.1233 22.4865 22.8512 23.1196 23 23.9509C21.9921 24.4424 21.296 25.4774 21.296 26.6723V30.172C21.296 30.4377 21.5113 30.653 21.777 30.653H34.198C34.4638 30.653 34.6791 30.4377 34.6791 30.172V26.6723C34.6791 25.4866 33.9933 24.4586 32.9978 23.9626C33.1419 23.1256 33.8725 22.4865 34.75 22.4865H36.5785C36.8442 22.4865 37.0596 22.2712 37.0596 22.0055V20.4505C37.0596 20.2831 36.9741 20.1357 36.8444 20.0495L35.9689 19.0853C35.6936 18.7822 35.542 18.3896 35.542 17.9801V15.7844C35.542 14.7796 36.3595 13.9621 37.3643 13.9621H38.6451C39.6499 13.9621 40.4674 14.7796 40.4674 15.7844V17.9801C40.4674 18.3896 40.3157 18.7822 40.0404 19.0853L39.1649 20.0496C39.0352 20.1358 38.9499 20.2832 38.9499 20.4505V22.0055C38.9499 22.2712 39.1652 22.4865 39.4309 22.4865H41.2594C42.24 22.4865 43.0379 23.2843 43.0379 24.265V26.8912H36.1168C35.851 26.8912 35.6357 27.1065 35.6357 27.3723C35.6357 27.638 35.851 27.8533 36.1168 27.8533H43.5189C43.7847 27.8533 44 27.638 44 27.3723V24.265C44.0001 22.7539 42.7706 21.5245 41.2594 21.5245Z"/>
</mask>
<path d="M41.2594 21.5245H39.9121V20.658L40.7527 19.7321C41.1892 19.2515 41.4295 18.6293 41.4295 17.9801V15.7844C41.4295 14.2491 40.1804 13 38.6451 13H37.3643C35.829 13 34.5799 14.2491 34.5799 15.7844V17.9801C34.5799 18.6293 34.8203 19.2516 35.2566 19.7321L36.0974 20.6581V21.5245H34.75C33.441 21.5245 32.344 22.4472 32.0737 23.6763C31.9362 23.6571 31.7959 23.6465 31.6532 23.6465H30.0749V22.5866L31.0377 21.5264C31.519 20.9963 31.7841 20.31 31.7841 19.5939V17.1208C31.7841 15.4251 30.4045 14.0456 28.7088 14.0456C28.4431 14.0456 28.2278 14.2609 28.2278 14.5267C28.2278 14.7924 28.4431 15.0078 28.7088 15.0078C29.874 15.0078 30.822 15.9556 30.822 17.1208V19.5938C30.822 20.0703 30.6456 20.5268 30.3254 20.8795L29.334 21.9713C29.201 22.0569 29.1129 22.2062 29.1129 22.3762V24.1276C29.1129 24.3933 29.3282 24.6086 29.594 24.6086H31.6533C32.7912 24.6086 33.7171 25.5345 33.7171 26.6725V29.6911H22.2581V26.6725C22.2581 25.7852 22.821 25.0271 23.6083 24.736C23.6453 24.7282 23.6805 24.7159 23.7138 24.7001C23.9061 24.6408 24.1104 24.6086 24.3219 24.6086H26.3812C26.6469 24.6086 26.8623 24.3933 26.8623 24.1275V22.3761C26.8623 22.2062 26.7742 22.0568 26.6412 21.9713L25.6498 20.8795C25.3295 20.5268 25.1531 20.0701 25.1531 19.5938V17.1208C25.1531 15.9557 26.101 15.0078 27.2662 15.0078C27.5319 15.0078 27.7473 14.7924 27.7473 14.5267C27.7473 14.2609 27.5319 14.0456 27.2662 14.0456C25.5705 14.0456 24.191 15.4251 24.191 17.1208V19.5938C24.191 20.3098 24.4561 20.9961 24.9374 21.5263L25.9 22.5865V23.6464H24.3218C24.1873 23.6464 24.0552 23.6561 23.9254 23.6732C23.654 22.4456 22.5578 21.5245 21.2499 21.5245H19.9025V20.658L20.7432 19.7321C21.1796 19.2515 21.42 18.6293 21.42 17.9801V15.7844C21.42 14.2491 20.1708 13 18.6355 13H17.3549C15.8196 13 14.5705 14.2491 14.5705 15.7844V17.9801C14.5705 18.6293 14.8108 19.2516 15.2473 19.7321L16.088 20.6581V21.5245H14.7406C13.2294 21.5245 12 22.7539 12 24.2651V27.3723C12 27.6381 12.2154 27.8534 12.4811 27.8534H19.966C20.2316 27.8534 20.447 27.6381 20.447 27.3723C20.447 27.1066 20.2316 26.8913 19.966 26.8913H12.9621V24.2651C12.9621 23.2845 13.7599 22.4866 14.7406 22.4866H16.5691C16.8348 22.4866 17.0501 22.2713 17.0501 22.0055V20.4505C17.0501 20.2832 16.9647 20.1358 16.8351 20.0496L15.9595 19.0854C15.6842 18.7822 15.5326 18.3897 15.5326 17.9801V15.7844C15.5326 14.7796 16.35 13.9621 17.3548 13.9621H18.6356C19.6404 13.9621 20.4579 14.7796 20.4579 15.7844V17.9801C20.4579 18.3896 20.3063 18.7822 20.031 19.0853L19.1553 20.0496C19.0258 20.1358 18.9404 20.2832 18.9404 20.4505V22.0055C18.9404 22.2712 19.1558 22.4865 19.4215 22.4865H21.2499C22.1233 22.4865 22.8512 23.1196 23 23.9509C21.9921 24.4424 21.296 25.4774 21.296 26.6723V30.172C21.296 30.4377 21.5113 30.653 21.777 30.653H34.198C34.4638 30.653 34.6791 30.4377 34.6791 30.172V26.6723C34.6791 25.4866 33.9933 24.4586 32.9978 23.9626C33.1419 23.1256 33.8725 22.4865 34.75 22.4865H36.5785C36.8442 22.4865 37.0596 22.2712 37.0596 22.0055V20.4505C37.0596 20.2831 36.9741 20.1357 36.8444 20.0495L35.9689 19.0853C35.6936 18.7822 35.542 18.3896 35.542 17.9801V15.7844C35.542 14.7796 36.3595 13.9621 37.3643 13.9621H38.6451C39.6499 13.9621 40.4674 14.7796 40.4674 15.7844V17.9801C40.4674 18.3896 40.3157 18.7822 40.0404 19.0853L39.1649 20.0496C39.0352 20.1358 38.9499 20.2832 38.9499 20.4505V22.0055C38.9499 22.2712 39.1652 22.4865 39.4309 22.4865H41.2594C42.24 22.4865 43.0379 23.2843 43.0379 24.265V26.8912H36.1168C35.851 26.8912 35.6357 27.1065 35.6357 27.3723C35.6357 27.638 35.851 27.8533 36.1168 27.8533H43.5189C43.7847 27.8533 44 27.638 44 27.3723V24.265C44.0001 22.7539 42.7706 21.5245 41.2594 21.5245Z" fill="url(#paint1_linear)" stroke="#1B2038" stroke-width="0.4" mask="url(#path-2-inside-1)"/>
<path d="M32.7428 36.7809L32.7428 36.7809C32.7869 36.9165 32.7516 37.0652 32.6512 37.1666L32.6511 37.1667L30.7787 39.0602L30.7434 39.096L30.751 39.1456L31.1529 41.7781C31.1743 41.9191 31.1155 42.0602 31.0002 42.1439L31 42.1439C30.8849 42.2277 30.7325 42.2402 30.6051 42.1761L30.5602 42.2655L30.6051 42.1761L28.2255 40.9805L28.1806 40.9579L28.1357 40.9805L25.7562 42.1761L25.7562 42.1761C25.7021 42.2033 25.6435 42.2167 25.5852 42.2167C25.5061 42.2167 25.4275 42.1921 25.3612 42.1439L25.3611 42.1439C25.2458 42.0602 25.1869 41.9191 25.2084 41.7781C25.2084 41.7781 25.2084 41.7781 25.2084 41.7781L25.6102 39.1456L25.6178 39.096L25.5825 39.0602L23.7101 37.1667C23.7101 37.1667 23.7101 37.1667 23.7101 37.1667C23.6099 37.0652 23.5746 36.9165 23.6187 36.7809L23.6187 36.7809C23.6627 36.6453 23.7787 36.5457 23.9194 36.5226C23.9194 36.5226 23.9194 36.5226 23.9194 36.5226L26.5473 36.0912L26.5969 36.0831L26.6199 36.0384L27.8422 33.6724L27.8422 33.6724C27.9076 33.5457 28.0382 33.4662 28.1808 33.4662C28.3233 33.4662 28.4539 33.5458 28.5193 33.6724L29.7416 36.0384L29.7647 36.0831L29.8143 36.0912L32.4421 36.5226C32.5829 36.5457 32.6988 36.6454 32.7428 36.7809ZM30.1154 41.0769L30.2884 41.1638L30.2592 40.9724L29.9614 39.0216C29.9433 38.9026 29.9824 38.7818 30.0671 38.6961L31.4546 37.2928L31.5906 37.1551L31.3997 37.1238L29.4522 36.8042C29.3333 36.7846 29.2307 36.71 29.1754 36.603C29.1754 36.603 29.1754 36.603 29.1754 36.603L28.2695 34.8496L28.1807 34.6776L28.0919 34.8496L27.186 36.603L27.186 36.603C27.1307 36.71 27.0281 36.7846 26.9092 36.8042L24.9617 37.1238L24.7707 37.1551L24.9068 37.2928L26.2945 38.6962L26.2946 38.6962C26.3792 38.7817 26.4185 38.9024 26.4003 39.0216C26.4003 39.0216 26.4003 39.0216 26.4003 39.0216L26.1025 40.9724L26.0733 41.1638L26.2463 41.0769L28.0098 40.1909C28.0098 40.1909 28.0098 40.1909 28.0098 40.1909C28.1174 40.1368 28.2442 40.1368 28.3519 40.1909C28.3519 40.1909 28.352 40.1909 28.352 40.1909L30.1154 41.0769Z" fill="url(#paint2_linear)" stroke="#1B2038" stroke-width="0.2"/>
<path d="M41.7825 38.2257L41.3806 35.5932L43.253 33.6996C43.3798 33.5717 43.4243 33.3838 43.3687 33.2127C43.313 33.0416 43.1667 32.9157 42.9892 32.8866M41.7825 38.2257L41.6836 38.2408L41.2818 35.6083L41.2742 35.5586L41.3095 35.5229L43.1819 33.6293L43.182 33.6292C43.2824 33.5279 43.3176 33.3791 43.2736 33.2436C43.2295 33.108 43.1136 33.0084 42.973 32.9852L42.9892 32.8866M41.7825 38.2257C41.8096 38.4036 41.7353 38.5818 41.5897 38.6875C41.506 38.7484 41.4067 38.7794 41.3069 38.7794C41.2332 38.7794 41.1592 38.7625 41.091 38.7282L38.7114 37.5326L36.3318 38.7282C36.1712 38.8091 35.9788 38.7933 35.8332 38.6875C35.6875 38.5818 35.6132 38.4036 35.6403 38.2257M41.7825 38.2257L41.6836 38.2408C41.7051 38.3818 41.6462 38.5229 41.5309 38.6066L41.5308 38.6067C41.4646 38.6549 41.3861 38.6794 41.3069 38.6794C41.2486 38.6794 41.19 38.666 41.1359 38.6388L41.1359 38.6388L38.7563 37.4432L38.7114 37.4206L38.6665 37.4432L36.2869 38.6388L36.2869 38.6389C36.1597 38.7029 36.0074 38.6904 35.8919 38.6066L35.8919 38.6066C35.7766 38.5229 35.7177 38.3818 35.7392 38.2408M42.9892 32.8866L42.973 32.9852L40.3452 32.5539L40.2956 32.5457L40.2725 32.5011L39.0501 30.1351L39.139 30.0892M42.9892 32.8866L40.3614 32.4552L39.139 30.0892M39.139 30.0892C39.0564 29.9294 38.8915 29.8289 38.7116 29.8289C38.5316 29.8289 38.3668 29.9292 38.2842 30.0892L37.0619 32.4552L34.434 32.8866M39.139 30.0892L39.0501 30.1351C38.9847 30.0085 38.8541 29.9289 38.7116 29.9289C38.569 29.9289 38.4385 30.0084 38.3731 30.135L38.3731 30.1351L37.1508 32.5011L37.1277 32.5457L37.0781 32.5539L34.4502 32.9852M34.434 32.8866C34.2564 32.9157 34.11 33.0415 34.0543 33.2127C33.9987 33.3838 34.0432 33.5717 34.1698 33.6996L36.0422 35.5932L35.6403 38.2257M34.434 32.8866L34.4502 32.9852M34.434 32.8866L34.4502 32.9852L34.4502 32.9852M35.6403 38.2257L35.7392 38.2408M35.6403 38.2257L35.7392 38.2408L35.7392 38.2408M35.7392 38.2408L36.1411 35.6083L36.1487 35.5586L36.1133 35.5229L34.2409 33.6293L34.2409 33.6293C34.1406 33.528 34.1054 33.3792 34.1494 33.2436L34.1494 33.2436C34.1935 33.108 34.3095 33.0084 34.4502 32.9852M40.5979 35.1589L40.5979 35.1589L41.9853 33.7555L42.1214 33.6179L41.9304 33.5866L39.983 33.2669C39.983 33.2669 39.983 33.2669 39.983 33.2669C39.8641 33.2474 39.7615 33.1728 39.7062 33.0658L38.8003 31.3123L38.7115 31.1404L38.6226 31.3123L37.7168 33.0658L37.7168 33.0658C37.6616 33.1728 37.5589 33.2474 37.44 33.2669L35.4925 33.5866L35.3015 33.6179L35.4376 33.7556L36.8253 35.1589L36.8253 35.1589C36.91 35.2444 36.9492 35.3651 36.931 35.4843L36.6332 37.4352L36.604 37.6266L36.777 37.5397L38.5405 36.6537C38.5405 36.6537 38.5405 36.6537 38.5405 36.6537C38.5944 36.6266 38.653 36.6131 38.7116 36.6131C38.7702 36.6131 38.8288 36.6266 38.8827 36.6537C38.8827 36.6537 38.8827 36.6537 38.8827 36.6537L40.6462 37.5397L40.8192 37.6266L40.79 37.4352L40.4922 35.4843C40.4921 35.4843 40.4921 35.4843 40.4921 35.4843C40.474 35.3652 40.5132 35.2445 40.5979 35.1589Z" fill="url(#paint3_linear)" stroke="#1B2038" stroke-width="0.2"/>
<path d="M22.2126 33.2436L22.2126 33.2437C22.2566 33.3791 22.2213 33.5279 22.1209 33.6293L22.1209 33.6294L20.2485 35.5229L20.2132 35.5587L20.2208 35.6083L20.6226 38.2409C20.6441 38.3818 20.5852 38.523 20.4699 38.6066L20.4698 38.6067C20.4036 38.6549 20.325 38.6795 20.2458 38.6795C20.1875 38.6795 20.1289 38.6661 20.0749 38.6389L20.0748 38.6389L17.6953 37.4433L17.6504 37.4207L17.6055 37.4433L15.226 38.6389L15.2259 38.6389C15.0987 38.7029 14.9463 38.6905 14.8309 38.6067L14.8309 38.6066C14.7156 38.523 14.6567 38.3818 14.6782 38.2409L15.08 35.6083L15.0876 35.5587L15.0523 35.5229L13.1798 33.6294C13.1798 33.6294 13.1798 33.6294 13.1798 33.6294C13.0796 33.528 13.0443 33.3792 13.0884 33.2437L13.0884 33.2436C13.1325 33.108 13.2485 33.0084 13.3891 32.9853C13.3891 32.9853 13.3891 32.9853 13.3891 32.9853L16.017 32.5539L16.0666 32.5458L16.0896 32.5011L17.3118 30.1351C17.3773 30.0084 17.5078 29.9289 17.6504 29.9289C17.793 29.9289 17.9235 30.0084 17.989 30.1351C17.989 30.1351 17.989 30.1351 17.989 30.1351L19.2113 32.5011L19.2344 32.5457L19.284 32.5539L21.9118 32.9852C22.0525 33.0084 22.1686 33.108 22.2126 33.2436ZM19.5368 35.1589L19.5368 35.1589L20.9245 33.7556L21.0607 33.6179L20.8696 33.5866L18.9222 33.2669C18.8033 33.2474 18.7006 33.1728 18.6453 33.0658C18.6453 33.0658 18.6453 33.0658 18.6453 33.0658L17.7395 31.3123L17.6506 31.1404L17.5618 31.3123L16.656 33.0658C16.656 33.0658 16.656 33.0658 16.656 33.0658C16.6007 33.1728 16.498 33.2474 16.3791 33.2669L14.4316 33.5866L14.2406 33.6179L14.3767 33.7555L15.7642 35.1589L15.7642 35.1589C15.8489 35.2445 15.8881 35.3651 15.8699 35.4843C15.8699 35.4843 15.8699 35.4843 15.8699 35.4843L15.5721 37.4352L15.5429 37.6266L15.7159 37.5397L17.4794 36.6537C17.4794 36.6537 17.4794 36.6537 17.4794 36.6537C17.5332 36.6266 17.5919 36.6131 17.6505 36.6131C17.7092 36.6131 17.7678 36.6266 17.8215 36.6536L17.8216 36.6537L19.585 37.5397L19.758 37.6266L19.7288 37.4352L19.431 35.4843L19.431 35.4843C19.4129 35.3653 19.4521 35.2445 19.5368 35.1589Z" fill="url(#paint4_linear)" stroke="#1B2038" stroke-width="0.2"/>
<defs>
<linearGradient id="paint0_linear" x1="56" y1="84" x2="112" y2="84" gradientUnits="userSpaceOnUse">
<stop offset="0.0520833" stop-color="#FF8C3E" stop-opacity="0"/>
<stop offset="1" stop-color="#FF5968"/>
</linearGradient>
<linearGradient id="paint1_linear" x1="12" y1="21.8265" x2="44" y2="21.8265" gradientUnits="userSpaceOnUse">
<stop stop-color="#FF8D3D"/>
<stop offset="1" stop-color="#FF5969"/>
</linearGradient>
<linearGradient id="paint2_linear" x1="23.5" y1="37.8415" x2="32.8615" y2="37.8415" gradientUnits="userSpaceOnUse">
<stop stop-color="#FF8D3D"/>
<stop offset="1" stop-color="#FF5969"/>
</linearGradient>
<linearGradient id="paint3_linear" x1="34.0308" y1="34.3041" x2="43.3922" y2="34.3041" gradientUnits="userSpaceOnUse">
<stop stop-color="#FF8D3D"/>
<stop offset="1" stop-color="#FF5969"/>
</linearGradient>
<linearGradient id="paint4_linear" x1="12.9697" y1="34.3042" x2="22.3312" y2="34.3042" gradientUnits="userSpaceOnUse">
<stop stop-color="#FF8D3D"/>
<stop offset="1" stop-color="#FF5969"/>
</linearGradient>
</defs>
</svg>
