<svg width="56" height="56" viewBox="0 0 56 56" fill="none" xmlns="http://www.w3.org/2000/svg">
<rect x="55.5" y="0.5" width="55" height="55" rx="4.5" transform="rotate(90 55.5 0.5)" stroke="url(#paint0_linear)"/>
<path d="M18.783 43.0709L18.783 43.0709L17.8421 41.7455L17.842 41.7455C17.6743 41.509 17.3465 41.4534 17.1101 41.6213L18.783 43.0709ZM18.783 43.0709C18.9509 43.3073 18.8952 43.635 18.6588 43.8029M18.783 43.0709L17.9236 41.6876L18.8645 43.013C19.0644 43.2945 18.9982 43.6846 18.7167 43.8844M18.7167 43.8844L18.6588 43.8029M18.7167 43.8844C18.6069 43.9623 18.4806 43.9998 18.3555 43.9998C18.1598 43.9998 17.9672 43.9083 17.8453 43.7366L18.6588 43.8029L18.7167 43.8844ZM18.6588 43.8029C18.5665 43.8684 18.4605 43.8998 18.3555 43.8998C18.1908 43.8998 18.0292 43.8229 17.9268 43.6787L17.9268 43.6787L16.9859 42.3533L16.9859 42.3533C16.818 42.1168 16.8736 41.7891 17.11 41.6213L18.6588 43.8029Z" fill="url(#paint1_linear)" stroke="#282E48" stroke-width="0.2"/>
<path d="M16.0845 31.6467V31.402V23.871C16.0845 22.9294 15.4431 22.1301 14.5239 21.9261L14.5239 21.9261C13.9307 21.7943 13.3193 21.9369 12.8454 22.3171C12.3715 22.6973 12.1 23.2635 12.1 23.871V33.5617C12.1 34.8105 12.482 36.0086 13.205 37.027L14.3195 38.597L14.238 38.6549L14.3195 38.597C14.4219 38.7412 14.5835 38.8182 14.7482 38.8182C14.8532 38.8182 14.9592 38.7867 15.0515 38.7212C15.2879 38.5533 15.3436 38.2256 15.1757 37.9892L15.2572 37.9313L15.1757 37.9892L14.0611 36.4191C13.4651 35.5795 13.15 34.5912 13.15 33.5616V23.871C13.15 23.5839 13.2786 23.3158 13.5025 23.1361L13.5025 23.1361C13.7264 22.9564 14.0159 22.8889 14.2964 22.9511C14.2964 22.9511 14.2964 22.9511 14.2964 22.9511L14.2747 23.0488L16.0845 31.6467ZM16.0845 31.6467L16.2559 31.472M16.0845 31.6467L16.2559 31.472M16.2559 31.472C16.9551 30.759 18.08 30.6381 18.9165 31.2004C18.9165 31.2004 18.9165 31.2004 18.9165 31.2004M16.2559 31.472L18.9165 31.2004M18.2432 36.6706L18.2431 36.6706C18.6665 37.1209 19.0042 37.4804 19.1415 37.6266C19.1827 37.6705 19.2059 37.6951 19.2078 37.6972L19.2081 37.6974C19.4064 37.9087 19.7388 37.9192 19.9501 37.7207C20.1615 37.5222 20.1719 37.19 19.9734 36.9786L19.9733 36.9786C19.962 36.9665 19.2304 36.1875 18.3949 35.2995L18.3949 35.2994L16.9618 33.7742L16.9617 33.7741L16.9541 33.7657L16.9511 33.7623L16.9473 33.7582L16.9474 33.7581C16.5799 33.3185 16.5845 32.6804 16.9697 32.2455L16.9697 32.2454C17.3145 31.8563 17.8993 31.7817 18.3307 32.0717L18.3307 32.0717L20.5169 33.5418C22.279 34.7267 23.4898 36.524 23.9257 38.6021L24.9498 43.4826C25.0017 43.7299 25.2199 43.8999 25.463 43.8999C25.4986 43.8999 25.5349 43.8962 25.5714 43.8886M18.2432 36.6706L25.5714 43.8886M18.2432 36.6706L18.241 36.6684M18.2432 36.6706L18.241 36.6684M25.5714 43.8886C25.8551 43.829 26.0369 43.5507 25.9774 43.2669L24.9534 38.3865C24.4608 36.0387 23.0934 34.009 21.1028 32.6705L18.9165 31.2004M25.5714 43.8886L18.9165 31.2004M18.241 36.6684L18.2356 36.6633L18.241 36.6684Z" fill="url(#paint2_linear)" stroke="#282E48" stroke-width="0.2"/>
<path d="M16.549 39.924L16.5491 39.9241C16.7174 40.1601 16.6626 40.488 16.4266 40.6564C16.3341 40.7225 16.2277 40.7541 16.1222 40.7541C15.958 40.7541 15.7968 40.6775 15.6943 40.534L15.6904 40.5285L15.6903 40.5283C15.522 40.2924 15.5768 39.9645 15.8128 39.7961C16.0487 39.6277 16.3765 39.6824 16.5451 39.9185L16.549 39.924Z" fill="url(#paint3_linear)" stroke="#282E48" stroke-width="0.2"/>
<path d="M39.9153 31.6469L39.7439 31.4721C39.0447 30.7591 37.9197 30.6382 37.0833 31.2005L34.897 32.6706C32.9063 34.009 31.539 36.0388 31.0464 38.3865L30.0224 43.2671C29.9629 43.5508 30.1446 43.8291 30.4283 43.8887C30.4283 43.8887 30.4284 43.8887 30.4284 43.8887L30.4078 43.9865C30.4511 43.9956 30.4943 44 30.5368 44C30.8263 44 31.086 43.7977 31.1478 43.5032L32.1718 38.6226C32.6025 36.5701 33.7981 34.7951 35.5386 33.6249L39.9153 31.6469ZM39.9153 31.6469V31.4021M39.9153 31.6469V31.4021M36.0497 37.7208C36.2611 37.9193 36.5933 37.9088 36.7918 37.6975L36.792 37.6973L36.7925 37.6967L36.7941 37.695L36.7999 37.6888L36.8221 37.6652L36.9052 37.5769L37.2023 37.2611L38.1281 36.2769C38.8195 35.5419 39.5618 34.7531 39.7694 34.5331L39.7694 34.5331C39.8013 34.4993 39.8319 34.464 39.8622 34.4276L39.8647 34.4247L39.8647 34.4247C40.5746 33.6363 40.9653 32.6232 40.9653 31.5596V23.8711C40.9653 23.4263 41.2692 23.0475 41.7035 22.9512L41.7251 23.0488L41.7035 22.9512C41.9839 22.889 42.2734 22.9566 42.4973 23.1361L42.4973 23.1361C42.7212 23.3158 42.8499 23.5839 42.8499 23.8711V33.5618C42.8499 34.5914 42.5347 35.5797 41.9387 36.4193L37.2168 43.0709L37.1353 43.013L37.2168 43.0709C37.049 43.3073 37.1046 43.6351 37.341 43.8029L36.0497 37.7208ZM36.0497 37.7208C35.8384 37.5223 35.8279 37.1901 36.0264 36.9787L37.5365 35.372L38.5691 34.2733L38.9091 33.9115L39.0043 33.8102L39.0294 33.7835L39.0359 33.7766L39.0375 33.7749L39.0379 33.7745L39.038 33.7744L38.9652 33.7058L39.038 33.7743L39.039 33.7733L39.0461 33.7653L39.0508 33.7601L39.0509 33.7601L39.0538 33.7566C39.42 33.317 39.4148 32.6799 39.0301 32.2455L39.0301 32.2455C38.6852 31.8564 38.1004 31.7818 37.6691 32.0719L36.0497 37.7208ZM39.9153 31.4021V23.8711C39.9153 22.9295 40.5567 22.1302 41.4759 21.9262M39.9153 31.4021L41.4759 21.9262M41.4759 21.9262C42.0688 21.7947 42.6805 21.9371 43.1544 22.3173M41.4759 21.9262L43.1544 22.3173M43.1544 22.3173C43.6282 22.6975 43.8997 23.2635 43.8999 23.8711C43.8999 23.8711 43.8999 23.8711 43.8999 23.8711V33.5618C43.8999 34.8106 43.5178 36.0087 42.7949 37.0271L38.073 43.6788C38.073 43.6788 38.073 43.6788 38.073 43.6788C37.9707 43.8229 37.809 43.8999 37.6443 43.8999C37.5393 43.8999 37.4334 43.8685 37.341 43.8029L43.1544 22.3173Z" fill="url(#paint4_linear)" stroke="#282E48" stroke-width="0.2"/>
<mask id="path-6-inside-1" fill="white">
<path d="M35.9159 23.9787L34.804 23.7131V23.5137C35.5267 23.0075 36.0006 22.1692 36.0006 21.2218V19.7762C36.0006 18.2338 34.7458 16.979 33.2033 16.979C32.5112 16.979 31.8774 17.2322 31.3885 17.6502C30.8441 16.3171 29.5342 15.375 28.0077 15.375C26.4794 15.375 25.1681 16.3196 24.625 17.6552C24.1353 17.2342 23.4993 16.9789 22.8043 16.9789C21.2618 16.9789 20.007 18.2337 20.007 19.7761V19.8722V21.2217C20.007 22.169 20.4809 23.0073 21.2036 23.5136V23.713L20.0917 23.9786C18.764 24.2958 17.8368 25.4706 17.8368 26.8356V28.0028C17.8368 28.348 18.1167 28.6278 18.4618 28.6278H21.3338C21.3293 28.7036 21.3263 28.7798 21.3263 28.8566V31.104C21.3263 31.4492 21.6061 31.729 21.9513 31.729H25.7081C26.0532 31.729 26.3331 31.4492 26.3331 31.104C26.3331 30.7588 26.0532 30.479 25.7081 30.479H25.0624V29.1874C25.0624 28.8422 24.7825 28.5624 24.4374 28.5624C24.0923 28.5624 23.8124 28.8422 23.8124 29.1874V30.4791H22.5763V28.8567C22.5763 27.6513 23.3951 26.6133 24.5672 26.3324L26.2823 25.9214L27.4301 28.5327C27.5299 28.7597 27.7544 28.9062 28.0022 28.9062H28.0022C28.2501 28.9062 28.4746 28.7597 28.5744 28.5328L29.721 25.9253L31.4307 26.3338C32.6039 26.6141 33.4233 27.6522 33.4233 28.8586V30.4791H32.1873V29.1874C32.1873 28.8422 31.9074 28.5624 31.5623 28.5624C31.2172 28.5624 30.9373 28.8422 30.9373 29.1874V30.4791H30.229C29.8839 30.4791 29.604 30.7589 29.604 31.1041C29.604 31.4493 29.8839 31.7291 30.229 31.7291H34.0484C34.3935 31.7291 34.6734 31.4493 34.6734 31.1041V28.8586C34.6734 28.7811 34.6703 28.7044 34.6658 28.6279H37.5459C37.891 28.6279 38.1709 28.3481 38.1709 28.0029V26.8357C38.1709 25.4707 37.2436 24.2958 35.9159 23.9787ZM33.2033 18.2289C34.0222 18.2289 34.6945 18.8683 34.7472 19.674H33.8783C33.1478 19.674 32.4289 19.4982 31.7827 19.1633C32.0204 18.614 32.5678 18.2289 33.2033 18.2289ZM31.6561 21.1304C31.6568 21.1 31.6584 21.0697 31.6584 21.039V20.4824C32.3597 20.7727 33.1139 20.924 33.8783 20.924H34.7506V21.2217C34.7506 22.0748 34.0565 22.769 33.2033 22.769C32.3502 22.769 31.6561 22.0748 31.6561 21.2217V21.1304ZM25.6071 19.0256C25.6071 17.7019 26.684 16.625 28.0077 16.625C29.2017 16.625 30.1947 17.5011 30.3781 18.6441L29.3259 18.0259C29.0627 17.8713 28.7264 17.9294 28.5303 18.1634C28.0161 18.777 27.2621 19.129 26.4614 19.129H25.6071V19.0256ZM22.8043 18.2289C23.4399 18.2289 23.9872 18.6141 24.2249 19.1632C23.5787 19.4981 22.8599 19.674 22.1294 19.674H21.2605C21.3132 18.8683 21.9855 18.2289 22.8043 18.2289ZM21.2571 20.924H22.1294C22.8946 20.924 23.6496 20.7723 24.3516 20.4814V21.2216C24.3516 22.0747 23.6575 22.7688 22.8043 22.7688C21.9511 22.7688 21.2571 22.0748 21.2571 21.2217V20.924ZM24.2759 25.1168C23.0463 25.4114 22.08 26.2687 21.62 27.3779H19.0868V26.8356C19.0868 26.0515 19.6194 25.3766 20.3821 25.1944L21.9738 24.8141C22.2551 24.7469 22.4536 24.4955 22.4536 24.2063V23.9961C22.5686 24.0106 22.6855 24.0189 22.8043 24.0189C22.9223 24.0189 23.0383 24.0107 23.1525 23.9965V24.1748C23.152 24.1841 23.1518 24.1934 23.1518 24.2027C23.1516 24.4078 23.2525 24.6086 23.4376 24.7284C23.5073 24.7736 23.5827 24.8029 23.6596 24.8176L24.5919 25.041L24.2759 25.1168ZM26.0193 24.1465C25.8587 24.0757 25.6914 24.0191 25.5189 23.9778L24.4024 23.7102V23.5155C24.6039 23.3746 24.7861 23.2082 24.9441 23.0206C25.2232 23.4506 25.5899 23.8183 26.0193 24.0983V24.1465ZM28.7338 25.0648L28.0024 26.7283L27.2694 25.0606V24.6146C27.5079 24.6638 27.7549 24.6897 28.0077 24.6897C28.2563 24.6897 28.499 24.6645 28.7338 24.617V25.0648ZM28.0077 23.4396C26.684 23.4397 25.6071 22.3628 25.6071 21.039V20.3789H26.4614C27.4526 20.3789 28.3949 20.0104 29.1172 19.353L30.406 20.1102V21.1305C30.3578 22.4119 29.3009 23.4396 28.0077 23.4396ZM29.9838 24.1485V24.1062C30.4167 23.8263 30.7867 23.4577 31.068 23.0258C31.2249 23.2113 31.4055 23.376 31.6051 23.5155V23.7102L30.4885 23.9778C30.3145 24.0195 30.1457 24.0768 29.9838 24.1485ZM36.9208 27.3779H34.379C33.9186 26.2687 32.9515 25.4119 31.7212 25.1179L31.4073 25.043L32.3447 24.8184C32.4227 24.8039 32.4993 24.7741 32.57 24.7284C32.7548 24.6088 32.8553 24.408 32.8553 24.2029C32.8553 24.198 32.8552 24.1931 32.8551 24.1882V23.9965C32.9693 24.0107 33.0853 24.0189 33.2032 24.0189C33.322 24.0189 33.4389 24.0106 33.5539 23.9961V24.2063C33.5539 24.4955 33.7524 24.7469 34.0337 24.8141L35.6254 25.1944C36.3881 25.3766 36.9208 26.0515 36.9208 26.8356V27.3779Z"/>
</mask>
<path d="M35.9159 23.9787L34.804 23.7131V23.5137C35.5267 23.0075 36.0006 22.1692 36.0006 21.2218V19.7762C36.0006 18.2338 34.7458 16.979 33.2033 16.979C32.5112 16.979 31.8774 17.2322 31.3885 17.6502C30.8441 16.3171 29.5342 15.375 28.0077 15.375C26.4794 15.375 25.1681 16.3196 24.625 17.6552C24.1353 17.2342 23.4993 16.9789 22.8043 16.9789C21.2618 16.9789 20.007 18.2337 20.007 19.7761V19.8722V21.2217C20.007 22.169 20.4809 23.0073 21.2036 23.5136V23.713L20.0917 23.9786C18.764 24.2958 17.8368 25.4706 17.8368 26.8356V28.0028C17.8368 28.348 18.1167 28.6278 18.4618 28.6278H21.3338C21.3293 28.7036 21.3263 28.7798 21.3263 28.8566V31.104C21.3263 31.4492 21.6061 31.729 21.9513 31.729H25.7081C26.0532 31.729 26.3331 31.4492 26.3331 31.104C26.3331 30.7588 26.0532 30.479 25.7081 30.479H25.0624V29.1874C25.0624 28.8422 24.7825 28.5624 24.4374 28.5624C24.0923 28.5624 23.8124 28.8422 23.8124 29.1874V30.4791H22.5763V28.8567C22.5763 27.6513 23.3951 26.6133 24.5672 26.3324L26.2823 25.9214L27.4301 28.5327C27.5299 28.7597 27.7544 28.9062 28.0022 28.9062H28.0022C28.2501 28.9062 28.4746 28.7597 28.5744 28.5328L29.721 25.9253L31.4307 26.3338C32.6039 26.6141 33.4233 27.6522 33.4233 28.8586V30.4791H32.1873V29.1874C32.1873 28.8422 31.9074 28.5624 31.5623 28.5624C31.2172 28.5624 30.9373 28.8422 30.9373 29.1874V30.4791H30.229C29.8839 30.4791 29.604 30.7589 29.604 31.1041C29.604 31.4493 29.8839 31.7291 30.229 31.7291H34.0484C34.3935 31.7291 34.6734 31.4493 34.6734 31.1041V28.8586C34.6734 28.7811 34.6703 28.7044 34.6658 28.6279H37.5459C37.891 28.6279 38.1709 28.3481 38.1709 28.0029V26.8357C38.1709 25.4707 37.2436 24.2958 35.9159 23.9787ZM33.2033 18.2289C34.0222 18.2289 34.6945 18.8683 34.7472 19.674H33.8783C33.1478 19.674 32.4289 19.4982 31.7827 19.1633C32.0204 18.614 32.5678 18.2289 33.2033 18.2289ZM31.6561 21.1304C31.6568 21.1 31.6584 21.0697 31.6584 21.039V20.4824C32.3597 20.7727 33.1139 20.924 33.8783 20.924H34.7506V21.2217C34.7506 22.0748 34.0565 22.769 33.2033 22.769C32.3502 22.769 31.6561 22.0748 31.6561 21.2217V21.1304ZM25.6071 19.0256C25.6071 17.7019 26.684 16.625 28.0077 16.625C29.2017 16.625 30.1947 17.5011 30.3781 18.6441L29.3259 18.0259C29.0627 17.8713 28.7264 17.9294 28.5303 18.1634C28.0161 18.777 27.2621 19.129 26.4614 19.129H25.6071V19.0256ZM22.8043 18.2289C23.4399 18.2289 23.9872 18.6141 24.2249 19.1632C23.5787 19.4981 22.8599 19.674 22.1294 19.674H21.2605C21.3132 18.8683 21.9855 18.2289 22.8043 18.2289ZM21.2571 20.924H22.1294C22.8946 20.924 23.6496 20.7723 24.3516 20.4814V21.2216C24.3516 22.0747 23.6575 22.7688 22.8043 22.7688C21.9511 22.7688 21.2571 22.0748 21.2571 21.2217V20.924ZM24.2759 25.1168C23.0463 25.4114 22.08 26.2687 21.62 27.3779H19.0868V26.8356C19.0868 26.0515 19.6194 25.3766 20.3821 25.1944L21.9738 24.8141C22.2551 24.7469 22.4536 24.4955 22.4536 24.2063V23.9961C22.5686 24.0106 22.6855 24.0189 22.8043 24.0189C22.9223 24.0189 23.0383 24.0107 23.1525 23.9965V24.1748C23.152 24.1841 23.1518 24.1934 23.1518 24.2027C23.1516 24.4078 23.2525 24.6086 23.4376 24.7284C23.5073 24.7736 23.5827 24.8029 23.6596 24.8176L24.5919 25.041L24.2759 25.1168ZM26.0193 24.1465C25.8587 24.0757 25.6914 24.0191 25.5189 23.9778L24.4024 23.7102V23.5155C24.6039 23.3746 24.7861 23.2082 24.9441 23.0206C25.2232 23.4506 25.5899 23.8183 26.0193 24.0983V24.1465ZM28.7338 25.0648L28.0024 26.7283L27.2694 25.0606V24.6146C27.5079 24.6638 27.7549 24.6897 28.0077 24.6897C28.2563 24.6897 28.499 24.6645 28.7338 24.617V25.0648ZM28.0077 23.4396C26.684 23.4397 25.6071 22.3628 25.6071 21.039V20.3789H26.4614C27.4526 20.3789 28.3949 20.0104 29.1172 19.353L30.406 20.1102V21.1305C30.3578 22.4119 29.3009 23.4396 28.0077 23.4396ZM29.9838 24.1485V24.1062C30.4167 23.8263 30.7867 23.4577 31.068 23.0258C31.2249 23.2113 31.4055 23.376 31.6051 23.5155V23.7102L30.4885 23.9778C30.3145 24.0195 30.1457 24.0768 29.9838 24.1485ZM36.9208 27.3779H34.379C33.9186 26.2687 32.9515 25.4119 31.7212 25.1179L31.4073 25.043L32.3447 24.8184C32.4227 24.8039 32.4993 24.7741 32.57 24.7284C32.7548 24.6088 32.8553 24.408 32.8553 24.2029C32.8553 24.198 32.8552 24.1931 32.8551 24.1882V23.9965C32.9693 24.0107 33.0853 24.0189 33.2032 24.0189C33.322 24.0189 33.4389 24.0106 33.5539 23.9961V24.2063C33.5539 24.4955 33.7524 24.7469 34.0337 24.8141L35.6254 25.1944C36.3881 25.3766 36.9208 26.0515 36.9208 26.8356V27.3779Z" fill="url(#paint5_linear)" stroke="#282E48" stroke-width="0.4" mask="url(#path-6-inside-1)"/>
<path d="M27.9998 30.5792C28.1377 30.5792 28.2729 30.635 28.3709 30.7325C28.4687 30.8307 28.5248 30.966 28.5248 31.1042C28.5248 31.2418 28.4687 31.3771 28.3709 31.4754C28.2727 31.5731 28.1374 31.6292 27.9998 31.6292C27.8615 31.6292 27.7262 31.573 27.6287 31.4754C27.5306 31.3773 27.4748 31.2421 27.4748 31.1042C27.4748 30.9657 27.5306 30.8305 27.6287 30.7325C27.7261 30.6351 27.8611 30.5792 27.9998 30.5792Z" fill="url(#paint6_linear)" stroke="#282E48" stroke-width="0.2"/>
<path d="M27.4744 12.625C27.4744 12.335 27.7095 12.1 27.9994 12.1C28.2894 12.1 28.5244 12.335 28.5244 12.625V13.5602C28.5244 13.8501 28.2893 14.0852 27.9994 14.0852C27.7095 14.0852 27.4744 13.8501 27.4744 13.5602V12.625Z" fill="url(#paint7_linear)" stroke="#282E48" stroke-width="0.2"/>
<path d="M25.6265 14.1093L25.6265 14.1093C25.8316 14.3142 25.8317 14.6466 25.6268 14.8518C25.5243 14.9544 25.3901 15.0057 25.2555 15.0057C25.1211 15.0057 24.987 14.9545 24.8845 14.8521L24.8845 14.8521L24.2288 14.1971C24.0237 13.9922 24.0235 13.6597 24.2284 13.4546C24.4334 13.2495 24.7658 13.2493 24.9709 13.4543L24.9709 13.4543L25.6265 14.1093Z" fill="url(#paint8_linear)" stroke="#282E48" stroke-width="0.2"/>
<path d="M31.0131 13.4708L31.0131 13.4707C31.2179 13.2656 31.5504 13.2655 31.7555 13.4704C31.9606 13.6753 31.9608 14.0077 31.7559 14.2128C31.7559 14.2128 31.7559 14.2128 31.7559 14.2128L31.1053 14.864L31.1053 14.864C31.0028 14.9667 30.8686 15.018 30.734 15.018C30.5995 15.018 30.4655 14.9669 30.3629 14.8644C30.1578 14.6595 30.1576 14.3271 30.3625 14.1219C30.3625 14.1219 30.3625 14.1219 30.3625 14.1219L31.0131 13.4708Z" fill="url(#paint9_linear)" stroke="#282E48" stroke-width="0.2"/>
<defs>
<linearGradient id="paint0_linear" x1="56" y1="28" x2="112" y2="28" gradientUnits="userSpaceOnUse">
<stop offset="0.0520833" stop-color="#FF8C3E" stop-opacity="0"/>
<stop offset="1" stop-color="#FF5968"/>
</linearGradient>
<linearGradient id="paint1_linear" x1="16.7889" y1="42.7121" x2="18.98" y2="42.7121" gradientUnits="userSpaceOnUse">
<stop stop-color="#FF8D3D"/>
<stop offset="1" stop-color="#FF5969"/>
</linearGradient>
<linearGradient id="paint2_linear" x1="12" y1="32.889" x2="26.0887" y2="32.889" gradientUnits="userSpaceOnUse">
<stop stop-color="#FF8D3D"/>
<stop offset="1" stop-color="#FF5969"/>
</linearGradient>
<linearGradient id="paint3_linear" x1="15.4927" y1="40.2262" x2="16.7467" y2="40.2262" gradientUnits="userSpaceOnUse">
<stop stop-color="#FF8D3D"/>
<stop offset="1" stop-color="#FF5969"/>
</linearGradient>
<linearGradient id="paint4_linear" x1="29.9111" y1="32.8891" x2="43.9999" y2="32.8891" gradientUnits="userSpaceOnUse">
<stop stop-color="#FF8D3D"/>
<stop offset="1" stop-color="#FF5969"/>
</linearGradient>
<linearGradient id="paint5_linear" x1="17.8368" y1="23.552" x2="38.1709" y2="23.552" gradientUnits="userSpaceOnUse">
<stop stop-color="#FF8D3D"/>
<stop offset="1" stop-color="#FF5969"/>
</linearGradient>
<linearGradient id="paint6_linear" x1="27.3748" y1="31.1042" x2="28.6248" y2="31.1042" gradientUnits="userSpaceOnUse">
<stop stop-color="#FF8D3D"/>
<stop offset="1" stop-color="#FF5969"/>
</linearGradient>
<linearGradient id="paint7_linear" x1="27.3744" y1="13.0926" x2="28.6244" y2="13.0926" gradientUnits="userSpaceOnUse">
<stop stop-color="#FF8D3D"/>
<stop offset="1" stop-color="#FF5969"/>
</linearGradient>
<linearGradient id="paint8_linear" x1="23.9748" y1="14.1532" x2="25.8804" y2="14.1532" gradientUnits="userSpaceOnUse">
<stop stop-color="#FF8D3D"/>
<stop offset="1" stop-color="#FF5969"/>
</linearGradient>
<linearGradient id="paint9_linear" x1="30.1089" y1="14.1674" x2="32.0095" y2="14.1674" gradientUnits="userSpaceOnUse">
<stop stop-color="#FF8D3D"/>
<stop offset="1" stop-color="#FF5969"/>
</linearGradient>
</defs>
</svg>
