<svg width="56" height="56" viewBox="0 0 56 56" fill="none" xmlns="http://www.w3.org/2000/svg">
<rect x="0.5" y="55.5" width="55" height="55" rx="4.5" transform="rotate(-90 0.5 55.5)" stroke="url(#paint0_linear)"/>
<path d="M12.1 28C12.1 19.2263 19.2263 12.1 28 12.1C36.7737 12.1 43.9 19.2263 43.9 28C43.9 36.7737 36.7737 43.9 28 43.9C19.2263 43.9 12.1 36.7737 12.1 28ZM13.288 28C13.288 36.1131 19.8869 42.712 28 42.712C36.1131 42.712 42.712 36.1131 42.712 28C42.712 19.8869 36.1131 13.288 28 13.288C19.8869 13.288 13.288 19.8869 13.288 28Z" fill="url(#paint1_linear)" stroke="#1B2038" stroke-width="0.2"/>
<path d="M31.3699 24.5301V24.6301H31.4699H36.3277C36.6133 24.6301 36.8853 24.888 36.9217 25.2292V30.7759C36.9217 31.1062 36.658 31.3698 36.3277 31.3698H31.4699H31.3699V31.4698V36.3277C31.3699 36.658 31.1062 36.9216 30.7759 36.9216H25.2241C24.8938 36.9216 24.6301 36.658 24.6301 36.3277V31.4698V31.3698H24.5301H19.6723C19.342 31.3698 19.0783 31.1062 19.0783 30.7759V25.2241C19.0783 24.8937 19.342 24.6301 19.6723 24.6301H24.5301H24.6301V24.5301V19.6722C24.6301 19.3419 24.8938 19.0783 25.2241 19.0783H30.7759C31.1062 19.0783 31.3699 19.3419 31.3699 19.6722V24.5301ZM35.6723 30.1819H35.7723V30.0819V25.918V25.818H35.6723H30.8144C30.4841 25.818 30.2205 25.5544 30.2205 25.2241V20.3662V20.2662H30.1205H25.9181H25.8181V20.3662V25.2241C25.8181 25.5544 25.5544 25.818 25.2241 25.818H20.3663H20.2663V25.918V30.0819V30.1819H20.3663H25.2241C25.5544 30.1819 25.8181 30.4455 25.8181 30.7759V35.6337V35.7337H25.9181H30.0819H30.1819V35.6337V30.7759C30.1819 30.4455 30.4456 30.1819 30.7759 30.1819H35.6337H35.6723Z" fill="url(#paint2_linear)" stroke="#1B2038" stroke-width="0.2"/>
<defs>
<linearGradient id="paint0_linear" x1="4.17233e-07" y1="84" x2="56" y2="84" gradientUnits="userSpaceOnUse">
<stop offset="0.0520833" stop-color="#FF8C3E" stop-opacity="0"/>
<stop offset="1" stop-color="#FF5968"/>
</linearGradient>
<linearGradient id="paint1_linear" x1="12" y1="28" x2="44" y2="28" gradientUnits="userSpaceOnUse">
<stop stop-color="#FF8D3D"/>
<stop offset="1" stop-color="#FF5969"/>
</linearGradient>
<linearGradient id="paint2_linear" x1="18.9783" y1="28" x2="37.0217" y2="28" gradientUnits="userSpaceOnUse">
<stop stop-color="#FF8D3D"/>
<stop offset="1" stop-color="#FF5969"/>
</linearGradient>
</defs>
</svg>
