<svg width="56" height="56" viewBox="0 0 56 56" fill="none" xmlns="http://www.w3.org/2000/svg">
<rect x="55.5" y="0.5" width="55" height="55" rx="4.5" transform="rotate(90 55.5 0.5)" stroke="url(#paint0_linear)"/>
<path d="M39.6462 33.1313C39.6462 33.4213 39.4111 33.6563 39.1212 33.6563C38.8312 33.6563 38.5962 33.4213 38.5962 33.1313C38.5962 32.8414 38.8312 32.6063 39.1212 32.6063C39.4111 32.6063 39.6462 32.8414 39.6462 33.1313Z" fill="url(#paint1_linear)" stroke="#282E48" stroke-width="0.2"/>
<path d="M15.854 33.1313C15.854 33.4213 15.619 33.6563 15.329 33.6563C15.0391 33.6563 14.804 33.4213 14.804 33.1313C14.804 32.8414 15.0391 32.6063 15.329 32.6063C15.619 32.6063 15.854 32.8414 15.854 33.1313Z" fill="url(#paint2_linear)" stroke="#282E48" stroke-width="0.2"/>
<mask id="path-4-inside-1" fill="white">
<path d="M42.4124 42.7498H37.0451L37.0123 27.389C37.0116 27.0442 36.7319 26.7653 36.3873 26.7653C36.3868 26.7653 36.3863 26.7653 36.3859 26.7653C36.0406 26.766 35.7614 27.0464 35.7621 27.3917L35.7949 42.7498H33.9794L33.9633 35.9155C33.9625 35.5708 33.6828 35.2919 33.3383 35.2919C33.3378 35.2919 33.3373 35.2919 33.3368 35.2919C32.9915 35.2927 32.7123 35.5732 32.7131 35.9184L32.7292 42.7498H31.2114V34.4772C32.9808 34.3208 34.3719 32.8668 34.3719 31.1012V25.0435C34.3719 24.0802 34.1676 23.1361 33.7766 22.2641C35.0111 22.3465 36.1601 22.8488 37.0441 23.7024C38.0115 24.6365 38.5458 25.8786 38.5486 27.2006L38.56 30.7578C38.5611 31.1024 38.8408 31.3809 39.1851 31.3809C39.1858 31.3809 39.1864 31.3809 39.1871 31.3809C39.5323 31.3798 39.8113 31.0991 39.8103 30.7538L39.7988 27.1973C39.7953 25.5347 39.1254 23.9742 37.9126 22.8031C37.2198 22.1341 36.397 21.6387 35.5003 21.3381C36.1354 20.7336 36.5318 19.8804 36.5298 18.9364C36.5259 17.1151 35.0429 15.636 33.2224 15.636C33.22 15.636 33.2176 15.636 33.2153 15.636C32.6849 15.6372 32.1575 15.7671 31.6902 16.0116C31.3843 16.1717 31.2661 16.5495 31.4263 16.8554C31.5864 17.1612 31.9643 17.2794 32.27 17.1193C32.5641 16.9654 32.8831 16.8869 33.218 16.8862C34.3542 16.8856 35.2773 17.8047 35.2797 18.9391C35.2821 20.0734 34.3612 20.9983 33.2268 21.0007C33.1999 21.0008 33.1736 21.0031 33.1476 21.0065C33.1143 21.0079 33.0811 21.0091 33.0477 21.0109C32.1446 19.7749 30.8767 18.8783 29.4327 18.4233C30.1993 17.7507 30.6848 16.7649 30.6848 15.6672C30.6845 13.6451 29.0395 12 27.0174 12C24.9953 12 23.3503 13.6451 23.3503 15.6672C23.3503 16.8181 23.8836 17.8463 24.7157 18.5191C23.3902 18.9975 22.2286 19.8544 21.3849 21.0074C21.2859 21.0029 21.1871 21.0003 21.0887 21.0003C21.0419 21.0003 20.9953 21.0011 20.9488 21.0021C20.9373 21.0014 20.9261 21.0003 20.9145 21.0003C19.7801 21.0003 18.8573 20.0774 18.8573 18.9431C18.8573 17.8087 19.7801 16.8858 20.9145 16.8858C21.2574 16.8858 21.5966 16.9717 21.8953 17.1341C22.1986 17.2989 22.5781 17.1868 22.7431 16.8835C22.908 16.5802 22.7958 16.2006 22.4925 16.0357C22.011 15.7739 21.4653 15.6355 20.9144 15.6355C19.0907 15.6355 17.6069 17.1192 17.6069 18.943C17.6069 19.9361 18.0476 20.8278 18.7428 21.4346C16.3795 22.3459 14.7039 24.5916 14.7039 27.2108V30.7558C14.7039 31.1011 14.9838 31.3809 15.3291 31.3809C15.6743 31.3809 15.9542 31.1011 15.9542 30.7558V27.2108C15.9542 24.6183 18.0239 22.4854 20.6507 22.2699C20.2615 23.1402 20.0579 24.0822 20.0579 25.0435V31.1012C20.0579 32.9018 21.5046 34.3783 23.3239 34.4851V42.7497H21.6209V35.9167C21.6209 35.5715 21.341 35.2916 20.9958 35.2916C20.6505 35.2916 20.3706 35.5715 20.3706 35.9167V42.7498H18.834V27.3966C18.834 27.0514 18.5541 26.7715 18.2089 26.7715C17.8636 26.7715 17.5838 27.0514 17.5838 27.3966V42.7498H12.6251C12.2799 42.7498 12 43.0296 12 43.3749C12 43.7201 12.2798 44 12.6251 44H42.4124C42.7577 44 43.0376 43.7201 43.0376 43.3749C43.0374 43.0296 42.7576 42.7498 42.4124 42.7498ZM24.6004 15.6672C24.6004 14.3345 25.6847 13.2502 27.0174 13.2502C28.3501 13.2502 29.4343 14.3345 29.4343 15.6672C29.4343 16.9999 28.35 18.0841 27.0174 18.0841C25.6848 18.0841 24.6004 16.9999 24.6004 15.6672ZM30.5862 24.6291C30.2409 24.6291 29.9611 24.909 29.9611 25.2542V42.7498H27.7347V34.0531C27.7347 33.7078 27.4548 33.4279 27.1096 33.4279C26.7643 33.4279 26.4844 33.7078 26.4844 34.0531V42.7498H24.5741V25.2542C24.5741 24.909 24.2943 24.6291 23.949 24.6291C23.6038 24.6291 23.3239 24.909 23.3239 25.2542V33.2318C22.1947 33.1293 21.3081 32.2131 21.3081 31.1013V25.0436C21.3081 23.9617 21.6228 22.9086 22.218 21.9983C23.3088 20.3303 25.1768 19.3344 27.2149 19.3344C29.2564 19.3344 31.1261 20.3328 32.2162 22.0052C32.8085 22.914 33.1216 23.9646 33.1216 25.0436V31.1013C33.1216 32.1783 32.2898 33.0716 31.2113 33.2197V25.2542C31.2114 24.909 30.9314 24.6291 30.5862 24.6291Z"/>
</mask>
<path d="M42.4124 42.7498H37.0451L37.0123 27.389C37.0116 27.0442 36.7319 26.7653 36.3873 26.7653C36.3868 26.7653 36.3863 26.7653 36.3859 26.7653C36.0406 26.766 35.7614 27.0464 35.7621 27.3917L35.7949 42.7498H33.9794L33.9633 35.9155C33.9625 35.5708 33.6828 35.2919 33.3383 35.2919C33.3378 35.2919 33.3373 35.2919 33.3368 35.2919C32.9915 35.2927 32.7123 35.5732 32.7131 35.9184L32.7292 42.7498H31.2114V34.4772C32.9808 34.3208 34.3719 32.8668 34.3719 31.1012V25.0435C34.3719 24.0802 34.1676 23.1361 33.7766 22.2641C35.0111 22.3465 36.1601 22.8488 37.0441 23.7024C38.0115 24.6365 38.5458 25.8786 38.5486 27.2006L38.56 30.7578C38.5611 31.1024 38.8408 31.3809 39.1851 31.3809C39.1858 31.3809 39.1864 31.3809 39.1871 31.3809C39.5323 31.3798 39.8113 31.0991 39.8103 30.7538L39.7988 27.1973C39.7953 25.5347 39.1254 23.9742 37.9126 22.8031C37.2198 22.1341 36.397 21.6387 35.5003 21.3381C36.1354 20.7336 36.5318 19.8804 36.5298 18.9364C36.5259 17.1151 35.0429 15.636 33.2224 15.636C33.22 15.636 33.2176 15.636 33.2153 15.636C32.6849 15.6372 32.1575 15.7671 31.6902 16.0116C31.3843 16.1717 31.2661 16.5495 31.4263 16.8554C31.5864 17.1612 31.9643 17.2794 32.27 17.1193C32.5641 16.9654 32.8831 16.8869 33.218 16.8862C34.3542 16.8856 35.2773 17.8047 35.2797 18.9391C35.2821 20.0734 34.3612 20.9983 33.2268 21.0007C33.1999 21.0008 33.1736 21.0031 33.1476 21.0065C33.1143 21.0079 33.0811 21.0091 33.0477 21.0109C32.1446 19.7749 30.8767 18.8783 29.4327 18.4233C30.1993 17.7507 30.6848 16.7649 30.6848 15.6672C30.6845 13.6451 29.0395 12 27.0174 12C24.9953 12 23.3503 13.6451 23.3503 15.6672C23.3503 16.8181 23.8836 17.8463 24.7157 18.5191C23.3902 18.9975 22.2286 19.8544 21.3849 21.0074C21.2859 21.0029 21.1871 21.0003 21.0887 21.0003C21.0419 21.0003 20.9953 21.0011 20.9488 21.0021C20.9373 21.0014 20.9261 21.0003 20.9145 21.0003C19.7801 21.0003 18.8573 20.0774 18.8573 18.9431C18.8573 17.8087 19.7801 16.8858 20.9145 16.8858C21.2574 16.8858 21.5966 16.9717 21.8953 17.1341C22.1986 17.2989 22.5781 17.1868 22.7431 16.8835C22.908 16.5802 22.7958 16.2006 22.4925 16.0357C22.011 15.7739 21.4653 15.6355 20.9144 15.6355C19.0907 15.6355 17.6069 17.1192 17.6069 18.943C17.6069 19.9361 18.0476 20.8278 18.7428 21.4346C16.3795 22.3459 14.7039 24.5916 14.7039 27.2108V30.7558C14.7039 31.1011 14.9838 31.3809 15.3291 31.3809C15.6743 31.3809 15.9542 31.1011 15.9542 30.7558V27.2108C15.9542 24.6183 18.0239 22.4854 20.6507 22.2699C20.2615 23.1402 20.0579 24.0822 20.0579 25.0435V31.1012C20.0579 32.9018 21.5046 34.3783 23.3239 34.4851V42.7497H21.6209V35.9167C21.6209 35.5715 21.341 35.2916 20.9958 35.2916C20.6505 35.2916 20.3706 35.5715 20.3706 35.9167V42.7498H18.834V27.3966C18.834 27.0514 18.5541 26.7715 18.2089 26.7715C17.8636 26.7715 17.5838 27.0514 17.5838 27.3966V42.7498H12.6251C12.2799 42.7498 12 43.0296 12 43.3749C12 43.7201 12.2798 44 12.6251 44H42.4124C42.7577 44 43.0376 43.7201 43.0376 43.3749C43.0374 43.0296 42.7576 42.7498 42.4124 42.7498ZM24.6004 15.6672C24.6004 14.3345 25.6847 13.2502 27.0174 13.2502C28.3501 13.2502 29.4343 14.3345 29.4343 15.6672C29.4343 16.9999 28.35 18.0841 27.0174 18.0841C25.6848 18.0841 24.6004 16.9999 24.6004 15.6672ZM30.5862 24.6291C30.2409 24.6291 29.9611 24.909 29.9611 25.2542V42.7498H27.7347V34.0531C27.7347 33.7078 27.4548 33.4279 27.1096 33.4279C26.7643 33.4279 26.4844 33.7078 26.4844 34.0531V42.7498H24.5741V25.2542C24.5741 24.909 24.2943 24.6291 23.949 24.6291C23.6038 24.6291 23.3239 24.909 23.3239 25.2542V33.2318C22.1947 33.1293 21.3081 32.2131 21.3081 31.1013V25.0436C21.3081 23.9617 21.6228 22.9086 22.218 21.9983C23.3088 20.3303 25.1768 19.3344 27.2149 19.3344C29.2564 19.3344 31.1261 20.3328 32.2162 22.0052C32.8085 22.914 33.1216 23.9646 33.1216 25.0436V31.1013C33.1216 32.1783 32.2898 33.0716 31.2113 33.2197V25.2542C31.2114 24.909 30.9314 24.6291 30.5862 24.6291Z" fill="url(#paint3_linear)" stroke="#282E48" stroke-width="0.4" mask="url(#path-4-inside-1)"/>
<defs>
<linearGradient id="paint0_linear" x1="56" y1="28" x2="112" y2="28" gradientUnits="userSpaceOnUse">
<stop offset="0.0520833" stop-color="#FF8C3E" stop-opacity="0"/>
<stop offset="1" stop-color="#FF5968"/>
</linearGradient>
<linearGradient id="paint1_linear" x1="38.4962" y1="33.1313" x2="39.7462" y2="33.1313" gradientUnits="userSpaceOnUse">
<stop stop-color="#FF8D3D"/>
<stop offset="1" stop-color="#FF5969"/>
</linearGradient>
<linearGradient id="paint2_linear" x1="14.704" y1="33.1313" x2="15.954" y2="33.1313" gradientUnits="userSpaceOnUse">
<stop stop-color="#FF8D3D"/>
<stop offset="1" stop-color="#FF5969"/>
</linearGradient>
<linearGradient id="paint3_linear" x1="12" y1="28" x2="43.0376" y2="28" gradientUnits="userSpaceOnUse">
<stop stop-color="#FF8D3D"/>
<stop offset="1" stop-color="#FF5969"/>
</linearGradient>
</defs>
</svg>
