<svg width="56" height="56" viewBox="0 0 56 56" fill="none" xmlns="http://www.w3.org/2000/svg">
<rect x="55.5" y="0.5" width="55" height="55" rx="4.5" transform="rotate(90 55.5 0.5)" stroke="url(#paint0_linear)"/>
<path d="M43.9 18.3569C43.9 18.6476 43.6643 18.8833 43.3736 18.8833C43.0828 18.8833 42.8471 18.6476 42.8471 18.3569C42.8471 18.0662 43.0828 17.8305 43.3736 17.8305C43.6643 17.8305 43.9 18.0662 43.9 18.3569Z" fill="url(#paint1_linear)" stroke="#282E48" stroke-width="0.2"/>
<path d="M21.9627 38.6794L21.9627 38.6794C22.6089 39.4561 23.5593 39.9017 24.5697 39.9017H31.0967C31.5252 39.9017 31.8738 39.5532 31.8738 39.1247C31.8738 38.6961 31.5253 38.3475 31.0967 38.3475H28.672C28.3812 38.3475 28.1455 38.1118 28.1455 37.8211C28.1455 37.5304 28.3813 37.2947 28.672 37.2947H31.0967C32.1056 37.2947 32.9266 38.1156 32.9266 39.1247C32.9266 40.1336 32.1056 40.9546 31.0967 40.9546H24.5696C23.2453 40.9546 22.0002 40.3708 21.1532 39.3528L19.5924 37.4766L19.5155 37.5405L19.5924 37.4766C18.9486 36.7028 18.0029 36.2578 16.9968 36.2545L16.9302 36.2543L16.9043 36.3155C16.6839 36.8365 16.1676 37.2025 15.5679 37.2025H14.9189C14.6282 37.2025 14.3925 36.9668 14.3925 36.6761C14.3925 36.3854 14.6282 36.1497 14.9189 36.1497H15.5679C15.7873 36.1497 15.9656 35.9714 15.9656 35.752V30.7436C15.9656 30.5243 15.7873 30.346 15.5679 30.346H13.2529H13.1529V30.446V34.3889C13.1529 34.6796 12.9171 34.9154 12.6264 34.9154C12.3357 34.9154 12.1 34.6796 12.1 34.3889V29.8196C12.1 29.5289 12.3357 29.2932 12.6264 29.2931C12.6264 29.2931 12.6264 29.2931 12.6265 29.2931H15.5679C16.1756 29.2931 16.6974 29.6693 16.9127 30.2014L16.938 30.2639H17.0054H19.4176C20.8521 30.2639 22.2103 30.8124 23.2424 31.8087L23.3118 31.7368L23.2424 31.8087L26.6112 35.0606C27.2957 35.7213 27.3277 36.8287 26.6824 37.5278C26.3355 37.9036 25.8609 38.0943 25.3844 38.0943C24.9577 38.0943 24.5304 37.9414 24.1926 37.6318L21.5476 35.2072C21.5476 35.2072 21.5476 35.2072 21.5476 35.2072C21.3333 35.0107 21.3189 34.6777 21.5153 34.4635C21.7118 34.2492 22.0447 34.2348 22.2591 34.4312L24.904 36.8558L24.9716 36.782L24.904 36.8558C25.1926 37.1203 25.6432 37.1015 25.9088 36.8138L25.9088 36.8138C26.1696 36.5312 26.1567 36.0852 25.88 35.8181L22.5112 32.5663C21.6765 31.7606 20.5776 31.3167 19.4175 31.3167H17.1183H17.0183V31.4167V35.105V35.2021L17.1154 35.2049C18.391 35.2419 19.5827 35.8186 20.4019 36.8032L21.9627 38.6794Z" fill="url(#paint2_linear)" stroke="#282E48" stroke-width="0.2"/>
<path d="M34.9568 32.9298L34.9568 32.9297C34.7408 32.7353 34.408 32.7527 34.2135 32.9687L34.2062 32.9769C34.0142 33.194 34.0345 33.5249 34.2515 33.718L34.1856 33.792L34.2515 33.718C34.3515 33.8069 34.476 33.8507 34.6005 33.8507L34.9568 32.9298ZM34.9568 32.9298C35.1729 33.1242 35.1904 33.457 34.9959 33.6731L34.995 33.6742L34.995 33.6742M34.9568 32.9298L34.995 33.6742M34.995 33.6742L34.9946 33.6746M34.995 33.6742L34.9946 33.6746M34.9946 33.6746C34.8903 33.7911 34.7459 33.8506 34.6006 33.8507L34.9946 33.6746Z" fill="url(#paint3_linear)" stroke="#282E48" stroke-width="0.2"/>
<path d="M32.896 34.1626L32.896 34.1626C32.6609 34.3336 32.6089 34.6628 32.7799 34.8979L32.896 34.1626ZM32.896 34.1626C33.1318 33.9911 33.4633 34.0423 33.6339 34.2769C33.8053 34.5125 33.7549 34.8397 33.5203 35.0103L33.5202 35.0103M32.896 34.1626L33.5202 35.0103M33.5202 35.0103L33.5152 35.014C33.5152 35.014 33.5152 35.014 33.5152 35.014C33.5152 35.014 33.5152 35.014 33.5152 35.014C33.4216 35.0821 33.3134 35.1147 33.2061 35.1147C33.0431 35.1147 32.8828 35.0394 32.7799 34.8979L33.5202 35.0103Z" fill="url(#paint4_linear)" stroke="#282E48" stroke-width="0.2"/>
<path d="M31.814 36.1049C31.8203 36.1022 31.8323 36.0971 31.8386 36.0942M31.814 36.1049L31.7759 36.0124C31.71 36.0396 31.642 36.0524 31.5753 36.0524C31.3682 36.0524 31.1722 35.9296 31.0885 35.7266L31.0885 35.7266C30.9786 35.4605 31.1031 35.156 31.3666 35.0425L31.3666 35.0425L31.3674 35.0421C31.6317 34.9256 31.9413 35.0435 32.0602 35.307C32.1797 35.5722 32.0622 35.8835 31.7974 36.003L31.7974 36.003L31.7968 36.0033C31.792 36.0055 31.7812 36.0102 31.7756 36.0125L31.814 36.1049ZM31.814 36.1049C31.7358 36.1371 31.6549 36.1524 31.5753 36.1524C31.3292 36.1524 31.0957 36.0064 30.996 35.7647C30.8653 35.4481 31.0135 35.0858 31.327 34.9506L31.8386 36.0942M31.8386 36.0942C32.1538 35.9519 32.2935 35.5812 32.1513 35.2659L31.8386 36.0942Z" fill="url(#paint5_linear)" stroke="#282E48" stroke-width="0.2"/>
<path d="M29.6818 35.5756L29.6818 35.5756L29.6825 35.5754C29.966 35.5188 30.2431 35.7008 30.3021 35.984C30.3615 36.2686 30.1794 36.5472 29.895 36.6067L29.8738 36.6108C29.8424 36.6164 29.8111 36.6191 29.7805 36.6191C29.5305 36.6191 29.3087 36.4401 29.2631 36.1853C29.2122 35.9014 29.3993 35.6298 29.6818 35.5756Z" fill="url(#paint6_linear)" stroke="#282E48" stroke-width="0.2"/>
<path d="M37.3272 26.2364L37.3272 26.2364L37.3275 26.2378C37.3868 26.522 37.2044 26.7993 36.9195 26.8589L36.9195 26.8589C36.8833 26.8664 36.8474 26.8701 36.812 26.8701C36.5679 26.8701 36.3481 26.6981 36.2962 26.4494L36.2935 26.4355C36.2383 26.1502 36.4247 25.8741 36.71 25.8188L36.7101 25.8188C36.9952 25.7633 37.2718 25.9507 37.3272 26.2364Z" fill="url(#paint7_linear)" stroke="#282E48" stroke-width="0.2"/>
<path d="M36.1741 28.1595L36.1728 28.1749C36.1474 28.5199 36.4064 28.8221 36.7514 28.8475C36.7672 28.8487 36.7828 28.8492 36.7984 28.8492C37.1233 28.8492 37.3978 28.6 37.4219 28.2707C37.4524 27.9261 37.1977 27.621 36.8531 27.5906M36.1741 28.1595L36.2737 28.1683L36.2731 28.1756L36.2727 28.1795C36.2727 28.1805 36.2726 28.1809 36.2726 28.1809L36.2725 28.1822C36.2512 28.4726 36.4692 28.7265 36.7588 28.7478L36.759 28.7478C36.7719 28.7488 36.785 28.7492 36.7984 28.7492C37.0717 28.7492 37.3019 28.5397 37.3222 28.2634L37.3223 28.2619C37.3479 27.9722 37.1337 27.7158 36.8443 27.6902L36.8531 27.5906M36.1741 28.1595C36.2045 27.8149 36.5083 27.5603 36.8531 27.5906M36.1741 28.1595L36.2737 28.1676L36.2737 28.1682C36.2993 27.8787 36.5545 27.6648 36.8443 27.6902L36.8531 27.5906" fill="url(#paint8_linear)" stroke="#282E48" stroke-width="0.2"/>
<path d="M35.3864 32.3403C35.0858 32.1692 34.9807 31.7868 35.1518 31.4861L35.2387 31.5355M35.3864 32.3403L35.9577 31.3353C36.2109 31.4792 36.3003 31.7977 36.1573 32.0499L36.1572 32.0499L36.155 32.0543L36.1549 32.0545L36.1549 32.0542L36.1549 32.0542L36.1538 32.0562C36.0568 32.2267 35.879 32.3224 35.6956 32.3224C35.6075 32.3224 35.5183 32.3003 35.4359 32.2534L35.4359 32.2534C35.1833 32.1096 35.095 31.7883 35.2387 31.5355M35.3864 32.3403C35.4842 32.396 35.5906 32.4224 35.6956 32.4224M35.3864 32.3403L35.6956 32.4224M35.2387 31.5355C35.3827 31.2824 35.7056 31.1922 35.9577 31.3353L35.2387 31.5355ZM35.6956 32.4224C35.9135 32.4224 36.1252 32.3086 36.2407 32.1057L35.6956 32.4224Z" fill="url(#paint9_linear)" stroke="#282E48" stroke-width="0.2"/>
<path d="M36.5951 29.5586L36.5951 29.5586C36.8735 29.643 37.0307 29.9365 36.9464 30.2146L36.9432 30.2249C36.9432 30.225 36.9432 30.225 36.9432 30.2251C36.8728 30.4502 36.6652 30.5946 36.441 30.5946C36.3891 30.5946 36.3362 30.5868 36.2839 30.5704L36.2838 30.5704C36.0063 30.4838 35.8516 30.1885 35.9383 29.911L35.9386 29.9102C36.0229 29.6318 36.317 29.4742 36.5951 29.5586Z" fill="url(#paint10_linear)" stroke="#282E48" stroke-width="0.2"/>
<path d="M20.0056 29.3922L20.0056 29.3922L20.0058 29.393C20.0726 29.6748 19.899 29.9585 19.6174 30.0266C19.5755 30.0367 19.5338 30.0415 19.4928 30.0415C19.2556 30.0415 19.0405 29.8801 18.9823 29.6397L18.9782 29.6223C18.9159 29.3386 19.0953 29.0581 19.3789 28.9954C19.6618 28.9335 19.9413 29.1107 20.0056 29.3922Z" fill="url(#paint11_linear)" stroke="#282E48" stroke-width="0.2"/>
<path d="M20.4653 24.1861L20.4656 24.1854C20.5826 23.9212 20.4647 23.6117 20.2009 23.4925L20.4653 24.1861ZM20.4653 24.1861C20.3792 24.3845 20.1852 24.5038 19.9813 24.5038C19.9123 24.5038 19.8421 24.4901 19.7743 24.461L20.4653 24.1861ZM19.5047 23.755L19.4979 23.7707C19.3834 24.0376 19.5071 24.3463 19.7743 24.461L19.5047 23.755ZM19.5047 23.755C19.6245 23.4905 19.9362 23.373 20.2009 23.4925L19.5047 23.755Z" fill="url(#paint12_linear)" stroke="#282E48" stroke-width="0.2"/>
<path d="M19.938 25.8774L19.9383 25.876C19.9977 25.5914 19.8152 25.3125 19.5307 25.2531L19.938 25.8774ZM19.938 25.8774C19.8893 26.1285 19.6696 26.3023 19.4227 26.3023C19.3894 26.3023 19.3554 26.2991 19.3212 26.2925C19.0361 26.2372 18.8496 25.9599 18.905 25.6742L18.9078 25.6602M19.938 25.8774L18.9078 25.6602M18.9078 25.6602C18.9674 25.3759 19.2464 25.1938 19.5307 25.2531L18.9078 25.6602Z" fill="url(#paint13_linear)" stroke="#282E48" stroke-width="0.2"/>
<path d="M20.4881 22.0325L20.4881 22.0325L20.4875 22.0333C20.3165 22.2685 20.3685 22.5977 20.6036 22.7687L20.6036 22.7687C20.6971 22.8368 20.8053 22.8694 20.9127 22.8694C21.0756 22.8694 21.2358 22.7942 21.3388 22.6527C21.3388 22.6527 21.3389 22.6526 21.3389 22.6526L21.3452 22.6439C21.5137 22.408 21.4591 22.081 21.2233 21.9115L20.4881 22.0325ZM20.4881 22.0325L20.4887 22.0317M20.4881 22.0325L20.4887 22.0317M20.4887 22.0317C20.6588 21.7963 20.9878 21.7423 21.2232 21.9115L20.4887 22.0317Z" fill="url(#paint14_linear)" stroke="#282E48" stroke-width="0.2"/>
<path d="M21.8175 20.5528L21.8176 20.5527L21.823 20.5478C22.0391 20.3534 22.372 20.3709 22.5665 20.587L21.8175 20.5528ZM21.7818 21.2936C21.5869 21.0772 21.6026 20.7471 21.8175 20.5528L22.5665 20.587C22.7609 20.8031 22.7434 21.1359 22.5273 21.3304L22.5273 21.3304C22.4262 21.4215 22.2991 21.4665 22.1723 21.4665C22.0279 21.4665 21.885 21.4082 21.7818 21.2936L21.7818 21.2936Z" fill="url(#paint15_linear)" stroke="#282E48" stroke-width="0.2"/>
<path d="M23.4435 19.3795L23.4435 19.3795L23.444 19.3792C23.6977 19.2373 24.0185 19.328 24.1604 19.5817C24.3023 19.8355 24.2116 20.1562 23.958 20.2981L23.958 20.2981L23.9568 20.2987C23.874 20.3464 23.784 20.369 23.6952 20.369C23.513 20.369 23.3361 20.2742 23.2387 20.105L23.2387 20.105C23.0936 19.8533 23.1806 19.5309 23.4327 19.3857L23.4327 19.3857L23.4339 19.385C23.4338 19.385 23.4342 19.3848 23.4353 19.3842L23.4385 19.3824L23.4417 19.3805L23.4429 19.3798L23.4433 19.3796L23.4435 19.3795L23.4435 19.3795L23.4435 19.3795L23.4435 19.3795Z" fill="url(#paint16_linear)" stroke="#282E48" stroke-width="0.2"/>
<path d="M25.2667 18.5873L25.2667 18.5873L25.2681 18.5868C25.5442 18.4975 25.8395 18.6494 25.929 18.9264C26.0183 19.2028 25.8653 19.5003 25.5883 19.5898L25.5883 19.5898L25.5874 19.5901C25.5875 19.59 25.5871 19.5902 25.5859 19.5906L25.5821 19.5917L25.5752 19.5939C25.5236 19.6098 25.4715 19.6173 25.4203 19.6173C25.1951 19.6173 24.9869 19.4717 24.9173 19.2455C24.8319 18.9679 24.9887 18.6728 25.2667 18.5873Z" fill="url(#paint17_linear)" stroke="#282E48" stroke-width="0.2"/>
<path d="M27.2202 18.2024L27.22 18.2025C26.9311 18.2279 26.7194 18.4825 26.745 18.7728L27.2202 18.2024ZM27.2202 18.2024L27.2261 18.2019C27.2262 18.2019 27.2262 18.2019 27.2263 18.2019M27.2202 18.2024L27.2263 18.2019M27.2263 18.2019C27.5161 18.1766 27.7713 18.3905 27.7968 18.68M27.2263 18.2019L27.7968 18.68M27.7968 18.68C27.8224 18.9696 27.6082 19.2251 27.3188 19.2507L27.3276 19.3503M27.7968 18.68L26.745 18.7728C26.7691 19.046 27.001 19.2527 27.2717 19.2527C27.2872 19.2527 27.3029 19.252 27.319 19.2506L27.3276 19.3503M27.3276 19.3503C27.3088 19.3519 27.2902 19.3527 27.2717 19.3527C26.9503 19.3527 26.6741 19.1075 26.6454 18.7816L27.8964 18.6712C27.9268 19.0158 27.6721 19.3199 27.3276 19.3503Z" fill="url(#paint18_linear)" stroke="#282E48" stroke-width="0.2"/>
<path d="M19.2396 27.0142L19.2425 27.1141C19.5342 27.1058 19.7758 27.3358 19.7843 27.6268L19.7844 27.6334L19.7845 27.6375L19.7845 27.6389C19.7845 27.6391 19.7845 27.6392 19.7845 27.6393C19.7845 27.6393 19.7845 27.6393 19.7845 27.6393L19.7845 27.6408C19.7888 27.9315 19.5565 28.1706 19.2659 28.1749L19.2654 28.1749L19.258 28.1749C18.9712 28.1749 18.7361 27.9434 18.7319 27.6552L18.7319 27.6552L18.7318 27.6537C18.7233 27.3636 18.9515 27.1227 19.2426 27.1141L19.2396 27.0142ZM19.2396 27.0142C19.587 27.0043 19.8741 27.2782 19.8842 27.6239L18.6319 27.6567C18.6217 27.3109 18.8938 27.0244 19.2396 27.0142Z" fill="url(#paint19_linear)" stroke="#282E48" stroke-width="0.2"/>
<path d="M28.5263 23.047V22.947V22.0144C28.5263 21.7237 28.2907 21.4879 27.9999 21.4879C27.7092 21.4879 27.4735 21.7236 27.4735 22.0144V22.947V23.047H27.3735H27.3552H28.5263ZM28.5263 23.047H28.6263M28.5263 23.047H28.6263M28.6263 23.047H28.7838C29.8677 23.047 30.7497 23.929 30.7497 25.0129C30.7497 25.3037 30.514 25.5394 30.2233 25.5394C29.9325 25.5394 29.6968 25.3036 29.6968 25.0129C29.6968 24.5093 29.2873 24.0998 28.7837 24.0998H27.3553C26.775 24.0998 26.303 24.5718 26.303 25.1521V25.902C26.303 26.4823 26.775 26.9543 27.3553 26.9543H27.8421H28.1578H28.6446C29.8052 26.9543 30.7497 27.8987 30.7497 29.0594V29.8093C30.7497 30.9699 29.8053 31.9144 28.6446 31.9144H28.6263H28.5263V32.0144V32.947C28.5263 33.2377 28.2906 33.4734 27.9999 33.4734C27.7091 33.4734 27.4735 33.2376 27.4735 32.947V32.0144V31.9144M28.6263 23.047L27.4735 31.9144M27.4735 31.9144H27.3735M27.4735 31.9144H27.3735M27.3735 31.9144H27.216C26.1321 31.9144 25.2502 31.0325 25.2502 29.9485C25.2502 29.6578 25.4859 29.422 25.7766 29.422C26.0674 29.422 26.303 29.6578 26.303 29.9485C26.303 30.4521 26.7125 30.8616 27.2161 30.8616H28.6445C29.2249 30.8616 29.6968 30.3896 29.6968 29.8093V29.0594C29.6968 28.4791 29.2249 28.0071 28.6445 28.0071H28.159L28.157 28.0072H27.3553C26.1947 28.0072 25.2502 27.0628 25.2502 25.9021V25.1522C25.2502 23.9915 26.1946 23.0471 27.3552 23.047L27.3735 31.9144Z" fill="url(#paint20_linear)" stroke="#282E48" stroke-width="0.2"/>
<path d="M42.747 24.6873H42.847V24.5873V20.4002C42.847 20.1095 43.0828 19.8738 43.3735 19.8738C43.6643 19.8738 43.8999 20.1095 43.8999 20.4002V25.2137C43.8999 25.5044 43.6641 25.7401 43.3734 25.7401H40.4319C39.8317 25.7401 39.3151 25.3735 39.0949 24.8518L39.0691 24.7907H39.0028H36.5823C35.1478 24.7907 33.7896 24.242 32.7575 23.2458L29.3887 19.9939C28.7042 19.3332 28.6722 18.2257 29.3176 17.5266L29.3176 17.5266C29.9753 16.814 31.0924 16.7674 31.8074 17.4227L34.4523 19.8471C34.4523 19.8471 34.4523 19.8471 34.4523 19.8471C34.6666 20.0436 34.681 20.3766 34.4846 20.5909C34.2881 20.8052 33.9551 20.8197 33.7408 20.6232L31.0959 18.1986L31.0283 18.2724L31.0959 18.1986C30.8073 17.9341 30.3567 17.9529 30.0912 18.2406L30.0911 18.2406C29.8304 18.5232 29.8432 18.9692 30.1199 19.2363L33.4887 22.4882C34.3234 23.2939 35.4223 23.7377 36.5824 23.7377H38.8816H38.9816V23.6377V19.9495V19.8523L38.8845 19.8495C37.609 19.8125 36.4172 19.2359 35.5981 18.2513L35.5213 18.3152L35.5981 18.2513L34.0373 16.3751L33.9604 16.4391L34.0373 16.3751C33.391 15.5984 32.4407 15.1527 31.4303 15.1527H24.9032C24.4746 15.1527 24.1261 15.5013 24.1261 15.9298C24.1261 16.3583 24.4746 16.7069 24.9032 16.7069H27.5721C27.8629 16.7069 28.0986 16.9426 28.0986 17.2333C28.0986 17.5241 27.8629 17.7597 27.5721 17.7597H24.9032C23.8943 17.7597 23.0733 16.9388 23.0733 15.9299C23.0733 14.921 23.8943 14.1 24.9032 14.1H31.4302C32.7546 14.1 33.9996 14.6838 34.8466 15.7018L36.4074 17.5781C37.0494 18.3497 37.9916 18.7941 38.9945 18.7999L39.0622 18.8003L39.0877 18.7375C39.3035 18.2061 39.8249 17.8308 40.432 17.8308H41.0352C41.3259 17.8308 41.5616 18.0665 41.5616 18.3572C41.5616 18.648 41.3259 18.8837 41.0352 18.8837H40.432C40.2126 18.8837 40.0344 19.0619 40.0344 19.2813V24.2897C40.0344 24.5091 40.2126 24.6873 40.432 24.6873H42.747Z" fill="url(#paint21_linear)" stroke="#282E48" stroke-width="0.2"/>
<path d="M13.1529 36.6762C13.1529 36.967 12.9172 37.2027 12.6264 37.2027C12.3357 37.2027 12.1 36.967 12.1 36.6762C12.1 36.3855 12.3357 36.1498 12.6264 36.1498C12.9172 36.1498 13.1529 36.3855 13.1529 36.6762Z" fill="url(#paint22_linear)" stroke="#282E48" stroke-width="0.2"/>
<defs>
<linearGradient id="paint0_linear" x1="56" y1="28" x2="112" y2="28" gradientUnits="userSpaceOnUse">
<stop offset="0.0520833" stop-color="#FF8C3E" stop-opacity="0"/>
<stop offset="1" stop-color="#FF5968"/>
</linearGradient>
<linearGradient id="paint1_linear" x1="42.7471" y1="18.3569" x2="44" y2="18.3569" gradientUnits="userSpaceOnUse">
<stop stop-color="#FF8D3D"/>
<stop offset="1" stop-color="#FF5969"/>
</linearGradient>
<linearGradient id="paint2_linear" x1="12" y1="35.1238" x2="33.0266" y2="35.1238" gradientUnits="userSpaceOnUse">
<stop stop-color="#FF8D3D"/>
<stop offset="1" stop-color="#FF5969"/>
</linearGradient>
<linearGradient id="paint3_linear" x1="33.9745" y1="33.3226" x2="35.2311" y2="33.3226" gradientUnits="userSpaceOnUse">
<stop stop-color="#FF8D3D"/>
<stop offset="1" stop-color="#FF5969"/>
</linearGradient>
<linearGradient id="paint4_linear" x1="32.5792" y1="34.588" x2="33.8355" y2="34.588" gradientUnits="userSpaceOnUse">
<stop stop-color="#FF8D3D"/>
<stop offset="1" stop-color="#FF5969"/>
</linearGradient>
<linearGradient id="paint5_linear" x1="30.9485" y1="35.5248" x2="32.207" y2="35.5248" gradientUnits="userSpaceOnUse">
<stop stop-color="#FF8D3D"/>
<stop offset="1" stop-color="#FF5969"/>
</linearGradient>
<linearGradient id="paint6_linear" x1="29.1547" y1="36.0921" x2="30.4134" y2="36.0921" gradientUnits="userSpaceOnUse">
<stop stop-color="#FF8D3D"/>
<stop offset="1" stop-color="#FF5969"/>
</linearGradient>
<linearGradient id="paint7_linear" x1="36.1838" y1="26.3395" x2="37.4387" y2="26.3395" gradientUnits="userSpaceOnUse">
<stop stop-color="#FF8D3D"/>
<stop offset="1" stop-color="#FF5969"/>
</linearGradient>
<linearGradient id="paint8_linear" x1="36.1711" y1="28.2187" x2="37.4245" y2="28.2187" gradientUnits="userSpaceOnUse">
<stop stop-color="#FF8D3D"/>
<stop offset="1" stop-color="#FF5969"/>
</linearGradient>
<linearGradient id="paint9_linear" x1="35.0697" y1="31.7948" x2="36.3255" y2="31.7948" gradientUnits="userSpaceOnUse">
<stop stop-color="#FF8D3D"/>
<stop offset="1" stop-color="#FF5969"/>
</linearGradient>
<linearGradient id="paint10_linear" x1="35.8142" y1="30.0652" x2="37.0692" y2="30.0652" gradientUnits="userSpaceOnUse">
<stop stop-color="#FF8D3D"/>
<stop offset="1" stop-color="#FF5969"/>
</linearGradient>
<linearGradient id="paint11_linear" x1="18.8659" y1="29.5123" x2="20.1201" y2="29.5123" gradientUnits="userSpaceOnUse">
<stop stop-color="#FF8D3D"/>
<stop offset="1" stop-color="#FF5969"/>
</linearGradient>
<linearGradient id="paint12_linear" x1="19.3552" y1="23.9747" x2="20.6108" y2="23.9747" gradientUnits="userSpaceOnUse">
<stop stop-color="#FF8D3D"/>
<stop offset="1" stop-color="#FF5969"/>
</linearGradient>
<linearGradient id="paint13_linear" x1="18.7952" y1="25.7721" x2="20.0495" y2="25.7721" gradientUnits="userSpaceOnUse">
<stop stop-color="#FF8D3D"/>
<stop offset="1" stop-color="#FF5969"/>
</linearGradient>
<linearGradient id="paint14_linear" x1="20.2867" y1="22.3411" x2="21.543" y2="22.3411" gradientUnits="userSpaceOnUse">
<stop stop-color="#FF8D3D"/>
<stop offset="1" stop-color="#FF5969"/>
</linearGradient>
<linearGradient id="paint15_linear" x1="21.5454" y1="20.9396" x2="22.8016" y2="20.9396" gradientUnits="userSpaceOnUse">
<stop stop-color="#FF8D3D"/>
<stop offset="1" stop-color="#FF5969"/>
</linearGradient>
<linearGradient id="paint16_linear" x1="23.0684" y1="19.8406" x2="24.3275" y2="19.8406" gradientUnits="userSpaceOnUse">
<stop stop-color="#FF8D3D"/>
<stop offset="1" stop-color="#FF5969"/>
</linearGradient>
<linearGradient id="paint17_linear" x1="24.7939" y1="19.0892" x2="26.0545" y2="19.0892" gradientUnits="userSpaceOnUse">
<stop stop-color="#FF8D3D"/>
<stop offset="1" stop-color="#FF5969"/>
</linearGradient>
<linearGradient id="paint18_linear" x1="26.6429" y1="18.7263" x2="27.8989" y2="18.7263" gradientUnits="userSpaceOnUse">
<stop stop-color="#FF8D3D"/>
<stop offset="1" stop-color="#FF5969"/>
</linearGradient>
<linearGradient id="paint19_linear" x1="18.6316" y1="27.6444" x2="19.8846" y2="27.6444" gradientUnits="userSpaceOnUse">
<stop stop-color="#FF8D3D"/>
<stop offset="1" stop-color="#FF5969"/>
</linearGradient>
<linearGradient id="paint20_linear" x1="25.1502" y1="27.4807" x2="30.8497" y2="27.4807" gradientUnits="userSpaceOnUse">
<stop stop-color="#FF8D3D"/>
<stop offset="1" stop-color="#FF5969"/>
</linearGradient>
<linearGradient id="paint21_linear" x1="22.9733" y1="19.92" x2="43.9999" y2="19.92" gradientUnits="userSpaceOnUse">
<stop stop-color="#FF8D3D"/>
<stop offset="1" stop-color="#FF5969"/>
</linearGradient>
<linearGradient id="paint22_linear" x1="12" y1="36.6762" x2="13.2529" y2="36.6762" gradientUnits="userSpaceOnUse">
<stop stop-color="#FF8D3D"/>
<stop offset="1" stop-color="#FF5969"/>
</linearGradient>
</defs>
</svg>
