<svg width="56" height="56" viewBox="0 0 56 56" fill="none" xmlns="http://www.w3.org/2000/svg">
<rect x="55.5" y="0.5" width="55" height="55" rx="4.5" transform="rotate(90 55.5 0.5)" stroke="url(#paint0_linear)"/>
<path d="M27.4742 13.625C27.4742 13.335 27.7093 13.1 27.9992 13.1C28.2891 13.1 28.5242 13.335 28.5242 13.625V17.3433C28.5242 17.6333 28.2891 17.8683 27.9992 17.8683C27.7093 17.8683 27.4742 17.6333 27.4742 17.3433V13.625Z" fill="url(#paint1_linear)" stroke="#282E48" stroke-width="0.2"/>
<path d="M22.8917 16.9131L24.3871 18.4071L24.3871 18.4071L22.8917 16.9131ZM22.8917 16.9131C22.8917 16.9131 22.8917 16.9131 22.8917 16.913M22.8917 16.9131L22.8917 16.913M22.8917 16.913C22.6865 16.7081 22.3542 16.7083 22.1492 16.9134L22.8917 16.913ZM24.3874 19.1496C24.2848 19.2522 24.1506 19.3035 24.016 19.3035C23.8816 19.3035 23.7475 19.2523 23.645 19.1499L22.1495 17.6558C22.1495 17.6558 22.1495 17.6558 22.1495 17.6558C21.9445 17.4508 21.9443 17.1185 22.1492 16.9134L24.3874 19.1496Z" fill="url(#paint2_linear)" stroke="#282E48" stroke-width="0.2"/>
<path d="M31.5181 18.5059L33.1079 16.9148L33.1079 16.9148C33.3129 16.7097 33.6453 16.7095 33.8504 16.9145C34.0555 17.1195 34.0556 17.4519 33.8507 17.657C33.8507 17.657 33.8507 17.657 33.8507 17.657L32.2609 19.248C32.1584 19.3507 32.0241 19.402 31.8895 19.402C31.7552 19.402 31.621 19.3508 31.5184 19.2483C31.3134 19.0434 31.3132 18.711 31.5181 18.5059C31.5181 18.5059 31.5181 18.5059 31.5181 18.5059Z" fill="url(#paint3_linear)" stroke="#282E48" stroke-width="0.2"/>
<path d="M20.8783 30.5679L20.8077 30.497C20.7127 30.5915 20.582 30.6498 20.4375 30.6498H16.0938C14.4705 30.6498 13.15 31.9703 13.15 33.5936V41.2498V41.3498H13.25H15H15.1V41.2498V34.1282C15.1 33.8382 15.3351 33.6032 15.625 33.6032C15.9149 33.6032 16.15 33.8382 16.15 34.1282V41.2498V41.3498H16.25H22H22.1V41.2498V39.7498C22.1 39.4599 22.3351 39.2248 22.625 39.2248C22.9149 39.2248 23.15 39.4599 23.15 39.7498V41.8748C23.15 42.1648 22.9149 42.3998 22.625 42.3998H15.625C15.5726 42.3998 15.522 42.392 15.474 42.3776L15.4453 42.369L15.4166 42.3776C15.3686 42.392 15.318 42.3998 15.2656 42.3998H12.625C12.3351 42.3998 12.1 42.1648 12.1 41.8748V33.5936C12.1 31.3915 13.8917 29.5998 16.0938 29.5998H16.5981H16.8009L16.6775 29.4389C16.2787 28.9191 16.0411 28.2699 16.0411 27.5659V26.6838C16.0411 24.9834 17.4246 23.5999 19.125 23.5999C20.8254 23.5999 22.2089 24.9834 22.2091 26.6838V27.3695V27.6109L22.3798 27.4402L27.0816 22.7383C27.3151 22.5049 27.6581 22.43 27.9661 22.5413L28.0001 22.5535L28.034 22.5413C28.3422 22.43 28.6851 22.5049 28.9184 22.7382C28.9184 22.7382 28.9184 22.7382 28.9184 22.7382L33.6204 27.4402L33.7911 27.6109V27.3695V26.6838C33.7911 24.9834 35.1746 23.5999 36.875 23.5999C38.5754 23.5999 39.9589 24.9834 39.9589 26.6839V27.5659C39.9589 28.2699 39.7213 28.9192 39.3225 29.439L39.1991 29.5999H39.4019H39.9062C42.1083 29.5999 43.9 31.3915 43.9 33.5936V41.8748C43.9 42.1648 43.6649 42.3998 43.375 42.3998H40.7344C40.682 42.3998 40.6314 42.392 40.5834 42.3776L40.5547 42.369L40.526 42.3776C40.478 42.392 40.4274 42.3998 40.375 42.3998H33.375C33.0851 42.3998 32.85 42.1648 32.85 41.8748V34.3189V34.2884L32.8329 34.2631L28.8491 28.3464L28.7661 28.4023L28.8491 28.3464C28.5484 27.9 28.2963 27.4282 28.0924 26.9383L28.0001 26.7166L27.9077 26.9384C27.7038 27.4282 27.4517 27.9 27.1511 28.3464L23.1671 34.2631L23.1501 34.2884V34.3189V34.8124C23.1501 35.1023 22.915 35.3373 22.6251 35.3373C22.3352 35.3373 22.1001 35.1023 22.1001 34.8124V34.1282C22.1001 34.0238 22.1312 33.9216 22.1896 33.8349L26.2801 27.7601L26.1971 27.7042L26.2801 27.7601C27.0184 26.6634 27.4281 25.395 27.4713 24.0783L27.4796 23.8253L27.3006 24.0043L20.8114 30.4935C20.8102 30.4946 20.8089 30.4958 20.8075 30.4972L20.8783 30.5679ZM20.8783 30.5679L20.8795 30.5668L15.4453 42.4733C15.5022 42.4904 15.5625 42.4998 15.625 42.4998H22.625C22.9701 42.4998 23.25 42.22 23.25 41.8748V39.7498C23.25 39.4047 22.9701 39.1248 22.625 39.1248C22.2799 39.1248 22 39.4047 22 39.7498V41.1498V41.2498H21.9H16.35H16.25V41.1498V34.1282C16.25 33.783 15.9701 33.5032 15.625 33.5032C15.2799 33.5032 15 33.783 15 34.1282V41.1498V41.2498H14.9H13.35H13.25V41.1498V33.5936C13.25 32.0255 14.5257 30.7499 16.0938 30.7499H20.4375C20.6095 30.7499 20.7653 30.6803 20.8783 30.5679ZM42.75 41.3498H42.85V41.2498V33.5937C42.85 31.9704 41.5295 30.65 39.9062 30.65H35.5625C35.4274 30.65 35.3045 30.5985 35.2111 30.514L35.2112 30.514L35.2077 30.5111C35.2025 30.5068 35.1971 30.502 35.1913 30.4961L35.1206 30.5668L35.1913 30.4961L28.6995 24.0043L28.5205 23.8254L28.5288 24.0783C28.572 25.3951 28.9816 26.6635 29.72 27.7601L33.8105 33.835C33.8688 33.9216 33.9 34.0237 33.9 34.1282V41.2498V41.3498H34H39.75H39.85V41.2498V36.6249C39.85 36.3349 40.0851 36.0999 40.375 36.0999C40.6649 36.0999 40.9 36.3349 40.9 36.6249V41.2498V41.3498H41H42.75ZM19.125 29.5999C20.2467 29.5999 21.1589 28.6875 21.1589 27.5659V26.6838C21.1589 25.5622 20.2466 24.6499 19.125 24.6499C18.0034 24.6499 17.0911 25.5622 17.0911 26.6839V27.5659C17.0911 28.6875 18.0033 29.5999 19.125 29.5999ZM36.875 24.6499C35.7534 24.6499 34.8411 25.5622 34.8411 26.6838V27.5659C34.8411 28.6875 35.7533 29.5999 36.875 29.5999C37.9967 29.5999 38.9089 28.6875 38.9089 27.5659V26.6838C38.9089 25.5622 37.9966 24.6499 36.875 24.6499Z" fill="url(#paint4_linear)" stroke="#282E48" stroke-width="0.2"/>
<path d="M40.0038 34.4993L40.0038 34.4993C39.9063 34.4018 39.85 34.266 39.85 34.1282C39.85 33.9904 39.9063 33.8545 40.0038 33.757C40.1014 33.6595 40.2372 33.6032 40.375 33.6032C40.5128 33.6032 40.6486 33.6595 40.746 33.7569C40.8438 33.8552 40.9 33.9905 40.9 34.1282C40.9 34.266 40.8436 34.4018 40.7461 34.4993L40.7461 34.4994C40.6486 34.5969 40.5128 34.6532 40.375 34.6532C40.2372 34.6532 40.1014 34.5969 40.0038 34.4993Z" fill="url(#paint5_linear)" stroke="#282E48" stroke-width="0.2"/>
<path d="M22.9961 37.0663L22.9961 37.0664C23.0937 37.1639 23.15 37.2997 23.15 37.4375C23.15 37.5753 23.0936 37.7111 22.9961 37.8087L22.9961 37.8087C22.8986 37.9062 22.7628 37.9625 22.625 37.9625C22.4872 37.9625 22.3514 37.9062 22.2538 37.8086C22.1563 37.7111 22.1 37.5753 22.1 37.4375C22.1 37.2997 22.1563 37.1639 22.2538 37.0663C22.3514 36.9688 22.4872 36.9125 22.625 36.9125C22.7628 36.9125 22.8986 36.9688 22.9961 37.0663Z" fill="url(#paint6_linear)" stroke="#282E48" stroke-width="0.2"/>
<defs>
<linearGradient id="paint0_linear" x1="56" y1="28" x2="112" y2="28" gradientUnits="userSpaceOnUse">
<stop offset="0.0520833" stop-color="#FF8C3E" stop-opacity="0"/>
<stop offset="1" stop-color="#FF5968"/>
</linearGradient>
<linearGradient id="paint1_linear" x1="27.3742" y1="15.4842" x2="28.6242" y2="15.4842" gradientUnits="userSpaceOnUse">
<stop stop-color="#FF8D3D"/>
<stop offset="1" stop-color="#FF5969"/>
</linearGradient>
<linearGradient id="paint2_linear" x1="21.8956" y1="18.0315" x2="24.641" y2="18.0315" gradientUnits="userSpaceOnUse">
<stop stop-color="#FF8D3D"/>
<stop offset="1" stop-color="#FF5969"/>
</linearGradient>
<linearGradient id="paint3_linear" x1="31.2645" y1="18.0814" x2="34.1043" y2="18.0814" gradientUnits="userSpaceOnUse">
<stop stop-color="#FF8D3D"/>
<stop offset="1" stop-color="#FF5969"/>
</linearGradient>
<linearGradient id="paint4_linear" x1="12" y1="32.4452" x2="44" y2="32.4452" gradientUnits="userSpaceOnUse">
<stop stop-color="#FF8D3D"/>
<stop offset="1" stop-color="#FF5969"/>
</linearGradient>
<linearGradient id="paint5_linear" x1="39.75" y1="34.1282" x2="41" y2="34.1282" gradientUnits="userSpaceOnUse">
<stop stop-color="#FF8D3D"/>
<stop offset="1" stop-color="#FF5969"/>
</linearGradient>
<linearGradient id="paint6_linear" x1="22" y1="37.4375" x2="23.25" y2="37.4375" gradientUnits="userSpaceOnUse">
<stop stop-color="#FF8D3D"/>
<stop offset="1" stop-color="#FF5969"/>
</linearGradient>
</defs>
</svg>
