<svg width="317" height="400" viewBox="0 0 317 400" fill="none" xmlns="http://www.w3.org/2000/svg">
<path d="M235.136 304.083C243.272 308.79 243.272 316.42 235.136 321.147C230.549 323.463 225.48 324.67 220.339 324.67C215.198 324.67 210.129 323.463 205.542 321.147L153.39 291.199L183.066 274.094L235.136 304.083Z" fill="#80A5EC"/>
<path d="M244.411 150.526C246.187 157.351 246.643 164.451 245.753 171.446C245.692 173.509 244.891 175.481 243.496 177.005C242.327 177.92 240.91 178.465 239.428 178.568C235.601 178.984 231.744 178.115 228.468 176.097C225.193 174.079 222.686 171.028 221.346 167.428C220.405 164.752 219.984 161.922 220.105 159.089C220.141 156.395 220.658 153.729 221.63 151.216C222.701 148.582 224.393 146.245 226.564 144.405C228.735 142.564 231.32 141.274 234.099 140.645C235.543 140.32 238.004 139.671 239.285 140.645C242.133 142.674 243.496 147.239 244.411 150.526Z" fill="url(#paint0_linear)"/>
<path d="M238.879 310.575C239.275 310.626 239.652 310.775 239.976 311.007C240.3 311.24 240.56 311.55 240.734 311.909C240.908 312.267 240.989 312.663 240.97 313.061C240.952 313.459 240.834 313.846 240.628 314.187C239.763 316.186 238.428 317.947 236.735 319.321C235.043 320.695 233.043 321.641 230.905 322.08C225.922 322.77 223.644 320.761 226.614 316.926C229.583 313.091 234.363 309.115 235.278 309.358C236.194 309.602 238.879 310.575 238.879 310.575Z" fill="url(#paint1_linear)"/>
<path d="M229.421 267.844L233.936 310.19C233.936 310.19 227.021 317.88 227.834 318.529C228.648 319.179 237.068 318.712 239.184 311.935L237.597 269.468L229.421 267.844Z" fill="#F9BFB5"/>
<path d="M224.58 305.158C224.972 305.225 225.341 305.39 225.653 305.636C225.965 305.882 226.21 306.203 226.366 306.568C226.522 306.934 226.584 307.332 226.545 307.727C226.506 308.123 226.369 308.502 226.146 308.83C225.179 310.798 223.749 312.504 221.978 313.8C220.207 315.097 218.148 315.947 215.976 316.277C210.952 316.723 208.775 314.593 211.908 310.92C215.04 307.248 220.044 303.474 220.918 303.758C221.793 304.042 224.58 305.158 224.58 305.158Z" fill="url(#paint2_linear)"/>
<path d="M217.053 266.667L219.555 304.123C219.555 304.123 212.273 311.468 213.127 312.239C213.982 313.01 222.362 312.868 224.782 306.152L225.25 268.717L217.053 266.667Z" fill="#F9BFB5"/>
<path d="M217.155 205.574C217.155 205.574 214.124 209.754 214.124 219.635C214.124 229.516 215.629 267.845 215.629 267.845C215.629 267.845 226.958 272.065 234.728 271.111C242.498 270.158 242.152 268.21 242.152 268.21C241.032 262.268 240.453 256.238 240.423 250.192C240.769 243.415 246.119 227.589 245.508 219.371C245.362 215.603 244.844 211.858 243.963 208.191L217.155 205.574Z" fill="url(#paint3_linear)"/>
<path d="M225.189 170.451C225.189 170.451 223.867 166.616 221.609 166.616C219.352 166.616 215.263 168.99 213.168 183.538C211.073 198.086 211.826 199.547 214.084 200.156C216.341 200.765 219.128 200.866 220.185 195.854C221.243 190.843 225.454 174.347 225.189 170.451Z" fill="url(#paint4_linear)"/>
<path d="M213.169 194.8C213.169 194.8 203.894 206 199.378 210.017C197.181 212.046 200.924 216.997 205.48 214.278C210.036 211.559 220.532 198.046 217.196 195.408C213.86 192.771 213.169 194.8 213.169 194.8Z" fill="url(#paint5_linear)"/>
<path d="M199.989 210.464C199.989 210.464 196.429 209.875 195.921 210.586C195.412 211.296 197.263 211.925 197.263 211.925C196.093 212.469 195.063 213.274 194.253 214.278C193.46 215.577 194.558 219.168 196.287 218.56C198.016 217.951 201.169 215.597 201.596 213.69C201.647 213.057 201.525 212.423 201.242 211.854C200.959 211.286 200.525 210.805 199.989 210.464Z" fill="#F9BFB5"/>
<path d="M247.055 177.086C240.424 172.643 224.884 167.651 224.884 167.651C224.884 167.651 220.247 164.486 218.335 169.68C216.423 174.875 212.985 182.443 213.148 186.156C213.312 189.029 214.185 191.817 215.691 194.272C216.321 195.287 216.423 206.446 216.423 206.446C216.423 206.446 226.186 212.391 236.336 210.342C243.739 208.84 243.963 208.171 243.963 208.171C243.044 205.178 242.767 202.025 243.149 198.919C243.861 194.313 253.665 181.53 247.055 177.086Z" fill="url(#paint6_linear)"/>
<path d="M249.332 177.776C249.332 177.776 245.997 175.483 244.166 176.822C242.336 178.161 239.773 185.405 246.749 198.33C253.726 211.255 255.923 209.084 258.099 208.252C260.275 207.42 262.594 205.817 260.54 201.11C258.485 196.402 251.834 180.596 249.332 177.776Z" fill="url(#paint7_linear)"/>
<path d="M257.509 202.205C257.509 202.205 245.875 210.95 240.546 213.811C237.963 215.191 240.424 220.933 245.509 219.371C250.594 217.809 263.916 207.197 261.293 203.727C258.669 200.257 257.509 202.205 257.509 202.205Z" fill="url(#paint8_linear)"/>
<path d="M241.013 214.4C241.013 214.4 237.698 213.02 236.945 213.568C236.193 214.116 237.922 215.171 237.922 215.171C236.661 215.432 235.477 215.98 234.464 216.774C233.366 217.849 233.61 221.603 235.481 221.42C237.352 221.238 240.932 219.675 241.786 217.91C241.991 217.31 242.027 216.666 241.891 216.047C241.755 215.428 241.451 214.859 241.013 214.4Z" fill="#F9BFB5"/>
<path d="M222.341 180.109C220.542 177.693 219.419 174.843 219.087 171.851C217.194 162.975 217.056 153.815 218.68 144.885C218.898 143.891 219.362 142.967 220.03 142.198C220.698 141.429 221.548 140.839 222.504 140.482C223.026 140.379 223.566 140.401 224.079 140.545C224.591 140.69 225.062 140.953 225.453 141.314C226.203 142.037 226.804 142.898 227.223 143.851C229.829 148.727 231.126 154.193 230.986 159.718C231.12 160.752 230.851 161.798 230.233 162.639C229.46 163.492 228.524 164.161 227.772 165.074C224.218 169.282 222.266 174.607 222.26 180.109H222.341Z" fill="url(#paint9_linear)"/>
<path d="M223.155 145.454C223.155 145.454 219.087 146.813 219.432 154.016C219.778 161.219 219.432 165.318 223.236 166.677C227.04 168.037 234.077 165.115 236.437 161.422C238.796 157.729 238.959 146.996 237.596 146.61C236.233 146.225 223.155 145.454 223.155 145.454Z" fill="#F9BFB5"/>
<path d="M229.745 137.297C234.728 137.297 240.464 139.752 241.949 144.906C243.271 149.227 243.128 153.914 244.552 158.094C245.741 161.502 245.991 165.166 245.275 168.703C244.56 172.24 242.905 175.521 240.484 178.202C239.503 179.279 238.412 180.251 237.23 181.103C236.721 181.469 236.233 181.915 235.684 182.24C235.135 182.564 234.077 182.605 233.65 182.99C235.083 182.087 236.149 180.707 236.66 179.095C237.352 177.034 237.815 174.905 238.043 172.744C238.356 170.003 238.301 167.233 237.881 164.506C237.726 161.878 236.603 159.399 234.728 157.546C231.067 154.117 226.104 152.494 221.466 150.546C220.531 150.161 219.778 149.958 219.29 149.045C218.834 148.084 218.644 147.019 218.741 145.961C218.921 143.968 219.758 142.092 221.121 140.624C222.239 139.491 223.586 138.607 225.073 138.034C226.56 137.46 228.153 137.209 229.745 137.297Z" fill="url(#paint10_linear)"/>
<path d="M236.153 160.042C236.153 160.042 235.97 170.735 237.15 171.547C238.329 172.359 231.597 177.167 227.692 174.509C223.787 171.851 226.512 169.721 226.512 169.721L226.329 163.269L236.153 160.042Z" fill="#F9BFB5"/>
<path d="M302.745 373.029C301.657 373.037 300.585 372.764 299.633 372.238C298.937 371.879 298.354 371.336 297.947 370.669C297.54 370.001 297.325 369.235 297.325 368.454C297.325 367.673 297.54 366.907 297.947 366.239C298.354 365.572 298.937 365.029 299.633 364.67C300.584 364.151 301.651 363.879 302.735 363.879C303.819 363.879 304.885 364.151 305.837 364.67C306.532 365.029 307.115 365.572 307.522 366.239C307.929 366.907 308.145 367.673 308.145 368.454C308.145 369.235 307.929 370.001 307.522 370.669C307.115 371.336 306.532 371.879 305.837 372.238C304.892 372.764 303.827 373.036 302.745 373.029ZM302.379 370.635C302.684 370.818 302.765 370.838 303.091 370.635C303.457 370.401 303.756 370.076 303.96 369.692C304.163 369.308 304.263 368.878 304.25 368.444C304.252 368.168 304.211 367.895 304.128 367.632C303.971 367.063 303.599 366.576 303.091 366.273C302.806 366.09 302.725 366.07 302.379 366.273C302.022 366.517 301.731 366.844 301.529 367.226C301.328 367.608 301.222 368.033 301.222 368.464C301.222 368.895 301.328 369.32 301.529 369.702C301.731 370.084 302.022 370.411 302.379 370.655V370.635Z" fill="#7FAAEF"/>
<path d="M243.494 383.844C221.629 383.844 199.743 379.055 183.146 369.499C166.549 359.942 157.03 346.774 156.948 332.773C156.867 318.773 165.755 305.99 182.007 296.352L183.756 295.318L308.155 366.962L302.907 369.945C286.493 379.197 264.973 383.844 243.494 383.844ZM183.838 303.271C170.861 311.387 163.782 321.857 163.864 332.692C163.864 344.176 172 355.133 186.563 363.513C215.873 380.395 262.614 381.511 293.998 366.739L183.838 303.271Z" fill="#7FAAEF"/>
<path d="M304.861 83.8117L304.698 368.464C304.679 368.633 304.617 368.795 304.517 368.934C304.417 369.072 304.283 369.183 304.128 369.255C303.698 369.465 303.225 369.574 302.745 369.574C302.266 369.574 301.793 369.465 301.362 369.255C301.204 369.181 301.069 369.068 300.969 368.925C300.869 368.783 300.808 368.617 300.793 368.444L300.955 83.7914C300.973 83.9667 301.037 84.1342 301.14 84.2768C301.244 84.4194 301.384 84.532 301.545 84.603C301.971 84.8186 302.441 84.931 302.918 84.931C303.395 84.931 303.866 84.8186 304.291 84.603C304.449 84.5343 304.585 84.4246 304.685 84.2853C304.785 84.1461 304.846 83.9825 304.861 83.8117Z" fill="url(#paint11_linear)"/>
<path d="M304.291 82.9998C304.456 83.0593 304.599 83.1682 304.7 83.3117C304.801 83.4551 304.855 83.626 304.855 83.8013C304.855 83.9765 304.801 84.1474 304.7 84.2909C304.599 84.4343 304.456 84.5432 304.291 84.6027C303.866 84.8183 303.395 84.9307 302.918 84.9307C302.441 84.9307 301.971 84.8183 301.545 84.6027C301.38 84.5432 301.237 84.4343 301.136 84.2909C301.035 84.1474 300.981 83.9765 300.981 83.8013C300.981 83.626 301.035 83.4551 301.136 83.3117C301.237 83.1682 301.38 83.0593 301.545 82.9998C301.973 82.7932 302.443 82.6859 302.918 82.6859C303.394 82.6859 303.863 82.7932 304.291 82.9998Z" fill="url(#paint12_linear)"/>
<path d="M183.777 14.0745L183.614 298.727C183.599 298.897 183.538 299.061 183.438 299.2C183.338 299.34 183.202 299.449 183.044 299.518C182.621 299.738 182.15 299.854 181.671 299.854C181.193 299.854 180.722 299.738 180.299 299.518C180.138 299.448 180 299.335 179.9 299.192C179.799 299.049 179.74 298.881 179.729 298.706L179.892 14.0745C179.907 14.2452 179.967 14.4089 180.068 14.5481C180.168 14.6874 180.304 14.7971 180.461 14.8658C180.889 15.0864 181.363 15.2015 181.844 15.2015C182.326 15.2015 182.8 15.0864 183.227 14.8658C183.38 14.7926 183.511 14.6812 183.607 14.5425C183.703 14.4038 183.762 14.2425 183.777 14.0745Z" fill="url(#paint13_linear)"/>
<path d="M183.207 13.2828C183.375 13.337 183.521 13.4428 183.625 13.585C183.728 13.7271 183.784 13.8984 183.784 14.0741C183.784 14.2499 183.728 14.4211 183.625 14.5633C183.521 14.7055 183.375 14.8112 183.207 14.8655C182.78 15.0861 182.306 15.2012 181.824 15.2012C181.343 15.2012 180.869 15.0861 180.441 14.8655C180.274 14.8112 180.127 14.7055 180.024 14.5633C179.92 14.4211 179.865 14.2499 179.865 14.0741C179.865 13.8984 179.92 13.7271 180.024 13.585C180.127 13.4428 180.274 13.337 180.441 13.2828C180.868 13.0589 181.342 12.9419 181.824 12.9419C182.306 12.9419 182.781 13.0589 183.207 13.2828Z" fill="url(#paint14_linear)"/>
<path d="M160.102 332.59L160.407 228.887C160.407 241.203 168.543 253.54 184.815 262.934C217.013 281.479 268.92 281.601 301.179 263.319L300.895 367.023C268.615 385.284 216.728 385.284 184.51 366.637C168.238 357.243 160.102 344.947 160.102 332.59Z" fill="url(#paint15_linear)"/>
<path d="M183.777 195.692L301.199 263.32C268.94 281.581 217.033 281.48 184.835 262.934C152.637 244.389 152.25 214.4 183.777 195.692Z" fill="#D3E4FA"/>
<path d="M148.548 230.064L148.894 226.635C148.894 241.021 158.372 255.427 177.37 266.404C215.019 288.135 275.652 288.135 313.342 266.85L312.996 270.279C275.306 291.645 214.693 291.482 177.085 269.833C158.067 258.856 148.508 244.45 148.548 230.064Z" fill="url(#paint16_linear)"/>
<path d="M176.21 187.88L313.341 266.85C275.652 288.134 215.018 288.134 177.43 266.403C139.842 244.673 139.374 209.733 176.21 187.88Z" fill="url(#paint17_linear)"/>
<path d="M316.983 91.1365C316.91 89.6815 316.493 88.2644 315.764 87.0017C315.036 85.739 314.018 84.6666 312.793 83.8726L168.238 0.581054C167.804 0.259423 167.29 0.0628275 166.752 0.0127326C166.214 -0.0373623 165.673 0.0609687 165.187 0.29699L161.729 2.32602C162.207 2.10186 162.737 2.00996 163.263 2.05993C163.789 2.1099 164.292 2.2999 164.719 2.61008L309.335 85.9016C310.56 86.6956 311.578 87.768 312.306 89.0307C313.035 90.2935 313.453 91.7105 313.525 93.1655V125.062L315.254 124.068L313.525 125.062C313.584 125.582 313.499 126.107 313.28 126.583C313.062 127.058 312.718 127.465 312.285 127.76L315.742 125.731C316.172 125.433 316.514 125.026 316.732 124.551C316.95 124.076 317.037 123.552 316.983 123.033V91.1365Z" fill="url(#paint18_linear)"/>
<path d="M309.335 85.8813C310.559 86.6753 311.578 87.7477 312.306 89.0104C313.034 90.2731 313.452 91.6901 313.525 93.1452V125.041C313.525 127.72 311.613 128.795 309.294 127.456L164.678 44.2659C163.453 43.4719 162.435 42.3995 161.707 41.1368C160.978 39.8741 160.561 38.457 160.488 37.002V5.10571C160.488 2.42739 162.4 1.35201 164.718 2.69117L309.335 85.8813Z" fill="url(#paint19_linear)"/>
<path d="M313.933 125.041L314.034 93.145C313.948 91.6046 313.5 90.106 312.726 88.7702C311.952 87.4343 310.875 86.2987 309.58 85.455L164.963 2.26486C164.346 1.89571 163.648 1.67999 162.929 1.63586L161.628 2.40689H161.729L162.299 2.04167H162.787H163.357H163.621H163.804C163.912 2.06438 164.015 2.10557 164.109 2.16341H164.252L164.719 2.40689L237.028 44.2454L309.336 85.8811C310.56 86.6751 311.578 87.7474 312.307 89.0102C313.035 90.2729 313.453 91.6899 313.526 93.145V125.041C313.537 125.244 313.537 125.447 313.526 125.65C313.526 125.65 313.526 125.65 313.526 125.792C313.537 125.941 313.537 126.09 313.526 126.238C313.479 126.428 313.41 126.612 313.322 126.786V126.888L313.139 127.192C313.061 127.307 312.965 127.41 312.855 127.496L312.59 127.659L313.912 126.908C314.051 126.294 314.058 125.658 313.933 125.041Z" fill="url(#paint20_linear)"/>
<g opacity="0.4">
<path opacity="0.4" d="M304.698 97.751L171.573 21.074C170.936 20.6954 170.397 20.1735 169.998 19.55C169.599 18.9264 169.351 18.2185 169.275 17.4827V10.2999C169.275 9.0419 170.312 8.61581 171.573 9.32597L304.698 86.0029C305.334 86.3858 305.871 86.9119 306.266 87.539C306.662 88.1662 306.905 88.877 306.976 89.6146V96.777C306.976 98.0553 305.959 98.4814 304.698 97.751Z" fill="url(#paint21_linear)"/>
<path opacity="0.4" d="M291.416 100.713L184.835 39.3149V35.7438L291.416 97.1218V100.713Z" fill="#0061AD"/>
<path opacity="0.4" d="M279.293 100.733L196.978 53.3353V49.7439L279.293 97.1419V100.733Z" fill="#0061AD"/>
</g>
<path d="M302.481 98.9685L169.437 22.3321C168.802 21.9492 168.264 21.4231 167.869 20.796C167.473 20.1688 167.23 19.458 167.159 18.7204V11.5174C167.159 10.2594 168.176 9.83331 169.437 10.5638L302.481 87.261C303.121 87.6404 303.663 88.1651 304.063 88.7926C304.462 89.4202 304.707 90.1328 304.779 90.8726V98.0148C304.86 99.2728 303.843 99.6989 302.481 98.9685Z" fill="url(#paint22_linear)"/>
<path d="M289.301 101.931L182.72 40.5529V36.9615L289.301 98.3396V101.931Z" fill="#0061AD"/>
<path d="M277.157 101.951L194.862 54.5529V50.9615L277.157 98.3596V101.951Z" fill="#0061AD"/>
<path d="M207.27 201.678C204.781 204.575 202.147 207.344 199.378 209.977C197.181 212.006 200.924 216.956 205.48 214.238C208.08 212.372 210.372 210.113 212.274 207.542C210.262 205.907 208.567 203.92 207.27 201.678Z" fill="url(#paint23_linear)"/>
<path d="M199.989 210.464C199.989 210.464 196.429 209.875 195.921 210.586C195.412 211.296 197.263 211.925 197.263 211.925C196.093 212.469 195.063 213.274 194.253 214.278C193.46 215.577 194.558 219.168 196.287 218.56C198.016 217.951 201.169 215.597 201.596 213.69C201.647 213.057 201.525 212.423 201.242 211.854C200.959 211.286 200.525 210.805 199.989 210.464Z" fill="#F9BFB5"/>
<path d="M18.1343 199.177C16.2603 206.365 15.7771 213.844 16.7105 221.212C16.7721 223.404 17.6243 225.501 19.1106 227.117C20.3591 228.079 21.8685 228.644 23.443 228.74C27.4812 229.167 31.5472 228.243 35.001 226.112C38.4549 223.982 41.1006 220.766 42.5218 216.972C43.5072 214.151 43.9422 211.169 43.8032 208.186C43.7666 205.348 43.2295 202.539 42.2167 199.887C40.7273 196.272 38.1469 193.208 34.8333 191.122C33.0571 190.013 31.1032 189.217 29.0568 188.768C27.5313 188.403 24.9889 187.733 23.6057 188.768C20.5344 190.899 19.0293 195.707 18.1343 199.177Z" fill="url(#paint24_linear)"/>
<path d="M27.8982 361.033C19.3147 365.984 19.3554 374.019 27.8982 379.01C36.4409 384.001 50.5161 384.001 59.0995 379.01L114.017 347.418L82.7751 329.4L27.8982 361.033Z" fill="#80A5EC"/>
<path d="M23.9725 367.85C23.5549 367.905 23.1575 368.062 22.816 368.309C22.4746 368.555 22.1997 368.881 22.0162 369.26C21.8327 369.638 21.7462 370.056 21.7646 370.475C21.783 370.895 21.9057 371.304 22.1216 371.665C23.0313 373.758 24.4286 375.605 26.1973 377.052C27.9661 378.499 30.0553 379.504 32.2915 379.984C37.5392 380.714 39.9393 378.584 36.807 374.546C33.6746 370.508 28.671 366.308 27.6947 366.551C26.7184 366.795 23.9725 367.85 23.9725 367.85Z" fill="url(#paint25_linear)"/>
<path d="M33.9388 322.766L29.1589 367.404C29.1589 367.404 36.4609 375.52 35.5253 376.19C34.5896 376.859 25.7825 376.393 23.5654 369.251L25.2333 324.511L33.9388 322.766Z" fill="#F9BFB5"/>
<path d="M39.0449 362.149C38.6329 362.223 38.2459 362.399 37.9188 362.659C37.5917 362.92 37.3348 363.258 37.1714 363.642C37.0079 364.027 36.943 364.446 36.9824 364.862C37.0219 365.278 37.1645 365.677 37.3974 366.024C38.4015 368.088 39.8919 369.879 41.7409 371.242C43.5899 372.606 45.7426 373.503 48.0148 373.856C53.3032 374.323 55.6016 372.091 52.2862 368.216C48.9708 364.34 43.7434 360.363 42.7875 360.668C41.8315 360.972 39.0449 362.149 39.0449 362.149Z" fill="url(#paint26_linear)"/>
<path d="M46.8948 321.568L44.2709 361.033C44.2709 361.033 51.9391 368.763 51.0441 369.494C50.1492 370.224 41.3217 370.163 38.8402 363.122L38.3521 323.658L46.8948 321.568Z" fill="#F9BFB5"/>
<path d="M46.8754 257.208C46.8754 257.208 50.0687 261.59 50.0687 271.999C50.0687 282.408 48.4619 322.725 48.4619 322.725C48.4619 322.725 36.5224 327.189 28.3458 326.174C20.1691 325.16 20.5149 323.11 20.5149 323.11C21.7016 316.882 22.3211 310.56 22.3658 304.22C21.9794 297.098 16.2639 280.399 16.9961 271.756C17.1542 267.79 17.6992 263.848 18.6233 259.987L46.8754 257.208Z" fill="url(#paint27_linear)"/>
<path d="M38.4131 220.259C38.4131 220.259 39.7962 216.201 42.176 216.201C44.5557 216.201 48.8881 218.697 51.0848 234.016C53.2815 249.335 52.4883 250.897 50.1085 251.547C47.7287 252.196 44.7998 252.297 43.5794 247.002C42.359 241.706 38.108 224.297 38.4131 220.259Z" fill="url(#paint28_linear)"/>
<path d="M51.0454 245.804C51.0454 245.804 60.8288 257.593 65.5884 261.833C67.9071 263.862 63.9612 269.179 59.1406 266.318C54.3201 263.457 43.2755 249.274 46.7943 246.433C50.3131 243.592 51.0454 245.804 51.0454 245.804Z" fill="url(#paint29_linear)"/>
<path d="M64.9575 262.341C64.9575 262.341 68.7 261.732 69.3102 262.462C69.9204 263.193 67.9271 263.883 67.9271 263.883C69.189 264.446 70.3029 265.293 71.1815 266.358C72.0358 267.738 70.856 271.512 68.9848 270.863C67.1135 270.213 63.7168 267.697 63.2896 265.668C62.8625 263.639 64.9575 262.341 64.9575 262.341Z" fill="#F9BFB5"/>
<path d="M15.3481 227.117C22.3653 222.491 38.6372 217.235 38.6372 217.235C38.6372 217.235 43.5391 213.888 45.5324 219.427C47.5257 224.966 51.1055 232.798 51.0038 236.714C50.8266 239.726 49.9041 242.647 48.319 245.216C47.6478 246.271 47.5461 258.12 47.5461 258.12C47.5461 258.12 37.2541 264.39 26.5757 262.178C18.7651 260.596 18.4397 259.886 18.4397 259.886C19.4084 256.728 19.7063 253.404 19.3143 250.126C18.7041 245.378 8.37148 231.844 15.3481 227.117Z" fill="url(#paint30_linear)"/>
<path d="M19.1113 248.848L13.7212 279.243L32.0067 283.443L37.0917 252.297L19.1113 248.848Z" fill="#0F0B5B"/>
<path d="M12.9486 227.888C12.9486 227.888 16.4674 225.474 18.3794 226.874C20.2913 228.274 23.0372 235.923 15.6741 249.558C8.31112 263.193 6.09407 260.901 3.69397 260.008C1.29386 259.115 -1.02488 257.553 1.15149 252.48C3.32785 247.408 10.3044 230.952 12.9486 227.888Z" fill="url(#paint31_linear)"/>
<path d="M4.34439 253.636C4.34439 253.636 16.5483 262.848 22.2231 265.81C24.9487 267.251 22.3452 273.318 16.9754 271.654C11.6057 269.99 -2.40845 258.749 0.357772 255.178C3.12399 251.607 4.34439 253.636 4.34439 253.636Z" fill="url(#paint32_linear)"/>
<path d="M21.7147 266.5C21.7147 266.5 25.2131 265.039 25.986 265.608C26.7589 266.176 24.9487 267.312 24.9487 267.312C26.2788 267.585 27.5301 268.154 28.6099 268.976C29.7489 270.132 29.5048 274.069 27.5115 273.886C25.5182 273.703 21.7757 272.039 20.8807 270.193C20.6683 269.56 20.6336 268.882 20.7807 268.231C20.9277 267.579 21.2507 266.981 21.7147 266.5Z" fill="#F9BFB5"/>
<path d="M41.3833 230.363C43.2979 227.814 44.4983 224.803 44.8615 221.639C46.8458 212.286 46.984 202.638 45.2683 193.232C45.0366 192.179 44.5423 191.201 43.8313 190.389C43.1202 189.577 42.2153 188.957 41.2003 188.586C40.6492 188.484 40.0821 188.51 39.5425 188.661C39.003 188.812 38.5055 189.085 38.0883 189.458C37.2412 190.21 36.5501 191.12 36.0543 192.137C33.354 197.288 32.03 203.046 32.2101 208.856C32.127 209.392 32.1526 209.94 32.2854 210.466C32.4181 210.992 32.6553 211.486 32.983 211.92C33.8169 212.812 34.7932 213.523 35.5865 214.476C37.3049 216.55 38.6784 218.887 39.6545 221.395C40.7988 224.247 41.3857 227.291 41.3833 230.363Z" fill="url(#paint33_linear)"/>
<path d="M40.6715 193.82C40.6715 193.82 45.0038 195.261 44.5767 202.85C44.1496 210.438 44.5767 214.76 40.5087 216.201C36.4408 217.641 29.0574 214.557 26.5963 210.661C24.1351 206.766 23.9114 195.464 25.3555 195.058C26.7997 194.652 40.6715 193.82 40.6715 193.82Z" fill="#F9BFB5"/>
<path d="M33.5938 185.238C28.3461 185.238 22.3051 187.835 20.6576 193.354C19.2745 197.919 19.4169 202.85 17.9117 207.253C16.7004 210.844 16.4747 214.692 17.258 218.399C18.0413 222.107 19.805 225.537 22.3661 228.334C23.3912 229.476 24.5369 230.503 25.7832 231.398C26.3121 231.784 26.8409 232.25 27.4104 232.595C27.9799 232.94 29.119 232.981 29.6071 233.387C28.1091 232.443 26.9872 231.008 26.4341 229.329C24.8184 224.377 24.3865 219.117 25.173 213.969C25.2956 211.18 26.473 208.541 28.4681 206.583C32.3327 202.951 37.56 201.247 42.4416 199.198C43.4179 198.792 44.2315 198.569 44.74 197.615C45.2255 196.606 45.4225 195.482 45.3095 194.368C45.0953 192.252 44.1791 190.267 42.706 188.728C41.5216 187.535 40.0967 186.608 38.5258 186.006C36.9549 185.404 35.2738 185.143 33.5938 185.238Z" fill="url(#paint34_linear)"/>
<path d="M26.8404 209.201C26.8404 209.201 27.0438 220.482 25.803 221.375C24.5623 222.267 31.6406 227.299 35.7492 224.439C39.8579 221.578 37.0103 219.366 37.0103 219.366L37.1934 212.589L26.8404 209.201Z" fill="#F9BFB5"/>
<path d="M72.117 378.279C63.5132 383.23 63.5742 391.265 72.117 396.256C80.6597 401.248 94.7349 401.248 103.318 396.256L158.236 364.665L126.953 346.626L72.117 378.279Z" fill="#80A5EC"/>
<path d="M60.4425 267.698C60.4425 267.698 58.4085 262.037 56.9644 261.753C55.5203 261.469 56.0694 264.756 56.0694 264.756C54.3386 263.489 52.343 262.628 50.2319 262.24C47.6691 262.098 43.2757 266.582 45.5944 268.692C47.9131 270.802 53.8524 273.48 56.9644 272.588C60.0764 271.695 60.4425 267.698 60.4425 267.698Z" fill="#ED90A5"/>
<path d="M85.4193 385.381C86.3577 386.082 87.1046 387.006 87.5915 388.07C88.0784 389.133 88.2897 390.302 88.2059 391.468C88.1871 392.03 88.0318 392.579 87.7533 393.067C87.4749 393.556 87.0816 393.97 86.6074 394.273C86.1332 394.576 85.5922 394.76 85.0309 394.809C84.4697 394.858 83.9049 394.77 83.3853 394.552C81.746 393.517 79.9118 392.826 77.9953 392.523C75.5748 392.422 70.1644 392.767 68.1711 390.92C66.1778 389.074 64.1032 385.523 66.1371 384.265C68.1711 383.007 74.9646 382.236 79.0936 383.088C81.351 383.357 83.5158 384.141 85.4193 385.381Z" fill="url(#paint35_linear)"/>
<path d="M121.095 376.799C122.032 377.5 122.778 378.425 123.265 379.488C123.751 380.552 123.964 381.72 123.882 382.886C123.862 383.445 123.706 383.991 123.429 384.477C123.152 384.963 122.761 385.376 122.289 385.678C121.818 385.981 121.28 386.166 120.721 386.217C120.163 386.268 119.6 386.183 119.081 385.97C117.442 384.934 115.608 384.244 113.691 383.941C111.271 383.941 105.86 384.184 103.867 382.338C101.874 380.491 99.7992 376.941 101.833 375.703C103.867 374.465 110.661 373.674 114.79 374.506C117.04 374.777 119.198 375.562 121.095 376.799Z" fill="url(#paint36_linear)"/>
<path d="M114.424 289.854C113.43 292.07 112.268 294.207 110.946 296.246C109.807 297.565 108.16 302.779 110.173 303.205C112.187 303.631 115.238 306.391 116.642 302.86C117.775 298.75 118.538 294.547 118.92 290.301L114.424 289.854Z" fill="#ED90A5"/>
<path d="M111.982 293.751L118.41 296.956C118.41 296.956 131.448 271.411 129.556 266.095C127.664 260.779 126.403 262.362 123.78 265.486C121.156 268.611 111.982 293.751 111.982 293.751Z" fill="url(#paint37_linear)"/>
<path d="M107.793 238.683C103.623 240.833 101.589 246.637 110.132 255.848C118.674 265.06 121.237 268.388 123.861 269.524C126.485 270.66 131.834 268.976 128.926 264.431C126.017 259.886 111.678 236.674 107.793 238.683Z" fill="url(#paint38_linear)"/>
<path d="M116.601 295.779L118.37 341.818L120.994 379.131C120.994 379.131 115.116 383.656 113.529 379.131C111.943 374.607 106.614 343.4 106.614 343.4L99.0676 312.863L88.6942 341.777L84.911 385.868C84.911 385.868 79.5006 389.459 77.9141 385.868C77.1005 384.021 76.8564 341.878 76.8564 341.878L82.1245 300.162L116.601 295.779Z" fill="url(#paint39_linear)"/>
<path d="M85.703 220.441C85.703 220.441 81.2892 234.198 87.1674 239.616C93.0457 245.033 102.199 237.465 102.992 234.989C103.785 232.514 107.284 218.311 100.287 216.383C93.2897 214.456 85.703 220.441 85.703 220.441Z" fill="#ED90A5"/>
<path d="M60.4827 266.865C60.4827 266.865 78.2191 278.532 80.3141 282.144L80.4565 282.367C80.3537 282.421 80.2684 282.503 80.2107 282.604C80.1531 282.705 80.1254 282.819 80.1311 282.935C80.1631 284.348 79.7111 285.729 78.8496 286.851C78.3615 287.419 77.8123 287.906 77.3852 288.495C71.2832 289.388 54.7266 273.379 54.7266 273.379L60.4827 266.865Z" fill="url(#paint40_linear)"/>
<path d="M85.8059 249.233L105.475 239.088C105.475 239.088 115.034 237.891 115.95 249.01C116.661 257.471 115.034 265.973 114.811 277.092C114.976 283.42 115.787 289.716 117.231 295.88C117.231 295.88 105.251 304.24 98.0098 304.91C90.7689 305.579 81.982 299.939 81.982 299.939C81.982 299.939 80.6193 262.3 80.6193 258.242C80.5739 256.411 81.0336 254.602 81.9483 253.013C82.8629 251.425 84.1973 250.117 85.8059 249.233Z" fill="url(#paint41_linear)"/>
<path d="M90.8086 251.79C86.5779 248.239 80.2726 248.686 76.7538 262.077C73.235 275.469 71.6485 279.791 72.0959 283.098C72.5434 286.405 76.9775 291.498 79.4183 286.304C81.8591 281.11 94.7545 255.077 90.8086 251.79Z" fill="url(#paint42_linear)"/>
<path d="M104.376 241.462C103.22 243.377 101.416 244.816 99.2908 245.521C97.3476 245.877 95.3557 245.877 93.4126 245.521L92.3752 236.491L102.281 232.21L104.376 241.462Z" fill="#ED90A5"/>
<path d="M84.4013 216.039C84.4013 216.039 80.5164 220.604 87.2489 223.932L89.4862 225.088C89.4862 225.088 91.7236 234.199 95.8526 236.735C99.9816 239.271 101.955 240.793 103.989 239.454C106.023 238.115 107.731 232.738 108.687 230.222C109.643 227.706 110.314 221.193 107.812 217.419C104.416 212.245 87.9404 211.818 84.4013 216.039Z" fill="url(#paint43_linear)"/>
<path d="M89.6092 230.1C89.6092 230.1 89.8736 225.677 92.294 226.732C94.7145 227.787 95.7925 230.364 90.9516 233.651C86.1107 236.938 89.6092 230.1 89.6092 230.1Z" fill="#ED90A5"/>
<path d="M230.172 229.029L211.296 239.986C210.93 240.167 210.526 240.261 210.117 240.261C209.708 240.261 209.304 240.167 208.937 239.986L178.081 222.212C177.948 222.147 177.833 222.05 177.748 221.93C177.663 221.809 177.609 221.669 177.593 221.522V223.084C177.607 223.229 177.659 223.368 177.745 223.486C177.831 223.603 177.947 223.696 178.081 223.754L208.917 241.467C209.281 241.657 209.685 241.757 210.096 241.757C210.507 241.757 210.912 241.657 211.276 241.467L230.151 230.531C230.286 230.473 230.402 230.38 230.488 230.263C230.573 230.145 230.626 230.006 230.64 229.861V228.299C230.639 228.452 230.594 228.602 230.512 228.731C230.429 228.861 230.311 228.964 230.172 229.029Z" fill="url(#paint44_linear)"/>
<path d="M230.172 227.67C230.823 228.055 230.823 228.664 230.172 229.029L211.297 239.986C210.93 240.167 210.526 240.261 210.117 240.261C209.708 240.261 209.304 240.167 208.937 239.986L178.082 222.212C177.431 221.826 177.431 221.217 178.082 220.852L196.957 209.895C197.32 209.715 197.721 209.621 198.127 209.621C198.532 209.621 198.933 209.715 199.296 209.895L230.172 227.67Z" fill="url(#paint45_linear)"/>
<path d="M210.646 215.394L179.77 197.62C179.647 197.538 179.502 197.494 179.353 197.494C179.205 197.494 179.06 197.538 178.936 197.62L177.594 198.391C177.721 198.318 177.864 198.28 178.011 198.28C178.157 198.28 178.301 198.318 178.428 198.391L209.283 216.165C209.626 216.388 209.911 216.687 210.116 217.039C210.321 217.392 210.44 217.788 210.463 218.194V239.986C210.476 240.13 210.451 240.276 210.39 240.407C210.329 240.539 210.235 240.653 210.117 240.737L211.46 239.946C211.581 239.864 211.678 239.751 211.739 239.619C211.8 239.486 211.823 239.34 211.805 239.195V217.403C211.786 217 211.671 216.608 211.469 216.259C211.268 215.909 210.985 215.613 210.646 215.394Z" fill="url(#paint46_linear)"/>
<path d="M209.284 216.165C209.626 216.387 209.911 216.687 210.116 217.039C210.321 217.392 210.44 217.787 210.463 218.194V239.986C210.463 240.716 209.935 241.021 209.284 240.655L178.408 222.881C178.065 222.659 177.78 222.36 177.575 222.007C177.37 221.655 177.251 221.259 177.228 220.852V199.06C177.228 198.31 177.757 198.026 178.408 198.391L209.284 216.165Z" fill="url(#paint47_linear)"/>
<defs>
<linearGradient id="paint0_linear" x1="246.018" y1="161.179" x2="218.157" y2="155.593" gradientUnits="userSpaceOnUse">
<stop stop-color="#1A317B"/>
<stop offset="1" stop-color="#18176E"/>
</linearGradient>
<linearGradient id="paint1_linear" x1="174671" y1="59313" x2="174540" y2="59256.4" gradientUnits="userSpaceOnUse">
<stop stop-color="#1A317B"/>
<stop offset="1" stop-color="#18176E"/>
</linearGradient>
<linearGradient id="paint2_linear" x1="180172" y1="64521.8" x2="180040" y2="64458.7" gradientUnits="userSpaceOnUse">
<stop stop-color="#1A317B"/>
<stop offset="1" stop-color="#18176E"/>
</linearGradient>
<linearGradient id="paint3_linear" x1="331073" y1="7021.62" x2="331158" y2="8944.4" gradientUnits="userSpaceOnUse">
<stop stop-color="#1A317B"/>
<stop offset="1" stop-color="#18176E"/>
</linearGradient>
<linearGradient id="paint4_linear" x1="262.045" y1="208.414" x2="267.652" y2="211.611" gradientUnits="userSpaceOnUse">
<stop stop-color="#FF4B70"/>
<stop offset="1" stop-color="#FFA282"/>
</linearGradient>
<linearGradient id="paint5_linear" x1="-215122" y1="2560.54" x2="-215177" y2="2589.01" gradientUnits="userSpaceOnUse">
<stop stop-color="#FF4B70"/>
<stop offset="1" stop-color="#FFA282"/>
</linearGradient>
<linearGradient id="paint6_linear" x1="-406793" y1="4131.75" x2="-407809" y2="4381.21" gradientUnits="userSpaceOnUse">
<stop stop-color="#FF4B70"/>
<stop offset="1" stop-color="#FFA282"/>
</linearGradient>
<linearGradient id="paint7_linear" x1="-215649" y1="3036.62" x2="-216026" y2="3150.16" gradientUnits="userSpaceOnUse">
<stop stop-color="#FF4B70"/>
<stop offset="1" stop-color="#FFA282"/>
</linearGradient>
<linearGradient id="paint8_linear" x1="-248675" y1="1909.9" x2="-249015" y2="2123.23" gradientUnits="userSpaceOnUse">
<stop stop-color="#FF4B70"/>
<stop offset="1" stop-color="#FFA282"/>
</linearGradient>
<linearGradient id="paint9_linear" x1="-157122" y1="3365.71" x2="-156921" y2="3352" gradientUnits="userSpaceOnUse">
<stop stop-color="#1A317B"/>
<stop offset="1" stop-color="#18176E"/>
</linearGradient>
<linearGradient id="paint10_linear" x1="-314867" y1="3814.73" x2="-314457" y2="3766.46" gradientUnits="userSpaceOnUse">
<stop stop-color="#1A317B"/>
<stop offset="1" stop-color="#18176E"/>
</linearGradient>
<linearGradient id="paint11_linear" x1="300.793" y1="226.696" x2="304.861" y2="226.696" gradientUnits="userSpaceOnUse">
<stop stop-color="#F5F8FF"/>
<stop offset="0.3" stop-color="#F2F6FE"/>
<stop offset="0.51" stop-color="#E9F0FC"/>
<stop offset="0.69" stop-color="#DAE6F9"/>
<stop offset="0.86" stop-color="#C4D8F4"/>
<stop offset="1" stop-color="#ABC7EF"/>
</linearGradient>
<linearGradient id="paint12_linear" x1="300.955" y1="83.8114" x2="304.861" y2="83.8114" gradientUnits="userSpaceOnUse">
<stop stop-color="#D0E5FA"/>
<stop offset="0.39" stop-color="#CDE2F9"/>
<stop offset="0.67" stop-color="#C4DAF6"/>
<stop offset="0.9" stop-color="#B5CDF1"/>
<stop offset="1" stop-color="#ACC5EE"/>
</linearGradient>
<linearGradient id="paint13_linear" x1="396.885" y1="22119.1" x2="404.939" y2="22119.1" gradientUnits="userSpaceOnUse">
<stop stop-color="#F5F8FF"/>
<stop offset="0.3" stop-color="#F2F6FE"/>
<stop offset="0.51" stop-color="#E9F0FC"/>
<stop offset="0.69" stop-color="#DAE6F9"/>
<stop offset="0.86" stop-color="#C4D8F4"/>
<stop offset="1" stop-color="#ABC7EF"/>
</linearGradient>
<linearGradient id="paint14_linear" x1="390.461" y1="28.5989" x2="397.947" y2="28.5989" gradientUnits="userSpaceOnUse">
<stop stop-color="#D0E5FA"/>
<stop offset="0.39" stop-color="#CDE2F9"/>
<stop offset="0.67" stop-color="#C4DAF6"/>
<stop offset="0.9" stop-color="#B5CDF1"/>
<stop offset="1" stop-color="#ACC5EE"/>
</linearGradient>
<linearGradient id="paint15_linear" x1="6367.5" y1="23026.9" x2="16154" y2="23026.9" gradientUnits="userSpaceOnUse">
<stop stop-color="#F5F8FF"/>
<stop offset="0.3" stop-color="#F2F6FE"/>
<stop offset="0.51" stop-color="#E9F0FC"/>
<stop offset="0.69" stop-color="#DAE6F9"/>
<stop offset="0.86" stop-color="#C4D8F4"/>
<stop offset="1" stop-color="#ABC7EF"/>
</linearGradient>
<linearGradient id="paint16_linear" x1="148.548" y1="256.421" x2="313.342" y2="256.421" gradientUnits="userSpaceOnUse">
<stop stop-color="#D0E5FA"/>
<stop offset="1" stop-color="#ACC5EE"/>
</linearGradient>
<linearGradient id="paint17_linear" x1="6477.96" y1="11190.8" x2="19772.4" y2="11190.8" gradientUnits="userSpaceOnUse">
<stop stop-color="#F5F8FF"/>
<stop offset="0.3" stop-color="#F2F6FE"/>
<stop offset="0.51" stop-color="#E9F0FC"/>
<stop offset="0.69" stop-color="#DAE6F9"/>
<stop offset="0.86" stop-color="#C4D8F4"/>
<stop offset="1" stop-color="#ABC7EF"/>
</linearGradient>
<linearGradient id="paint18_linear" x1="161.729" y1="63.8867" x2="316.983" y2="63.8867" gradientUnits="userSpaceOnUse">
<stop stop-color="#004E8B"/>
<stop offset="1" stop-color="#002880"/>
</linearGradient>
<linearGradient id="paint19_linear" x1="18266.3" y1="5436.66" x2="7429.12" y2="1426.97" gradientUnits="userSpaceOnUse">
<stop stop-color="#004E8B"/>
<stop offset="1" stop-color="#002880"/>
</linearGradient>
<linearGradient id="paint20_linear" x1="324.55" y1="90.9942" x2="150.838" y2="37.9829" gradientUnits="userSpaceOnUse">
<stop stop-color="#0097C5"/>
<stop offset="1" stop-color="#0088BA"/>
</linearGradient>
<linearGradient id="paint21_linear" x1="291.192" y1="129.744" x2="145.019" y2="61.1197" gradientUnits="userSpaceOnUse">
<stop stop-color="#FFA282"/>
<stop offset="1" stop-color="#FF4B70"/>
</linearGradient>
<linearGradient id="paint22_linear" x1="14948" y1="-389573" x2="8524.1" y2="-392593" gradientUnits="userSpaceOnUse">
<stop stop-color="#FFA282"/>
<stop offset="1" stop-color="#FF4B70"/>
</linearGradient>
<linearGradient id="paint23_linear" x1="-152385" y1="1735.37" x2="-152423" y2="1756.78" gradientUnits="userSpaceOnUse">
<stop stop-color="#FF4B70"/>
<stop offset="1" stop-color="#FFA282"/>
</linearGradient>
<linearGradient id="paint24_linear" x1="239.372" y1="5663.38" x2="646.075" y2="5608.12" gradientUnits="userSpaceOnUse">
<stop stop-color="#1A317B"/>
<stop offset="1" stop-color="#18176E"/>
</linearGradient>
<linearGradient id="paint25_linear" x1="-25575" y1="48106.8" x2="-25431.2" y2="48044.2" gradientUnits="userSpaceOnUse">
<stop stop-color="#1A317B"/>
<stop offset="1" stop-color="#18176E"/>
</linearGradient>
<linearGradient id="paint26_linear" x1="-29305.7" y1="49242.4" x2="-29160.3" y2="49172.4" gradientUnits="userSpaceOnUse">
<stop stop-color="#1A317B"/>
<stop offset="1" stop-color="#18176E"/>
</linearGradient>
<linearGradient id="paint27_linear" x1="13640.7" y1="11345.6" x2="13545.7" y2="13477.3" gradientUnits="userSpaceOnUse">
<stop stop-color="#1A317B"/>
<stop offset="1" stop-color="#18176E"/>
</linearGradient>
<linearGradient id="paint28_linear" x1="5056.14" y1="5895.89" x2="5004.79" y2="5907.38" gradientUnits="userSpaceOnUse">
<stop stop-color="#FF4B70"/>
<stop offset="1" stop-color="#FFA282"/>
</linearGradient>
<linearGradient id="paint29_linear" x1="7778.77" y1="4005.47" x2="7717.32" y2="4037.24" gradientUnits="userSpaceOnUse">
<stop stop-color="#FF4B70"/>
<stop offset="1" stop-color="#FFA282"/>
</linearGradient>
<linearGradient id="paint30_linear" x1="16287.1" y1="6986.78" x2="15161.2" y2="7263" gradientUnits="userSpaceOnUse">
<stop stop-color="#FF4B70"/>
<stop offset="1" stop-color="#FFA282"/>
</linearGradient>
<linearGradient id="paint31_linear" x1="8048.71" y1="5155.29" x2="7630.31" y2="5281.27" gradientUnits="userSpaceOnUse">
<stop stop-color="#FF4B70"/>
<stop offset="1" stop-color="#FFA282"/>
</linearGradient>
<linearGradient id="paint32_linear" x1="9499.9" y1="3107.26" x2="9123.45" y2="3344.66" gradientUnits="userSpaceOnUse">
<stop stop-color="#FF4B70"/>
<stop offset="1" stop-color="#FFA282"/>
</linearGradient>
<linearGradient id="paint33_linear" x1="147.115" y1="5907.47" x2="372.957" y2="5892.05" gradientUnits="userSpaceOnUse">
<stop stop-color="#1A317B"/>
<stop offset="1" stop-color="#18176E"/>
</linearGradient>
<linearGradient id="paint34_linear" x1="217.437" y1="6728.35" x2="674.336" y2="6674.24" gradientUnits="userSpaceOnUse">
<stop stop-color="#1A317B"/>
<stop offset="1" stop-color="#18176E"/>
</linearGradient>
<linearGradient id="paint35_linear" x1="224968" y1="3080.62" x2="224988" y2="2573.77" gradientUnits="userSpaceOnUse">
<stop stop-color="#1A317B"/>
<stop offset="1" stop-color="#18176E"/>
</linearGradient>
<linearGradient id="paint36_linear" x1="225097" y1="3082.05" x2="225117" y2="2576.25" gradientUnits="userSpaceOnUse">
<stop stop-color="#1A317B"/>
<stop offset="1" stop-color="#18176E"/>
</linearGradient>
<linearGradient id="paint37_linear" x1="117.989" y1="174.281" x2="135.613" y2="174.078" gradientUnits="userSpaceOnUse">
<stop stop-color="#7594D1"/>
<stop offset="1" stop-color="#B4CDF6"/>
</linearGradient>
<linearGradient id="paint38_linear" x1="198103" y1="-25377.6" x2="198308" y2="-25458.9" gradientUnits="userSpaceOnUse">
<stop stop-color="#7594D1"/>
<stop offset="1" stop-color="#B4CDF6"/>
</linearGradient>
<linearGradient id="paint39_linear" x1="453874" y1="20817.6" x2="454467" y2="17047.2" gradientUnits="userSpaceOnUse">
<stop stop-color="#1A317B"/>
<stop offset="1" stop-color="#18176E"/>
</linearGradient>
<linearGradient id="paint40_linear" x1="201513" y1="267933" x2="201431" y2="268037" gradientUnits="userSpaceOnUse">
<stop stop-color="#7594D1"/>
<stop offset="1" stop-color="#B4CDF6"/>
</linearGradient>
<linearGradient id="paint41_linear" x1="-262778" y1="11212.5" x2="-262270" y2="11155.6" gradientUnits="userSpaceOnUse">
<stop stop-color="#7594D1"/>
<stop offset="1" stop-color="#B4CDF6"/>
</linearGradient>
<linearGradient id="paint42_linear" x1="188456" y1="6524.41" x2="188568" y2="6556.7" gradientUnits="userSpaceOnUse">
<stop stop-color="#7594D1"/>
<stop offset="1" stop-color="#B4CDF6"/>
</linearGradient>
<linearGradient id="paint43_linear" x1="261342" y1="4035.13" x2="261037" y2="4035.13" gradientUnits="userSpaceOnUse">
<stop stop-color="#1A317B"/>
<stop offset="1" stop-color="#18176E"/>
</linearGradient>
<linearGradient id="paint44_linear" x1="3792.7" y1="2535.18" x2="3874.07" y2="2540.72" gradientUnits="userSpaceOnUse">
<stop stop-color="#004E8B"/>
<stop offset="1" stop-color="#002880"/>
</linearGradient>
<linearGradient id="paint45_linear" x1="3546.8" y1="3626.24" x2="4064.09" y2="3355.41" gradientUnits="userSpaceOnUse">
<stop stop-color="#004E8B"/>
<stop offset="1" stop-color="#002880"/>
</linearGradient>
<linearGradient id="paint46_linear" x1="1977.42" y1="4866.39" x2="2552.95" y2="4866.39" gradientUnits="userSpaceOnUse">
<stop stop-color="#1A317B"/>
<stop offset="1" stop-color="#18176E"/>
</linearGradient>
<linearGradient id="paint47_linear" x1="2448.86" y1="4760.87" x2="1938.95" y2="4813.37" gradientUnits="userSpaceOnUse">
<stop stop-color="#004E8B"/>
<stop offset="1" stop-color="#002880"/>
</linearGradient>
</defs>
</svg>
