<svg width="148" height="108" viewBox="0 0 148 108" fill="none" xmlns="http://www.w3.org/2000/svg">
<path d="M44.894 58.6648L73.2702 42.29L101.649 58.6648L73.2702 75.0395L44.894 58.6648Z" fill="#F8F9FF"/>
<path d="M44.894 58.6646V91.4117L73.2702 107.786V75.0393L44.894 58.6646Z" fill="#CBD3FF"/>
<path d="M73.2702 107.786L101.649 91.4117V58.6646L73.2702 75.0393V107.786Z" fill="#A9B6FF"/>
<path d="M86.6309 67.3681L86.6332 100.118L86.9712 100.413L87.436 100.481L89.4476 98.5059V65.6274L86.6309 67.3681Z" fill="#042FF8"/>
<path d="M87.436 66.852V100.481L86.5886 100.101L85.8492 100.528L87.436 101.321L90.2504 99.7118V65.1113L87.436 66.852Z" fill="#3659F9"/>
<path d="M59.886 67.3681V100.118L59.548 100.413L59.0809 100.481L57.0717 98.5059V65.6274L59.886 67.3681Z" fill="#042FF8"/>
<path d="M59.0809 66.852V100.481L59.9306 100.101L60.67 100.528L59.0809 101.321L56.2665 99.7118V65.1113L59.0809 66.852Z" fill="#3659F9"/>
<path d="M127.973 77.3854C125.136 76.501 121.5 76.7473 119.11 78.1267C116.197 79.8064 116.197 82.5582 119.11 84.2262C122.023 85.8941 126.788 85.9059 129.701 84.2262C131.091 83.4239 131.814 82.3799 131.879 81.3242V77.3854H127.973Z" fill="#EAEDFF"/>
<path d="M128.098 18.6402C125.244 17.7018 121.525 17.9364 119.11 19.344C116.197 21.0237 116.197 23.7755 119.11 25.4552C122.023 27.1349 126.788 27.1349 129.701 25.4552C131.072 24.6646 131.797 23.6347 131.877 22.5931V18.6402H128.098Z" fill="#EAEDFF"/>
<path d="M27.8809 19.342C25.4022 17.911 21.5785 17.6998 18.7007 18.7039H15.1071V22.6568H15.1212C15.2268 23.675 15.9474 24.679 17.29 25.4532C20.203 27.1329 24.9703 27.1329 27.8809 25.4532C30.7916 23.7735 30.7939 21.0217 27.8809 19.342Z" fill="#EAEDFF"/>
<path d="M27.8809 78.1267C25.4938 76.7473 21.8578 76.501 19.02 77.3854H15.1071V81.336C15.1728 82.3916 15.8981 83.4473 17.2853 84.2379C20.1983 85.9176 24.9656 85.9176 27.8762 84.2379C30.7869 82.5582 30.7939 79.8064 27.8809 78.1267Z" fill="#EAEDFF"/>
<path d="M119.141 82.572L95.9824 72.4844C91.8184 70.671 87.321 74.936 82.7767 74.936H63.8576C59.1067 74.936 54.4122 70.7578 50.0932 72.7331L26.2613 83.8928L22.5855 80.5217L40.8426 66.6149C42.3154 65.4884 43.5086 64.0379 44.3297 62.3759C45.1508 60.7139 45.5776 58.8852 45.577 57.0317V49.7709C45.5765 47.84 45.1124 45.9374 44.2236 44.2229C43.3348 42.5084 42.0474 41.0321 40.4694 39.918L21.9423 26.4616V20.6812L50.0932 35.3504C54.4127 37.326 59.1073 38.3485 63.8576 38.3485H82.7767C87.32 38.3524 91.8154 37.4204 95.9824 35.6108L124.406 20.6812V26.4616L105.613 39.9203C104.035 41.0343 102.747 42.5105 101.858 44.225C100.969 45.9395 100.504 47.8422 100.503 49.7733V57.034C100.503 58.8877 100.93 60.7165 101.752 62.3785C102.573 64.0404 103.767 65.4909 105.24 66.6172L123.413 80.1088L119.141 82.572Z" fill="#DDE2FF"/>
<path d="M119.141 76.7965L95.9824 66.7089C91.8163 64.8952 87.3208 63.9593 82.7767 63.9594H63.8576C59.1073 63.9594 54.4127 64.982 50.0932 66.9576L26.2613 78.1172L22.5855 74.7485L40.8426 60.8393C42.3152 59.7132 43.5083 58.2631 44.3294 56.6015C45.1505 54.94 45.5774 53.1116 45.577 51.2585V43.986C45.5773 42.0549 45.1135 40.152 44.2247 38.4374C43.3358 36.7228 42.0479 35.2466 40.4694 34.133L21.9423 20.6813L26.2613 18.5981L50.0932 29.5749C54.4127 31.5504 59.1073 32.573 63.8576 32.573H82.7767C87.3208 32.5731 91.8163 31.6372 95.9824 29.8235L121.589 18.5981L124.406 20.6813L105.613 34.1401C104.034 35.2535 102.746 36.7296 101.857 38.4442C100.968 40.1588 100.503 42.0618 100.503 43.9931V51.2655C100.503 53.1188 100.931 54.9472 101.752 56.6088C102.574 58.2703 103.767 59.7204 105.24 60.8464L123.413 74.3379L119.141 76.7965Z" fill="#F8F9FF"/>
<path d="M124.406 81.7064C128.542 81.7064 131.896 79.7718 131.896 77.3852C131.896 74.9986 128.542 73.064 124.406 73.064C120.269 73.064 116.915 74.9986 116.915 77.3852C116.915 79.7718 120.269 81.7064 124.406 81.7064Z" fill="#F8F9FF"/>
<path d="M124.406 22.9194C128.542 22.9194 131.896 20.9847 131.896 18.5981C131.896 16.2115 128.542 14.2769 124.406 14.2769C120.269 14.2769 116.915 16.2115 116.915 18.5981C116.915 20.9847 120.269 22.9194 124.406 22.9194Z" fill="#F8F9FF"/>
<path d="M22.5855 22.9194C26.7222 22.9194 30.0757 20.9847 30.0757 18.5981C30.0757 16.2115 26.7222 14.2769 22.5855 14.2769C18.4488 14.2769 15.0953 16.2115 15.0953 18.5981C15.0953 20.9847 18.4488 22.9194 22.5855 22.9194Z" fill="#F8F9FF"/>
<path d="M22.5855 81.7064C26.7222 81.7064 30.0757 79.7718 30.0757 77.3852C30.0757 74.9986 26.7222 73.064 22.5855 73.064C18.4488 73.064 15.0953 74.9986 15.0953 77.3852C15.0953 79.7718 18.4488 81.7064 22.5855 81.7064Z" fill="#F8F9FF"/>
<path d="M73.174 59.4834C68.2752 59.4834 63.3741 58.409 59.6443 56.2554C56.0154 54.1628 54.0108 51.3571 54.0108 48.359C54.0108 45.3608 56.0083 42.5551 59.6443 40.4625C67.1039 36.1577 79.244 36.1577 86.7037 40.4625C90.3326 42.5551 92.3371 45.3608 92.3371 48.359C92.3371 51.3571 90.3396 54.1628 86.7037 56.2554C82.9738 58.409 78.0751 59.4834 73.174 59.4834ZM73.174 37.5394C68.3315 37.5394 63.4891 38.6045 59.7945 40.7323C56.2736 42.7686 54.323 45.4758 54.323 48.359C54.323 51.2421 56.2665 53.9493 59.7945 55.9856C67.1673 60.2412 79.1666 60.2412 86.5534 55.9856C90.0744 53.9493 92.0226 51.2421 92.0226 48.359C92.0226 45.4758 90.0814 42.7686 86.5534 40.7323C82.8588 38.6045 78.0164 37.5394 73.174 37.5394Z" fill="#042FF8"/>
<path d="M73.174 58.1179C68.8808 58.1179 64.59 57.1795 61.3202 55.2887C58.1373 53.4518 56.391 50.9909 56.391 48.3588C56.391 45.7266 58.1444 43.2657 61.3202 41.4288C67.8574 37.6565 78.4929 37.6565 85.0277 41.4288C88.2106 43.2657 89.957 45.7266 89.957 48.3588C89.957 50.9909 88.2036 53.4518 85.0277 55.2887C81.7603 57.1748 77.4601 58.1156 73.174 58.1179ZM73.174 38.9069C68.9371 38.9069 64.7027 39.8453 61.4775 41.6986C58.3955 43.4768 56.6985 45.8416 56.6985 48.3588C56.6985 50.876 58.3955 53.2407 61.4775 55.0189C67.9278 58.7396 78.4225 58.7396 84.8728 55.0189C87.9548 53.2407 89.6518 50.8736 89.6518 48.3588C89.6518 45.8439 87.9548 43.4768 84.8728 41.6986C81.6476 39.8336 77.4108 38.9069 73.174 38.9069V38.9069Z" fill="#042FF8"/>
<path d="M76.6714 69.6107C76.6714 70.302 76.4663 70.9778 76.082 71.5527C75.6977 72.1275 75.1515 72.5755 74.5124 72.8401C73.8733 73.1046 73.1701 73.1739 72.4917 73.039C71.8132 72.9041 71.19 72.5712 70.7009 72.0824C70.2118 71.5935 69.8787 70.9707 69.7437 70.2926C69.6088 69.6146 69.678 68.9117 69.9428 68.273C70.2075 67.6343 70.6557 67.0884 71.2309 66.7043C71.806 66.3202 72.4822 66.1152 73.174 66.1152C74.1015 66.1152 74.9911 66.4835 75.647 67.139C76.3029 67.7946 76.6714 68.6836 76.6714 69.6107V69.6107Z" fill="#042FF8"/>
<path d="M75.8334 69.611C75.833 70.1366 75.6766 70.6502 75.3841 71.087C75.0916 71.5238 74.6761 71.8642 74.1901 72.065C73.7041 72.2658 73.1694 72.3181 72.6537 72.2153C72.138 72.1124 71.6643 71.8591 71.2926 71.4873C70.9209 71.1155 70.6679 70.6419 70.5654 70.1263C70.463 69.6108 70.5158 69.0765 70.7172 68.5909C70.9185 68.1054 71.2594 67.6904 71.6967 67.3985C72.134 67.1065 72.6481 66.9507 73.174 66.9507C73.5234 66.9507 73.8694 67.0195 74.1922 67.1532C74.5151 67.287 74.8083 67.4829 75.0553 67.73C75.3023 67.9771 75.4981 68.2704 75.6317 68.5931C75.7652 68.9159 75.8337 69.2617 75.8334 69.611V69.611Z" fill="white"/>
<path d="M75.202 69.6084C75.202 70.0093 75.0831 70.4012 74.8602 70.7345C74.6374 71.0678 74.3206 71.3276 73.9501 71.481C73.5795 71.6345 73.1717 71.6746 72.7783 71.5964C72.3849 71.5182 72.0235 71.3251 71.7399 71.0417C71.4563 70.7582 71.2631 70.397 71.1849 70.0039C71.1066 69.6107 71.1468 69.2031 71.3003 68.8328C71.4538 68.4624 71.7137 68.1458 72.0472 67.9231C72.3807 67.7004 72.7728 67.5815 73.174 67.5815C73.7118 67.5815 74.2277 67.7951 74.608 68.1752C74.9883 68.5553 75.202 69.0709 75.202 69.6084V69.6084Z" fill="#042FF8"/>
<path d="M73.1739 68.595C73.1739 68.7954 73.1145 68.9914 73.0031 69.158C72.8916 69.3247 72.7333 69.4546 72.548 69.5313C72.3627 69.608 72.1588 69.6281 71.9621 69.589C71.7654 69.5498 71.5847 69.4533 71.4429 69.3116C71.3011 69.1699 71.2045 68.9893 71.1654 68.7927C71.1263 68.5961 71.1463 68.3923 71.2231 68.2071C71.2998 68.022 71.4298 67.8637 71.5966 67.7523C71.7633 67.641 71.9594 67.5815 72.1599 67.5815C72.4289 67.5815 72.6868 67.6883 72.8769 67.8784C73.0671 68.0684 73.1739 68.3262 73.1739 68.595Z" fill="white"/>
<path d="M65.55 68.9609H64.1252V70.2606H65.55V68.9609Z" fill="#FF61B4"/>
<path d="M62.9469 68.9609H61.5221V70.2606H62.9469V68.9609Z" fill="#042FF8"/>
<path d="M114.148 67.4551L112 65.8599L104.294 70.3336L107.066 71.5394L114.148 67.4551Z" fill="#FF99CF"/>
<path d="M101.534 69.1322L109.904 64.3019L107.756 62.709L98.764 67.9264L101.534 69.1322Z" fill="#FF99CF"/>
<path d="M50.0932 29.5746L47.4549 28.3594L39.1479 33.1803L40.467 34.1398C40.7417 34.3322 41.0069 34.5386 41.2604 34.7521L50.18 29.6098L50.0932 29.5746Z" fill="#FF99CF"/>
<path d="M34.8523 30.0602L36.9931 31.6155L44.7743 27.1254L42.0608 25.875L34.8523 30.0602Z" fill="#FF99CF"/>
<path d="M104.651 26.0229L101.895 27.2311L109.277 31.5148L111.46 29.9524L104.651 26.0229Z" fill="#FF99CF"/>
<path d="M99.1372 28.4419L96.3838 29.6501L104.965 34.6305C105.177 34.4593 105.39 34.295 105.613 34.1402L107.13 33.054L99.1372 28.4419Z" fill="#FF99CF"/>
<path d="M39.8121 71.776L42.4998 70.5186L34.3266 65.8032L32.2469 67.3867L39.8121 71.776Z" fill="#FF99CF"/>
<path d="M38.5094 62.6177L36.4321 64.1988L45.1686 69.2708L47.8586 68.011L38.5094 62.6177Z" fill="#FF99CF"/>
<path d="M122.115 16.942C123.558 16.1092 125.922 16.1092 127.366 16.942C128.809 17.7748 128.809 19.1401 127.366 19.973C125.922 20.8058 123.558 20.8058 122.115 19.973C120.671 19.1401 120.671 17.7818 122.115 16.942Z" fill="#042FF8"/>
<path d="M122.115 17.3572C123.558 16.5244 125.922 16.5244 127.366 17.3572C127.997 17.7232 128.351 18.1877 128.431 18.6663C128.534 18.0493 128.18 17.4112 127.366 16.942C125.922 16.1092 123.558 16.1092 122.115 16.942C121.3 17.4112 120.941 18.0493 121.049 18.6663C121.119 18.1877 121.483 17.7232 122.115 17.3572Z" fill="#0323BA"/>
<path d="M124.739 8.46826C124.918 8.46834 125.092 8.53165 125.229 8.64707C125.367 8.76249 125.459 8.92263 125.49 9.09932L127.133 18.4573H122.352L123.995 9.09932C124.026 8.92382 124.117 8.76461 124.253 8.64933C124.389 8.53406 124.561 8.46998 124.739 8.46826V8.46826Z" fill="#042FF8"/>
<path opacity="0.15" d="M108.888 22.5439L109.024 22.619L124.774 13.6457L108.538 4.27832C100.083 9.37607 100.2 17.547 108.888 22.5439Z" fill="#536DFE"/>
<path opacity="0.15" d="M140.541 22.7457C140.663 22.6777 140.775 22.6144 140.905 22.544C149.59 17.5354 149.707 9.38086 141.261 4.28076L124.774 13.6458L140.541 22.7457Z" fill="#536DFE"/>
<path d="M124.896 26.6142C119.051 26.6142 113.209 25.331 108.761 22.7645C104.421 20.2614 102.029 16.8996 102.029 13.3103C102.029 9.72103 104.419 6.35694 108.761 3.85146C117.657 -1.28382 132.135 -1.28382 141.031 3.85146C145.374 6.35694 147.763 9.71634 147.763 13.3103C147.763 16.9043 145.371 20.2614 141.031 22.7645C136.583 25.331 130.743 26.6142 124.896 26.6142ZM109.014 4.29015C104.836 6.70179 102.536 9.90401 102.536 13.3103C102.536 16.7166 104.836 19.9165 109.014 22.3258C117.772 27.379 132.018 27.379 140.778 22.3258C144.954 19.9165 147.254 16.7143 147.256 13.3103C147.259 9.90636 144.956 6.70179 140.778 4.29015C132.02 -0.763021 117.775 -0.763021 109.014 4.29015V4.29015Z" fill="#9BACFC"/>
<path d="M122.446 12.3487C123.708 11.6214 125.772 11.6214 127.035 12.3487C128.297 13.0759 128.295 14.2676 127.035 14.9949C125.774 15.7221 123.708 15.7245 122.446 14.9949C121.183 14.2653 121.185 13.0759 122.446 12.3487Z" fill="#0323BA"/>
<path d="M122.446 11.9847C123.708 11.2551 125.772 11.2551 127.035 11.9847C128.297 12.7143 128.295 13.9037 127.035 14.6309C125.774 15.3582 123.708 15.3582 122.446 14.6309C121.183 13.9037 121.185 12.7119 122.446 11.9847Z" fill="#EAEDFF"/>
<path d="M123.467 12.5739C123.861 12.376 124.296 12.2729 124.738 12.2729C125.179 12.2729 125.614 12.376 126.009 12.5739C126.713 12.9774 126.713 13.639 126.009 14.0401C125.615 14.2393 125.179 14.343 124.738 14.343C124.296 14.343 123.861 14.2393 123.467 14.0401C122.762 13.639 122.762 12.9774 123.467 12.5739Z" fill="#042FF8"/>
<path d="M124.739 8.46826C124.918 8.46834 125.092 8.53165 125.229 8.64707C125.367 8.76249 125.459 8.92263 125.49 9.09932L126.227 13.3079H123.253L123.99 9.10167C124.02 8.92495 124.112 8.76457 124.249 8.64873C124.386 8.53289 124.559 8.46899 124.739 8.46826V8.46826Z" fill="#042FF8"/>
<path d="M20.0856 16.942C21.5292 16.1092 23.8929 16.1092 25.3365 16.942C26.7801 17.7748 26.7801 19.1401 25.3365 19.973C23.8929 20.8058 21.5292 20.8058 20.0856 19.973C18.6421 19.1401 18.6397 17.7818 20.0856 16.942Z" fill="#042FF8"/>
<path d="M20.0856 17.3572C21.5292 16.5244 23.8929 16.5244 25.3365 17.3572C25.9679 17.7232 26.3223 18.1877 26.4021 18.6663C26.5054 18.0493 26.1486 17.4112 25.3365 16.942C23.8929 16.1092 21.5292 16.1092 20.0856 16.942C19.2711 17.4112 18.912 18.0493 19.02 18.6663C19.0998 18.1877 19.4542 17.7232 20.0856 17.3572Z" fill="#0323BA"/>
<path d="M22.7099 8.46831C22.8916 8.46617 23.0681 8.52872 23.2079 8.64478C23.3477 8.76083 23.4415 8.92281 23.4728 9.10172L25.1158 18.4597H20.3227L21.9658 9.10172C21.996 8.92579 22.087 8.76602 22.223 8.65027C22.359 8.53453 22.5313 8.47014 22.7099 8.46831V8.46831Z" fill="#042FF8"/>
<path opacity="0.15" d="M6.85638 22.5439L6.99252 22.619L22.7451 13.6457L6.50664 4.27832C-1.9459 9.37607 -1.82854 17.547 6.85638 22.5439Z" fill="#536DFE"/>
<path opacity="0.15" d="M38.5117 22.7457C38.6338 22.6777 38.7465 22.6144 38.8756 22.544C47.5605 17.5354 47.6778 9.38086 39.2323 4.28076L22.7451 13.6458L38.5117 22.7457Z" fill="#536DFE"/>
<path d="M22.8672 26.6142C17.0224 26.6142 11.1801 25.331 6.72964 22.7645C2.39187 20.2614 0 16.9043 0 13.3103C0 9.71634 2.38953 6.35694 6.72964 3.85146C15.6282 -1.28382 30.1062 -1.28382 39.0023 3.85146C43.3424 6.35694 45.7343 9.71634 45.7343 13.3103C45.7343 16.9043 43.3424 20.2614 39.0023 22.7645C34.5542 25.331 28.7095 26.6142 22.8672 26.6142ZM6.98314 4.29015C2.81673 6.70179 0.507011 9.90401 0.507011 13.3103C0.507011 16.7166 2.81673 19.9165 6.98314 22.3258C15.7408 27.379 29.9864 27.379 38.7488 22.3258C42.9246 19.9165 45.225 16.7143 45.225 13.3103C45.225 9.90636 42.927 6.70179 38.7488 4.29015C29.9911 -0.763021 15.7455 -0.763021 6.98314 4.29015Z" fill="#9BACFC"/>
<path d="M20.4213 12.3487C21.6818 11.6214 23.7474 11.6214 25.0102 12.3487C26.2731 13.0759 26.2707 14.2676 25.0102 14.9949C23.7497 15.7221 21.6818 15.7245 20.4213 14.9949C19.1608 14.2653 19.1538 13.0759 20.4213 12.3487Z" fill="#0323BA"/>
<path d="M20.4213 11.9847C21.6818 11.2551 23.7474 11.2551 25.0102 11.9847C26.2731 12.7143 26.2707 13.9037 25.0102 14.6309C23.7497 15.3582 21.6818 15.3582 20.4213 14.6309C19.1608 13.9037 19.1538 12.7119 20.4213 11.9847Z" fill="#EAEDFF"/>
<path d="M21.44 12.5739C21.8341 12.376 22.2689 12.2729 22.7099 12.2729C23.1509 12.2729 23.5857 12.376 23.9798 12.5739C24.684 12.9774 24.684 13.6389 23.9798 14.0401C23.586 14.2389 23.151 14.3424 22.7099 14.3424C22.2688 14.3424 21.8338 14.2389 21.44 14.0401C20.7405 13.6389 20.7405 12.9774 21.44 12.5739Z" fill="#042FF8"/>
<path d="M22.7099 8.46831C22.8916 8.46617 23.0681 8.52872 23.2079 8.64478C23.3477 8.76083 23.4416 8.92281 23.4728 9.10172L24.2098 13.3103H21.2241L21.9611 9.10172C21.9915 8.925 22.0832 8.76463 22.2201 8.64878C22.3571 8.53294 22.5305 8.46904 22.7099 8.46831V8.46831Z" fill="#042FF8"/>
<path d="M20.0856 75.6632C21.5292 74.8304 23.8929 74.8304 25.3365 75.6632C26.7801 76.496 26.7801 77.8614 25.3365 78.6942C23.8929 79.527 21.5292 79.527 20.0856 78.6942C18.6421 77.8614 18.6397 76.496 20.0856 75.6632Z" fill="#042FF8"/>
<path d="M20.0856 76.0808C21.5292 75.2456 23.8929 75.2456 25.3365 76.0808C25.9679 76.4444 26.3223 76.9089 26.4021 77.3875C26.5054 76.7705 26.1486 76.1324 25.3365 75.6632C23.8929 74.8304 21.5292 74.8304 20.0856 75.6632C19.2711 76.1324 18.912 76.7705 19.02 77.3875C19.0998 76.8995 19.4542 76.4444 20.0856 76.0808Z" fill="#0323BA"/>
<path d="M22.7099 67.1899C22.8892 67.1905 23.0627 67.254 23.2 67.3693C23.3373 67.4847 23.4297 67.6445 23.461 67.821L25.1041 77.179H20.3227L21.9658 67.821C21.9965 67.6455 22.0877 67.4863 22.2237 67.371C22.3596 67.2557 22.5316 67.1917 22.7099 67.1899V67.1899Z" fill="#042FF8"/>
<path opacity="0.15" d="M6.85638 81.2679L6.99252 81.3406L22.7451 72.3674L6.50664 63C-1.9459 68.0977 -1.82854 76.257 6.85638 81.2679Z" fill="#536DFE"/>
<path opacity="0.15" d="M38.5117 81.4674C38.6338 81.3994 38.7465 81.336 38.8756 81.268C47.5605 76.257 47.6778 68.1025 39.2323 63.0024L22.7451 72.3675L38.5117 81.4674Z" fill="#536DFE"/>
<path d="M22.8672 85.3453C17.0224 85.3453 11.1801 84.0621 6.72964 81.4933C2.39187 78.9831 0 75.626 0 72.032C0 68.438 2.38953 65.0786 6.72964 62.5731C15.6282 57.4379 30.1062 57.4379 39.0023 62.5731C43.3424 65.0786 45.7343 68.438 45.7343 72.032C45.7343 75.626 43.3424 78.9831 39.0023 81.4862C34.5542 84.0527 28.7095 85.3453 22.8672 85.3453ZM6.98314 63.0118C2.81673 65.4235 0.507011 68.6257 0.507011 72.032C0.507011 75.4384 2.80734 78.6382 6.98314 81.0475C15.7408 86.1007 29.9864 86.1007 38.7488 81.0475C42.9246 78.6382 45.225 75.436 45.225 72.032C45.225 68.6281 42.927 65.4235 38.7488 63.0118C29.9911 57.9587 15.7455 57.9587 6.98314 63.0118Z" fill="#9BACFC"/>
<path d="M20.4213 71.0698C21.6818 70.3426 23.7474 70.3426 25.0102 71.0698C26.2731 71.7971 26.2707 72.9888 25.0102 73.7161C23.7497 74.4433 21.6818 74.4457 20.4213 73.7161C19.1608 72.9865 19.1538 71.7971 20.4213 71.0698Z" fill="#0323BA"/>
<path d="M20.4213 70.7064C21.6818 69.9768 23.7474 69.9768 25.0102 70.7064C26.273 71.436 26.2707 72.6254 25.0102 73.3526C23.7497 74.0799 21.6771 74.0846 20.4213 73.3526C19.1655 72.6207 19.1538 71.4336 20.4213 70.7064Z" fill="#EAEDFF"/>
<path d="M21.44 71.2974C21.8338 71.0987 22.2688 70.9951 22.7099 70.9951C23.151 70.9951 23.586 71.0987 23.9798 71.2974C24.684 71.6986 24.684 72.3602 23.9798 72.7613C23.586 72.9601 23.151 73.0636 22.7099 73.0636C22.2688 73.0636 21.8338 72.9601 21.44 72.7613C20.7405 72.3602 20.7405 71.6986 21.44 71.2974Z" fill="#042FF8"/>
<path d="M22.7099 67.1899C22.8892 67.1905 23.0627 67.254 23.2 67.3693C23.3373 67.4847 23.4297 67.6445 23.461 67.821L24.1981 72.0296H21.2241L21.9611 67.8234C21.9915 67.6466 22.0832 67.4863 22.2201 67.3704C22.3571 67.2546 22.5305 67.1907 22.7099 67.1899V67.1899Z" fill="#042FF8"/>
<path d="M122.115 75.6632C123.558 74.8304 125.922 74.8304 127.366 75.6632C128.809 76.496 128.809 77.8614 127.366 78.6942C125.922 79.527 123.558 79.527 122.115 78.6942C120.671 77.8614 120.671 76.496 122.115 75.6632Z" fill="#042FF8"/>
<path d="M122.115 76.0808C123.558 75.2456 125.922 75.2456 127.366 76.0808C127.997 76.4444 128.351 76.9089 128.431 77.3875C128.534 76.7705 128.18 76.1324 127.366 75.6632C125.922 74.8304 123.558 74.8304 122.115 75.6632C121.3 76.1324 120.941 76.7705 121.049 77.3875C121.119 76.8995 121.483 76.4444 122.115 76.0808Z" fill="#0323BA"/>
<path d="M124.739 67.1899C124.918 67.19 125.092 67.2533 125.229 67.3688C125.367 67.4842 125.459 67.6443 125.49 67.821L127.133 77.179H122.352L123.995 67.821C124.026 67.6455 124.117 67.4863 124.253 67.371C124.389 67.2557 124.561 67.1917 124.739 67.1899V67.1899Z" fill="#042FF8"/>
<path opacity="0.15" d="M108.888 81.2679L109.024 81.3406L124.774 72.3674L108.538 63C100.083 68.0977 100.2 76.257 108.888 81.2679Z" fill="#536DFE"/>
<path opacity="0.15" d="M140.541 81.4674C140.663 81.3994 140.775 81.336 140.905 81.268C149.59 76.257 149.707 68.1025 141.261 63.0024L124.774 72.3675L140.541 81.4674Z" fill="#536DFE"/>
<path d="M124.896 85.3451C119.051 85.3451 113.209 84.0619 108.761 81.493C104.421 78.9899 102.029 75.6282 102.029 72.0389C102.029 68.4496 104.419 65.0855 108.761 62.58C117.657 57.4447 132.135 57.4447 141.031 62.58C145.374 65.0855 147.763 68.4449 147.763 72.0389C147.763 75.6329 145.371 78.9899 141.031 81.493C136.583 84.0525 130.743 85.3451 124.896 85.3451ZM109.014 63.0116C104.836 65.4233 102.536 68.6255 102.536 72.0318C102.536 75.4381 104.836 78.638 109.014 81.0473C117.772 86.1005 132.018 86.1005 140.778 81.0473C144.954 78.638 147.254 75.4358 147.256 72.0318C147.259 68.6278 144.956 65.4233 140.778 63.0116C132.02 57.9584 117.775 57.9584 109.014 63.0116Z" fill="#9BACFC"/>
<path d="M122.446 71.0698C123.708 70.3426 125.772 70.3426 127.035 71.0698C128.297 71.7971 128.295 72.9888 127.035 73.7161C125.774 74.4433 123.708 74.4457 122.446 73.7161C121.183 72.9865 121.185 71.7971 122.446 71.0698Z" fill="#0323BA"/>
<path d="M122.446 70.7064C123.708 69.9768 125.772 69.9768 127.035 70.7064C128.297 71.436 128.295 72.6254 127.035 73.3526C125.774 74.0799 123.708 74.0822 122.446 73.3526C121.183 72.623 121.185 71.4336 122.446 70.7064Z" fill="#EAEDFF"/>
<path d="M123.467 71.2975C123.861 71.0984 124.296 70.9946 124.738 70.9946C125.179 70.9946 125.615 71.0984 126.009 71.2975C126.713 71.6987 126.713 72.3602 126.009 72.7614C125.615 72.9605 125.179 73.0643 124.738 73.0643C124.296 73.0643 123.861 72.9605 123.467 72.7614C122.762 72.3602 122.762 71.6987 123.467 71.2975Z" fill="#042FF8"/>
<path d="M124.739 67.1899C124.918 67.19 125.092 67.2533 125.229 67.3688C125.367 67.4842 125.459 67.6443 125.49 67.821L126.227 72.0296H123.253L123.99 67.8234C124.02 67.6466 124.112 67.4863 124.249 67.3704C124.386 67.2546 124.559 67.1907 124.739 67.1899V67.1899Z" fill="#042FF8"/>
</svg>
