<svg width="40" height="40" viewBox="0 0 40 40" fill="none" xmlns="http://www.w3.org/2000/svg">
<rect x="0.25" y="0.25" width="39.5" height="39.5" rx="19.75" stroke="white" stroke-width="0.5"/>
<path d="M27.2 14H12.8C12.3582 14 12 14.3582 12 14.8V25.4667C12 25.9085 12.3582 26.2667 12.8 26.2667H27.2C27.6418 26.2667 28 25.9085 28 25.4667V14.8C28 14.3582 27.6418 14 27.2 14ZM27.4667 25.4667C27.4667 25.614 27.3473 25.7333 27.2 25.7333H12.8C12.6527 25.7333 12.5333 25.614 12.5333 25.4667V14.8C12.5333 14.6527 12.6527 14.5333 12.8 14.5333H27.2C27.3473 14.5333 27.4667 14.6527 27.4667 14.8V25.4667Z" fill="white"/>
<path d="M26.6899 15.0674C26.6194 15.0613 26.5494 15.0834 26.4952 15.1289L20.3432 20.2968C20.1448 20.4636 19.8552 20.4636 19.6568 20.2968L13.5048 15.1288C13.4318 15.0676 13.3317 15.0499 13.2422 15.0825C13.1527 15.115 13.0873 15.1929 13.0707 15.2867C13.0542 15.3806 13.0889 15.4761 13.1619 15.5374L19.3139 20.7051C19.7104 21.0389 20.2896 21.0389 20.6862 20.7051L26.8381 15.5374C26.8923 15.4919 26.9262 15.4268 26.9323 15.3563C26.9385 15.2859 26.9164 15.2158 26.8709 15.1617C26.8255 15.1075 26.7603 15.0736 26.6899 15.0674Z" fill="white"/>
<path d="M17.1289 20.6685C17.0345 20.6475 16.9361 20.6791 16.8717 20.7513L13.1384 24.7513C13.0708 24.8205 13.046 24.9209 13.0736 25.0136C13.1011 25.1063 13.1767 25.1768 13.2711 25.1979C13.3655 25.2189 13.4639 25.1872 13.5283 25.115L17.2616 21.115C17.3292 21.0459 17.354 20.9455 17.3264 20.8528C17.2988 20.7601 17.2233 20.6896 17.1289 20.6685Z" fill="white"/>
<path d="M23.1283 20.7513C23.0639 20.6791 22.9655 20.6475 22.8711 20.6685C22.7767 20.6896 22.7012 20.7601 22.6736 20.8528C22.646 20.9455 22.6708 21.0459 22.7384 21.115L26.4718 25.115C26.573 25.2187 26.7385 25.2226 26.8445 25.1237C26.9504 25.0249 26.9581 24.8595 26.8616 24.7513L23.1283 20.7513Z" fill="white"/>
</svg>
