<svg width="56" height="56" viewBox="0 0 56 56" fill="none" xmlns="http://www.w3.org/2000/svg">
<rect x="55.5" y="55.5" width="55" height="55" rx="4.5" transform="rotate(-180 55.5 55.5)" stroke="url(#paint0_linear)"/>
<path d="M39.0537 16.4462C39.2364 16.0141 39.2685 15.5331 39.1449 15.0806C39.0212 14.6281 38.749 14.2303 38.3719 13.9512C37.9949 13.6721 37.5349 13.5279 37.066 13.5418C36.5971 13.5556 36.1465 13.7268 35.7866 14.0277C32.4224 12.1502 28.4936 11.5501 24.7223 12.338C20.9511 13.1258 17.591 15.2486 15.2599 18.3159C12.9287 21.3833 11.7832 25.1891 12.0339 29.0336C12.2847 32.878 13.9148 36.5028 16.6246 39.2414C16.3471 39.6757 16.2397 40.1971 16.323 40.7057C16.4063 41.2143 16.6743 41.6743 17.0758 41.9975C17.4773 42.3206 17.984 42.4842 18.4986 42.4568C19.0133 42.4294 19.4997 42.213 19.8647 41.8491C19.88 41.8337 19.8917 41.817 19.9079 41.8013C22.1083 43.0921 24.5856 43.8379 27.133 43.9764C29.6803 44.1149 32.2239 43.6422 34.5514 42.5976C36.8788 41.5531 38.9227 39.967 40.5125 37.9717C42.1022 35.9765 43.1917 33.63 43.69 31.128C44.2136 28.4883 44.0632 25.7591 43.2527 23.1929C42.4422 20.6267 40.9977 18.3062 39.0529 16.4462H39.0537ZM37.9386 14.8213C38.1268 15.0091 38.244 15.2564 38.2703 15.521C38.2966 15.7856 38.2303 16.0512 38.0826 16.2723C37.935 16.4935 37.7152 16.6566 37.4608 16.7339C37.2063 16.8111 36.933 16.7977 36.6873 16.6959C36.4416 16.5941 36.2389 16.4103 36.1136 16.1757C35.9884 15.9411 35.9484 15.6704 36.0004 15.4096C36.0525 15.1488 36.1934 14.9142 36.3991 14.7457C36.6048 14.5772 36.8626 14.4853 37.1285 14.4856C37.4323 14.4861 37.7235 14.6067 37.9386 14.8213ZM19.1967 41.1808C19.0362 41.3413 18.8317 41.4506 18.6091 41.4948C18.3865 41.5391 18.1558 41.5163 17.9461 41.4295C17.7365 41.3426 17.5573 41.1955 17.4312 41.0068C17.3051 40.8181 17.2378 40.5963 17.2378 40.3693C17.2378 40.1424 17.3051 39.9205 17.4312 39.7318C17.5573 39.5431 17.7365 39.396 17.9461 39.3092C18.1558 39.2223 18.3865 39.1996 18.6091 39.2438C18.8317 39.2881 19.0362 39.3974 19.1967 39.5578C19.3042 39.6638 19.3896 39.7902 19.4479 39.9295C19.5062 40.0688 19.5362 40.2183 19.5362 40.3693C19.5362 40.5204 19.5062 40.6699 19.4479 40.8092C19.3896 40.9485 19.3042 41.0748 19.1967 41.1808ZM42.7638 30.9441C42.2945 33.2982 41.269 35.5059 39.7729 37.3831C38.2767 39.2602 36.3534 40.7523 34.1633 41.735C31.9732 42.7176 29.5798 43.1622 27.183 43.0317C24.7861 42.9012 22.4552 42.1994 20.3847 40.9848C20.5103 40.5794 20.5095 40.1453 20.3823 39.7404C20.2552 39.3355 20.0078 38.9788 19.673 38.7179C19.3382 38.457 18.9319 38.3043 18.5082 38.28C18.0845 38.2556 17.6634 38.3609 17.3009 38.5818C15.914 37.1919 14.8152 35.5417 14.0679 33.7259C13.3205 31.9101 12.9393 29.9646 12.946 28.001C12.9462 25.389 13.626 22.822 14.9186 20.5522C16.2112 18.2824 18.0722 16.3881 20.3186 15.0553C22.5651 13.7225 25.1196 12.9972 27.7313 12.9506C30.3429 12.9041 32.9217 13.5378 35.2142 14.7897C35.0225 15.2237 34.9843 15.7101 35.1057 16.1688C35.2272 16.6275 35.5011 17.0313 35.8824 17.3136C36.2638 17.596 36.7298 17.7402 37.204 17.7226C37.6782 17.7049 38.1323 17.5264 38.4915 17.2165C40.2915 18.9672 41.6252 21.1401 42.3713 23.5376C43.1175 25.9352 43.2524 28.4812 42.7638 30.9441Z" fill="url(#paint1_linear)"/>
<path d="M27.9989 16.7796C25.0238 16.7829 22.1714 17.9662 20.0677 20.0699C17.964 22.1736 16.7807 25.0259 16.7774 28.001C16.7774 28.0666 16.7812 28.1322 16.7823 28.1979C16.3458 28.3895 15.988 28.7247 15.7682 29.1478C15.5485 29.5709 15.48 30.0564 15.5742 30.5237C15.6684 30.9911 15.9196 31.4121 16.2861 31.717C16.6526 32.0219 17.1124 32.1923 17.5891 32.1999C18.4937 34.4407 20.0972 36.3297 22.1614 37.5862C24.2256 38.8427 26.6401 39.3995 29.0461 39.1738C31.452 38.9481 33.7209 37.9521 35.5154 36.3337C37.31 34.7153 38.5343 32.561 39.0064 30.191C39.0775 29.8236 39.1244 29.4639 39.1595 29.111C39.6638 29.0105 40.1132 28.7276 40.422 28.3166C40.7308 27.9055 40.8772 27.395 40.8333 26.8828C40.7894 26.3705 40.5583 25.8924 40.184 25.5399C39.8098 25.1873 39.3187 24.9851 38.8048 24.9718C38.15 22.611 36.7379 20.5306 34.7856 19.0505C32.8332 17.5704 30.4488 16.7725 27.9989 16.7796ZM16.8152 29.2987C16.9679 29.147 17.1605 29.0417 17.3706 28.9952C17.3809 28.9928 17.3906 28.9892 17.4009 28.986C17.6705 28.9323 17.9504 28.9773 18.1896 29.1128C18.4288 29.2483 18.6114 29.4653 18.7039 29.7241C18.7965 29.983 18.793 30.2665 18.694 30.5229C18.5949 30.7794 18.407 30.9917 18.1645 31.1212C17.922 31.2507 17.641 31.2887 17.3729 31.2283C17.1047 31.1679 16.8671 31.0131 16.7035 30.7921C16.54 30.5712 16.4612 30.2988 16.4817 30.0246C16.5022 29.7505 16.6206 29.4928 16.8152 29.2987ZM37.0365 32.8949C36.114 34.5974 34.7295 36.0047 33.0423 36.9549C31.3551 37.905 29.4338 38.3594 27.4998 38.2656C25.5657 38.1718 23.6974 37.5336 22.1101 36.4246C20.5228 35.3156 19.281 33.7809 18.5276 31.9971C18.9488 31.7971 19.291 31.4619 19.4996 31.0449C19.7083 30.6278 19.7713 30.153 19.6788 29.6959C19.5862 29.2389 19.3434 28.826 18.9889 28.523C18.6345 28.22 18.1888 28.0443 17.723 28.024C17.723 28.0167 17.723 28.0091 17.723 28.0018C17.7234 25.5249 18.6184 23.1314 20.2432 21.2618C21.868 19.3922 24.1133 18.1722 26.566 17.8264C29.0187 17.4805 31.5138 18.0321 33.5922 19.3796C35.6706 20.727 37.1925 22.7797 37.8778 25.16C37.4853 25.3386 37.1576 25.6343 36.9398 26.0065C36.7221 26.3788 36.6249 26.8093 36.6617 27.239C36.6985 27.6687 36.8674 28.0765 37.1452 28.4063C37.4231 28.7361 37.7962 28.9718 38.2134 29.081C38.1813 29.3856 38.14 29.6948 38.0784 30.0101C37.878 31.0186 37.5268 31.9911 37.0365 32.8949ZM39.5586 27.8728C39.432 27.9996 39.2774 28.0951 39.1072 28.1514C38.9371 28.2078 38.7561 28.2235 38.5788 28.1973C38.4015 28.1711 38.2327 28.1037 38.0861 28.0006C37.9395 27.8975 37.8191 27.7614 37.7346 27.6034C37.65 27.4453 37.6037 27.2697 37.5993 27.0905C37.5948 26.9113 37.6324 26.7335 37.7091 26.5715C37.7857 26.4095 37.8992 26.2676 38.0406 26.1574C38.1819 26.0471 38.3471 25.9715 38.5229 25.9366C38.531 25.9366 38.5393 25.9349 38.5474 25.9333C38.6134 25.9212 38.6802 25.9147 38.7472 25.9142C38.9741 25.9144 39.1958 25.9818 39.3843 26.108C39.5728 26.2341 39.7196 26.4133 39.8063 26.623C39.893 26.8326 39.9156 27.0632 39.8713 27.2856C39.827 27.5081 39.7177 27.7124 39.5573 27.8728H39.5586Z" fill="url(#paint2_linear)"/>
<path d="M25.1436 25.1457C24.5789 25.7105 24.1943 26.43 24.0385 27.2132C23.8827 27.9965 23.9627 28.8084 24.2683 29.5462C24.574 30.2841 25.0915 30.9147 25.7555 31.3584C26.4196 31.8021 27.2003 32.0389 27.9989 32.0389C28.7975 32.0389 29.5782 31.8021 30.2422 31.3584C30.9062 30.9147 31.4238 30.2841 31.7294 29.5462C32.0351 28.8084 32.115 27.9965 31.9592 27.2132C31.8034 26.43 31.4189 25.7105 30.8542 25.1457C30.0963 24.3896 29.0695 23.9649 27.9989 23.9649C26.9283 23.9649 25.9014 24.3896 25.1436 25.1457ZM30.1859 30.1881C29.7534 30.6202 29.2026 30.9144 28.6029 31.0334C28.0033 31.1525 27.3819 31.0911 26.8171 30.857C26.2524 30.623 25.7697 30.2267 25.4301 29.7184C25.0905 29.21 24.9093 28.6124 24.9093 28.0011C24.9093 27.3897 25.0905 26.7921 25.4301 26.2838C25.7697 25.7754 26.2524 25.3792 26.8171 25.1451C27.3819 24.911 28.0033 24.8496 28.6029 24.9687C29.2026 25.0878 29.7534 25.3819 30.1859 25.814C30.765 26.3945 31.0903 27.1811 31.0903 28.0011C31.0903 28.8211 30.765 29.6076 30.1859 30.1881Z" fill="url(#paint3_linear)"/>
<defs>
<linearGradient id="paint0_linear" x1="56" y1="84" x2="112" y2="84" gradientUnits="userSpaceOnUse">
<stop offset="0.0520833" stop-color="#FF8C3E" stop-opacity="0"/>
<stop offset="1" stop-color="#FF5968"/>
</linearGradient>
<linearGradient id="paint1_linear" x1="12" y1="28" x2="43.9959" y2="28" gradientUnits="userSpaceOnUse">
<stop stop-color="#FF8D3D"/>
<stop offset="1" stop-color="#FF5969"/>
</linearGradient>
<linearGradient id="paint2_linear" x1="15.533" y1="28.0012" x2="40.841" y2="28.0012" gradientUnits="userSpaceOnUse">
<stop stop-color="#FF8D3D"/>
<stop offset="1" stop-color="#FF5969"/>
</linearGradient>
<linearGradient id="paint3_linear" x1="23.9609" y1="28.0019" x2="32.0368" y2="28.0019" gradientUnits="userSpaceOnUse">
<stop stop-color="#FF8D3D"/>
<stop offset="1" stop-color="#FF5969"/>
</linearGradient>
</defs>
</svg>
