<svg width="40" height="40" viewBox="0 0 40 40" fill="none" xmlns="http://www.w3.org/2000/svg">
<rect x="0.25" y="0.25" width="39.5" height="39.5" rx="19.75" stroke="white" stroke-width="0.5"/>
<path d="M24.8595 28C24.1938 28 23.3897 27.8332 22.5055 27.4995C20.5671 26.7687 18.4581 25.3243 16.567 23.4332C14.6753 21.5415 13.2309 19.432 12.4995 17.4935C11.8349 15.731 11.8333 14.2845 12.4958 13.6225C12.591 13.5273 12.6879 13.425 12.788 13.3195C13.3924 12.684 14.0753 11.9688 14.9805 12.0011C15.6042 12.0269 16.2085 12.4144 16.8274 13.1845C18.6561 15.4587 17.8316 16.2692 16.8775 17.2088L16.709 17.3757C16.553 17.5317 16.2581 18.2545 19.0016 20.998C19.8971 21.8935 20.6607 22.549 21.271 22.9456C21.6553 23.1953 22.3425 23.5731 22.6245 23.2911L22.794 23.12C23.7326 22.168 24.543 21.3462 26.8157 23.1732C27.5858 23.7921 27.9727 24.3959 27.9985 25.0207C28.0357 25.9254 27.3151 26.6099 26.679 27.2137C26.574 27.3138 26.4718 27.4107 26.3765 27.5054C26.0477 27.8348 25.5219 28 24.8595 28ZM14.9159 12.5381C14.2728 12.5381 13.6921 13.1495 13.1782 13.6903C13.0748 13.799 12.9747 13.9045 12.8763 14.003C12.3828 14.496 12.4328 15.7913 13.0033 17.3041C13.7083 19.1726 15.1091 21.2143 16.948 23.0532C18.7863 24.8911 20.827 26.2919 22.6961 26.9963C24.2088 27.5679 25.5042 27.6163 25.9966 27.1239C26.0951 27.0254 26.2006 26.9253 26.3093 26.8225C26.862 26.2973 27.4889 25.7021 27.4615 25.0417C27.4426 24.5881 27.1122 24.1 26.4793 23.5914C24.5855 22.0684 24.056 22.606 23.1777 23.4967L23.0055 23.6705C22.5857 24.0908 21.9039 23.9977 20.9783 23.396C20.3362 22.9784 19.543 22.2993 18.6217 21.3774C16.3447 19.101 15.6166 17.7077 16.3291 16.9936L16.5008 16.824C17.3936 15.9458 17.9323 15.4157 16.4087 13.5208C15.8991 12.8885 15.4115 12.558 14.9579 12.5387C14.9439 12.5381 14.9299 12.5381 14.9159 12.5381Z" fill="white"/>
</svg>
