<svg width="56" height="56" viewBox="0 0 56 56" fill="none" xmlns="http://www.w3.org/2000/svg">
<rect x="55.5" y="55.5" width="55" height="55" rx="4.5" transform="rotate(-180 55.5 55.5)" stroke="url(#paint0_linear)"/>
<path d="M29.4728 28.3446L29.4728 28.3446L29.4742 28.3451C30.0862 28.5815 30.5892 29.0361 30.8862 29.6211C31.5503 30.9296 31.0279 32.5287 29.7195 33.1928L29.7188 33.1932C29.0215 33.5497 28.2049 33.5899 27.476 33.3038L25.2864 32.4436L25.9804 30.6754L28.1697 31.5351C28.17 31.5352 28.1702 31.5353 28.1705 31.5354C28.3908 31.6231 28.6381 31.6116 28.8493 31.504C29.049 31.4048 29.1956 31.2237 29.2511 31.0078L29.2511 31.0078L29.2517 31.0054C29.3445 30.6292 29.1386 30.2439 28.7749 30.1116L27.3286 29.5433L27.3286 29.5433L27.3272 29.5428C26.7152 29.3064 26.2122 28.852 25.9152 28.2668L25.9152 28.2668C25.2511 26.9583 25.7735 25.3592 27.082 24.6951L27.082 24.6951L27.083 24.6946C27.7797 24.3368 28.5967 24.2966 29.325 24.584L29.3254 24.5841L31.515 25.4443L30.821 27.2126L28.6323 26.3531C28.4116 26.2626 28.1621 26.274 27.9506 26.3847C27.7517 26.484 27.6057 26.6648 27.5503 26.8802L27.5503 26.8802L27.5497 26.8825C27.457 27.2587 27.6628 27.644 28.0265 27.7763L29.4728 28.3446Z" fill="url(#paint1_linear)" stroke="#1C2139" stroke-width="0.5"/>
<path d="M44.3097 17.3456L44.3095 17.3457L37.0732 19.9765L37.0729 19.9767C33.6767 21.2074 29.881 20.5174 27.1354 18.1699L27.1354 18.1698C24.6701 16.0608 21.442 15.0657 18.2171 15.4205L12.1062 16.0989C12.1062 16.0989 12.1062 16.0989 12.1062 16.0989C11.6757 16.1467 11.3499 16.5108 11.35 16.9439L11.35 16.944L11.35 35.6224C11.35 36.0921 11.7307 36.4727 12.2004 36.4727C12.2319 36.4727 12.2629 36.471 12.2931 36.4676L12.2938 36.4675L18.3972 35.79C21.1005 35.3655 23.859 36.0801 26.0162 37.7643L26.0224 37.7691L26.0284 37.7742C29.2397 40.5222 33.6811 41.33 37.6542 39.8886L44.3097 17.3456ZM44.3097 17.3456C44.4029 17.3116 44.5013 17.2943 44.6006 17.2943C45.0698 17.2943 45.4501 17.6747 45.4498 18.1438V18.144V36.4581V36.4584C45.4502 36.8156 45.2267 37.1346 44.8908 37.2565L44.8905 37.2566L37.6544 39.8885L44.3097 17.3456ZM13.3615 17.6707L13.0501 17.7053V18.0186V22.6479V23.1517L13.5223 22.9759C15.9235 22.0816 17.7369 20.0713 18.3797 17.591L18.5071 17.0993L18.0022 17.1553L13.3615 17.6707ZM13.0501 34.2819V34.6729L13.4388 34.6298L18.0762 34.1147L18.4804 34.0698L18.3758 33.6767C17.8097 31.5509 15.7815 30.1524 13.5934 30.3794C13.5931 30.3795 13.5927 30.3795 13.5924 30.3795L13.3656 30.402L13.0501 30.4333V30.7503V34.2819ZM43.5198 35.9467L43.7501 35.8629V35.6178V32.0508V31.5391L43.2732 31.7246C40.8808 32.6554 39.0962 34.6996 38.4968 37.1958L38.3448 37.8291L38.9568 37.6065L43.5198 35.9467ZM43.5005 29.8263L43.7501 29.7516V29.491V26.781V26.4063L43.3763 26.4318C43.3164 26.4359 43.2542 26.443 43.2019 26.4489C43.1883 26.4505 43.1754 26.4519 43.1633 26.4533C43.0991 26.4603 43.0489 26.4646 43.004 26.4646L43.0024 26.4646C41.9481 26.4695 40.9196 26.1386 40.0659 25.52C38.8951 24.6491 38.1089 23.357 37.8735 21.9169L37.8068 21.5087L37.4153 21.642C33.5004 22.9747 29.173 22.1454 26.0281 19.4599C24.4758 18.1327 22.5555 17.3106 20.5236 17.1033L20.2027 17.0705L20.144 17.3877C19.4803 20.9683 16.8231 23.8516 13.3085 24.8051L13.0501 24.8751V25.1428V28.3389V28.7255L13.4349 28.6872C16.6437 28.3673 19.5607 30.5643 20.1394 33.7367L20.191 34.0196L20.4786 34.0239C22.9143 34.0601 25.2642 34.9286 27.1376 36.4855C29.6855 38.6563 33.1496 39.4106 36.3695 38.4956L36.602 38.4295L36.6225 38.1886C36.9555 34.2775 39.6501 30.9695 43.413 29.8525L43.4138 29.8523L43.5005 29.8263ZM43.445 24.7332L43.7501 24.6937V24.3861V19.8573V19.3577L43.2806 19.5283L39.7307 20.8186L39.4861 20.9075L39.5008 21.1673C39.5665 22.3309 40.1296 23.4103 41.0466 24.1298L41.0534 24.1352L41.0604 24.1401C41.7525 24.6303 42.604 24.842 43.445 24.7332Z" fill="url(#paint2_linear)" stroke="#1C2139" stroke-width="0.7"/>
<defs>
<linearGradient id="paint0_linear" x1="56" y1="84" x2="112" y2="84" gradientUnits="userSpaceOnUse">
<stop offset="0.0520833" stop-color="#FF8C3E" stop-opacity="0"/>
<stop offset="1" stop-color="#FF5968"/>
</linearGradient>
<linearGradient id="paint1_linear" x1="24.9624" y1="28.9434" x2="31.839" y2="28.9434" gradientUnits="userSpaceOnUse">
<stop stop-color="#FF8D3D"/>
<stop offset="1" stop-color="#FF5969"/>
</linearGradient>
<linearGradient id="paint2_linear" x1="11" y1="27.971" x2="45.7998" y2="27.971" gradientUnits="userSpaceOnUse">
<stop stop-color="#FF8D3D"/>
<stop offset="1" stop-color="#FF5969"/>
</linearGradient>
</defs>
</svg>
