<svg width="56" height="56" viewBox="0 0 56 56" fill="none" xmlns="http://www.w3.org/2000/svg">
<rect x="55.5" y="55.5" width="55" height="55" rx="4.5" transform="rotate(-180 55.5 55.5)" stroke="url(#paint0_linear)"/>
<mask id="path-2-inside-1" fill="white">
<path d="M39.374 25.8423C39.1469 25.2051 38.5431 24.7801 37.8667 24.7813C37.1909 24.7833 36.5895 25.2105 36.3649 25.8479H33.0667V23.7146H35.2C35.4945 23.7147 35.7333 23.476 35.7333 23.1815C35.7333 23.1815 35.7333 23.1813 35.7333 23.1813V20.9497C36.5665 20.6551 37.0031 19.741 36.7086 18.9078C36.4141 18.0747 35.4999 17.638 34.6667 17.9325C33.8335 18.2271 33.3969 19.1412 33.6915 19.9744C33.8525 20.4301 34.211 20.7885 34.6667 20.9497V22.648H33.0667V21.5813C33.0667 21.2869 32.8281 21.0481 32.5336 21.048C32.5335 21.048 32.5334 21.048 32.5333 21.048H31.4667V18.2829C32.2998 17.9884 32.7365 17.0743 32.4419 16.2411C32.1474 15.4079 31.2333 14.9713 30.4001 15.2658C29.5669 15.5603 29.1303 16.4745 29.4248 17.3077C29.5859 17.7633 29.9443 18.1218 30.4 18.2829V21.0479H28.2667V12.5333C28.2667 12.2389 28.0281 12.0001 27.7336 12C27.7335 12 27.7334 12 27.7333 12C21.1539 12 16 16.7635 16 22.8443C16 25.7328 17.1466 29.5573 18.9927 32.8245C19.3243 33.4109 19.7568 34.0276 20.2146 34.6807C21.1827 36.0607 22.26 37.6125 22.3771 38.9633C21.9671 39.2531 21.7272 39.7271 21.7365 40.2291C21.738 40.5897 21.8625 40.9391 22.0895 41.2193C21.7738 41.5308 21.5973 41.9565 21.6 42.4C21.6009 43.2833 22.3167 43.9991 23.2 44H32.2667C33.1559 43.9945 33.8724 43.2691 33.8669 42.3799C33.8668 42.3741 33.8667 42.3683 33.8667 42.3625C33.8663 41.9287 33.6891 41.5138 33.3758 41.2137C33.6057 40.9226 33.7305 40.5625 33.7302 40.1916C33.7286 39.3469 33.0425 38.6634 32.1978 38.665C32.1753 38.6651 32.1527 38.6656 32.1302 38.6666H28.2667V28.5145H29.3333V30.1145C29.3333 30.409 29.5719 30.6478 29.8664 30.6479C29.8665 30.6479 29.8666 30.6479 29.8667 30.6479H31.4667V31.2795C30.6335 31.574 30.1969 32.4882 30.4915 33.3213C30.7861 34.1543 31.7003 34.591 32.5333 34.2964C33.3665 34.0019 33.8031 33.0877 33.5085 32.2546C33.3474 31.7989 32.9889 31.4405 32.5333 31.2795V30.1145C32.5334 29.8201 32.2947 29.5813 32.0003 29.5812C32.0002 29.5812 32.0001 29.5812 32 29.5812H30.4V28.5145H32.5333C32.8278 28.5146 33.0666 28.2759 33.0667 27.9815C33.0667 27.9814 33.0667 27.9813 33.0667 27.9812V26.9145H36.365C36.6611 27.7455 37.5747 28.179 38.4057 27.8829C39.2365 27.5868 39.6701 26.6732 39.374 25.8423ZM35.2 18.9145C35.4945 18.9145 35.7333 19.1533 35.7333 19.4479C35.7333 19.7424 35.4945 19.9812 35.2 19.9812C34.9055 19.9812 34.6667 19.7424 34.6667 19.4479C34.6669 19.1535 34.9056 18.9149 35.2 18.9145ZM21.088 34.0682C20.6453 33.4369 20.2273 32.8411 19.9213 32.2995C18.1873 29.2302 17.0667 25.5187 17.0667 22.8443C17.0667 17.5255 21.4758 13.3245 27.2 13.0781V16.804C27.0584 16.8146 26.9139 16.8275 26.7594 16.8464C26.533 16.8739 26.3492 17.0425 26.3021 17.2657L26.1396 18.0386C26.0057 18.0704 25.8723 18.1063 25.7391 18.1464L25.2075 17.5537C25.0553 17.3833 24.8114 17.3291 24.6013 17.4188C24.0043 17.6762 23.4409 18.0052 22.9234 18.3985C22.7412 18.5358 22.6666 18.7739 22.7377 18.9907L22.9825 19.7365C22.8817 19.8313 22.7836 19.9297 22.6885 20.0303L21.9435 19.7855C21.7267 19.7153 21.4893 19.7896 21.3513 19.9709C20.9575 20.4885 20.6282 21.0522 20.3708 21.6495C20.2812 21.8597 20.3355 22.1035 20.5057 22.2558L21.0987 22.7871C21.0588 22.9189 21.0231 23.0509 20.9917 23.1834L20.1623 23.349C19.9129 23.3987 19.7334 23.6177 19.7334 23.8719V25.6906C19.7334 25.9449 19.9129 26.1638 20.1623 26.2135L20.9917 26.3791C21.0233 26.5114 21.0589 26.6435 21.0987 26.7755L20.5055 27.3067C20.3355 27.4592 20.2813 27.7029 20.3707 27.913C20.6281 28.5103 20.9573 29.074 21.3511 29.5917C21.489 29.7731 21.7266 29.8475 21.9433 29.7771L22.6884 29.5323C22.7837 29.6328 22.8816 29.7312 22.9824 29.826L22.7376 30.5708C22.6665 30.7875 22.741 31.0255 22.923 31.163C23.4405 31.5569 24.0042 31.8862 24.6014 32.1437C24.8115 32.2329 25.0551 32.1787 25.2077 32.0089L25.7392 31.4161C25.8723 31.4563 26.0058 31.4922 26.1397 31.5239L26.302 32.2963C26.3489 32.5197 26.5327 32.6885 26.7593 32.7161C26.914 32.7351 27.0585 32.7479 27.2001 32.7585V38.6667H23.4208C23.2027 37.0949 22.0894 35.496 21.088 34.0682ZM22.9333 24.7812C22.9367 27.2241 24.7725 29.2758 27.2 29.5497V31.3838L27.1117 30.964C27.0672 30.7514 26.8982 30.587 26.6844 30.5484C26.3683 30.4909 26.0575 30.4071 25.7553 30.2979C25.6973 30.2773 25.6363 30.2667 25.5748 30.2666C25.4232 30.2666 25.2787 30.3312 25.1777 30.4442L24.6761 31.0036C24.3982 30.8647 24.13 30.7072 23.8733 30.5323L24.1048 29.8276C24.1726 29.6211 24.1084 29.3941 23.9425 29.2537C23.6966 29.0455 23.4683 28.8173 23.26 28.5714C23.1191 28.4067 22.8929 28.3429 22.6868 28.4099L21.9824 28.6417C21.8073 28.3849 21.6498 28.1166 21.5108 27.8386L22.0707 27.3371C22.2321 27.1921 22.2899 26.9638 22.2167 26.7595C22.1077 26.4572 22.0239 26.1464 21.9662 25.8303C21.9273 25.6148 21.7605 25.445 21.5456 25.4022L20.8 25.2531V24.3094L21.5456 24.1605C21.7604 24.1177 21.9273 23.9479 21.9662 23.7323C22.0239 23.4161 22.1077 23.1051 22.2167 22.8026C22.2899 22.5982 22.2321 22.3699 22.0703 22.225L21.5109 21.7239C21.6501 21.4461 21.8075 21.1777 21.9823 20.9208L22.6869 21.1526C22.8931 21.2195 23.1192 21.1559 23.2601 20.9911C23.4689 20.7451 23.6974 20.5164 23.9432 20.3073C24.1084 20.1671 24.1723 19.9407 24.1047 19.7349L23.8734 19.0302C24.1301 18.8553 24.3983 18.6979 24.676 18.5589L25.1775 19.1183C25.3226 19.2796 25.5507 19.3374 25.7551 19.2646C26.0573 19.1553 26.3681 19.0715 26.6843 19.0141C26.898 18.9757 27.067 18.8115 27.1116 18.5989L27.2 18.1791V20.0127C24.7725 20.2867 22.9367 22.3383 22.9333 24.7812ZM27.2 21.0905V28.4719C25.1617 28.1801 23.7458 26.2911 24.0376 24.2528C24.2723 22.6133 25.5605 21.3252 27.2 21.0905ZM32.8 42.4C32.7997 42.6944 32.5611 42.9331 32.2667 42.9333H23.2C22.9001 42.9283 22.661 42.681 22.6661 42.3811C22.6662 42.3749 22.6664 42.3687 22.6667 42.3625C22.6669 42.0681 22.9056 41.8294 23.2 41.8291H32.2667C32.5666 41.8342 32.8057 42.0815 32.8006 42.3814C32.8005 42.3876 32.8003 42.3938 32.8 42.4ZM32.1302 39.7333C32.3989 39.7085 32.6368 39.9063 32.6615 40.175C32.6632 40.193 32.6639 40.2111 32.6635 40.2291C32.6633 40.5235 32.4246 40.7622 32.1302 40.7625H23.3365C23.0365 40.7574 22.7975 40.5102 22.8025 40.2102C22.8027 40.204 22.8029 40.1978 22.8031 40.1916C22.8145 39.9257 23.0393 39.7195 23.3052 39.7309C23.3157 39.7314 23.3261 39.7322 23.3365 39.7333H32.1302V39.7333ZM32 32.2479C32.2945 32.2479 32.5333 32.4867 32.5333 32.7812C32.5333 33.0757 32.2945 33.3145 32 33.3145C31.7055 33.3145 31.4667 33.0757 31.4667 32.7812C31.4669 32.4868 31.7056 32.2482 32 32.2479ZM30.9333 16.2479C31.2279 16.2479 31.4667 16.4867 31.4667 16.7812C31.4667 17.0757 31.2279 17.3145 30.9333 17.3145C30.6388 17.3145 30.4 17.0757 30.4 16.7812C30.4003 16.4868 30.6389 16.2482 30.9333 16.2479ZM32 27.4479H28.2667V22.1145H32V27.4479ZM37.8667 26.9145C37.5721 26.9145 37.3333 26.6757 37.3333 26.3812C37.3333 26.0867 37.5721 25.8479 37.8667 25.8479C38.1612 25.8479 38.4 26.0867 38.4 26.3812C38.3997 26.6757 38.1611 26.9143 37.8667 26.9145Z"/>
</mask>
<path d="M39.374 25.8423C39.1469 25.2051 38.5431 24.7801 37.8667 24.7813C37.1909 24.7833 36.5895 25.2105 36.3649 25.8479H33.0667V23.7146H35.2C35.4945 23.7147 35.7333 23.476 35.7333 23.1815C35.7333 23.1815 35.7333 23.1813 35.7333 23.1813V20.9497C36.5665 20.6551 37.0031 19.741 36.7086 18.9078C36.4141 18.0747 35.4999 17.638 34.6667 17.9325C33.8335 18.2271 33.3969 19.1412 33.6915 19.9744C33.8525 20.4301 34.211 20.7885 34.6667 20.9497V22.648H33.0667V21.5813C33.0667 21.2869 32.8281 21.0481 32.5336 21.048C32.5335 21.048 32.5334 21.048 32.5333 21.048H31.4667V18.2829C32.2998 17.9884 32.7365 17.0743 32.4419 16.2411C32.1474 15.4079 31.2333 14.9713 30.4001 15.2658C29.5669 15.5603 29.1303 16.4745 29.4248 17.3077C29.5859 17.7633 29.9443 18.1218 30.4 18.2829V21.0479H28.2667V12.5333C28.2667 12.2389 28.0281 12.0001 27.7336 12C27.7335 12 27.7334 12 27.7333 12C21.1539 12 16 16.7635 16 22.8443C16 25.7328 17.1466 29.5573 18.9927 32.8245C19.3243 33.4109 19.7568 34.0276 20.2146 34.6807C21.1827 36.0607 22.26 37.6125 22.3771 38.9633C21.9671 39.2531 21.7272 39.7271 21.7365 40.2291C21.738 40.5897 21.8625 40.9391 22.0895 41.2193C21.7738 41.5308 21.5973 41.9565 21.6 42.4C21.6009 43.2833 22.3167 43.9991 23.2 44H32.2667C33.1559 43.9945 33.8724 43.2691 33.8669 42.3799C33.8668 42.3741 33.8667 42.3683 33.8667 42.3625C33.8663 41.9287 33.6891 41.5138 33.3758 41.2137C33.6057 40.9226 33.7305 40.5625 33.7302 40.1916C33.7286 39.3469 33.0425 38.6634 32.1978 38.665C32.1753 38.6651 32.1527 38.6656 32.1302 38.6666H28.2667V28.5145H29.3333V30.1145C29.3333 30.409 29.5719 30.6478 29.8664 30.6479C29.8665 30.6479 29.8666 30.6479 29.8667 30.6479H31.4667V31.2795C30.6335 31.574 30.1969 32.4882 30.4915 33.3213C30.7861 34.1543 31.7003 34.591 32.5333 34.2964C33.3665 34.0019 33.8031 33.0877 33.5085 32.2546C33.3474 31.7989 32.9889 31.4405 32.5333 31.2795V30.1145C32.5334 29.8201 32.2947 29.5813 32.0003 29.5812C32.0002 29.5812 32.0001 29.5812 32 29.5812H30.4V28.5145H32.5333C32.8278 28.5146 33.0666 28.2759 33.0667 27.9815C33.0667 27.9814 33.0667 27.9813 33.0667 27.9812V26.9145H36.365C36.6611 27.7455 37.5747 28.179 38.4057 27.8829C39.2365 27.5868 39.6701 26.6732 39.374 25.8423ZM35.2 18.9145C35.4945 18.9145 35.7333 19.1533 35.7333 19.4479C35.7333 19.7424 35.4945 19.9812 35.2 19.9812C34.9055 19.9812 34.6667 19.7424 34.6667 19.4479C34.6669 19.1535 34.9056 18.9149 35.2 18.9145ZM21.088 34.0682C20.6453 33.4369 20.2273 32.8411 19.9213 32.2995C18.1873 29.2302 17.0667 25.5187 17.0667 22.8443C17.0667 17.5255 21.4758 13.3245 27.2 13.0781V16.804C27.0584 16.8146 26.9139 16.8275 26.7594 16.8464C26.533 16.8739 26.3492 17.0425 26.3021 17.2657L26.1396 18.0386C26.0057 18.0704 25.8723 18.1063 25.7391 18.1464L25.2075 17.5537C25.0553 17.3833 24.8114 17.3291 24.6013 17.4188C24.0043 17.6762 23.4409 18.0052 22.9234 18.3985C22.7412 18.5358 22.6666 18.7739 22.7377 18.9907L22.9825 19.7365C22.8817 19.8313 22.7836 19.9297 22.6885 20.0303L21.9435 19.7855C21.7267 19.7153 21.4893 19.7896 21.3513 19.9709C20.9575 20.4885 20.6282 21.0522 20.3708 21.6495C20.2812 21.8597 20.3355 22.1035 20.5057 22.2558L21.0987 22.7871C21.0588 22.9189 21.0231 23.0509 20.9917 23.1834L20.1623 23.349C19.9129 23.3987 19.7334 23.6177 19.7334 23.8719V25.6906C19.7334 25.9449 19.9129 26.1638 20.1623 26.2135L20.9917 26.3791C21.0233 26.5114 21.0589 26.6435 21.0987 26.7755L20.5055 27.3067C20.3355 27.4592 20.2813 27.7029 20.3707 27.913C20.6281 28.5103 20.9573 29.074 21.3511 29.5917C21.489 29.7731 21.7266 29.8475 21.9433 29.7771L22.6884 29.5323C22.7837 29.6328 22.8816 29.7312 22.9824 29.826L22.7376 30.5708C22.6665 30.7875 22.741 31.0255 22.923 31.163C23.4405 31.5569 24.0042 31.8862 24.6014 32.1437C24.8115 32.2329 25.0551 32.1787 25.2077 32.0089L25.7392 31.4161C25.8723 31.4563 26.0058 31.4922 26.1397 31.5239L26.302 32.2963C26.3489 32.5197 26.5327 32.6885 26.7593 32.7161C26.914 32.7351 27.0585 32.7479 27.2001 32.7585V38.6667H23.4208C23.2027 37.0949 22.0894 35.496 21.088 34.0682ZM22.9333 24.7812C22.9367 27.2241 24.7725 29.2758 27.2 29.5497V31.3838L27.1117 30.964C27.0672 30.7514 26.8982 30.587 26.6844 30.5484C26.3683 30.4909 26.0575 30.4071 25.7553 30.2979C25.6973 30.2773 25.6363 30.2667 25.5748 30.2666C25.4232 30.2666 25.2787 30.3312 25.1777 30.4442L24.6761 31.0036C24.3982 30.8647 24.13 30.7072 23.8733 30.5323L24.1048 29.8276C24.1726 29.6211 24.1084 29.3941 23.9425 29.2537C23.6966 29.0455 23.4683 28.8173 23.26 28.5714C23.1191 28.4067 22.8929 28.3429 22.6868 28.4099L21.9824 28.6417C21.8073 28.3849 21.6498 28.1166 21.5108 27.8386L22.0707 27.3371C22.2321 27.1921 22.2899 26.9638 22.2167 26.7595C22.1077 26.4572 22.0239 26.1464 21.9662 25.8303C21.9273 25.6148 21.7605 25.445 21.5456 25.4022L20.8 25.2531V24.3094L21.5456 24.1605C21.7604 24.1177 21.9273 23.9479 21.9662 23.7323C22.0239 23.4161 22.1077 23.1051 22.2167 22.8026C22.2899 22.5982 22.2321 22.3699 22.0703 22.225L21.5109 21.7239C21.6501 21.4461 21.8075 21.1777 21.9823 20.9208L22.6869 21.1526C22.8931 21.2195 23.1192 21.1559 23.2601 20.9911C23.4689 20.7451 23.6974 20.5164 23.9432 20.3073C24.1084 20.1671 24.1723 19.9407 24.1047 19.7349L23.8734 19.0302C24.1301 18.8553 24.3983 18.6979 24.676 18.5589L25.1775 19.1183C25.3226 19.2796 25.5507 19.3374 25.7551 19.2646C26.0573 19.1553 26.3681 19.0715 26.6843 19.0141C26.898 18.9757 27.067 18.8115 27.1116 18.5989L27.2 18.1791V20.0127C24.7725 20.2867 22.9367 22.3383 22.9333 24.7812ZM27.2 21.0905V28.4719C25.1617 28.1801 23.7458 26.2911 24.0376 24.2528C24.2723 22.6133 25.5605 21.3252 27.2 21.0905ZM32.8 42.4C32.7997 42.6944 32.5611 42.9331 32.2667 42.9333H23.2C22.9001 42.9283 22.661 42.681 22.6661 42.3811C22.6662 42.3749 22.6664 42.3687 22.6667 42.3625C22.6669 42.0681 22.9056 41.8294 23.2 41.8291H32.2667C32.5666 41.8342 32.8057 42.0815 32.8006 42.3814C32.8005 42.3876 32.8003 42.3938 32.8 42.4ZM32.1302 39.7333C32.3989 39.7085 32.6368 39.9063 32.6615 40.175C32.6632 40.193 32.6639 40.2111 32.6635 40.2291C32.6633 40.5235 32.4246 40.7622 32.1302 40.7625H23.3365C23.0365 40.7574 22.7975 40.5102 22.8025 40.2102C22.8027 40.204 22.8029 40.1978 22.8031 40.1916C22.8145 39.9257 23.0393 39.7195 23.3052 39.7309C23.3157 39.7314 23.3261 39.7322 23.3365 39.7333H32.1302V39.7333ZM32 32.2479C32.2945 32.2479 32.5333 32.4867 32.5333 32.7812C32.5333 33.0757 32.2945 33.3145 32 33.3145C31.7055 33.3145 31.4667 33.0757 31.4667 32.7812C31.4669 32.4868 31.7056 32.2482 32 32.2479ZM30.9333 16.2479C31.2279 16.2479 31.4667 16.4867 31.4667 16.7812C31.4667 17.0757 31.2279 17.3145 30.9333 17.3145C30.6388 17.3145 30.4 17.0757 30.4 16.7812C30.4003 16.4868 30.6389 16.2482 30.9333 16.2479ZM32 27.4479H28.2667V22.1145H32V27.4479ZM37.8667 26.9145C37.5721 26.9145 37.3333 26.6757 37.3333 26.3812C37.3333 26.0867 37.5721 25.8479 37.8667 25.8479C38.1612 25.8479 38.4 26.0867 38.4 26.3812C38.3997 26.6757 38.1611 26.9143 37.8667 26.9145Z" fill="url(#paint1_linear)" stroke="#1B2038" stroke-width="0.4" mask="url(#path-2-inside-1)"/>
<defs>
<linearGradient id="paint0_linear" x1="56" y1="84" x2="112" y2="84" gradientUnits="userSpaceOnUse">
<stop offset="0.0520833" stop-color="#FF8C3E" stop-opacity="0"/>
<stop offset="1" stop-color="#FF5968"/>
</linearGradient>
<linearGradient id="paint1_linear" x1="16" y1="28" x2="39.4671" y2="28" gradientUnits="userSpaceOnUse">
<stop stop-color="#FF8D3D"/>
<stop offset="1" stop-color="#FF5969"/>
</linearGradient>
</defs>
</svg>
