<svg width="311" height="400" viewBox="0 0 311 400" fill="none" xmlns="http://www.w3.org/2000/svg">
<path d="M231.433 287.878C232.651 288.243 233.702 289.025 234.401 290.086C235.1 291.148 235.403 292.422 235.256 293.685C235.033 295.243 234.274 296.675 233.11 297.735C231.946 298.795 230.449 299.416 228.876 299.492C226.495 298.986 224.034 298.986 221.653 299.492C218.401 300.485 211.177 303.314 208.472 301.974C205.766 300.634 202.961 297.482 205.791 295.05C211.065 291.544 216.964 289.084 223.167 287.803C225.891 287.189 228.721 287.215 231.433 287.878Z" fill="url(#paint0_linear)"/>
<path d="M276.461 297.284C277.681 297.644 278.735 298.425 279.435 299.488C280.134 300.551 280.435 301.828 280.283 303.091C280.061 304.645 279.306 306.074 278.147 307.133C276.988 308.192 275.497 308.816 273.929 308.898C271.547 308.392 269.086 308.392 266.705 308.898C263.428 309.866 256.205 312.72 253.524 311.38C250.843 310.04 247.988 306.888 250.843 304.456C256.125 300.969 262.021 298.518 268.219 297.234C270.933 296.611 273.755 296.628 276.461 297.284Z" fill="url(#paint1_linear)"/>
<path d="M227.61 187.866L219.344 238.021L223.068 292.097C223.068 292.097 230.515 297.756 232.426 292.097C234.337 286.439 234.089 239.981 234.089 239.981L246.501 208.216L253.377 245.069L268.271 300.535C268.271 300.535 275.072 305.052 277.058 300.535C278.051 298.227 268.196 245.193 268.196 245.193L271.771 193.077L227.61 187.866Z" fill="url(#paint2_linear)"/>
<path d="M205.791 189.454C205.791 189.454 204.153 196.899 202.291 197.619C200.429 198.338 200.653 193.921 200.653 193.921C198.656 195.818 196.254 197.236 193.628 198.065C190.376 198.636 184.071 193.623 186.677 190.62C189.284 187.617 196.457 183.175 200.578 183.845C204.699 184.515 205.791 189.454 205.791 189.454Z" fill="#ED90A5"/>
<path d="M197.847 184.217L206.486 190.893C206.486 190.893 229.919 163.42 228.206 155.851C226.493 148.282 224.358 149.82 220.014 152.749C215.67 155.677 197.847 184.217 197.847 184.217Z" fill="url(#paint3_linear)"/>
<path d="M241.981 117.211C236.669 112.744 228.775 113.29 224.332 130.116C219.889 146.942 217.903 152.451 218.449 156.546C218.995 160.641 224.555 167.094 227.633 160.567C230.711 154.04 246.896 121.356 241.981 117.211Z" fill="url(#paint4_linear)"/>
<path d="M266.979 129.223L242.33 116.492C242.33 116.492 229.571 108.848 227.61 126.964C225.649 145.081 227.61 187.866 227.61 187.866C227.61 187.866 242.504 198.338 251.688 199.182C260.873 200.026 271.795 192.953 271.795 192.953C270.751 186.679 270.088 180.347 269.809 173.993C269.536 164.91 273.483 145.652 273.483 140.564C273.542 138.259 272.967 135.983 271.82 133.983C270.673 131.983 268.999 130.336 266.979 129.223Z" fill="url(#paint5_linear)"/>
<g style="mix-blend-mode:multiply" opacity="0.4">
<g style="mix-blend-mode:multiply" opacity="0.4">
<path d="M266.976 129.222L264.345 127.882C262.532 128.024 260.816 128.764 259.469 129.986C258.121 131.207 257.217 132.842 256.898 134.632C254.242 144.956 260.076 162.651 260.299 170.617C260.448 176.375 259.455 190.893 258.859 198.512C263.417 197.295 267.773 195.422 271.792 192.953C270.748 186.678 270.085 180.347 269.806 173.992C269.533 164.909 273.48 145.651 273.48 140.564C273.539 138.259 272.964 135.982 271.817 133.982C270.67 131.982 268.996 130.336 266.976 129.222Z" fill="#779FE1"/>
</g>
</g>
<path d="M254.217 110.386L255.483 123.291C255.091 124.104 254.539 124.829 253.859 125.422C253.179 126.016 252.386 126.465 251.528 126.743C250.669 127.022 249.763 127.123 248.865 127.042C247.966 126.96 247.093 126.697 246.299 126.269C239.77 123.415 240.962 114.878 240.962 114.878L254.217 110.386Z" fill="#E9829D"/>
<path d="M233.267 92.4186C233.267 92.4186 227.731 109.791 235.104 116.491C242.476 123.192 253.945 113.786 254.962 110.684C255.98 107.582 260.349 89.7135 251.562 87.3062C242.774 84.899 233.267 92.4186 233.267 92.4186Z" fill="#ED90A5"/>
<path d="M242.479 81.4992C238.507 81.7474 228.032 86.8845 227.734 92.6917C227.436 98.4989 232.847 97.0844 239.351 97.9282C245.855 98.7719 248.709 95.9428 248.709 95.9428C250.085 101.482 251.86 106.915 254.022 112.198C255.933 115.35 259.607 109.071 259.607 96.861C259.607 84.651 246.997 81.2263 242.479 81.4992Z" fill="#1B2C79"/>
<path d="M250.099 106.266C250.099 106.266 250.447 100.707 253.475 101.998C256.504 103.288 257.869 106.564 251.787 110.709C245.706 114.853 250.099 106.266 250.099 106.266Z" fill="#ED90A5"/>
<path d="M262.635 209.556C262.635 209.556 256.132 213.725 256.206 215.661C256.281 217.596 260.252 215.909 260.252 215.909C259.183 218.448 258.708 221.198 258.862 223.949C259.458 227.201 266.309 231.395 268.345 227.796C270.38 224.198 271.87 216.058 269.784 212.434C267.699 208.811 262.635 209.556 262.635 209.556Z" fill="#ED90A5"/>
<path d="M260.302 210.946L271.026 213.005C271.026 213.005 279.54 177.914 274.576 171.933C269.611 165.952 268.419 168.285 265.863 172.876C263.306 177.467 260.302 210.946 260.302 210.946Z" fill="url(#paint6_linear)"/>
<path d="M269.413 131.159C262.661 129.57 255.859 133.64 259.483 150.64C263.107 167.64 263.778 173.372 266.161 176.872C268.544 180.371 276.363 183.523 276.09 176.301C275.817 169.079 275.718 132.648 269.413 131.159Z" fill="url(#paint7_linear)"/>
<path d="M87.0604 219.929C89.3163 219.878 91.5473 220.408 93.5392 221.467L303.94 344.014C307.514 346.074 307.539 349.449 303.94 351.459L229.868 394.79C227.882 395.842 225.661 396.371 223.414 396.329C221.157 396.383 218.926 395.853 216.935 394.79L6.5343 272.243C2.95978 270.183 2.93495 266.808 6.5343 264.798L80.5568 221.467C82.5389 220.405 84.7626 219.875 87.0108 219.929H87.0604ZM87.0604 216.256C84.1652 216.215 81.3087 216.924 78.7695 218.316L4.64775 261.597C3.27425 262.154 2.09826 263.108 1.27028 264.337C0.442296 265.566 0 267.014 0 268.496C0 269.978 0.442296 271.426 1.27028 272.655C2.09826 273.884 3.27425 274.838 4.64775 275.395L215.048 397.942C217.607 399.294 220.457 400 223.352 400C226.246 400 229.096 399.294 231.655 397.942L305.727 354.661C307.108 354.108 308.292 353.154 309.126 351.922C309.96 350.69 310.406 349.237 310.406 347.749C310.406 346.262 309.96 344.808 309.126 343.576C308.292 342.345 307.108 341.391 305.727 340.838L95.3265 218.39C92.8034 216.973 89.9544 216.237 87.0604 216.256Z" fill="#7FAAEF"/>
<path d="M303.938 248.345L229.866 291.626C227.86 292.636 225.645 293.162 223.4 293.162C221.154 293.162 218.939 292.636 216.933 291.626L6.53256 169.104C5.78546 168.774 5.14038 168.25 4.66451 167.587C4.18864 166.924 3.89938 166.145 3.82684 165.332L3.57861 268.471C3.65137 269.281 3.93791 270.057 4.40894 270.72C4.87997 271.383 5.51858 271.908 6.25951 272.244L216.685 394.79C218.689 395.806 220.904 396.336 223.151 396.336C225.398 396.336 227.614 395.806 229.618 394.79L303.69 351.509C304.415 351.172 305.039 350.651 305.5 349.998C305.962 349.345 306.245 348.583 306.321 347.787L306.569 244.622C306.505 245.422 306.227 246.189 305.764 246.844C305.301 247.499 304.671 248.018 303.938 248.345Z" fill="url(#paint8_linear)"/>
<path d="M303.887 240.85C307.462 242.91 307.487 246.285 303.887 248.295L229.865 291.626C227.861 292.642 225.645 293.171 223.398 293.171C221.152 293.171 218.936 292.642 216.932 291.626L6.53152 169.104C2.95699 167.044 2.93217 163.669 6.53152 161.659L80.554 118.303C82.5581 117.287 84.7734 116.758 87.0204 116.758C89.2674 116.758 91.4828 117.287 93.4868 118.303L303.887 240.85Z" fill="#F4F8FF"/>
<path d="M52.9531 285.223L58.588 281.947L58.7617 218.192L53.1269 221.468L52.9531 285.223Z" fill="#1B2329"/>
<path d="M148.199 340.217L153.859 336.941L58.588 281.947L52.9531 285.223L148.199 340.217Z" fill="#2B3941"/>
<path d="M148.198 340.218L153.858 336.942L154.032 273.187L148.397 276.463L148.198 340.218Z" fill="#504F4F"/>
<path d="M148.399 276.462L154.034 273.187L58.7628 218.192L53.1279 221.468L148.399 276.462Z" fill="#807F7F"/>
<path d="M153.313 346.595L47.8145 285.694L48.013 215.09L153.511 275.991L153.313 346.595ZM52.9528 285.223L148.224 340.217L148.398 276.462L53.1266 221.468L52.9528 285.223Z" fill="url(#paint9_linear)"/>
<path d="M53.1269 221.468L52.9531 285.223L148.199 340.218L148.398 276.463L53.1269 221.468Z" fill="#0061AD"/>
<path d="M153.312 346.596L158.947 343.32L159.146 272.715L153.511 275.991L153.312 346.596Z" fill="url(#paint10_linear)"/>
<path d="M153.511 275.991L159.146 272.715L53.648 211.814L48.0132 215.09L153.511 275.991Z" fill="url(#paint11_linear)"/>
<path d="M145.396 167.59L88.2529 200.795L30.7378 167.59L87.8806 134.41L145.396 167.59Z" fill="url(#paint12_linear)"/>
<path d="M142.639 168.93L87.8793 137.313L33.7153 168.756C34.6485 168.992 35.5489 169.342 36.3962 169.799C36.843 170.022 37.2402 172.131 37.6126 172.429L87.8793 143.244L138.667 172.553C139.983 171.958 141.323 169.501 142.639 168.93Z" fill="#FFA282"/>
<path d="M87.8791 137.313L140.355 167.615L88.2266 197.867L35.7754 167.59L87.9039 137.313H87.8791ZM87.8791 133.243L28.7505 167.59L88.3259 201.937L147.38 167.59L87.8046 133.243H87.8791Z" fill="#F4F8FF"/>
<path d="M65.9854 86.0904L77.2799 79.5139V82.2686L65.9854 88.8451V86.0904Z" fill="#FF4B70"/>
<path d="M65.9609 90.7811L77.2803 84.2046L94.0855 100.385L82.791 106.937L65.9609 90.7811Z" fill="url(#paint13_linear)"/>
<path d="M82.793 106.962L94.0875 100.385L94.6088 100.758C94.7579 100.859 94.9273 100.927 95.1052 100.956L83.8107 107.533C83.626 107.5 83.4491 107.433 83.2894 107.334C83.1124 107.226 82.9461 107.102 82.793 106.962Z" fill="#FF4B70"/>
<path d="M65.9854 88.8451L77.2799 82.2686L94.6064 98.9456L83.287 105.497L65.9854 88.8451Z" fill="#FF4B70"/>
<path d="M65.9854 86.0904L77.2799 79.5139L94.4326 89.4159L83.1381 95.9677L65.9854 86.0904Z" fill="#FF4B70"/>
<path d="M83.1377 95.9681L94.4322 89.4164L95.1024 89.8135L83.8079 96.3652L83.1377 95.9681Z" fill="#FF4B70"/>
<path d="M54.7412 78.025L66.0357 71.4485L94.905 75.5433L83.6105 82.1198L54.7412 78.025Z" fill="#FFA282"/>
<path d="M83.8105 107.533L95.1051 100.956L112.456 104.356L101.137 110.908L83.8105 107.533Z" fill="#FF4B70"/>
<path d="M101.136 110.907V123.514C101.195 124.395 101.011 125.275 100.604 126.059C100.197 126.842 99.5824 127.499 98.8271 127.957L110.122 121.405C110.869 120.933 111.478 120.27 111.884 119.485C112.289 118.7 112.478 117.82 112.43 116.938V104.355L101.136 110.907Z" fill="url(#paint14_linear)"/>
<path d="M101.134 110.907V123.514C101.176 124.206 101.073 124.898 100.832 125.547C100.59 126.196 100.215 126.788 99.7311 127.283C99.2472 127.779 98.6648 128.167 98.0216 128.424C97.3783 128.681 96.6883 128.801 95.9961 128.776C91.5834 128.753 87.2721 127.451 83.5845 125.028C78.8416 122.253 74.6374 118.647 71.173 114.382C68.3268 111.29 66.5211 107.385 66.0098 103.214V90.8054L82.815 106.986C82.9681 107.126 83.1344 107.251 83.3115 107.358C83.4712 107.457 83.648 107.524 83.8328 107.557L101.134 110.907Z" fill="url(#paint15_linear)"/>
<path d="M83.2876 105.498L94.6069 98.9458L112.455 102.42L101.135 108.972L83.2876 105.498Z" fill="#FF4B70"/>
<path d="M101.16 106.391L112.454 99.8146V102.42L101.135 108.972L101.16 106.391Z" fill="#FF4B70"/>
<path d="M83.8105 96.3647L95.1051 89.813L112.456 99.8143L101.162 106.391L83.8105 96.3647Z" fill="#FF4B70"/>
<path d="M83.6097 82.1196L54.79 78.0248L83.3118 105.497L65.9356 88.845L83.3118 105.497L101.135 108.972L83.3118 105.497L112.057 111.106L83.6097 82.1196ZM65.9853 86.0903L67.6732 87.0582L65.9853 86.0903Z" fill="url(#paint16_linear)"/>
<path d="M83.6123 82.1196L94.9068 75.5431L123.379 104.554L112.06 111.106L83.6123 82.1196Z" fill="url(#paint17_linear)"/>
<path opacity="0.6" d="M87.8791 0L35.8003 30.2768V167.59L88.2515 197.867L140.355 167.615V30.2768L87.8791 0Z" fill="url(#paint18_linear)"/>
<path d="M205.791 189.454C205.791 189.454 204.153 196.899 202.291 197.619C200.429 198.338 200.653 193.921 200.653 193.921C198.656 195.818 196.254 197.236 193.628 198.065C190.376 198.636 184.071 193.623 186.677 190.62C189.284 187.617 196.457 183.175 200.578 183.845C204.699 184.515 205.791 189.454 205.791 189.454Z" fill="#ED90A5"/>
<path d="M224.853 150.366C223.004 150.728 221.287 151.586 219.889 152.848C215.52 155.801 197.722 184.316 197.722 184.316L206.36 190.992C213.109 183.088 219.25 174.684 224.729 165.852L224.853 150.366Z" fill="url(#paint19_linear)"/>
<path d="M224.853 128.28L224.332 130.116C219.914 146.967 217.903 152.451 218.449 156.546C218.846 159.624 221.999 163.991 224.853 163.296V128.28Z" fill="url(#paint20_linear)"/>
<path d="M262.635 209.556C262.635 209.556 256.132 213.725 256.206 215.661C256.281 217.596 260.252 215.909 260.252 215.909C259.183 218.448 258.708 221.198 258.862 223.949C259.458 227.201 266.309 231.395 268.345 227.796C270.38 224.198 271.87 216.058 269.784 212.434C267.699 208.811 262.635 209.556 262.635 209.556Z" fill="#ED90A5"/>
<path d="M260.302 210.946L271.026 213.005C271.026 213.005 279.54 177.914 274.576 171.933C269.611 165.952 268.419 168.285 265.863 172.876C263.306 177.467 260.302 210.946 260.302 210.946Z" fill="url(#paint21_linear)"/>
<path d="M269.413 131.159C262.661 129.57 255.859 133.64 259.483 150.64C263.107 167.64 263.778 173.372 266.161 176.872C268.544 180.371 276.363 183.523 276.09 176.301C275.817 169.079 275.718 132.648 269.413 131.159Z" fill="url(#paint22_linear)"/>
<defs>
<linearGradient id="paint0_linear" x1="219.94" y1="295.571" x2="228.45" y2="192.257" gradientUnits="userSpaceOnUse">
<stop stop-color="#1A317B"/>
<stop offset="1" stop-color="#18176E"/>
</linearGradient>
<linearGradient id="paint1_linear" x1="3526.57" y1="2100.25" x2="3551.7" y2="1474.54" gradientUnits="userSpaceOnUse">
<stop stop-color="#1A317B"/>
<stop offset="1" stop-color="#18176E"/>
</linearGradient>
<linearGradient id="paint2_linear" x1="5938.8" y1="13944.5" x2="6704.26" y2="9263.27" gradientUnits="userSpaceOnUse">
<stop stop-color="#1A317B"/>
<stop offset="1" stop-color="#18176E"/>
</linearGradient>
<linearGradient id="paint3_linear" x1="292.944" y1="171.287" x2="258.291" y2="170.989" gradientUnits="userSpaceOnUse">
<stop stop-color="#7594D1"/>
<stop offset="1" stop-color="#B4CDF6"/>
</linearGradient>
<linearGradient id="paint4_linear" x1="3115.66" y1="2845.09" x2="2773.02" y2="2843.6" gradientUnits="userSpaceOnUse">
<stop stop-color="#7594D1"/>
<stop offset="1" stop-color="#B4CDF6"/>
</linearGradient>
<linearGradient id="paint5_linear" x1="5369.57" y1="5427.13" x2="4138" y2="5446.31" gradientUnits="userSpaceOnUse">
<stop stop-color="#7594D1"/>
<stop offset="1" stop-color="#B4CDF6"/>
</linearGradient>
<linearGradient id="paint6_linear" x1="2007.69" y1="3596.28" x2="1590.67" y2="3600.38" gradientUnits="userSpaceOnUse">
<stop stop-color="#7594D1"/>
<stop offset="1" stop-color="#B4CDF6"/>
</linearGradient>
<linearGradient id="paint7_linear" x1="2196.93" y1="3255.61" x2="1732.8" y2="3260.16" gradientUnits="userSpaceOnUse">
<stop stop-color="#7594D1"/>
<stop offset="1" stop-color="#B4CDF6"/>
</linearGradient>
<linearGradient id="paint8_linear" x1="182.355" y1="280.83" x2="231.653" y2="280.83" gradientUnits="userSpaceOnUse">
<stop stop-color="#D0E5FA"/>
<stop offset="0.39" stop-color="#CDE2F9"/>
<stop offset="0.67" stop-color="#C4DAF6"/>
<stop offset="0.9" stop-color="#B5CDF1"/>
<stop offset="1" stop-color="#ACC5EE"/>
</linearGradient>
<linearGradient id="paint9_linear" x1="150.334" y1="276.586" x2="47.8893" y2="285.376" gradientUnits="userSpaceOnUse">
<stop stop-color="#004E8B"/>
<stop offset="1" stop-color="#002880"/>
</linearGradient>
<linearGradient id="paint10_linear" x1="155.274" y1="218.763" x2="156.316" y2="317.684" gradientUnits="userSpaceOnUse">
<stop stop-color="#004E8B"/>
<stop offset="1" stop-color="#001F79"/>
</linearGradient>
<linearGradient id="paint11_linear" x1="2361.8" y1="5764.41" x2="10633.9" y2="13846.9" gradientUnits="userSpaceOnUse">
<stop stop-color="#004E8B"/>
<stop offset="1" stop-color="#001F79"/>
</linearGradient>
<linearGradient id="paint12_linear" x1="30.7378" y1="167.59" x2="145.396" y2="167.59" gradientUnits="userSpaceOnUse">
<stop stop-color="#FFA282"/>
<stop offset="1" stop-color="#FF4B70"/>
</linearGradient>
<linearGradient id="paint13_linear" x1="712.826" y1="795.276" x2="994.603" y2="1070.47" gradientUnits="userSpaceOnUse">
<stop stop-color="#FFA282"/>
<stop offset="1" stop-color="#FF4B70"/>
</linearGradient>
<linearGradient id="paint14_linear" x1="528.642" y1="929.921" x2="798.284" y2="1098.68" gradientUnits="userSpaceOnUse">
<stop stop-color="#FFA282"/>
<stop offset="1" stop-color="#FF4B70"/>
</linearGradient>
<linearGradient id="paint15_linear" x1="786.956" y1="1574.81" x2="2170.76" y2="2169.6" gradientUnits="userSpaceOnUse">
<stop stop-color="#FFA282"/>
<stop offset="1" stop-color="#FF4B70"/>
</linearGradient>
<linearGradient id="paint16_linear" x1="1390.25" y1="1171.36" x2="3013" y2="2476.38" gradientUnits="userSpaceOnUse">
<stop stop-color="#FFA282"/>
<stop offset="1" stop-color="#FF4B70"/>
</linearGradient>
<linearGradient id="paint17_linear" x1="1004.21" y1="1011.56" x2="1964.77" y2="1668.09" gradientUnits="userSpaceOnUse">
<stop stop-color="#FFA282"/>
<stop offset="1" stop-color="#FF4B70"/>
</linearGradient>
<linearGradient id="paint18_linear" x1="1535.12" y1="7888.94" x2="5940.01" y2="7888.94" gradientUnits="userSpaceOnUse">
<stop stop-color="#FFA282"/>
<stop offset="1" stop-color="#FF4B70"/>
</linearGradient>
<linearGradient id="paint19_linear" x1="3397.63" y1="2954.75" x2="3018.85" y2="2952.58" gradientUnits="userSpaceOnUse">
<stop stop-color="#7594D1"/>
<stop offset="1" stop-color="#B4CDF6"/>
</linearGradient>
<linearGradient id="paint20_linear" x1="984.615" y1="2198.63" x2="893.98" y2="2198.48" gradientUnits="userSpaceOnUse">
<stop stop-color="#7594D1"/>
<stop offset="1" stop-color="#B4CDF6"/>
</linearGradient>
<linearGradient id="paint21_linear" x1="2007.69" y1="3596.28" x2="1590.67" y2="3600.38" gradientUnits="userSpaceOnUse">
<stop stop-color="#7594D1"/>
<stop offset="1" stop-color="#B4CDF6"/>
</linearGradient>
<linearGradient id="paint22_linear" x1="2196.93" y1="3255.61" x2="1732.8" y2="3260.16" gradientUnits="userSpaceOnUse">
<stop stop-color="#7594D1"/>
<stop offset="1" stop-color="#B4CDF6"/>
</linearGradient>
</defs>
</svg>
