<svg width="56" height="56" viewBox="0 0 56 56" fill="none" xmlns="http://www.w3.org/2000/svg">
<rect x="55.5" y="55.5" width="55" height="55" rx="4.5" transform="rotate(-180 55.5 55.5)" stroke="url(#paint0_linear)"/>
<path d="M37.1066 22.9867C37 22.7734 36.84 22.6667 36.6266 22.6667H30.3333L36.5733 12.8C36.68 12.64 36.68 12.4267 36.5733 12.2667C36.4666 12.1067 36.3066 12 36.0933 12H27.56C27.3467 12 27.1867 12.1067 27.08 12.2667L19.08 28.2667C18.9733 28.4267 18.9733 28.64 19.08 28.8C19.1867 28.96 19.4 29.0667 19.56 29.0667H25.0533L19.08 43.3067C18.9733 43.52 19.08 43.7867 19.2933 43.9467C19.3466 44 19.4533 44 19.56 44C19.72 44 19.88 43.9467 19.9867 43.84L37.0534 23.5733C37.16 23.4133 37.2133 23.2 37.1066 22.9867ZM21.4266 40.4267L26.3333 28.6934C26.3866 28.5334 26.3866 28.3734 26.28 28.2134C26.1733 28.1067 26.0133 28.0001 25.8533 28.0001H20.4133L27.88 13.0667H35.1333L28.84 22.9333C28.7333 23.0933 28.7333 23.3066 28.84 23.4666C28.9467 23.6266 29.1067 23.7333 29.32 23.7333H35.5067L21.4266 40.4267Z" fill="url(#paint1_linear)"/>
<defs>
<linearGradient id="paint0_linear" x1="56" y1="84" x2="112" y2="84" gradientUnits="userSpaceOnUse">
<stop offset="0.0520833" stop-color="#FF8C3E" stop-opacity="0"/>
<stop offset="1" stop-color="#FF5968"/>
</linearGradient>
<linearGradient id="paint1_linear" x1="19" y1="28" x2="37.1648" y2="28" gradientUnits="userSpaceOnUse">
<stop stop-color="#FF8D3D"/>
<stop offset="1" stop-color="#FF5969"/>
</linearGradient>
</defs>
</svg>
