<svg width="265" height="421" viewBox="0 0 265 421" fill="none" xmlns="http://www.w3.org/2000/svg">
<path d="M161.184 227.743C163.868 227.689 166.522 228.324 168.89 229.589L257.385 281.219C261.617 283.68 261.589 287.708 257.385 290.141L168.357 341.212C165.979 342.476 163.317 343.112 160.623 343.058C157.938 343.115 155.284 342.479 152.917 341.212L64.4214 289.498C60.19 287.037 60.218 283.009 64.4214 280.548L153.449 229.589C155.827 228.324 158.49 227.689 161.184 227.743ZM161.184 223.38C157.722 223.324 154.305 224.162 151.264 225.813L62.2636 276.884C60.6908 277.667 59.3599 278.86 58.4125 280.338C57.4652 281.815 56.9367 283.521 56.8833 285.275C56.9519 286.999 57.4853 288.673 58.4273 290.12C59.3693 291.567 60.6849 292.734 62.2356 293.497L150.731 344.904C153.793 346.483 157.19 347.308 160.637 347.308C164.084 347.308 167.481 346.483 170.543 344.904L259.515 293.917C261.114 293.211 262.473 292.057 263.427 290.595C264.382 289.133 264.89 287.425 264.89 285.68C264.89 283.935 264.382 282.228 263.427 280.765C262.473 279.303 261.114 278.149 259.515 277.443L171.076 225.813C168.044 224.162 164.636 223.324 161.184 223.38Z" fill="#7FAAEF"/>
<path d="M160.96 220.023C160.45 219.797 159.891 219.706 159.336 219.76C158.781 219.814 158.249 220.01 157.793 220.331L70.8668 270.451C65.4584 273.583 60.5825 273.863 56.9956 271.849L159.671 331.423C163.257 333.436 168.077 333.129 173.542 330.024L260.412 279.876C260.863 279.556 261.389 279.359 261.94 279.305C262.491 279.251 263.046 279.342 263.551 279.569L160.96 220.023Z" fill="url(#paint0_linear)"/>
<path d="M144.987 323.955L144.258 67.7615C144.338 66.237 144.778 64.753 145.543 63.4309C146.308 62.1087 147.375 60.9858 148.658 60.154C149.107 59.8202 149.64 59.6151 150.198 59.5609C150.756 59.5067 151.318 59.6054 151.824 59.8464L49.1491 0.300894C48.6482 0.0592957 48.0902 -0.0398103 47.5365 0.0144654C46.9828 0.0687411 46.4549 0.274298 46.0106 0.60855C44.7212 1.43554 43.6474 2.55664 42.8775 3.87935C42.1077 5.20207 41.664 6.68851 41.583 8.21605L42.3116 264.41C42.3116 273.388 45.5622 279.737 50.7184 282.645L153.393 342.219C148.237 339.282 145.015 332.821 144.987 323.955Z" fill="#F4F8FF"/>
<path d="M148.657 60.1544C151.123 58.728 153.112 59.8747 153.112 62.6716L153.841 318.865C153.841 325.046 156.055 329.382 159.614 331.423C163.173 333.465 168.021 333.129 173.485 330.025L260.355 279.877C262.793 278.478 264.783 279.597 264.811 282.422C264.723 283.948 264.277 285.432 263.507 286.754C262.738 288.075 261.668 289.198 260.383 290.03L173.513 340.15C165.639 344.708 158.521 345.128 153.393 342.219C148.265 339.31 144.986 332.934 144.986 323.956L144.257 67.7619C144.337 66.2373 144.778 64.7534 145.542 63.4312C146.307 62.109 147.374 60.9862 148.657 60.1544Z" fill="url(#paint1_linear)"/>
<path d="M55.875 221.31C55.7913 221.352 55.7209 221.415 55.6714 221.494C55.6219 221.573 55.5954 221.665 55.5947 221.758V240.049C55.5942 239.952 55.6234 239.857 55.6786 239.777C55.7337 239.697 55.812 239.636 55.903 239.602L59.3217 237.728V219.297L55.875 221.31Z" fill="#18176E"/>
<path d="M85.9153 238.511C85.2287 238.809 84.4828 238.947 83.7348 238.913C82.9867 238.879 82.2564 238.674 81.5998 238.315L55.1744 223.184C54.8841 223.061 54.6308 222.865 54.4392 222.615C54.2476 222.365 54.1244 222.069 54.0815 221.757V240.049C54.1243 240.357 54.2443 240.649 54.4305 240.899C54.6166 241.148 54.8629 241.346 55.1464 241.475L81.5998 256.607C82.2514 256.965 82.9771 257.17 83.7206 257.204C84.4641 257.238 85.2055 257.1 85.8872 256.802L89.362 254.789V236.497L85.9153 238.511Z" fill="url(#paint2_linear)"/>
<path d="M89.3895 236.497L85.9147 238.511C85.2282 238.809 84.4823 238.946 83.7342 238.912C82.9862 238.878 82.2558 238.674 81.5992 238.315L55.1739 223.184C53.8849 222.428 53.7167 221.31 54.8096 220.694L58.2844 218.681L59.3493 219.296L55.8745 221.31C55.3701 221.589 55.5382 222.177 56.2388 222.568L82.6641 237.727C82.9916 237.919 83.3573 238.035 83.7351 238.069C84.1129 238.103 84.4935 238.053 84.8499 237.923L88.3247 235.909L89.3895 236.497Z" fill="url(#paint3_linear)"/>
<path d="M59.6576 225.282C60.9759 225.877 62.2178 226.628 63.3566 227.519C65.8537 228.116 68.1167 229.44 69.8579 231.323C70.5024 231.659 71.1189 232.022 71.7074 232.386C74.0613 233.868 76.5833 235.183 79.0213 236.469C81.4593 237.756 82.412 238.874 85.6627 237.896C86.518 237.546 87.351 237.145 88.1567 236.693V205.62L59.2373 189.006V225.086L59.4615 225.254L59.6576 225.282Z" fill="url(#paint4_linear)"/>
<path d="M59.658 225.281C60.9763 225.877 62.2182 226.628 63.357 227.519C65.854 228.115 68.117 229.439 69.8583 231.323C70.5028 231.658 71.1193 232.022 71.7077 232.386C74.0616 233.868 76.5837 235.182 79.0217 236.469C81.4596 237.756 82.4124 238.874 85.663 237.895C86.2795 237.657 86.8788 237.377 87.4565 237.056V206.011L58.5371 189.426V224.582L59.4619 225.253L59.658 225.281Z" fill="url(#paint5_linear)"/>
<path d="M59.6581 225.282C60.9764 225.877 62.2183 226.628 63.3571 227.519C65.8541 228.116 68.1171 229.44 69.8583 231.323C70.5028 231.659 71.1193 232.022 71.7078 232.386C74.0617 233.868 76.5838 235.183 79.0217 236.469C81.4597 237.756 82.4125 238.874 85.6631 237.896C86.0287 237.762 86.3845 237.603 86.728 237.42V206.431L57.8086 189.817V224.107C58.3971 224.471 58.9295 224.862 59.4619 225.254L59.6581 225.282Z" fill="url(#paint6_linear)"/>
<path d="M59.658 225.281C60.9763 225.877 62.2181 226.628 63.357 227.519C65.854 228.115 68.117 229.439 69.8582 231.323C70.5027 231.658 71.1192 232.022 71.7077 232.386C74.0616 233.868 76.5837 235.182 79.0216 236.469C81.4596 237.756 82.4124 238.874 85.663 237.895H86.0273V206.962L57.1079 190.181V223.743C57.9428 224.164 58.7317 224.67 59.4618 225.254L59.658 225.281Z" fill="url(#paint7_linear)"/>
<path d="M59.6583 225.281C60.9766 225.877 62.2185 226.628 63.3573 227.519C65.8544 228.115 68.1174 229.439 69.8586 231.323C70.5031 231.658 71.1196 232.022 71.7081 232.385C74.062 233.868 76.584 235.182 79.022 236.469C81.46 237.755 82.3567 238.79 85.2991 237.979V207.214L56.4077 190.656V223.435C57.5111 223.886 58.5407 224.499 59.4622 225.253L59.6583 225.281Z" fill="url(#paint8_linear)"/>
<path d="M88.326 235.882L84.8792 237.896C84.5228 238.026 84.1422 238.076 83.7644 238.042C83.3866 238.008 83.0209 237.891 82.6934 237.7L56.2681 222.569C55.5675 222.178 55.3994 221.59 55.9038 221.311L56.212 221.143C55.9731 220.87 55.7835 220.557 55.6516 220.22L54.8389 220.695C53.746 221.311 53.9142 222.429 55.2032 223.184L81.6285 238.316C82.2852 238.675 83.0155 238.879 83.7635 238.913C84.5116 238.947 85.2575 238.81 85.944 238.511L89.4188 236.498L88.326 235.882Z" fill="url(#paint9_linear)"/>
<path d="M55.875 154.325C55.7913 154.366 55.7209 154.43 55.6714 154.509C55.6219 154.588 55.5954 154.679 55.5947 154.772V173.064C55.5979 172.967 55.6286 172.874 55.6832 172.795C55.7378 172.715 55.8141 172.653 55.903 172.616L59.3217 170.602V152.311L55.875 154.325Z" fill="#18176E"/>
<path d="M85.9153 171.525C85.2303 171.83 84.4835 171.971 83.7343 171.937C82.9851 171.903 82.2542 171.695 81.5998 171.329L55.1744 156.198C54.8841 156.075 54.6308 155.879 54.4392 155.629C54.2476 155.379 54.1244 155.084 54.0815 154.772V173.064C54.1243 173.372 54.2443 173.664 54.4305 173.913C54.6166 174.163 54.8629 174.361 55.1464 174.49L81.5998 189.621C82.2514 189.98 82.9771 190.184 83.7206 190.218C84.4641 190.252 85.2055 190.115 85.8872 189.817L89.362 187.803V169.512L85.9153 171.525Z" fill="url(#paint10_linear)"/>
<path d="M89.3895 169.511L85.9147 171.525C85.2297 171.83 84.483 171.971 83.7338 171.937C82.9846 171.903 82.2537 171.695 81.5992 171.329L55.1739 156.198C53.8849 155.443 53.7167 154.324 54.8096 153.709L58.2844 151.695L59.3493 152.31L55.8745 154.324C55.3701 154.604 55.5382 155.191 56.2388 155.583L82.6641 170.602C82.9916 170.793 83.3573 170.91 83.7351 170.944C84.1129 170.977 84.4935 170.928 84.8499 170.798L88.3247 168.784L89.3895 169.511Z" fill="url(#paint11_linear)"/>
<path d="M59.6576 158.296C60.9759 158.891 62.2178 159.643 63.3566 160.533C65.8537 161.13 68.1167 162.454 69.8579 164.337C70.5024 164.673 71.1189 165.036 71.7074 165.4C74.0613 166.882 76.5833 168.197 79.0213 169.483C81.4593 170.77 82.412 171.889 85.6627 170.91C86.518 170.561 87.351 170.159 88.1567 169.707V138.634L59.2373 122.021V158.1L59.4615 158.268L59.6576 158.296Z" fill="url(#paint12_linear)"/>
<path d="M59.658 158.296C60.9763 158.891 62.2182 159.642 63.357 160.533C65.854 161.13 68.117 162.454 69.8583 164.337C70.5028 164.673 71.1193 165.036 71.7077 165.4C74.0616 166.882 76.5837 168.197 79.0217 169.483C81.4596 170.77 82.4124 171.888 85.663 170.91C86.2845 170.683 86.8846 170.402 87.4565 170.071V139.025L58.5371 122.44V157.596L59.4619 158.268L59.658 158.296Z" fill="url(#paint13_linear)"/>
<path d="M59.6581 158.296C60.9764 158.891 62.2183 159.643 63.3571 160.534C65.8541 161.13 68.1171 162.454 69.8583 164.337C70.5028 164.673 71.1193 165.037 71.7078 165.4C74.0617 166.882 76.5838 168.197 79.0217 169.484C81.4597 170.77 82.4125 171.889 85.6631 170.91C86.0337 170.789 86.3905 170.629 86.728 170.434V139.445L57.8086 122.832V157.121C58.3971 157.485 58.9295 157.877 59.4619 158.268L59.6581 158.296Z" fill="url(#paint14_linear)"/>
<path d="M59.658 158.296C60.9763 158.891 62.2181 159.643 63.357 160.533C65.854 161.13 68.117 162.454 69.8582 164.337C70.5027 164.673 71.1192 165.036 71.7077 165.4C74.0616 166.882 76.5837 168.197 79.0216 169.483C81.4596 170.77 82.4124 171.889 85.663 170.91H86.0273V139.837L57.1079 123.251V156.814C57.9428 157.234 58.7317 157.74 59.4618 158.324L59.658 158.296Z" fill="url(#paint15_linear)"/>
<path d="M59.6583 158.296C60.9766 158.891 62.2185 159.642 63.3573 160.533C65.8544 161.13 68.1174 162.454 69.8586 164.337C70.5031 164.673 71.1196 165.036 71.7081 165.4C74.062 166.882 76.584 168.197 79.022 169.483C81.46 170.77 82.3567 171.805 85.2991 170.994V140.228L56.4077 123.67V156.45C57.5058 156.911 58.5339 157.523 59.4622 158.268L59.6583 158.296Z" fill="url(#paint16_linear)"/>
<path d="M88.326 168.896L84.8792 170.91C84.5228 171.04 84.1422 171.09 83.7644 171.056C83.3866 171.022 83.0209 170.905 82.6934 170.714L56.2681 155.583C55.5675 155.192 55.3994 154.604 55.9038 154.325L56.212 154.157C55.9731 153.884 55.7835 153.572 55.6516 153.234L54.8389 153.709C53.746 154.325 53.9142 155.443 55.2032 156.199L81.6285 171.33C82.283 171.695 83.0139 171.903 83.7631 171.937C84.5123 171.971 85.259 171.83 85.944 171.525L89.4188 169.512L88.326 168.896Z" fill="url(#paint17_linear)"/>
<path d="M55.875 87.34C55.7913 87.3814 55.7209 87.4452 55.6714 87.5242C55.6219 87.6032 55.5954 87.6944 55.5947 87.7875V106.079C55.5979 105.983 55.6286 105.89 55.6832 105.81C55.7378 105.731 55.8141 105.669 55.903 105.632L59.3778 103.618V85.3263L55.875 87.34Z" fill="#18176E"/>
<path d="M85.9153 104.541C85.2319 104.852 84.4842 104.997 83.7338 104.963C82.9835 104.929 82.252 104.717 81.5998 104.345L55.1744 89.2139C54.4458 88.7944 54.0815 88.2909 54.0815 87.7875V106.079C54.1243 106.387 54.2443 106.679 54.4305 106.929C54.6166 107.178 54.8629 107.376 55.1464 107.505L81.5998 122.637C82.247 123.008 82.9738 123.22 83.7197 123.254C84.4656 123.288 85.2088 123.143 85.8872 122.832L89.362 120.819V102.527L85.9153 104.541Z" fill="url(#paint18_linear)"/>
<path d="M89.3895 102.527L85.9147 104.541C85.2314 104.852 84.4837 104.996 83.7333 104.962C82.983 104.928 82.2515 104.717 81.5992 104.345L55.1739 89.2137C53.8849 88.4585 53.7167 87.3677 54.8096 86.7244L58.2844 84.7107L59.3493 85.326L55.8745 87.3398C55.3701 87.6194 55.5382 88.2068 56.2388 88.5983L82.6641 103.729C82.9916 103.921 83.3573 104.037 83.7351 104.071C84.1129 104.105 84.4935 104.055 84.8499 103.925L88.3247 101.911L89.3895 102.527Z" fill="url(#paint19_linear)"/>
<path d="M59.6576 91.3116C60.9759 91.907 62.2178 92.6582 63.3566 93.5491C65.8537 94.1455 68.1167 95.4696 69.8579 97.3529C70.5024 97.6885 71.1189 98.0521 71.7074 98.4157C74.0613 99.898 76.5833 101.213 79.0213 102.499C81.4593 103.786 82.412 104.904 85.6627 103.926C86.4193 103.702 87.372 103.086 88.1567 102.751V71.6496L59.2373 55.0361V91.1158L59.4615 91.2836L59.6576 91.3116Z" fill="url(#paint20_linear)"/>
<path d="M59.658 91.3113C60.9763 91.9066 62.2182 92.6578 63.357 93.5488C65.854 94.1452 68.117 95.4692 69.8583 97.3525C70.5028 97.6881 71.1193 98.0517 71.7077 98.4153C74.0616 99.8977 76.5837 101.212 79.0217 102.499C81.4596 103.785 82.4124 104.904 85.663 103.925C86.2845 103.699 86.8846 103.418 87.4565 103.086V72.0408L58.5371 55.4553V90.612L59.4619 91.2833L59.658 91.3113Z" fill="url(#paint21_linear)"/>
<path d="M59.6581 91.3111C60.9764 91.9065 62.2183 92.6577 63.3571 93.5486C65.8541 94.1451 68.1171 95.4691 69.8583 97.3524C70.5028 97.688 71.1193 98.0516 71.7078 98.4152C74.0617 99.8975 76.5838 101.212 79.0217 102.499C81.4597 103.785 82.4125 104.904 85.6631 103.925C86.0337 103.804 86.3905 103.645 86.728 103.45V72.4602L57.8086 55.9307V90.1365C58.3971 90.5 58.9295 90.8916 59.4619 91.2832L59.6581 91.3111Z" fill="url(#paint22_linear)"/>
<path d="M59.658 91.3115C60.9763 91.9068 62.2181 92.658 63.357 93.549C65.854 94.1454 68.117 95.4694 69.8582 97.3527C70.5027 97.6883 71.1192 98.0519 71.7077 98.4155C74.0616 99.8979 76.5837 101.212 79.0216 102.499C81.4596 103.786 82.4124 104.904 85.663 103.925H86.0273V73.1597L57.1079 56.2666V89.8291C57.9428 90.2498 58.7317 90.756 59.4618 91.3394L59.658 91.3115Z" fill="url(#paint23_linear)"/>
<path d="M59.6583 91.3111C60.9766 91.9065 62.2185 92.6577 63.3573 93.5486C65.8544 94.145 68.1174 95.4691 69.8586 97.3524C70.5031 97.688 71.1196 98.0516 71.7081 98.4152C74.062 99.8975 76.584 101.212 79.022 102.499C81.46 103.785 82.3567 104.82 85.2991 104.009V73.2433L56.4077 56.6858V89.4931C57.5058 89.9541 58.5339 90.566 59.4622 91.3111H59.6583Z" fill="url(#paint24_linear)"/>
<path d="M88.326 101.912L84.8792 103.926C84.5228 104.056 84.1422 104.105 83.7644 104.072C83.3866 104.038 83.0209 103.921 82.6934 103.73L56.2681 88.5989C55.5675 88.2073 55.3994 87.62 55.9038 87.3403L56.212 87.1725C55.9731 86.8995 55.7835 86.5872 55.6516 86.2495L54.8389 86.725C53.746 87.3683 53.9142 88.459 55.2032 89.2142L81.6285 104.345C82.2808 104.717 83.0123 104.929 83.7626 104.963C84.513 104.997 85.2607 104.852 85.944 104.541L89.4188 102.527L88.326 101.912Z" fill="url(#paint25_linear)"/>
<path d="M98.1613 244.16C98.0743 244.201 97.9998 244.263 97.9455 244.342C97.8913 244.421 97.8593 244.513 97.853 244.608V262.9C97.8537 262.806 97.8802 262.715 97.9297 262.636C97.9792 262.557 98.0496 262.493 98.1332 262.452L101.692 260.438V242.147L98.1613 244.16Z" fill="#18176E"/>
<path d="M128.201 261.362C127.518 261.673 126.77 261.818 126.02 261.783C125.269 261.749 124.538 261.538 123.885 261.166L97.4321 246.119C97.147 245.992 96.8994 245.794 96.7129 245.544C96.5264 245.295 96.4074 245.001 96.3672 244.692V262.984C96.41 263.296 96.5333 263.591 96.7249 263.841C96.9164 264.091 97.1698 264.287 97.4601 264.41L123.885 279.541C124.538 279.913 125.269 280.125 126.02 280.159C126.77 280.193 127.518 280.048 128.201 279.737L131.676 277.723V259.432L128.201 261.362Z" fill="url(#paint26_linear)"/>
<path d="M131.675 259.348L128.2 261.361C127.517 261.673 126.769 261.817 126.019 261.783C125.269 261.749 124.537 261.538 123.885 261.166L97.4316 246.118C96.1705 245.363 96.0024 244.273 97.0953 243.629L100.57 241.615L101.635 242.231L98.1602 244.245C97.6557 244.524 97.8239 245.112 98.4964 245.503L124.95 260.634C125.274 260.833 125.64 260.954 126.02 260.988C126.399 261.022 126.781 260.968 127.136 260.83L130.61 258.816L131.675 259.348Z" fill="url(#paint27_linear)"/>
<path d="M101.831 248.132C103.143 248.738 104.384 249.488 105.53 250.369C108.019 250.966 110.272 252.291 112.003 254.173C112.647 254.509 113.264 254.872 113.852 255.236C116.234 256.718 118.756 258.033 121.166 259.319C123.576 260.606 124.557 261.725 127.808 260.746C128.564 260.522 129.545 259.907 130.33 259.571V228.47L101.522 211.856V247.936L101.747 248.104L101.831 248.132Z" fill="url(#paint28_linear)"/>
<path d="M101.832 248.132C103.144 248.738 104.385 249.488 105.531 250.369C108.02 250.966 110.274 252.291 112.004 254.173C112.649 254.509 113.265 254.872 113.853 255.236C116.235 256.718 118.757 258.033 121.167 259.319C123.577 260.606 124.558 261.725 127.809 260.746C128.43 260.519 129.03 260.239 129.602 259.907V228.861L100.795 212.276V247.433L101.748 248.104L101.832 248.132Z" fill="url(#paint29_linear)"/>
<path d="M101.832 248.131C103.144 248.737 104.385 249.488 105.531 250.369C108.02 250.966 110.273 252.29 112.004 254.173C112.648 254.508 113.265 254.872 113.853 255.236C116.235 256.718 118.757 258.032 121.167 259.319C123.577 260.606 124.558 261.724 127.809 260.745C128.188 260.624 128.554 260.465 128.902 260.27V229.336L100.094 212.695V246.957C100.683 247.32 101.215 247.712 101.748 248.103L101.832 248.131Z" fill="url(#paint30_linear)"/>
<path d="M101.832 248.132C103.144 248.737 104.385 249.488 105.531 250.369C108.019 250.966 110.273 252.29 112.004 254.173C112.648 254.508 113.265 254.872 113.853 255.236C116.235 256.718 118.757 258.033 121.167 259.319C123.577 260.606 124.558 261.724 127.809 260.746H128.173V229.7L99.3936 213.087V246.649C100.221 247.083 101.009 247.589 101.747 248.16L101.832 248.132Z" fill="url(#paint31_linear)"/>
<path d="M101.832 248.132C103.144 248.737 104.385 249.488 105.531 250.369C108.019 250.966 110.273 252.29 112.004 254.173C112.648 254.509 113.265 254.872 113.853 255.236C116.235 256.718 118.757 258.033 121.167 259.319C123.577 260.606 124.502 261.641 127.472 260.829V230.064L98.665 213.506V246.286C99.7718 246.747 100.809 247.358 101.748 248.104L101.832 248.132Z" fill="url(#paint32_linear)"/>
<path d="M130.61 258.732L127.136 260.746C126.781 260.884 126.399 260.938 126.02 260.904C125.64 260.87 125.274 260.749 124.95 260.55L98.4964 245.419C97.8239 245.028 97.6557 244.44 98.1602 244.161L98.4404 243.993C98.21 243.719 98.0298 243.406 97.908 243.07L97.0953 243.545C96.0024 244.189 96.1705 245.279 97.4316 246.035L123.885 261.166C124.537 261.537 125.269 261.749 126.019 261.783C126.769 261.817 127.517 261.673 128.2 261.361L131.675 259.348L130.61 258.732Z" fill="url(#paint33_linear)"/>
<path d="M98.1613 177.175C98.0743 177.215 97.9998 177.278 97.9455 177.356C97.8913 177.435 97.8593 177.527 97.853 177.622V195.914C97.8537 195.821 97.8802 195.73 97.9297 195.651C97.9792 195.572 98.0496 195.508 98.1332 195.466L101.692 193.453V175.161L98.1613 177.175Z" fill="#18176E"/>
<path d="M128.201 194.375C127.518 194.687 126.77 194.831 126.02 194.797C125.269 194.763 124.538 194.551 123.885 194.18L97.4321 178.993C97.147 178.866 96.8994 178.668 96.7129 178.418C96.5264 178.168 96.4074 177.875 96.3672 177.566V195.858C96.3672 196.361 96.7315 196.865 97.4601 197.284L123.829 212.555C124.482 212.927 125.213 213.139 125.963 213.173C126.714 213.207 127.462 213.062 128.145 212.751L131.62 210.737V192.446L128.201 194.375Z" fill="url(#paint34_linear)"/>
<path d="M131.675 192.362L128.2 194.375C127.517 194.687 126.769 194.831 126.019 194.797C125.269 194.763 124.537 194.551 123.885 194.18L97.4316 178.992C96.1705 178.265 96.0024 177.147 97.0953 176.503L100.57 174.49L101.635 175.105L98.1602 177.119C97.6557 177.398 97.8239 177.986 98.4964 178.377L124.95 193.508C125.274 193.707 125.64 193.828 126.02 193.862C126.399 193.896 126.781 193.842 127.136 193.704L130.61 191.69L131.675 192.362Z" fill="url(#paint35_linear)"/>
<path d="M101.831 181.146C103.143 181.752 104.384 182.503 105.53 183.384C108.019 183.981 110.272 185.305 112.003 187.188L113.852 188.25C116.234 189.733 118.756 191.047 121.166 192.334C123.576 193.62 124.557 194.739 127.808 193.76C128.564 193.537 129.545 192.921 130.33 192.586V161.484L101.522 144.871V180.951L101.747 181.118L101.831 181.146Z" fill="url(#paint36_linear)"/>
<path d="M101.832 181.147C103.144 181.753 104.385 182.503 105.531 183.384C108.02 183.981 110.274 185.305 112.004 187.188L113.853 188.251C116.235 189.733 118.757 191.048 121.167 192.334C123.577 193.621 124.558 194.74 127.809 193.761C128.467 193.559 129.105 193.296 129.714 192.978V161.876L100.795 145.431V180.448L101.748 181.119L101.832 181.147Z" fill="url(#paint37_linear)"/>
<path d="M101.832 181.146C103.144 181.752 104.385 182.502 105.531 183.384C108.02 183.98 110.273 185.305 112.004 187.187L113.853 188.25C116.235 189.732 118.757 191.047 121.167 192.334C123.577 193.62 124.558 194.739 127.809 193.76C128.188 193.639 128.554 193.479 128.902 193.284V162.211L100.094 145.71V179.971C100.683 180.335 101.215 180.726 101.748 181.118L101.832 181.146Z" fill="url(#paint38_linear)"/>
<path d="M101.832 181.146C103.144 181.752 104.385 182.503 105.531 183.384C108.019 183.981 110.273 185.305 112.004 187.188L113.853 188.25C116.235 189.733 118.757 191.047 121.167 192.334C123.577 193.62 124.558 194.739 127.809 193.76H128.173V162.715L99.3936 146.101V179.664C100.221 180.098 101.009 180.603 101.747 181.174L101.832 181.146Z" fill="url(#paint39_linear)"/>
<path d="M101.832 181.146C103.144 181.752 104.385 182.502 105.531 183.384C108.019 183.98 110.273 185.305 112.004 187.187L113.853 188.25C116.235 189.732 118.757 191.047 121.167 192.334C123.577 193.62 124.502 194.655 127.472 193.844V163.078L98.665 146.521V179.3C99.7718 179.761 100.809 180.373 101.748 181.118L101.832 181.146Z" fill="url(#paint40_linear)"/>
<path d="M130.61 191.747L127.136 193.76C126.781 193.898 126.399 193.953 126.02 193.919C125.64 193.885 125.274 193.764 124.95 193.565L98.4964 178.434C97.8239 178.042 97.6557 177.455 98.1602 177.175L98.4404 177.007C98.21 176.733 98.0298 176.421 97.908 176.084L97.0953 176.56C96.0024 177.203 96.1705 178.322 97.4316 179.049L123.885 194.18C124.537 194.552 125.269 194.764 126.019 194.798C126.769 194.832 127.517 194.687 128.2 194.376L131.675 192.362L130.61 191.747Z" fill="url(#paint41_linear)"/>
<path d="M98.1613 110.191C98.0743 110.231 97.9998 110.293 97.9455 110.372C97.8913 110.451 97.8593 110.543 97.853 110.638V128.93C97.8537 128.836 97.8802 128.745 97.9297 128.666C97.9792 128.587 98.0496 128.523 98.1332 128.482L101.692 126.468V108.177L98.1613 110.191Z" fill="#18176E"/>
<path d="M128.201 127.391C127.518 127.702 126.77 127.847 126.02 127.813C125.269 127.779 124.538 127.567 123.885 127.195L97.4321 112.064C97.147 111.937 96.8994 111.74 96.7129 111.49C96.5264 111.24 96.4074 110.947 96.3672 110.638V128.929C96.3672 129.433 96.7315 129.936 97.4601 130.356L123.829 145.431C124.482 145.803 125.213 146.014 125.963 146.048C126.714 146.082 127.462 145.938 128.145 145.627L131.62 143.613V125.321L128.201 127.391Z" fill="url(#paint42_linear)"/>
<path d="M131.675 125.377L128.2 127.391C127.517 127.702 126.769 127.847 126.019 127.813C125.269 127.779 124.537 127.567 123.885 127.195L97.4316 112.064C96.1705 111.337 96.0024 110.218 97.0953 109.575L100.57 107.561L101.635 108.176L98.1602 110.19C97.6557 110.47 97.8239 111.057 98.4964 111.449L124.95 126.58C125.274 126.778 125.64 126.9 126.02 126.934C126.399 126.968 126.781 126.913 127.136 126.775L130.61 124.762L131.675 125.377Z" fill="url(#paint43_linear)"/>
<path d="M101.831 114.162C103.143 114.768 104.384 115.518 105.53 116.399C108.021 117.023 110.272 118.365 112.003 120.259L113.852 121.322C116.234 122.804 118.756 124.119 121.166 125.405C123.576 126.692 124.557 127.811 127.808 126.832C128.564 126.608 129.545 125.993 130.33 125.657V94.4998L101.522 77.8864V113.966L101.747 114.162H101.831Z" fill="url(#paint44_linear)"/>
<path d="M101.832 114.162C103.144 114.767 104.385 115.518 105.531 116.399C108.022 117.022 110.273 118.365 112.004 120.259L113.853 121.322C116.235 122.804 118.757 124.118 121.167 125.405C123.577 126.692 124.558 127.81 127.809 126.831C128.48 126.58 129.119 126.252 129.714 125.853V94.8911L100.795 78.3057V113.462L101.748 114.162H101.832Z" fill="url(#paint45_linear)"/>
<path d="M101.832 114.161C103.144 114.767 104.385 115.518 105.531 116.399C108.022 117.022 110.273 118.365 112.004 120.259L113.853 121.321C116.235 122.804 118.757 124.118 121.167 125.405C123.577 126.691 124.558 127.81 127.809 126.831C128.188 126.71 128.554 126.551 128.902 126.356V95.3104L100.094 78.725V112.987C100.668 113.346 101.22 113.738 101.748 114.161H101.832Z" fill="url(#paint46_linear)"/>
<path d="M101.832 114.162C103.144 114.767 104.385 115.518 105.531 116.399C108.022 117.022 110.273 118.365 112.004 120.259L113.853 121.322C116.235 122.804 118.757 124.119 121.167 125.405C123.577 126.692 124.558 127.81 127.809 126.832H128.173V95.7303L99.3936 79.1168V112.679C100.227 113.113 101.016 113.628 101.747 114.218L101.832 114.162Z" fill="url(#paint47_linear)"/>
<path d="M101.832 114.161C103.144 114.767 104.385 115.518 105.531 116.399C108.022 117.022 110.273 118.365 112.004 120.259L113.853 121.321C116.235 122.804 118.757 124.118 121.167 125.405C123.577 126.691 124.502 127.726 127.472 126.915V96.1496L98.665 79.5361V112.316C99.7783 112.775 100.817 113.397 101.748 114.161H101.832Z" fill="url(#paint48_linear)"/>
<path d="M130.61 124.762L127.136 126.776C126.782 126.921 126.399 126.978 126.019 126.944C125.638 126.91 125.272 126.785 124.95 126.58L98.4964 111.449C97.8239 111.058 97.6557 110.47 98.1602 110.191L98.4404 110.023C98.21 109.749 98.0298 109.436 97.908 109.1L97.0953 109.575C96.0024 110.218 96.1705 111.337 97.4316 112.064L123.885 127.196C124.537 127.567 125.269 127.779 126.019 127.813C126.769 127.847 127.517 127.703 128.2 127.391L131.675 125.378L130.61 124.762Z" fill="url(#paint49_linear)"/>
<path d="M11.7116 188.167C11.7116 188.167 5.51857 184.923 3.30478 189.454C1.09099 193.985 12.0198 244.105 14.6259 244.105C17.232 244.105 22.108 238.902 22.4162 231.603C22.7245 224.303 18.3529 194.628 11.7116 188.167Z" fill="url(#paint50_linear)"/>
<path d="M50.8597 234.567C53.6083 234.583 56.3262 233.991 58.8181 232.833C62.377 231.015 65.6276 228.498 64.6468 226.26C63.666 224.023 61.5643 222.624 59.2665 224.023C56.9686 225.421 56.0439 226.344 55.6516 226.12C55.2592 225.897 57.2208 223.715 56.8846 223.324C56.5483 222.932 56.156 222.568 54.0823 223.827C52.2349 225.213 50.6015 226.862 49.2344 228.722L50.8597 234.567Z" fill="#F9BFB5"/>
<path d="M14.625 244.104C14.625 244.104 16.8948 246.901 27.2912 243.293C37.6876 239.685 52.96 234.679 52.96 234.679C52.96 234.679 54.4452 228.861 52.0072 228.358C49.5692 227.855 23.3961 229.029 19.9773 230.959C16.5586 232.889 14.625 244.104 14.625 244.104Z" fill="url(#paint51_linear)"/>
<path d="M77.9851 220.191L71.1196 254.229L54.9785 240.412L61.8441 206.402L77.9851 220.191Z" fill="url(#paint52_linear)"/>
<path d="M9.88931 318.474C9.88931 318.474 7.95574 326.529 6.49857 336.905C5.04139 347.281 10.5058 362.357 9.88931 370.803C9.53771 377.763 9.53771 384.736 9.88931 391.696L31.1305 404.114C31.1305 404.114 41.5829 399.891 29.4771 397.541C25.3018 396.73 18.2681 385.235 18.2681 385.235L21.3225 325.074L9.88931 318.474Z" fill="#F9BFB5"/>
<path d="M11.5992 384.788C13.5888 384.592 19.3614 388.452 21.9115 393.962C24.4616 399.471 28.749 402.52 30.1221 401.15C31.4952 399.779 32.9244 398.353 31.0469 397.933C33.8491 395.78 36.8476 397.458 35.6426 400.982C34.9031 403.016 33.6136 404.806 31.917 406.154C30.2205 407.502 28.1831 408.354 26.0308 408.617C21.8835 408.617 14.3734 401.15 14.2333 399.304C14.2333 402.66 13.6168 411.386 13.6168 411.386H12.0195C12.0195 411.386 9.21724 398.381 9.21724 394.857C9.21724 391.333 6.69521 385.235 11.5992 384.788Z" fill="url(#paint53_linear)"/>
<path d="M32.7565 327.228C32.7565 327.228 30.8229 335.283 29.3658 345.66C27.9086 356.036 33.373 371.111 32.7565 379.558C32.3958 386.527 32.3958 393.509 32.7565 400.478L54.0537 412.84C54.0537 412.84 64.4781 408.617 52.3723 406.268C48.197 405.457 41.1633 393.962 41.1633 393.962L44.7782 323.061L32.7565 327.228Z" fill="#F9BFB5"/>
<path d="M34.4372 393.513C36.4268 393.317 42.1995 397.177 44.7495 402.687C47.2996 408.197 51.5871 411.245 52.9602 409.875C54.3333 408.504 55.7624 407.078 53.8849 406.659C56.6872 404.505 59.7136 406.183 58.4806 409.707C57.7553 411.73 56.4844 413.513 54.8081 414.86C53.1319 416.207 51.1153 417.066 48.981 417.343C44.8616 417.343 37.3516 409.875 37.1834 408.029C37.3516 411.385 36.5669 420.112 36.5669 420.112H34.7455C34.7455 420.112 31.9432 407.106 31.9432 403.61C31.9432 400.114 29.5332 393.961 34.4372 393.513Z" fill="url(#paint54_linear)"/>
<path d="M9.77694 245.894C5.59892 252.161 3.29529 259.485 3.13557 267.011C2.93942 279.485 9.63683 311.118 9.77694 317.606C9.91705 324.095 25.8339 333.325 31.9989 332.206C38.1639 331.087 44.8333 333.157 46.6267 318.893C48.1152 304.678 48.8261 290.393 48.7564 276.101C48.5883 269.92 43.1519 248.887 43.1519 248.887L9.77694 245.894Z" fill="url(#paint55_linear)"/>
<path d="M39.678 197.369C39.678 197.369 9.04926 181.538 3.80903 188.978C-1.43121 196.418 1.25897 209.759 3.80903 213.339C6.35909 216.919 12.2158 231.798 11.5713 239.601C10.9268 247.405 9.77785 245.81 9.77785 245.81C9.77785 245.81 23.7892 254.453 29.8981 253.754C36.007 253.054 43.0968 250.313 43.0968 248.915C43.0968 247.517 44.7501 202.067 39.678 197.369Z" fill="url(#paint56_linear)"/>
<path d="M91.0442 222.652C93.7521 222.652 96.4282 222.071 98.8906 220.946C102.421 219.128 105.7 216.639 104.719 214.402C103.739 212.164 101.637 210.738 99.3389 212.136C97.0411 213.534 96.1163 214.457 95.724 214.234C95.3317 214.01 97.2933 211.828 96.929 211.437C96.5647 211.045 96.2284 210.682 94.1267 211.94C92.2762 213.333 90.6425 214.992 89.2788 216.863L91.0442 222.652Z" fill="#F9BFB5"/>
<path d="M37.2403 196.278C37.2403 196.278 30.2907 196.949 31.0473 201.872C31.8039 206.794 60.6112 235.966 62.797 234.539C64.9827 233.113 66.1597 226.149 62.4047 219.828C58.6496 213.507 46.4037 198.012 37.2403 196.278Z" fill="url(#paint57_linear)"/>
<path d="M62.7964 234.54C64.814 237.336 91.6317 222.681 91.6317 222.681C91.6317 222.681 93.6493 217.311 90.4547 216.276C88.1008 215.493 61.5354 219.325 59.7699 222.849C58.0045 226.373 60.7507 231.743 62.7964 234.54Z" fill="url(#paint58_linear)"/>
<path d="M41.2752 154.353C41.2752 154.353 44.5258 183.468 39.0333 187.021C33.5409 190.573 32.3359 163.191 32.3359 163.191C32.3359 163.191 37.8564 151.5 41.2752 154.353Z" fill="#F9BFB5"/>
<path d="M41.276 154.352C41.276 154.352 38.0254 148.004 22.725 148.759C7.42468 149.514 3.78174 162.743 4.28615 172.448C4.71041 182.344 5.64574 192.212 7.08841 202.011C8.29338 208.808 9.21813 215.632 16.7842 218.317C24.3504 221.002 37.7452 213.199 38.9501 191.551C40.1551 169.903 37.2408 155.08 41.276 154.352Z" fill="url(#paint59_linear)"/>
<defs>
<linearGradient id="paint0_linear" x1="274.647" y1="190.264" x2="146.118" y2="286.686" gradientUnits="userSpaceOnUse">
<stop stop-color="#D0E5FA"/>
<stop offset="0.39" stop-color="#CDE2F9"/>
<stop offset="0.67" stop-color="#C4DAF6"/>
<stop offset="0.9" stop-color="#B5CDF1"/>
<stop offset="1" stop-color="#ACC5EE"/>
</linearGradient>
<linearGradient id="paint1_linear" x1="8910.9" y1="35183.9" x2="8910.9" y2="6057.29" gradientUnits="userSpaceOnUse">
<stop stop-color="#D0E5FA"/>
<stop offset="0.39" stop-color="#CDE2F9"/>
<stop offset="0.67" stop-color="#C4DAF6"/>
<stop offset="0.9" stop-color="#B5CDF1"/>
<stop offset="1" stop-color="#ACC5EE"/>
</linearGradient>
<linearGradient id="paint2_linear" x1="81.6558" y1="238.93" x2="86.2515" y2="238.734" gradientUnits="userSpaceOnUse">
<stop stop-color="#004E8B"/>
<stop offset="1" stop-color="#001F79"/>
</linearGradient>
<linearGradient id="paint3_linear" x1="54.081" y1="228.805" x2="89.3895" y2="228.805" gradientUnits="userSpaceOnUse">
<stop stop-color="#004E8B"/>
<stop offset="1" stop-color="#002880"/>
</linearGradient>
<linearGradient id="paint4_linear" x1="59.2373" y1="207.306" x2="88.0446" y2="207.306" gradientUnits="userSpaceOnUse">
<stop stop-color="#006F9D"/>
<stop offset="1" stop-color="#006092"/>
</linearGradient>
<linearGradient id="paint5_linear" x1="58.5371" y1="207.32" x2="87.3444" y2="207.32" gradientUnits="userSpaceOnUse">
<stop stop-color="#0079A7"/>
<stop offset="1" stop-color="#006A9C"/>
</linearGradient>
<linearGradient id="paint6_linear" x1="57.8086" y1="207.29" x2="86.6159" y2="207.29" gradientUnits="userSpaceOnUse">
<stop stop-color="#0083B1"/>
<stop offset="1" stop-color="#0074A6"/>
</linearGradient>
<linearGradient id="paint7_linear" x1="57.1079" y1="207.304" x2="85.9152" y2="207.304" gradientUnits="userSpaceOnUse">
<stop stop-color="#008DBB"/>
<stop offset="1" stop-color="#007EB0"/>
</linearGradient>
<linearGradient id="paint8_linear" x1="56.4077" y1="207.318" x2="85.187" y2="207.318" gradientUnits="userSpaceOnUse">
<stop stop-color="#0097C5"/>
<stop offset="1" stop-color="#0088BA"/>
</linearGradient>
<linearGradient id="paint9_linear" x1="725.21" y1="1755.18" x2="1170.02" y2="1755.18" gradientUnits="userSpaceOnUse">
<stop stop-color="#004E8B"/>
<stop offset="1" stop-color="#002880"/>
</linearGradient>
<linearGradient id="paint10_linear" x1="1071.92" y1="2334.32" x2="1129.79" y2="2331.86" gradientUnits="userSpaceOnUse">
<stop stop-color="#004E8B"/>
<stop offset="1" stop-color="#001F79"/>
</linearGradient>
<linearGradient id="paint11_linear" x1="725.181" y1="1323.16" x2="1169.99" y2="1323.16" gradientUnits="userSpaceOnUse">
<stop stop-color="#004E8B"/>
<stop offset="1" stop-color="#002880"/>
</linearGradient>
<linearGradient id="paint12_linear" x1="59.2373" y1="140.32" x2="88.0446" y2="140.32" gradientUnits="userSpaceOnUse">
<stop stop-color="#D77A5A"/>
<stop offset="1" stop-color="#D72348"/>
</linearGradient>
<linearGradient id="paint13_linear" x1="58.5371" y1="140.334" x2="87.3444" y2="140.334" gradientUnits="userSpaceOnUse">
<stop stop-color="#E18464"/>
<stop offset="1" stop-color="#E12D52"/>
</linearGradient>
<linearGradient id="paint14_linear" x1="57.8086" y1="140.304" x2="86.6159" y2="140.304" gradientUnits="userSpaceOnUse">
<stop stop-color="#EB8E6E"/>
<stop offset="1" stop-color="#EB375C"/>
</linearGradient>
<linearGradient id="paint15_linear" x1="57.1079" y1="140.318" x2="85.9152" y2="140.318" gradientUnits="userSpaceOnUse">
<stop stop-color="#F59878"/>
<stop offset="1" stop-color="#F54166"/>
</linearGradient>
<linearGradient id="paint16_linear" x1="56.4077" y1="140.332" x2="85.187" y2="140.332" gradientUnits="userSpaceOnUse">
<stop stop-color="#FFA282"/>
<stop offset="1" stop-color="#FF4B70"/>
</linearGradient>
<linearGradient id="paint17_linear" x1="725.21" y1="1240.93" x2="1170.02" y2="1240.93" gradientUnits="userSpaceOnUse">
<stop stop-color="#004E8B"/>
<stop offset="1" stop-color="#002880"/>
</linearGradient>
<linearGradient id="paint18_linear" x1="1071.92" y1="1419.03" x2="1129.79" y2="1416.57" gradientUnits="userSpaceOnUse">
<stop stop-color="#004E8B"/>
<stop offset="1" stop-color="#001F79"/>
</linearGradient>
<linearGradient id="paint19_linear" x1="725.181" y1="771.61" x2="1169.99" y2="771.61" gradientUnits="userSpaceOnUse">
<stop stop-color="#004E8B"/>
<stop offset="1" stop-color="#002880"/>
</linearGradient>
<linearGradient id="paint20_linear" x1="59.2373" y1="73.3361" x2="88.0446" y2="73.3361" gradientUnits="userSpaceOnUse">
<stop stop-color="#B3BDD7"/>
<stop offset="1" stop-color="#4B60B4"/>
</linearGradient>
<linearGradient id="paint21_linear" x1="58.5371" y1="73.3497" x2="87.3444" y2="73.3497" gradientUnits="userSpaceOnUse">
<stop stop-color="#BDC7E1"/>
<stop offset="1" stop-color="#556ABE"/>
</linearGradient>
<linearGradient id="paint22_linear" x1="57.8086" y1="73.3194" x2="86.6159" y2="73.3194" gradientUnits="userSpaceOnUse">
<stop stop-color="#C7D1EB"/>
<stop offset="1" stop-color="#5F74C8"/>
</linearGradient>
<linearGradient id="paint23_linear" x1="57.1079" y1="73.3337" x2="85.9152" y2="73.3337" gradientUnits="userSpaceOnUse">
<stop stop-color="#D1DBF5"/>
<stop offset="1" stop-color="#697ED2"/>
</linearGradient>
<linearGradient id="paint24_linear" x1="56.4077" y1="73.3473" x2="85.187" y2="73.3473" gradientUnits="userSpaceOnUse">
<stop stop-color="#DBE5FF"/>
<stop offset="1" stop-color="#7388DC"/>
</linearGradient>
<linearGradient id="paint25_linear" x1="725.21" y1="726.227" x2="1170.02" y2="726.227" gradientUnits="userSpaceOnUse">
<stop stop-color="#004E8B"/>
<stop offset="1" stop-color="#002880"/>
</linearGradient>
<linearGradient id="paint26_linear" x1="1647.47" y1="3564.83" x2="1705.73" y2="3562.37" gradientUnits="userSpaceOnUse">
<stop stop-color="#004E8B"/>
<stop offset="1" stop-color="#001F79"/>
</linearGradient>
<linearGradient id="paint27_linear" x1="1300.26" y1="2056.75" x2="1745.1" y2="2056.75" gradientUnits="userSpaceOnUse">
<stop stop-color="#004E8B"/>
<stop offset="1" stop-color="#002880"/>
</linearGradient>
<linearGradient id="paint28_linear" x1="1136.86" y1="-154230" x2="1432.99" y2="-154230" gradientUnits="userSpaceOnUse">
<stop stop-color="#D77A5A"/>
<stop offset="1" stop-color="#D72348"/>
</linearGradient>
<linearGradient id="paint29_linear" x1="1128.64" y1="-152907" x2="1424.78" y2="-152907" gradientUnits="userSpaceOnUse">
<stop stop-color="#E18464"/>
<stop offset="1" stop-color="#E12D52"/>
</linearGradient>
<linearGradient id="paint30_linear" x1="1120.74" y1="-151584" x2="1416.87" y2="-151584" gradientUnits="userSpaceOnUse">
<stop stop-color="#EB8E6E"/>
<stop offset="1" stop-color="#EB375C"/>
</linearGradient>
<linearGradient id="paint31_linear" x1="1111.85" y1="-150349" x2="1407.41" y2="-150349" gradientUnits="userSpaceOnUse">
<stop stop-color="#F59878"/>
<stop offset="1" stop-color="#F54166"/>
</linearGradient>
<linearGradient id="paint32_linear" x1="1104.62" y1="-149023" x2="1400.75" y2="-149023" gradientUnits="userSpaceOnUse">
<stop stop-color="#FFA282"/>
<stop offset="1" stop-color="#FF4B70"/>
</linearGradient>
<linearGradient id="paint33_linear" x1="1300.26" y1="1932.58" x2="1745.1" y2="1932.58" gradientUnits="userSpaceOnUse">
<stop stop-color="#004E8B"/>
<stop offset="1" stop-color="#002880"/>
</linearGradient>
<linearGradient id="paint34_linear" x1="1645.01" y1="2657.9" x2="1703.18" y2="2655.46" gradientUnits="userSpaceOnUse">
<stop stop-color="#004E8B"/>
<stop offset="1" stop-color="#001F79"/>
</linearGradient>
<linearGradient id="paint35_linear" x1="1300.26" y1="1515.72" x2="1745.1" y2="1515.72" gradientUnits="userSpaceOnUse">
<stop stop-color="#004E8B"/>
<stop offset="1" stop-color="#002880"/>
</linearGradient>
<linearGradient id="paint36_linear" x1="101.522" y1="163.289" x2="130.33" y2="163.289" gradientUnits="userSpaceOnUse">
<stop stop-color="#8CA5CE"/>
<stop offset="1" stop-color="#4D6CA9"/>
</linearGradient>
<linearGradient id="paint37_linear" x1="100.795" y1="163.287" x2="129.602" y2="163.287" gradientUnits="userSpaceOnUse">
<stop stop-color="#96AFD8"/>
<stop offset="1" stop-color="#5776B3"/>
</linearGradient>
<linearGradient id="paint38_linear" x1="100.094" y1="163.272" x2="128.902" y2="163.272" gradientUnits="userSpaceOnUse">
<stop stop-color="#A0B9E2"/>
<stop offset="1" stop-color="#6180BD"/>
</linearGradient>
<linearGradient id="paint39_linear" x1="99.3936" y1="163.287" x2="128.173" y2="163.287" gradientUnits="userSpaceOnUse">
<stop stop-color="#AAC3EC"/>
<stop offset="1" stop-color="#6B8AC7"/>
</linearGradient>
<linearGradient id="paint40_linear" x1="98.665" y1="163.284" x2="127.472" y2="163.284" gradientUnits="userSpaceOnUse">
<stop stop-color="#B4CDF6"/>
<stop offset="1" stop-color="#7594D1"/>
</linearGradient>
<linearGradient id="paint41_linear" x1="1300.26" y1="1417.29" x2="1745.1" y2="1417.29" gradientUnits="userSpaceOnUse">
<stop stop-color="#004E8B"/>
<stop offset="1" stop-color="#002880"/>
</linearGradient>
<linearGradient id="paint42_linear" x1="1645.01" y1="1729.13" x2="1703.18" y2="1726.67" gradientUnits="userSpaceOnUse">
<stop stop-color="#004E8B"/>
<stop offset="1" stop-color="#001F79"/>
</linearGradient>
<linearGradient id="paint43_linear" x1="1300.26" y1="959.957" x2="1745.1" y2="959.957" gradientUnits="userSpaceOnUse">
<stop stop-color="#004E8B"/>
<stop offset="1" stop-color="#002880"/>
</linearGradient>
<linearGradient id="paint44_linear" x1="1136.86" y1="-156901" x2="1432.99" y2="-156901" gradientUnits="userSpaceOnUse">
<stop stop-color="#D77A5A"/>
<stop offset="1" stop-color="#D72348"/>
</linearGradient>
<linearGradient id="paint45_linear" x1="1132.64" y1="-155558" x2="1429.93" y2="-155558" gradientUnits="userSpaceOnUse">
<stop stop-color="#E18464"/>
<stop offset="1" stop-color="#E12D52"/>
</linearGradient>
<linearGradient id="paint46_linear" x1="1120.74" y1="-154216" x2="1416.87" y2="-154216" gradientUnits="userSpaceOnUse">
<stop stop-color="#EB8E6E"/>
<stop offset="1" stop-color="#EB375C"/>
</linearGradient>
<linearGradient id="paint47_linear" x1="1111.85" y1="-152962" x2="1407.41" y2="-152962" gradientUnits="userSpaceOnUse">
<stop stop-color="#F59878"/>
<stop offset="1" stop-color="#F54166"/>
</linearGradient>
<linearGradient id="paint48_linear" x1="1104.62" y1="-151615" x2="1400.75" y2="-151615" gradientUnits="userSpaceOnUse">
<stop stop-color="#FFA282"/>
<stop offset="1" stop-color="#FF4B70"/>
</linearGradient>
<linearGradient id="paint49_linear" x1="1300.26" y1="902.006" x2="1745.1" y2="902.006" gradientUnits="userSpaceOnUse">
<stop stop-color="#004E8B"/>
<stop offset="1" stop-color="#002880"/>
</linearGradient>
<linearGradient id="paint50_linear" x1="3.13664" y1="215.577" x2="22.4442" y2="215.577" gradientUnits="userSpaceOnUse">
<stop stop-color="#7594D1"/>
<stop offset="1" stop-color="#B4CDF6"/>
</linearGradient>
<linearGradient id="paint51_linear" x1="1299.89" y1="1644.34" x2="849.756" y2="1684.15" gradientUnits="userSpaceOnUse">
<stop stop-color="#7594D1"/>
<stop offset="1" stop-color="#B4CDF6"/>
</linearGradient>
<linearGradient id="paint52_linear" x1="499.696" y1="4144.92" x2="688.58" y2="4144.92" gradientUnits="userSpaceOnUse">
<stop stop-color="#FFA282"/>
<stop offset="1" stop-color="#FF4B70"/>
</linearGradient>
<linearGradient id="paint53_linear" x1="8.37656" y1="398.073" x2="35.9228" y2="398.073" gradientUnits="userSpaceOnUse">
<stop stop-color="#1A317B"/>
<stop offset="1" stop-color="#18176E"/>
</linearGradient>
<linearGradient id="paint54_linear" x1="329.053" y1="4263.26" x2="598.245" y2="4263.26" gradientUnits="userSpaceOnUse">
<stop stop-color="#1A317B"/>
<stop offset="1" stop-color="#18176E"/>
</linearGradient>
<linearGradient id="paint55_linear" x1="355.849" y1="7851.21" x2="918.823" y2="10209.7" gradientUnits="userSpaceOnUse">
<stop stop-color="#1A317B"/>
<stop offset="1" stop-color="#18176E"/>
</linearGradient>
<linearGradient id="paint56_linear" x1="1339.83" y1="5355.66" x2="109.813" y2="5401.28" gradientUnits="userSpaceOnUse">
<stop stop-color="#7594D1"/>
<stop offset="1" stop-color="#B4CDF6"/>
</linearGradient>
<linearGradient id="paint57_linear" x1="494.714" y1="3148.97" x2="-156.549" y2="3155.55" gradientUnits="userSpaceOnUse">
<stop stop-color="#7594D1"/>
<stop offset="1" stop-color="#B4CDF6"/>
</linearGradient>
<linearGradient id="paint58_linear" x1="513.395" y1="1728.67" x2="-122.098" y2="1741.51" gradientUnits="userSpaceOnUse">
<stop stop-color="#7594D1"/>
<stop offset="1" stop-color="#B4CDF6"/>
</linearGradient>
<linearGradient id="paint59_linear" x1="294.221" y1="4203.58" x2="294.221" y2="5324.94" gradientUnits="userSpaceOnUse">
<stop stop-color="#004E8B"/>
<stop offset="1" stop-color="#002880"/>
</linearGradient>
</defs>
</svg>
