<svg width="56" height="56" viewBox="0 0 56 56" fill="none" xmlns="http://www.w3.org/2000/svg">
<rect x="55.5" y="55.5" width="55" height="55" rx="4.5" transform="rotate(-180 55.5 55.5)" stroke="url(#paint0_linear)"/>
<path d="M25.9167 29C25.9167 27.8511 26.8511 26.9167 28 26.9167C29.149 26.9167 30.0834 27.8511 30.0834 29C30.0834 30.149 29.149 31.0834 28 31.0834C26.8511 31.0834 25.9167 30.149 25.9167 29ZM26.8834 29C26.8834 29.6159 27.3842 30.1167 28 30.1167C28.6159 30.1167 29.1167 29.6159 29.1167 29C29.1167 28.3842 28.6159 27.8834 28 27.8834C27.3842 27.8834 26.8834 28.3842 26.8834 29Z" fill="url(#paint1_linear)" stroke="#1B2038" stroke-width="0.1"/>
<path d="M29.8909 32.2128L29.9163 32.2558C31.0679 31.5743 31.7835 30.3272 31.7835 29C31.7835 26.9142 30.0865 25.2166 28.0002 25.2166C25.9139 25.2166 24.2169 26.9142 24.2169 29C24.2169 30.3271 24.9325 31.5749 26.0835 32.2558L26.0836 32.2558C26.3136 32.3916 26.3895 32.6879 26.2537 32.9174L26.2536 32.9175C26.1179 33.148 25.8222 33.224 25.5915 33.0876C24.1474 32.233 23.2502 30.6664 23.2502 29C23.2502 26.3806 25.3814 24.25 28.0002 24.25C30.619 24.25 32.7502 26.3806 32.7502 29C32.7502 30.6664 31.853 32.233 30.4083 33.087L30.4081 33.0872C30.3314 33.133 30.2465 33.1548 30.1629 33.1548C29.9974 33.1548 29.8365 33.0701 29.7462 32.918L29.8909 32.2128ZM29.8909 32.2128L29.9163 32.2558C29.6867 32.3916 29.6104 32.6884 29.7461 32.9179L29.8909 32.2128Z" fill="url(#paint2_linear)" stroke="#1B2038" stroke-width="0.1"/>
<path d="M35.4324 42.5719L35.4324 42.5719C35.2966 42.3418 35.3729 42.0456 35.603 41.9097C40.1553 39.2229 42.9833 34.2759 42.9833 29C42.9833 20.7383 36.2617 14.0167 28 14.0167C19.7383 14.0167 13.0167 20.7383 13.0167 29C13.0167 34.2759 15.8447 39.2224 20.3964 41.9097C20.6265 42.0456 20.7029 42.3418 20.5671 42.5719C20.4773 42.724 20.3159 42.8092 20.1504 42.8092C20.067 42.8092 19.9829 42.7875 19.9054 42.742C15.0604 39.8822 12.05 34.6159 12.05 29C12.05 20.2052 19.2052 13.05 28 13.05C36.7948 13.05 43.95 20.2052 43.95 29C43.95 34.6158 40.9397 39.8821 36.0947 42.7425C35.8638 42.8774 35.5676 42.8013 35.4324 42.5719Z" fill="url(#paint3_linear)" stroke="#1B2038" stroke-width="0.1"/>
<path d="M21.8021 39.5219L21.802 39.5218C18.0897 37.327 15.7834 33.2954 15.7834 29.0001C15.7834 22.2634 21.2639 16.7834 28.0001 16.7834C34.7362 16.7834 40.2167 22.2634 40.2167 29.0001C40.2167 33.2948 37.9104 37.327 34.1981 39.5218L34.198 39.5219C33.9686 39.6581 33.6723 39.5819 33.5359 39.3516C33.4001 39.122 33.476 38.8253 33.7059 38.6901L33.706 38.69C37.126 36.6678 39.2501 32.9554 39.2501 29.0001C39.2501 22.797 34.2037 17.7501 28.0001 17.7501C21.7964 17.7501 16.7501 22.797 16.7501 29.0001C16.7501 32.9554 18.8742 36.6678 22.2941 38.6906L22.2942 38.6906C22.5241 38.8258 22.6001 39.122 22.4643 39.3521C22.3739 39.5044 22.2129 39.5895 22.0475 39.5895C21.964 39.5895 21.8795 39.5678 21.8021 39.5219Z" fill="url(#paint4_linear)" stroke="#1B2038" stroke-width="0.1"/>
<path d="M23.6992 36.3006L23.6992 36.3006C21.1191 34.7751 19.5168 31.977 19.5168 29.0001C19.5168 24.3227 23.3227 20.5168 28.0001 20.5168C32.6776 20.5168 36.4835 24.3227 36.4835 29.0001C36.4835 31.977 34.8812 34.774 32.3005 36.3L32.3005 36.3001C32.2231 36.346 32.1386 36.3677 32.0551 36.3677C31.8896 36.3677 31.7287 36.2831 31.6384 36.1304L31.6383 36.1304C31.5026 35.9014 31.5789 35.6046 31.8085 35.4688C34.0961 34.1159 35.5168 31.6372 35.5168 29.0001C35.5168 24.8552 32.1451 21.4835 28.0001 21.4835C23.8552 21.4835 20.4835 24.8552 20.4835 29.0001C20.4835 31.6377 21.9041 34.1159 24.1912 35.4688L24.1912 35.4688C24.4213 35.6046 24.4972 35.9008 24.3614 36.1304L24.3613 36.1304C24.2255 36.3606 23.9303 36.4374 23.6992 36.3006Z" fill="url(#paint5_linear)" stroke="#1B2038" stroke-width="0.1"/>
<defs>
<linearGradient id="paint0_linear" x1="56" y1="84" x2="112" y2="84" gradientUnits="userSpaceOnUse">
<stop offset="0.0520833" stop-color="#FF8C3E" stop-opacity="0"/>
<stop offset="1" stop-color="#FF5968"/>
</linearGradient>
<linearGradient id="paint1_linear" x1="25.8667" y1="29" x2="30.1334" y2="29" gradientUnits="userSpaceOnUse">
<stop stop-color="#FF8D3D"/>
<stop offset="1" stop-color="#FF5969"/>
</linearGradient>
<linearGradient id="paint2_linear" x1="23.2002" y1="28.7026" x2="32.8002" y2="28.7026" gradientUnits="userSpaceOnUse">
<stop stop-color="#FF8D3D"/>
<stop offset="1" stop-color="#FF5969"/>
</linearGradient>
<linearGradient id="paint3_linear" x1="12" y1="27.9296" x2="44" y2="27.9296" gradientUnits="userSpaceOnUse">
<stop stop-color="#FF8D3D"/>
<stop offset="1" stop-color="#FF5969"/>
</linearGradient>
<linearGradient id="paint4_linear" x1="15.7334" y1="28.1865" x2="40.2667" y2="28.1865" gradientUnits="userSpaceOnUse">
<stop stop-color="#FF8D3D"/>
<stop offset="1" stop-color="#FF5969"/>
</linearGradient>
<linearGradient id="paint5_linear" x1="19.4668" y1="28.4426" x2="36.5335" y2="28.4426" gradientUnits="userSpaceOnUse">
<stop stop-color="#FF8D3D"/>
<stop offset="1" stop-color="#FF5969"/>
</linearGradient>
</defs>
</svg>
