<svg width="283" height="423" viewBox="0 0 283 423" fill="none" xmlns="http://www.w3.org/2000/svg">
<path d="M191.083 250.4C193.441 250.34 195.773 250.896 197.85 252.014L275.52 297.425C279.242 299.586 279.216 303.128 275.52 305.237L98.0043 407.854C95.9112 408.954 93.5749 409.509 91.2108 409.468C88.8546 409.513 86.5258 408.957 84.4433 407.854L6.74755 362.469C3.02544 360.308 3.05147 356.767 6.74755 354.658L184.237 252.066C186.326 250.954 188.666 250.398 191.031 250.452L191.083 250.4ZM191.083 246.546C188.049 246.494 185.054 247.229 182.389 248.681L4.87348 351.299C3.43328 351.883 2.20017 352.884 1.33197 354.174C0.463778 355.463 0 356.982 0 358.537C0 360.092 0.463778 361.611 1.33197 362.901C2.20017 364.19 3.43328 365.191 4.87348 365.776L82.5432 411.213C85.2264 412.616 88.2091 413.349 91.2368 413.349C94.2645 413.349 97.2472 412.616 99.9304 411.213L277.472 308.596C278.913 308.011 280.146 307.01 281.014 305.721C281.882 304.431 282.346 302.912 282.346 301.357C282.346 299.802 281.882 298.283 281.014 296.993C280.146 295.704 278.913 294.703 277.472 294.118L199.777 248.707C197.114 247.247 194.119 246.503 191.083 246.546Z" fill="#7FAAEF"/>
<path d="M6.74601 349.996L84.4157 395.407C86.5171 396.473 88.8401 397.028 91.1962 397.028C93.5523 397.028 95.8753 396.473 97.9767 395.407L275.493 292.815C276.27 292.464 276.939 291.912 277.433 291.217C277.927 290.521 278.227 289.707 278.304 288.857L278.564 301.33C278.488 302.179 278.187 302.994 277.693 303.689C277.199 304.384 276.53 304.936 275.753 305.288L98.237 407.905C96.1356 408.971 93.8126 409.527 91.4565 409.527C89.1004 409.527 86.7774 408.971 84.676 407.905L7.0063 362.468C6.23826 362.125 5.57678 361.581 5.09131 360.894C4.60584 360.206 4.31428 359.401 4.24725 358.562L3.96094 346.09C4.03839 346.929 4.33698 347.733 4.82626 348.419C5.31553 349.105 5.97797 349.649 6.74601 349.996Z" fill="url(#paint0_linear)"/>
<path d="M6.79743 342.133C3.0493 344.294 3.02327 347.835 6.79743 349.944L84.4672 395.355C86.5686 396.421 88.8915 396.977 91.2476 396.977C93.6038 396.977 95.9267 396.421 98.0281 395.355L275.544 292.764C279.266 290.603 279.292 287.061 275.544 284.952L197.952 239.541C195.851 238.475 193.528 237.92 191.172 237.92C188.816 237.92 186.493 238.475 184.391 239.541L6.79743 342.133Z" fill="url(#paint1_linear)"/>
<path d="M82.8556 62.2462L187.543 1.75896C188.852 0.796816 190.396 0.204555 192.012 0.044218C193.629 -0.116119 195.259 0.16137 196.731 0.847615L205.867 6.0553C204.398 5.37406 202.773 5.09927 201.162 5.25956C199.551 5.41984 198.012 6.00933 196.705 6.96664L91.9917 67.532C88.252 69.9642 85.1401 73.2465 82.91 77.111C80.6799 80.9755 79.3948 85.3127 79.1595 89.7688L79.8883 345.284C79.7226 346.869 79.9826 348.469 80.6414 349.92C81.3003 351.371 82.3342 352.62 83.6365 353.538L74.5004 348.33C73.1981 347.412 72.1642 346.163 71.5053 344.712C70.8465 343.262 70.5865 341.661 70.7522 340.076L70.0234 84.5611C70.2404 80.0901 71.5171 75.7349 73.7483 71.8549C75.9795 67.9749 79.1012 64.6814 82.8556 62.2462Z" fill="#F4F8FF"/>
<path d="M91.9913 67.5318C88.2516 69.9641 85.1398 73.2463 82.9097 77.1109C80.6796 80.9754 79.3945 85.3126 79.1592 89.7686L79.888 345.284C79.888 353.46 85.6924 356.74 92.9023 352.652L197.616 292.165C201.356 289.733 204.468 286.451 206.698 282.586C208.928 278.722 210.213 274.384 210.448 269.928L209.615 14.4135C209.615 6.26348 203.811 2.9566 196.601 7.07067L91.9913 67.5318Z" fill="url(#paint2_linear)"/>
<path d="M92.1987 291.436L197.173 230.793V25.5579L92.1987 86.2013V291.436Z" fill="url(#paint3_linear)"/>
<path d="M193.45 228.631V27.719L197.173 25.5579V230.793L92.1987 291.436V287.114L193.45 228.631Z" fill="url(#paint4_linear)"/>
<path d="M129.759 241.052L122.289 245.375V254.67L129.759 250.348V241.052Z" fill="#0065AA"/>
<path d="M146.729 231.261L139.259 235.558V244.853L146.729 240.557V231.261Z" fill="#007CC1"/>
<path d="M180.672 211.628L173.228 215.951V225.247L180.672 220.95V211.628Z" fill="#004B82"/>
<path d="M163.699 205.509L156.229 209.805V219.127L163.699 214.805V205.509Z" fill="#007CC1"/>
<path d="M180.672 195.693L173.228 200.016V209.311L180.672 204.989V195.693Z" fill="#007CC1"/>
<path d="M129.759 209.181L122.289 213.503V222.799L129.759 218.476V209.181Z" fill="#004B82"/>
<path d="M146.729 199.364L139.259 203.687V212.982L146.729 208.66V199.364Z" fill="#0065AA"/>
<path d="M129.759 193.245L122.289 197.541V206.863L129.759 202.541V193.245Z" fill="url(#paint5_linear)"/>
<path d="M146.729 183.428L139.259 187.751V197.047L146.729 192.724V183.428Z" fill="#0062A7"/>
<path d="M163.699 173.639L156.229 177.935V187.231L163.699 182.934V173.639Z" fill="#005FA4"/>
<path d="M180.672 163.822L173.228 168.144V177.44L180.672 173.118V163.822Z" fill="url(#paint6_linear)"/>
<path d="M129.759 177.31L122.289 181.606V190.902L129.759 186.606V177.31Z" fill="#007CC1"/>
<path d="M163.699 157.677L156.229 162V171.295L163.699 166.999V157.677Z" fill="#006299"/>
<path d="M180.672 147.886L173.228 152.183V161.504L180.672 157.182V147.886Z" fill="#0065AA"/>
<path d="M129.759 161.375L122.289 165.671V174.967L129.759 170.67V161.375Z" fill="#0062A7"/>
<path d="M146.729 151.558L139.259 155.88V165.176L146.729 160.854V151.558Z" fill="url(#paint7_linear)"/>
<path d="M180.672 131.951L173.228 136.247V145.569L180.672 141.246V131.951Z" fill="#005FA4"/>
<path d="M129.759 145.413L122.289 149.735V159.031L129.759 154.735V145.413Z" fill="#007CC1"/>
<path d="M146.729 135.622L139.259 139.919V149.24L146.729 144.918V135.622Z" fill="#00488D"/>
<path d="M163.699 125.806L156.229 130.128V139.424L163.699 135.101V125.806Z" fill="#007CC1"/>
<path d="M180.672 116.016L173.228 120.312V129.608L180.672 125.311V116.016Z" fill="#004B90"/>
<path d="M129.759 129.478L122.289 133.8V143.096L129.759 138.773V129.478Z" fill="#007CC1"/>
<path d="M146.729 119.687L139.259 123.983V133.279L146.729 128.982V119.687Z" fill="#004B90"/>
<path d="M163.699 109.87L156.229 114.192V123.488L163.699 119.166V109.87Z" fill="#007CC1"/>
<path d="M129.759 113.542L122.289 117.864V127.16L129.759 122.837V113.542Z" fill="#00488D"/>
<path d="M146.729 103.752L139.259 108.048V117.344L146.729 113.047V103.752Z" fill="url(#paint8_linear)"/>
<path d="M180.672 84.1187L173.228 88.441V97.7367L180.672 93.4144V84.1187Z" fill="url(#paint9_linear)"/>
<path d="M163.699 77.9995L156.229 82.2959V91.6176L163.699 87.2952V77.9995Z" fill="#005FA4"/>
<path d="M180.672 68.1831L173.228 72.5055V81.8012L180.672 77.4788V68.1831Z" fill="#004B90"/>
<path d="M129.759 81.6711L122.289 85.9675V95.2892L129.759 90.9669V81.6711Z" fill="#007CC1"/>
<path d="M146.729 71.8545L139.259 76.1769V85.4726L146.729 81.1502V71.8545Z" fill="#0062A7"/>
<path d="M163.699 62.0637L156.229 66.3601V75.6558L163.699 71.3594V62.0637Z" fill="#0062A7"/>
<path d="M180.672 52.2473L173.228 56.5697V65.8654L180.672 61.543V52.2473Z" fill="#005FA4"/>
<path d="M115.001 233.162L107.557 237.458V246.754L115.001 242.458V233.162Z" fill="url(#paint10_linear)"/>
<path d="M115.001 217.226L107.557 221.523V230.818L115.001 226.522V217.226Z" fill="#006299"/>
<path d="M115.001 201.265L107.557 205.588V214.883L115.001 210.587V201.265Z" fill="#007CC1"/>
<path d="M115.001 169.395L107.557 173.717V183.013L115.001 178.69V169.395Z" fill="#005FA4"/>
<path d="M115.001 153.459L107.557 157.781V167.077L115.001 162.754V153.459Z" fill="#0062A7"/>
<path d="M115.001 105.652L107.557 109.949V119.244L115.001 114.948V105.652Z" fill="#004B90"/>
<path d="M115.001 89.6904L107.557 94.0128V103.309L115.001 99.0122V89.6904Z" fill="#00488D"/>
<path d="M210.787 410.249C212.031 411.184 213.025 412.413 213.679 413.826C214.333 415.239 214.627 416.793 214.535 418.347C214.507 419.101 214.298 419.837 213.925 420.493C213.552 421.148 213.026 421.704 212.393 422.113C211.759 422.522 211.036 422.772 210.285 422.842C209.534 422.911 208.778 422.799 208.08 422.513C205.897 421.092 203.441 420.143 200.87 419.727C197.59 419.727 190.458 420.04 187.673 417.566C184.888 415.092 182.207 410.301 185.07 408.635C187.933 406.968 196.887 406.031 202.431 407.02C205.426 407.446 208.284 408.551 210.787 410.249Z" fill="#18176E"/>
<path d="M258.574 398.636C259.819 399.571 260.813 400.8 261.467 402.213C262.121 403.626 262.415 405.18 262.322 406.734C262.295 407.488 262.085 408.224 261.713 408.88C261.34 409.535 260.814 410.091 260.18 410.5C259.547 410.909 258.824 411.159 258.073 411.229C257.322 411.299 256.565 411.186 255.867 410.9C253.684 409.479 251.228 408.53 248.657 408.114C245.378 407.984 238.246 408.427 235.461 405.953C232.676 403.479 229.995 398.688 232.858 397.022C235.721 395.355 244.675 394.418 250.219 395.407C253.212 395.84 256.068 396.944 258.574 398.636Z" fill="#18176E"/>
<path d="M241.838 291.358C240.361 294.289 238.618 297.078 236.632 299.69C234.914 301.383 232.597 308.361 235.825 309.246C239.053 310.132 244.102 314.454 246.237 309.637C248.371 304.82 249.1 292.582 249.1 292.582L241.838 291.358Z" fill="#DBE5FF"/>
<path d="M238.22 296.41L248.631 301.617C248.631 301.617 267.788 268.054 264.457 260.424C261.125 252.795 259.251 254.852 255.243 258.81C251.234 262.768 238.22 296.41 238.22 296.41Z" fill="url(#paint11_linear)"/>
<path d="M245.873 216.55C238.455 216.55 232.416 222.591 240.667 239.334C248.918 256.076 251.079 261.857 254.358 264.877C257.638 267.898 266.67 269.174 264.614 261.701C262.557 254.228 252.77 216.472 245.873 216.55Z" fill="url(#paint12_linear)"/>
<path d="M253.579 290.212L254.906 351.507L258.42 401.709C258.42 401.709 250.612 407.75 248.425 401.709C246.239 395.668 239.159 353.642 239.159 353.642L229.034 312.553L215.108 351.507L210.059 410.796C210.059 410.796 202.771 415.639 200.663 410.796C199.595 408.323 199.231 351.637 199.231 351.637L206.311 295.654L253.579 290.212Z" fill="url(#paint13_linear)"/>
<path d="M211.463 227.46L237.83 213.815C237.83 213.815 250.636 212.227 251.886 227.173C252.823 238.552 250.636 249.983 250.324 264.929C250.552 273.445 251.642 281.916 253.578 290.212C253.578 290.212 237.518 301.435 227.809 302.346C218.101 303.257 206.31 295.68 206.31 295.68C206.31 295.68 204.488 245.061 204.488 239.593C204.426 237.125 205.045 234.688 206.275 232.548C207.505 230.408 209.3 228.648 211.463 227.46Z" fill="url(#paint14_linear)"/>
<path d="M211.098 188.376C211.098 188.376 205.189 206.863 213.076 214.128C220.963 221.393 233.222 211.264 234.289 207.905C235.357 204.546 240.042 185.486 230.645 182.908C221.249 180.33 211.098 188.376 211.098 188.376Z" fill="#ED90A5"/>
<path d="M164.481 226.522C164.481 226.522 168.567 221.315 167.968 219.83C167.37 218.346 164.663 220.742 164.663 220.742C164.826 218.416 164.462 216.084 163.596 213.92C162.216 211.472 155.553 210.04 154.928 213.399C154.303 216.758 155.318 223.814 157.973 226.158C158.922 226.806 160.029 227.183 161.176 227.247C162.323 227.312 163.466 227.061 164.481 226.522Z" fill="#ED90A5"/>
<path d="M167.033 224.075L156.96 226.028C156.96 226.028 170.521 256.467 178.72 257.769C186.919 259.071 186.242 256.363 185.071 250.869C183.9 245.375 167.033 224.075 167.033 224.075Z" fill="url(#paint15_linear)"/>
<path d="M219.194 235.896C217.632 228.736 211.385 223.398 198.943 232.668C186.502 241.937 182.051 244.489 180.177 247.978C178.303 251.467 178.979 260.216 184.862 257.612C190.744 255.008 220.625 242.562 219.194 235.896Z" fill="url(#paint16_linear)"/>
<path d="M236.139 216.627C234.59 219.211 232.173 221.159 229.319 222.121C226.737 222.588 224.092 222.588 221.511 222.121L220.105 209.962L233.38 204.207L236.139 216.627Z" fill="#ED90A5"/>
<path d="M209.381 182.414C209.381 182.414 204.175 188.585 213.181 193.063L216.2 194.652C216.2 194.652 219.22 206.89 224.764 210.275C230.308 213.66 232.989 215.717 235.644 213.946C238.299 212.176 240.667 204.911 241.969 201.526C243.27 198.141 244.129 189.392 240.798 184.315C236.217 177.336 214.092 176.763 209.381 182.414Z" fill="url(#paint17_linear)"/>
<path d="M216.332 201.344C216.332 201.344 216.722 195.407 219.95 196.813C223.177 198.219 224.635 201.682 218.154 206.135C211.672 210.587 216.332 201.344 216.332 201.344Z" fill="#ED90A5"/>
<defs>
<linearGradient id="paint0_linear" x1="75.9824" y1="349.188" x2="97.4822" y2="349.188" gradientUnits="userSpaceOnUse">
<stop stop-color="#F5F8FF"/>
<stop offset="0.3" stop-color="#F2F6FE"/>
<stop offset="0.51" stop-color="#E9F0FC"/>
<stop offset="0.69" stop-color="#DAE6F9"/>
<stop offset="0.86" stop-color="#C4D8F4"/>
<stop offset="1" stop-color="#ABC7EF"/>
</linearGradient>
<linearGradient id="paint1_linear" x1="7.70844" y1="352.496" x2="273.032" y2="282.918" gradientUnits="userSpaceOnUse">
<stop stop-color="#D0E5FA"/>
<stop offset="0.39" stop-color="#CDE2F9"/>
<stop offset="0.67" stop-color="#C4DAF6"/>
<stop offset="0.9" stop-color="#B5CDF1"/>
<stop offset="1" stop-color="#ACC5EE"/>
</linearGradient>
<linearGradient id="paint2_linear" x1="10026.9" y1="-4459.81" x2="-6849.62" y2="21248.1" gradientUnits="userSpaceOnUse">
<stop stop-color="#D0E5FA"/>
<stop offset="0.39" stop-color="#CDE2F9"/>
<stop offset="0.67" stop-color="#C4DAF6"/>
<stop offset="0.9" stop-color="#B5CDF1"/>
<stop offset="1" stop-color="#ACC5EE"/>
</linearGradient>
<linearGradient id="paint3_linear" x1="194.023" y1="40.556" x2="93.2542" y2="281.306" gradientUnits="userSpaceOnUse">
<stop stop-color="#004E8B"/>
<stop offset="1" stop-color="#002880"/>
</linearGradient>
<linearGradient id="paint4_linear" x1="226.689" y1="54.2261" x2="125.946" y2="294.977" gradientUnits="userSpaceOnUse">
<stop stop-color="#1A317B"/>
<stop offset="1" stop-color="#18176E"/>
</linearGradient>
<linearGradient id="paint5_linear" x1="129.759" y1="200.041" x2="122.289" y2="200.041" gradientUnits="userSpaceOnUse">
<stop stop-color="#FFA282"/>
<stop offset="1" stop-color="#FF4B70"/>
</linearGradient>
<linearGradient id="paint6_linear" x1="-81922.3" y1="1056.22" x2="-81901" y2="1056.22" gradientUnits="userSpaceOnUse">
<stop stop-color="#FFA282"/>
<stop offset="1" stop-color="#FF4B70"/>
</linearGradient>
<linearGradient id="paint7_linear" x1="-82146" y1="979.809" x2="-82124.6" y2="979.809" gradientUnits="userSpaceOnUse">
<stop stop-color="#FFA282"/>
<stop offset="1" stop-color="#FF4B70"/>
</linearGradient>
<linearGradient id="paint8_linear" x1="-82146" y1="680.87" x2="-82124.6" y2="680.87" gradientUnits="userSpaceOnUse">
<stop stop-color="#FFA282"/>
<stop offset="1" stop-color="#FF4B70"/>
</linearGradient>
<linearGradient id="paint9_linear" x1="-81922.3" y1="559.798" x2="-81901" y2="559.798" gradientUnits="userSpaceOnUse">
<stop stop-color="#FFA282"/>
<stop offset="1" stop-color="#FF4B70"/>
</linearGradient>
<linearGradient id="paint10_linear" x1="-81800.2" y1="1485.8" x2="-81778.8" y2="1485.8" gradientUnits="userSpaceOnUse">
<stop stop-color="#FFA282"/>
<stop offset="1" stop-color="#FF4B70"/>
</linearGradient>
<linearGradient id="paint11_linear" x1="286072" y1="5213.9" x2="286216" y2="5213.14" gradientUnits="userSpaceOnUse">
<stop stop-color="#FFA282"/>
<stop offset="1" stop-color="#FF4B70"/>
</linearGradient>
<linearGradient id="paint12_linear" x1="304995" y1="4928.25" x2="305147" y2="4927.31" gradientUnits="userSpaceOnUse">
<stop stop-color="#FFA282"/>
<stop offset="1" stop-color="#FF4B70"/>
</linearGradient>
<linearGradient id="paint13_linear" x1="673304" y1="19988.2" x2="674128" y2="14718.1" gradientUnits="userSpaceOnUse">
<stop stop-color="#1A317B"/>
<stop offset="1" stop-color="#18176E"/>
</linearGradient>
<linearGradient id="paint14_linear" x1="-350601" y1="9128.07" x2="-349887" y2="9048.43" gradientUnits="userSpaceOnUse">
<stop stop-color="#FFA282"/>
<stop offset="1" stop-color="#FF4B70"/>
</linearGradient>
<linearGradient id="paint15_linear" x1="306819" y1="374319" x2="306698" y2="374429" gradientUnits="userSpaceOnUse">
<stop stop-color="#FFA282"/>
<stop offset="1" stop-color="#FF4B70"/>
</linearGradient>
<linearGradient id="paint16_linear" x1="459791" y1="257143" x2="459826" y2="257346" gradientUnits="userSpaceOnUse">
<stop stop-color="#FFA282"/>
<stop offset="1" stop-color="#FF4B70"/>
</linearGradient>
<linearGradient id="paint17_linear" x1="388560" y1="2897.9" x2="388131" y2="2897.9" gradientUnits="userSpaceOnUse">
<stop stop-color="#1A317B"/>
<stop offset="1" stop-color="#18176E"/>
</linearGradient>
</defs>
</svg>
