<svg width="56" height="56" viewBox="0 0 56 56" fill="none" xmlns="http://www.w3.org/2000/svg">
<rect x="0.5" y="55.5" width="55" height="55" rx="4.5" transform="rotate(-90 0.5 55.5)" stroke="url(#paint0_linear)"/>
<path d="M28 12C19.1776 12 12 19.1776 12 28C12 36.8224 19.1776 44 28 44C36.8224 44 44 36.8224 44 28C44 19.1776 36.8224 12 28 12ZM28 42.9333C19.7659 42.9333 13.0667 36.2341 13.0667 28C13.0667 19.7659 19.7659 13.0667 28 13.0667C36.2341 13.0667 42.9333 19.7659 42.9333 28C42.9333 36.2341 36.2341 42.9333 28 42.9333Z" fill="url(#paint1_linear)"/>
<path d="M28.0003 15.2002C27.7059 15.2002 27.4669 15.4386 27.4669 15.7335V28.0002H19.4669C19.1725 28.0002 18.9336 28.2386 18.9336 28.5335C18.9336 28.8285 19.1725 29.0669 19.4669 29.0669H28.0003C28.2947 29.0669 28.5336 28.8285 28.5336 28.5335V15.7335C28.5336 15.4386 28.2947 15.2002 28.0003 15.2002Z" fill="url(#paint2_linear)"/>
<defs>
<linearGradient id="paint0_linear" x1="4.17233e-07" y1="84" x2="56" y2="84" gradientUnits="userSpaceOnUse">
<stop offset="0.0520833" stop-color="#FF8C3E" stop-opacity="0"/>
<stop offset="1" stop-color="#FF5968"/>
</linearGradient>
<linearGradient id="paint1_linear" x1="12" y1="28" x2="44" y2="28" gradientUnits="userSpaceOnUse">
<stop stop-color="#FF8D3D"/>
<stop offset="1" stop-color="#FF5969"/>
</linearGradient>
<linearGradient id="paint2_linear" x1="18.9336" y1="22.1335" x2="28.5336" y2="22.1335" gradientUnits="userSpaceOnUse">
<stop stop-color="#FF8D3D"/>
<stop offset="1" stop-color="#FF5969"/>
</linearGradient>
</defs>
</svg>
